<svg width="197" height="28" viewBox="0 0 197 28" fill="none" xmlns="http://www.w3.org/2000/svg">
    <g clip-path="url(#clip0_10080_746)">
        <path d="M77.2742 4C77.1059 4 76.9547 4.10305 76.8933 4.25972L69.7505 22.4615C69.6452 22.7299 69.8431 23.0202 70.1314 23.0202H74.4577C74.6319 23.0202 74.787 22.9099 74.8442 22.7454L79.3814 9.70052C79.4027 9.63946 79.489 9.63946 79.5103 9.70052L84.0474 22.7454C84.1047 22.9099 84.2598 23.0202 84.4339 23.0202H88.7603C89.0486 23.0202 89.2465 22.7299 89.1412 22.4615L81.9984 4.25972C81.9369 4.10305 81.7858 4 81.6175 4H77.2742Z" fill="#FD4444"/>
        <rect y="4.40921" width="13.4357" height="3.95569" rx="0.409209" fill="white"/>
        <path d="M123.118 23.3612C123.287 23.3612 123.438 23.2582 123.499 23.1015L130.642 4.8997C130.747 4.63127 130.55 4.341 130.261 4.341H125.932C125.759 4.341 125.605 4.44972 125.547 4.61259L121.02 17.2903C120.998 17.3506 120.913 17.3507 120.891 17.2904L116.347 4.61214C116.288 4.4495 116.134 4.341 115.962 4.341H111.632C111.344 4.341 111.146 4.63127 111.251 4.8997L118.394 23.1015C118.456 23.2582 118.607 23.3612 118.775 23.3612H123.118Z" fill="white"/>
        <rect x="16.2324" y="23.301" width="18.8918" height="4.4331" rx="0.409209" transform="rotate(-90 16.2324 23.301)" fill="white"/>
        <rect x="133.538" y="23.301" width="18.8918" height="4.4331" rx="0.409209" transform="rotate(-90 133.538 23.301)" fill="white"/>
        <path d="M156.285 7.23635L154.24 9.94378C154.093 10.1384 153.81 10.1613 153.625 10.0021C151.859 8.47959 150.073 8.05797 148.406 8.05797C145.981 8.05797 145.743 9.7428 147.076 10.3086C148.202 10.786 149.941 11.0247 152.669 11.9796C155.226 12.8747 156.863 14.844 156.556 17.9813C156.249 21.1186 154.442 23.2669 149.293 23.5738C145.334 23.8098 142.262 21.6882 141.014 20.3669C140.885 20.2306 140.879 20.0231 140.988 19.871L142.901 17.2213C143.05 17.0136 143.352 16.9939 143.537 17.1705C145.528 19.0669 147.715 19.584 149.293 19.584C150.964 19.584 152.021 18.7997 152.021 17.9813C152.021 17.1629 150.759 16.6855 149.668 16.4127C148.577 16.1399 146.803 16.0034 143.973 14.503C141.143 13.0026 141.347 9.42201 142.063 7.71697C142.78 6.01193 144.723 3.99999 149.361 4.10229C152.771 4.17751 155.233 5.75652 156.253 6.72634C156.395 6.86146 156.403 7.07984 156.285 7.23635Z" fill="white"/>
        <path d="M44.9444 4.40921C44.7184 4.40921 44.5352 4.59242 44.5352 4.81842V7.95569C44.5352 8.18169 44.7184 8.3649 44.9444 8.3649H49.4457C49.6717 8.3649 49.8549 8.54811 49.8549 8.77411V22.8918C49.8549 23.1178 50.0381 23.301 50.2641 23.301H53.8788C54.1047 23.301 54.288 23.1178 54.288 22.8918V8.77411C54.288 8.54811 54.4712 8.3649 54.6972 8.3649H59.1985C59.4245 8.3649 59.6077 8.18169 59.6077 7.95569V4.81842C59.6077 4.59242 59.4245 4.40921 59.1985 4.40921H44.9444Z" fill="white"/>
        <path d="M0.409209 11.9796C0.183225 11.9796 0 12.1628 0 12.3888V22.96C0 23.186 0.183225 23.3692 0.409209 23.3692H4.09209C4.31807 23.3692 4.5013 23.186 4.5013 22.96V16.2081C4.5013 16.0574 4.62344 15.9353 4.7741 15.9353H13.0265C13.2525 15.9353 13.4357 15.7521 13.4357 15.5261V12.3888C13.4357 12.1628 13.2525 11.9796 13.0265 11.9796H0.409209Z" fill="white"/>
        <path d="M37.3753 16.9569C37.4997 16.7889 37.7255 16.7244 37.9128 16.8172L41.2819 18.4859C41.4935 18.5907 41.5733 18.8528 41.4466 19.0519C39.7157 21.7704 36.6753 23.5738 33.2138 23.5738C27.8274 23.5738 23.4609 19.2074 23.4609 13.821C23.4609 8.43469 27.8274 4.06821 33.2138 4.06821C36.7062 4.06821 39.7699 5.90393 41.4926 8.6631C41.6168 8.86213 41.5364 9.12194 41.3262 9.22612L37.9262 10.911C37.7383 11.0042 37.5117 10.939 37.3876 10.7699C36.438 9.47696 34.9069 8.63771 33.1796 8.63771C30.2981 8.63771 27.9622 10.9736 27.9622 13.8551C27.9622 16.7366 30.2981 19.0725 33.1796 19.0725C34.8994 19.0725 36.4248 18.2404 37.3753 16.9569Z" fill="white"/>
        <path fill-rule="evenodd" clip-rule="evenodd" d="M92.0723 22.8918C92.0723 23.1178 92.2555 23.301 92.4815 23.301H100.018C100.029 23.301 100.04 23.3011 100.052 23.301C101.281 23.2966 102.497 23.0523 103.633 22.582C104.779 22.1073 105.82 21.4115 106.697 20.5344C107.574 19.6572 108.27 18.6159 108.745 17.4699C109.219 16.3239 109.464 15.0956 109.464 13.8551C109.464 12.6146 109.219 11.3863 108.745 10.2403C108.27 9.09428 107.574 8.05297 106.697 7.17584C105.82 6.2987 104.779 5.60292 103.633 5.12822C102.497 4.65787 101.281 4.41364 100.052 4.4092C100.04 4.40916 100.029 4.4092 100.018 4.4092H92.4815C92.2555 4.4092 92.0723 4.59241 92.0723 4.81841V22.8918ZM100.018 8.8423H96.7782C96.6275 8.8423 96.5054 8.96443 96.5054 9.1151V18.5951C96.5054 18.7458 96.6275 18.8679 96.7782 18.8679H100.018V18.8656C100.676 18.8656 101.327 18.736 101.935 18.4842C102.543 18.2324 103.095 17.8633 103.561 17.3981C104.026 16.9328 104.395 16.3804 104.647 15.7725C104.899 15.1646 105.028 14.5131 105.028 13.8551C105.028 13.1971 104.899 12.5456 104.647 11.9377C104.395 11.3298 104.026 10.7774 103.561 10.3121C103.095 9.84687 102.543 9.4778 101.935 9.226C101.327 8.9742 100.676 8.8446 100.018 8.8446V8.8423Z" fill="white"/>
        <path fill-rule="evenodd" clip-rule="evenodd" d="M169.038 23.8467C174.443 23.8467 178.825 19.4038 178.825 13.9233C178.825 8.44285 174.443 4.00003 169.038 4.00003C163.633 4.00003 159.251 8.44285 159.251 13.9233C159.251 19.4038 163.633 23.8467 169.038 23.8467ZM169.14 19.0726C172.041 19.0726 174.392 16.7214 174.392 13.821C174.392 10.9207 172.041 8.56953 169.14 8.56953C166.24 8.56953 163.889 10.9207 163.889 13.821C163.889 16.7214 166.24 19.0726 169.14 19.0726Z" fill="white"/>
        <path d="M181.484 4.81842C181.484 4.59242 181.668 4.40921 181.894 4.40921H191.169V4.41359C192.646 4.46787 194.041 5.02789 195.091 6.11425C196.197 7.25898 196.83 8.89435 196.83 10.5132C196.83 12.1321 196.208 13.6847 195.102 14.8294C194.501 15.4506 193.686 15.8264 192.894 16.1174C192.813 16.1471 192.779 16.2428 192.823 16.3167L196.63 22.6818C196.793 22.9545 196.596 23.301 196.279 23.301H191.924C191.774 23.301 191.636 23.2191 191.564 23.0876L188.456 17.3822C188.336 17.1629 188.107 17.0265 187.857 17.0265H186.872C186.496 17.0265 186.19 17.3318 186.19 17.7085V22.8236C186.19 23.0496 186.007 23.2328 185.781 23.2328H181.894C181.668 23.2328 181.484 23.0496 181.484 22.8236V12.8662C181.484 12.6402 181.666 12.457 181.892 12.457C183.654 12.457 190.534 12.457 190.623 12.457C190.726 12.457 190.93 12.3888 190.93 12.3888C191.408 12.1842 191.651 11.9936 191.919 11.5704C192.151 11.2059 192.255 10.9449 192.26 10.5132C192.266 10.0395 192.148 9.74797 191.885 9.35382C191.617 8.95235 191.203 8.7059 190.93 8.5695C190.657 8.4331 190.351 8.3649 189.703 8.3649C189.145 8.3649 183.468 8.3649 181.89 8.3649C181.664 8.3649 181.484 8.18169 181.484 7.95569V4.81842Z" fill="white"/>
        <g clip-path="url(#clip1_10080_746)">
            <path d="M66.2029 13.0965C66.4722 12.3796 67.2786 11.6596 67.8294 11.1899C68.5198 10.6048 69.2646 10.0888 70.0532 9.64913C71.8059 8.66225 73.6943 8.06665 75.5431 7.70156C77.4423 7.32715 79.5635 6.84232 81.4027 7.11312C81.7073 7.15894 81.9824 7.23536 82.1587 7.35107C82.1847 7.38427 82.207 7.42025 82.2252 7.45837C82.3051 7.61754 82.2595 7.83756 82.1635 8.04973C82.1626 8.0522 82.1626 8.0522 82.1585 8.05296C81.9829 8.30901 81.7082 8.56985 81.5692 8.71023C81.4829 8.79941 81.3959 8.89055 81.3093 8.98021C81.2237 9.08904 81.1465 9.18643 81.084 9.25466C80.7166 9.6612 80.3518 10.0726 79.9972 10.4925C79.2874 11.3338 78.5891 12.1953 77.8344 12.9903C76.6405 14.2445 75.326 15.0035 73.7894 15.416C71.8977 15.9251 69.8942 15.9975 68.1212 15.5849C67.032 15.3309 65.6313 14.6167 66.2029 13.0965ZM67.5896 15.0905C68.9186 15.6363 70.578 15.6914 72.0849 15.5129C73.6281 15.329 75.4686 14.9055 76.8219 13.7466C77.7326 12.967 78.521 12.0198 79.3102 11.0796C79.7167 10.5766 80.1386 10.0796 80.5696 9.60635C80.9172 9.22494 82.1507 8.14611 82.004 7.60231C81.7745 7.34302 81.0245 7.34171 80.6805 7.33459C79.7958 7.31774 78.9037 7.40527 78.0028 7.53295C76.4207 7.75858 74.8022 8.00677 73.2296 8.52076C71.657 9.03475 70.0101 9.71815 68.5945 10.7979C67.8434 11.3728 66.326 12.508 66.2965 13.5754C66.274 14.3897 66.9938 14.8455 67.5905 15.0897L67.5896 15.0905Z" fill="#D33D3D"/>
            <path opacity="0.6" d="M66.2974 13.5733C66.3279 12.5062 67.8443 11.3707 68.5955 10.7957C70.0122 9.71583 71.6514 9.03859 73.2316 8.51845C74.8119 7.9983 76.4228 7.75627 78.0049 7.53064C78.9048 7.40262 79.7979 7.31543 80.6826 7.33228C81.0265 7.3394 81.7747 7.34001 82.0061 7.6C82.1528 8.1438 80.9192 9.22262 80.5717 9.60404C80.1407 10.0773 79.7188 10.5743 79.3122 11.0773C78.5231 12.0175 77.7342 12.9661 76.824 13.7442C75.4707 14.9032 73.6312 15.3298 72.0869 15.5106C70.5801 15.6891 68.9227 15.6347 67.5917 15.0882C66.9945 14.8455 66.2747 14.3897 66.2974 13.5733Z" fill="white"/>
            <g style="mix-blend-mode:multiply" opacity="0.6">
                <path d="M67.5909 15.0897C66.9942 14.8455 66.2744 14.3897 66.2971 13.5733C66.3074 13.1888 66.5146 12.7943 66.8069 12.4204C66.8086 12.4294 66.8074 12.4389 66.8102 12.4482C66.8911 12.8378 67.334 12.9488 67.6739 12.9877C68.8439 13.1201 70.1066 12.8672 71.2446 12.5896C73.6141 12.0126 75.8983 10.8591 77.9752 9.58789C79.0349 8.93929 80.0956 8.27718 81.132 7.59093C81.236 7.52134 81.3394 7.45041 81.4427 7.37998C81.6801 7.41589 81.9003 7.47893 82.0059 7.59953C82.1526 8.14333 80.9191 9.22215 80.5715 9.60357C80.1405 10.0768 79.7186 10.5738 79.3121 11.0769C78.5229 12.0171 77.7341 12.9657 76.8239 13.7438C75.4705 14.9027 73.6311 15.3293 72.0868 15.5101C70.5793 15.6906 68.9199 15.6355 67.5909 15.0897Z" fill="#AFB1B4"/>
            </g>
            <path d="M68.1602 12.7553C68.1277 12.7776 68.0912 12.7447 68.1274 12.7181C70.0365 11.3226 72.2188 10.0332 74.5181 9.32707C74.3625 9.3335 74.2065 9.33364 74.0549 9.33814C73.7545 9.34537 73.4368 9.40303 73.14 9.35716C73.0921 9.35017 73.1423 9.2981 73.1722 9.29871C73.4549 9.31185 73.7388 9.21836 74.0221 9.20345C74.339 9.18821 74.6215 9.16024 74.9341 9.20832C75.3402 9.09719 75.7485 9.00177 76.1604 8.92984C76.2589 8.91315 76.1923 9.0221 76.1335 9.03674C75.0467 9.31669 73.9817 9.67905 72.9477 10.1207C72.0882 11.1125 71.0189 11.9379 69.9922 12.7452C69.9551 12.7742 69.8982 12.7479 69.9448 12.709C70.494 12.2482 71.013 11.7601 71.573 11.312C71.9721 10.9921 72.2807 10.5941 72.6499 10.252C71.0834 10.9498 69.5808 11.7876 68.1602 12.7553Z" fill="#ADAFB2"/>
            <path d="M69.772 14.4943C69.7176 14.5227 69.6863 14.4689 69.7414 14.4386C71.0113 13.7391 72.1952 12.7802 73.3813 11.948C74.5823 11.1032 75.5829 10.1071 76.6258 9.08272C76.6525 9.05671 76.7279 9.05404 76.6885 9.10496C75.9931 9.98407 75.1925 10.7731 74.3054 11.4537C74.185 11.5879 74.1129 11.762 74.0199 11.9148C73.9088 12.0972 73.7572 12.2653 73.6223 12.4282C73.3256 12.7748 72.9939 13.0893 72.6328 13.3667C72.6051 13.3879 72.563 13.3691 72.5977 13.3392C72.9689 13.0094 73.3122 12.6488 73.624 12.2613C73.7572 12.1 73.86 11.8903 73.9775 11.7007C73.9101 11.7505 73.8436 11.8007 73.7744 11.8505C72.4901 12.7561 71.1706 13.7762 69.772 14.4943Z" fill="#ADAFB2"/>
            <path d="M90.3674 9.43512C90.3529 9.32993 90.2977 9.23513 90.2139 9.17146C90.1301 9.10779 90.0245 9.08042 89.9201 9.09532C89.7995 9.113 89.2163 9.21076 88.7717 9.52452C88.4646 8.98542 87.934 7.64187 87.6396 6.89381C87.285 5.99579 87.0786 5.4752 86.9442 5.27064C86.8972 5.19406 86.8301 5.13225 86.7503 5.09202C86.6705 5.05179 86.581 5.03472 86.4918 5.04268C86.1774 5.06935 85.5831 5.50749 84.0614 8.97989C84.02 9.07741 84.018 9.18712 84.0556 9.28554C84.0933 9.38395 84.1677 9.46327 84.2629 9.50652C84.3593 9.54889 84.4686 9.55082 84.5669 9.51187C84.6653 9.47293 84.7447 9.39629 84.7876 9.29877C85.3915 7.91918 86.066 6.60569 86.4423 6.05814C86.5674 6.35087 86.7318 6.77064 86.8929 7.17484L86.9008 7.19592C87.9619 9.88351 88.2421 10.4042 88.6659 10.4657C88.7466 10.4774 88.8291 10.4675 88.905 10.4369C88.981 10.4063 89.0479 10.3561 89.0989 10.2914C89.2753 10.0717 89.7619 9.92807 90.0272 9.88845C90.0993 9.87825 90.1674 9.84814 90.224 9.80144C90.2805 9.75475 90.3233 9.69328 90.3476 9.62384C90.369 9.5633 90.3757 9.4986 90.3674 9.43512Z" fill="#D33D3D"/>
            <path d="M84.2922 9.08222C85.7682 5.71231 86.3349 5.31486 86.5089 5.29831C86.5528 5.29407 86.5968 5.30242 86.6361 5.32239C86.6753 5.34237 86.708 5.37316 86.7305 5.41123C86.8498 5.59377 87.066 6.12838 87.4039 6.99C87.7506 7.86529 88.3269 9.32871 88.6322 9.78343L88.7103 9.89982L88.8176 9.80865C89.2252 9.46181 89.8808 9.35869 89.9541 9.34807C89.9729 9.34525 89.9921 9.34623 90.0104 9.35096C90.0288 9.35568 90.046 9.36405 90.061 9.37558C90.0761 9.38711 90.0887 9.40157 90.0982 9.41812C90.1076 9.43467 90.1137 9.45298 90.116 9.47198C90.1205 9.51008 90.1101 9.54853 90.087 9.57926C90.064 9.60998 90.0301 9.63057 89.9925 9.6367C89.9848 9.6384 89.2039 9.75648 88.9024 10.1331C88.8791 10.1629 88.8485 10.186 88.8137 10.2002C88.7789 10.2144 88.7411 10.2192 88.704 10.2142C88.4178 10.1721 88.0954 9.5311 87.1357 7.09957L87.1275 7.07947C86.9256 6.56769 86.7165 6.03781 86.5856 5.75523L86.5029 5.57786L86.3755 5.72733C85.9767 6.19596 85.141 7.86377 84.5564 9.19693C84.5487 9.21448 84.5376 9.23034 84.5238 9.2436C84.51 9.25686 84.4938 9.26727 84.4761 9.27423C84.4584 9.28119 84.4395 9.28456 84.4206 9.28415C84.4016 9.28373 84.3829 9.27955 84.3657 9.27183C84.3313 9.25558 84.3045 9.22656 84.2909 9.19078C84.2773 9.15499 84.2779 9.11518 84.2925 9.07958L84.2922 9.08222Z" fill="#525252"/>
            <path d="M85.1091 15.93C85.1274 15.8251 85.1038 15.7175 85.0435 15.6307C84.9832 15.544 84.8911 15.4852 84.7875 15.4673C84.5685 15.4302 83.859 15.3174 83.3488 15.3362C83.3178 14.9925 83.3124 14.3713 83.3091 13.86C83.2884 11.3925 83.2128 10.2911 82.5727 10.0909C81.699 9.81899 80.2623 10.6756 79.9828 10.8493C79.8954 10.9077 79.833 10.9975 79.8086 11.1003C79.7842 11.2031 79.7995 11.3111 79.8515 11.4022C79.9071 11.4921 79.9958 11.5559 80.0983 11.5796C80.2009 11.6032 80.3088 11.5848 80.3986 11.5284C80.9393 11.1905 81.8652 10.7667 82.2876 10.8443C82.4908 11.1608 82.5086 13.1915 82.5149 13.8735C82.5286 15.5218 82.5566 15.8938 82.8175 16.0877C82.8721 16.1288 82.9356 16.1562 83.0029 16.1678C83.0702 16.1794 83.1394 16.1749 83.2049 16.1546C83.3882 16.1009 84.0987 16.1642 84.6493 16.2589C84.7417 16.2748 84.8369 16.2572 84.9181 16.209C84.9993 16.1608 85.0612 16.0853 85.0929 15.9958C85.0999 15.9743 85.1054 15.9523 85.1091 15.93Z" fill="#D33D3D"/>
            <path d="M80.1157 11.0661C80.6997 10.7019 81.8592 10.1363 82.4968 10.3345C82.992 10.4895 83.0394 11.8326 83.0562 13.8646C83.0617 14.4764 83.0673 15.1727 83.1117 15.4922L83.1289 15.6092L83.2471 15.5984C83.741 15.555 84.5822 15.6928 84.7436 15.7195C84.7627 15.7223 84.781 15.7289 84.7975 15.7389C84.814 15.749 84.8283 15.7623 84.8396 15.7781C84.8509 15.7939 84.8589 15.8118 84.8631 15.8308C84.8674 15.8499 84.8678 15.8696 84.8644 15.8888C84.861 15.9081 84.8538 15.9265 84.8432 15.9429C84.8327 15.9594 84.819 15.9736 84.8029 15.9846C84.7869 15.9957 84.7689 16.0034 84.7499 16.0073C84.7309 16.0112 84.7114 16.0113 84.6924 16.0075C84.3589 15.9508 83.4288 15.8225 83.133 15.9112C83.1051 15.92 83.0756 15.922 83.0469 15.917C83.0182 15.9119 82.9912 15.9 82.9681 15.8822C82.8056 15.7614 82.7791 15.345 82.7669 13.8702C82.7525 12.0569 82.6924 10.884 82.4454 10.6418L82.422 10.6197L82.3919 10.609C81.8256 10.4521 80.6654 11.0645 80.2663 11.3146C80.2502 11.3246 80.2322 11.3312 80.2135 11.3341C80.1948 11.337 80.1757 11.3361 80.1575 11.3315C80.1203 11.3228 80.0882 11.2997 80.0681 11.2671C80.0571 11.2484 80.0504 11.2275 80.0486 11.2058C80.0468 11.1842 80.0499 11.1623 80.0576 11.142C80.0682 11.1109 80.0887 11.0843 80.1157 11.0661Z" fill="#525252"/>
            <path d="M73.4168 21.4225C71.7764 19.9496 71.6316 17.1742 72.5244 15.2433C73.0148 14.1685 73.71 13.2006 74.57 12.3951C74.8619 12.1243 76.066 10.8781 76.6189 10.9554C76.6233 10.957 76.6282 10.9554 76.6327 10.9553C76.7983 9.79414 77.4852 8.62973 78.1279 7.76295C78.8767 6.75298 80.4157 5.44085 81.8044 5.628C81.8566 5.54558 81.9091 5.46383 81.965 5.38493C81.7148 4.98023 81.7051 4.48387 81.9173 3.99627C82.4985 2.6652 83.936 1.38919 85.4355 1.34722C86.5639 1.31571 87.1044 1.91145 87.0558 2.68377C87.6924 2.77021 88.293 3.01739 88.7657 3.46602C89.3991 4.0653 89.6609 4.89772 89.6817 5.76286C89.8215 5.6078 89.926 5.49513 90.117 5.40868C90.4136 5.27477 90.7276 5.65385 90.5757 5.93106C90.5438 5.98945 90.5032 6.04258 90.4553 6.08856C90.0961 6.42869 90.3555 6.50008 90.4042 6.81511C90.4391 7.04096 90.3928 7.18256 90.2441 7.35664C90.2029 7.40016 90.1531 7.4343 90.0979 7.45675C90.0427 7.47919 89.9835 7.48942 89.9243 7.48673C89.8163 7.48231 89.7087 7.42309 89.6101 7.37985C89.5676 7.36232 89.5221 7.35297 89.4759 7.35226C89.3909 7.66544 89.2815 7.97153 89.1488 8.26767C88.4631 9.78404 87.0921 11.393 85.5385 12.11C85.324 12.2658 85.0831 12.3368 84.8048 12.4378L84.7856 12.4442C84.2244 13.9088 82.985 14.7449 81.6219 14.9827C82.405 16.8033 80.2386 19.3946 79.0034 20.5045C77.5617 21.7984 75.0412 22.8819 73.4168 21.4225Z" fill="#D33D3D"/>
            <path d="M85.6078 1.53896C84.3173 1.41436 83.0788 2.48089 82.4021 3.47922C82.0795 3.95708 81.9406 4.52831 82.0978 5.07475C82.1051 5.25198 82.155 5.40608 82.3491 5.51034C82.424 5.57418 82.5086 5.62534 82.5998 5.66182C82.6109 5.65811 82.6228 5.65699 82.6344 5.65854C83.7849 5.94481 84.9677 5.19901 85.8095 4.44877C86.2368 4.06789 86.6019 3.51473 86.737 2.99148C86.7933 2.88857 86.8131 2.76951 86.793 2.65425C86.8208 2.09522 86.5082 1.62735 85.6078 1.53896Z" fill="#FD4444"/>
            <g style="mix-blend-mode:multiply" opacity="0.5">
                <path d="M82.3498 5.51069C82.1557 5.40644 82.1058 5.25233 82.0985 5.0751C82.0907 5.04907 82.0871 5.02227 82.0812 4.99577C82.2005 5.12235 82.3696 5.20444 82.6059 5.21441C83.056 5.23253 83.557 4.9371 83.9456 4.74102C84.4946 4.46315 85.0435 4.14252 85.4966 3.71811C85.9198 3.32083 86.7776 2.3739 86.3285 1.74898C86.6781 1.95494 86.8092 2.28474 86.7917 2.65391C86.8118 2.76917 86.7921 2.88824 86.7357 2.99115C86.6007 3.5144 86.2355 4.06756 85.8082 4.44844C84.9665 5.19867 83.7836 5.94447 82.6331 5.65821C82.6215 5.65665 82.6097 5.65778 82.5985 5.66149C82.5081 5.62503 82.4241 5.57411 82.3498 5.51069Z" fill="#FD4444"/>
            </g>
            <g style="mix-blend-mode:screen">
                <path d="M85.6362 1.67674C84.8063 1.70148 84.0607 2.12151 83.4277 2.64739C82.9613 3.03661 82.3306 3.65315 82.0639 4.29939C82.1182 4.00455 82.234 3.72426 82.4034 3.47711C83.0792 2.47843 84.318 1.41091 85.6091 1.53684C85.989 1.57388 86.2636 1.67951 86.4534 1.82992C86.1948 1.72244 85.9166 1.67029 85.6362 1.67674Z" fill="#FD4444"/>
            </g>
            <path d="M85.7175 11.8684C85.7243 11.8646 85.7317 11.8625 85.7394 11.862C85.747 11.8616 85.7546 11.8628 85.7617 11.8657C87.2769 10.9283 88.7407 9.22742 89.2584 7.41257C89.1488 7.47961 89.0479 7.5603 88.9582 7.65272C89.0991 7.40936 89.277 7.16853 89.524 7.16513L89.5219 7.17104C89.5476 7.16961 89.5765 7.17152 89.601 7.17189C89.6531 7.18146 89.7033 7.19926 89.7498 7.22463C89.7681 7.23368 89.7889 7.23676 89.8091 7.23344C89.8242 7.23878 89.8397 7.24429 89.8531 7.25291C90.1812 7.39912 90.1324 6.86173 90.0827 6.65118C90.0306 6.42755 90.0756 6.28824 90.2117 6.11414C90.2235 6.09885 90.2321 6.08135 90.2371 6.06268C90.3774 5.83516 90.4289 5.62166 90.1436 5.60205C89.8411 5.58135 89.6414 5.99353 89.4401 6.14899C89.1218 6.39548 88.5379 6.60944 88.2099 6.32854C88.2878 6.34537 88.3666 6.35773 88.4459 6.36557C88.829 6.41818 89.1726 6.23496 89.4526 5.98873C89.4449 5.36026 89.2866 4.74425 88.9911 4.19341C88.5569 3.38582 87.832 2.99696 87.0296 2.8884C86.9672 3.21894 86.8069 3.57245 86.5408 3.92008C85.861 4.8081 84.7689 5.67642 83.6268 5.83896C83.1769 5.93458 82.5765 5.99131 82.2594 5.72311C82.1742 5.6504 82.0981 5.56758 82.0326 5.4764C81.996 5.53 81.9634 5.58663 81.9288 5.64092C81.9192 5.65415 81.9136 5.66991 81.9128 5.68624C81.9087 5.68605 81.9047 5.6861 81.9007 5.68639C81.7901 5.86401 81.6845 6.04451 81.5874 6.2291C81.6064 6.22476 81.6239 6.21875 81.6468 6.21579C82.6813 6.02457 83.4887 6.57956 84.2196 7.25887C85.0175 7.9996 85.4517 9.0345 85.5531 10.1156C85.6171 10.8076 85.4113 11.7515 84.8618 12.2626C85.1567 12.1543 85.4429 12.0224 85.7175 11.8684Z" fill="#628382"/>
            <path d="M85.7175 11.8684C85.7243 11.8646 85.7317 11.8625 85.7394 11.862C85.747 11.8616 85.7546 11.8628 85.7617 11.8657C87.2769 10.9283 88.7407 9.22742 89.2584 7.41257C89.1488 7.47961 89.0479 7.5603 88.9582 7.65272C89.0991 7.40936 89.277 7.16853 89.524 7.16513L89.5219 7.17104C89.5476 7.16961 89.5765 7.17152 89.601 7.17189C89.6531 7.18146 89.7033 7.19926 89.7498 7.22463C89.7681 7.23368 89.7889 7.23676 89.8091 7.23344C89.8242 7.23878 89.8397 7.24429 89.8531 7.25291C90.1812 7.39912 90.1324 6.86173 90.0827 6.65118C90.0306 6.42755 90.0756 6.28824 90.2117 6.11414C90.2235 6.09885 90.2321 6.08135 90.2371 6.06268C90.3774 5.83516 90.4289 5.62166 90.1436 5.60205C89.8411 5.58135 89.6414 5.99353 89.4401 6.14899C89.1218 6.39548 88.5379 6.60944 88.2099 6.32854C88.2878 6.34537 88.3666 6.35773 88.4459 6.36557C88.829 6.41818 89.1726 6.23496 89.4526 5.98873C89.4449 5.36026 89.2866 4.74425 88.9911 4.19341C88.5569 3.38582 87.832 2.99696 87.0296 2.8884C86.9672 3.21894 86.8069 3.57245 86.5408 3.92008C85.861 4.8081 84.7689 5.67642 83.6268 5.83896C83.1769 5.93458 82.5765 5.99131 82.2594 5.72311C82.1742 5.6504 82.0981 5.56758 82.0326 5.4764C81.996 5.53 81.9634 5.58663 81.9288 5.64092C81.9192 5.65415 81.9136 5.66991 81.9128 5.68624C81.9087 5.68605 81.9047 5.6861 81.9007 5.68639C81.7901 5.86401 81.6845 6.04451 81.5874 6.2291C81.6064 6.22476 81.6239 6.21875 81.6468 6.21579C82.6813 6.02457 83.4887 6.57956 84.2196 7.25887C85.0175 7.9996 85.4517 9.0345 85.5531 10.1156C85.6171 10.8076 85.4113 11.7515 84.8618 12.2626C85.1567 12.1543 85.4429 12.0224 85.7175 11.8684Z" fill="#628382"/>
            <g style="mix-blend-mode:color-dodge" opacity="0.6">
                <path d="M89.8269 5.90632C89.5406 6.1797 88.7857 6.85646 88.4279 6.44024C88.7566 6.52455 89.1848 6.34805 89.4413 6.1495C89.6426 5.99403 89.8423 5.58185 90.1448 5.60255C90.1818 5.60434 90.2181 5.61253 90.2522 5.62677C90.0984 5.67317 89.9539 5.78442 89.8269 5.90632Z" fill="#628382"/>
            </g>
            <g style="mix-blend-mode:multiply" opacity="0.4">
                <path d="M85.5511 10.1133C85.4502 9.03398 85.015 7.99873 84.2177 7.25652C83.4882 6.57773 82.6794 6.02222 81.6449 6.21344C81.6244 6.21726 81.6069 6.22327 81.5854 6.22675C81.6835 6.03969 81.7881 5.86166 81.8987 5.68404C81.9027 5.68375 81.9068 5.6837 81.9108 5.68389C81.9117 5.66756 81.9173 5.6518 81.9269 5.63857C81.9614 5.58428 81.9941 5.52765 82.0306 5.47405C82.0961 5.56523 82.1722 5.64805 82.2574 5.72076C82.5746 5.98896 83.1741 5.93469 83.6249 5.83661C84.7674 5.67259 85.8591 4.80575 86.5389 3.91773C86.8055 3.56862 86.9652 3.21659 87.0276 2.88606C87.83 2.99461 88.555 3.38347 88.9892 4.19106C89.285 4.74191 89.4437 5.35806 89.4516 5.98672C89.1716 6.23296 88.8281 6.41617 88.4449 6.36357C88.3656 6.35572 88.2868 6.34336 88.2089 6.32653C88.216 6.33283 88.2234 6.33862 88.2313 6.34387C88.0471 6.32131 87.8725 6.34148 87.7894 6.53717C87.6482 6.87083 88.1106 7.09844 88.3494 7.14146C88.5821 7.18473 88.822 7.17358 89.0507 7.10885C89.2218 7.06469 89.3867 6.99783 89.562 6.95736C89.6502 6.9387 89.7369 6.92729 89.8094 6.86482C89.954 6.74086 89.8682 6.6029 89.8898 6.4431C89.9294 6.15382 90.1573 5.9834 90.3488 5.789C90.3323 5.88586 90.2949 5.97805 90.2394 6.05908C90.2345 6.07775 90.2258 6.09525 90.2141 6.11053C90.0781 6.28414 90.0329 6.42394 90.0851 6.64757C90.1347 6.85812 90.1835 7.39551 89.8554 7.24931C89.8408 7.24414 89.8263 7.23566 89.8114 7.22983C89.7912 7.23315 89.7705 7.23007 89.7521 7.22102C89.7056 7.19565 89.6554 7.17785 89.6033 7.16828C89.5769 7.16723 89.5494 7.16583 89.5242 7.16743L89.5263 7.16152C89.2793 7.16493 89.101 7.40558 88.9605 7.64912C89.0503 7.55669 89.1511 7.476 89.2607 7.40896C88.7437 9.22185 87.2792 10.9247 85.764 11.8621C85.7569 11.8592 85.7493 11.858 85.7417 11.8584C85.734 11.8589 85.7266 11.861 85.7198 11.8647C85.4445 12.0181 85.1577 12.1492 84.8622 12.2567C85.4096 11.7515 85.6152 10.8052 85.5511 10.1133ZM86.2556 10.6618C86.9868 10.5278 87.5993 9.74785 87.8113 9.06166C87.9205 8.70756 87.9173 8.32864 87.8021 7.9783C87.6736 7.55297 87.3082 6.83851 87.6129 6.4142C87.9848 5.89944 89.0381 5.87457 88.9906 5.06598C88.9771 4.86431 88.9226 4.66796 88.8305 4.48913C88.6607 3.86673 88.1942 3.24123 87.5629 3.23873C87.1999 3.2371 87.0341 3.49495 86.9586 3.8347C86.7895 4.60093 86.3931 5.11251 85.7824 5.59977C85.4783 5.8402 85.1883 5.95868 84.8531 6.1199C84.7445 6.17292 84.6137 6.23633 84.5583 6.35255C84.4316 6.62038 84.6383 6.84335 84.8268 7.01438C85.3062 7.44397 85.6901 7.97121 85.9535 8.56195C86.2663 9.26275 86.3376 9.79536 86.1537 10.543C86.1489 10.5582 86.148 10.5742 86.1511 10.5897C86.1542 10.6052 86.1612 10.6196 86.1714 10.6316C86.1816 10.6435 86.1948 10.6525 86.2095 10.6578C86.2243 10.6631 86.2401 10.6645 86.2556 10.6618Z" fill="#628382"/>
            </g>
            <path d="M85.2161 9.81325C85.1564 9.1722 84.8768 8.57854 84.5493 8.03996C84.1988 7.46554 83.6371 6.99923 83.083 6.63324C82.7946 6.43788 82.4613 6.31979 82.1142 6.28993C81.9784 6.2982 81.8437 6.3203 81.712 6.3559C81.4357 6.39881 81.1706 6.52114 81.0234 6.74509C80.9797 6.78721 80.9385 6.83185 80.8999 6.87877C80.7759 7.09787 80.6658 7.3246 80.5702 7.55758C80.5674 7.56546 80.5543 7.57138 80.5433 7.57303C80.2701 8.44599 80.4004 9.57391 80.6532 10.3388C81.0864 11.6468 82.41 12.6032 83.7864 12.4328C85.1132 12.2697 85.3087 10.8081 85.2161 9.81325Z" fill="#FD4444"/>
            <g style="mix-blend-mode:multiply" opacity="0.5">
                <path d="M80.6524 10.3394C80.465 9.75574 80.3773 9.14346 80.393 8.52857C80.623 9.39023 81.0773 10.1844 81.8637 10.6411C82.6785 11.1144 83.8558 11.1074 84.373 10.2101C84.8608 9.3649 84.5871 8.21552 84.029 7.49043C83.8796 7.29818 83.713 7.12021 83.5314 6.95872C83.926 7.26488 84.2931 7.62396 84.5486 8.03997C84.8762 8.57855 85.1558 9.17221 85.2154 9.81326C85.308 10.8081 85.1108 12.2713 83.7856 12.4333C82.4092 12.6037 81.0856 11.6473 80.6524 10.3394Z" fill="#FD4444"/>
            </g>
            <g style="mix-blend-mode:screen">
                <path d="M83.1366 6.9211C82.248 6.53195 81.2636 6.71484 80.6982 7.57023C80.5929 7.72981 80.5038 7.89959 80.4322 8.077C80.4551 7.90642 80.4922 7.738 80.5432 7.57353C80.5542 7.57187 80.5668 7.56579 80.5701 7.55808C80.6655 7.32596 80.7754 7.10005 80.899 6.88173C80.9375 6.83481 80.9788 6.79017 81.0224 6.74805C81.17 6.52311 81.4347 6.40177 81.711 6.35886C81.8427 6.32326 81.9774 6.30116 82.1132 6.29289C82.4603 6.32275 82.7936 6.44084 83.0821 6.6362C83.6372 6.99924 84.1987 7.46604 84.5483 8.04292C84.8759 8.5815 85.1554 9.17516 85.2151 9.81621C85.2254 9.93076 85.232 10.0467 85.2336 10.1688C85.1193 8.79973 84.4504 7.49588 83.1366 6.9211Z" fill="#FD4444"/>
            </g>
            <path d="M84.6297 12.5003C84.4292 12.5754 84.2243 12.6376 84.0162 12.6866C82.4249 13.113 80.7583 11.8809 80.3494 10.2694C80.0692 9.16157 80.0917 6.79919 81.3865 6.29376C81.4053 6.28546 81.4254 6.27817 81.4444 6.27102C81.5426 6.06749 81.6517 5.86941 81.7712 5.67768C80.4086 5.63454 79.1051 6.83992 78.325 7.82548C77.3237 9.09084 76.5543 10.8281 77.0969 12.436C77.4966 13.6161 78.728 14.3492 79.8353 14.711C81.6449 15.3001 83.8934 14.3093 84.6297 12.5003Z" fill="#628382"/>
            <path d="M84.6297 12.5003C84.4292 12.5754 84.2243 12.6376 84.0162 12.6866C82.4249 13.113 80.7583 11.8809 80.3494 10.2694C80.0692 9.16157 80.0917 6.79919 81.3865 6.29376C81.4053 6.28546 81.4254 6.27817 81.4444 6.27102C81.5426 6.06749 81.6517 5.86941 81.7712 5.67768C80.4086 5.63454 79.1051 6.83992 78.325 7.82548C77.3237 9.09084 76.5543 10.8281 77.0969 12.436C77.4966 13.6161 78.728 14.3492 79.8353 14.711C81.6449 15.3001 83.8934 14.3093 84.6297 12.5003Z" fill="#476261"/>
            <g style="mix-blend-mode:color-dodge" opacity="0.6">
                <path d="M80.7848 6.0284C80.4736 6.19955 80.1726 6.38914 79.8834 6.59616C79.3098 7.01746 78.7995 7.5207 78.3688 8.08991C77.8075 8.81956 77.35 9.62447 77.0096 10.481C77.2101 9.51354 77.7258 8.5851 78.3263 7.82648C79.0699 6.88675 80.2891 5.74961 81.5816 5.68308C81.326 5.81875 81.0402 5.88381 80.7848 6.0284Z" fill="#628382"/>
            </g>
            <g style="mix-blend-mode:multiply" opacity="0.4">
                <path d="M77.0997 12.4342C77.0155 12.1824 76.961 11.9212 76.9375 11.656C76.9956 11.7389 77.07 11.8087 77.1562 11.861C77.2424 11.9133 77.3386 11.9469 77.4386 11.9599C78.2073 12.066 78.6837 11.4136 78.9309 10.761C79.2935 9.80551 79.5021 8.81982 80.0103 7.91868C80.1841 7.60898 80.3825 7.31398 80.6037 7.03664C80.1026 7.97189 80.1448 9.45622 80.35 10.2675C80.7589 11.879 82.4259 13.1101 84.0169 12.6847C84.2249 12.6357 84.4298 12.5734 84.6303 12.4984C83.8921 14.3066 81.6456 15.2982 79.8388 14.7073C78.7308 14.3474 77.4993 13.6144 77.0997 12.4342Z" fill="#628382"/>
            </g>
            <path d="M78.8381 20.3754C80.184 19.2715 81.8715 16.8481 81.4834 15.0128C81.4838 15.0093 81.485 15.0059 81.4869 15.003C79.7384 15.25 77.8258 14.5113 76.9234 12.8159C76.6292 12.2681 76.5552 11.6735 76.6196 11.0792C76.6135 11.0794 76.6073 11.0785 76.6014 11.0766C76.3252 10.9893 75.5737 11.7199 75.389 11.8718C75.0021 12.1937 74.6378 12.5425 74.2988 12.9155C73.5977 13.6785 73.0435 14.5664 72.665 15.5331C72.0195 17.1585 72.1691 19.1555 73.1138 20.6114C74.5347 22.7994 77.1993 21.7203 78.8381 20.3754Z" fill="#2A2630"/>
            <g style="mix-blend-mode:multiply" opacity="0.3">
                <path d="M81.2411 17.0485C80.2608 16.9532 79.3111 16.6599 78.4483 16.1859C76.7597 15.2476 75.2874 13.4578 75.7658 11.5392C76.0577 11.2933 76.4232 11.0203 76.5985 11.0758C76.6044 11.0776 76.6105 11.0785 76.6167 11.0783C76.5523 11.6726 76.627 12.2652 76.9205 12.815C77.8229 14.5104 79.7355 15.2492 81.4839 15.0021C81.4821 15.0051 81.4809 15.0084 81.4805 15.0119C81.6167 15.6485 81.502 16.3553 81.2411 17.0485Z" fill="#525252"/>
            </g>
            <g style="mix-blend-mode:multiply" opacity="0.3">
                <path d="M79.0114 20.2267C78.9421 20.2105 78.8778 20.1944 78.8251 20.1824C77.9413 19.9729 77.0841 19.6763 76.2934 19.2209C75.2305 18.6119 74.2939 17.8021 73.7449 16.6805C73.418 16.0102 73.1655 15.2476 73.1587 14.4894C73.4742 13.9204 73.8569 13.3919 74.2984 12.9155C74.417 12.7878 74.5373 12.663 74.6593 12.5382C73.8486 14.7317 76.1686 17.2482 77.9844 18.1179C78.7181 18.4662 79.5082 18.6797 80.318 18.7485C79.939 19.2893 79.5007 19.7853 79.0114 20.2267Z" fill="#525252"/>
            </g>
            <g style="mix-blend-mode:multiply" opacity="0.3">
                <path d="M73.7908 20.2265C74.2789 20.7028 74.9071 21.0512 75.4909 21.3873C75.7109 21.5141 75.9348 21.6422 76.1628 21.7651C75.0217 22.0223 73.8842 21.7983 73.1134 20.6119C72.5747 19.7823 72.2956 18.7779 72.2744 17.764C72.6304 18.6736 73.0856 19.5364 73.7908 20.2265Z" fill="#525252"/>
            </g>
            <path d="M88.7932 13.3653C88.8248 13.2761 88.8243 13.1787 88.7917 13.0903C88.7591 13.0019 88.6965 12.9283 88.615 12.8824C88.1274 12.6087 87.5343 12.2106 87.4276 12.053C87.3894 11.9963 87.3384 11.9495 87.2788 11.9164C87.2192 11.8833 87.1526 11.8649 87.0845 11.8627C86.7609 11.8489 86.5034 12.1198 85.4543 13.392C85.0213 13.9172 83.7273 15.4848 83.3719 15.5995C82.995 15.3949 82.5424 14.4816 82.3347 13.8779C82.3177 13.8283 82.2912 13.7826 82.2566 13.7435C82.2219 13.7044 82.18 13.6726 82.1331 13.65C82.0862 13.6274 82.0352 13.6145 81.9832 13.6118C81.9311 13.6092 81.879 13.6169 81.8297 13.6347C81.7318 13.6725 81.6517 13.7467 81.6059 13.842C81.5602 13.9373 81.5522 14.0464 81.5836 14.1468C81.6923 14.4581 82.2677 16.0277 83.1178 16.3661C83.7413 16.6148 84.4934 15.8056 86.0632 13.9028C86.3887 13.508 86.7837 13.0281 87.024 12.7811C87.4091 13.1172 88.0306 13.4766 88.2246 13.5858C88.3163 13.6371 88.4248 13.6494 88.5262 13.6199C88.6276 13.5904 88.7136 13.5216 88.7653 13.4286C88.7762 13.4083 88.7856 13.3871 88.7932 13.3653Z" fill="#D33D3D"/>
            <path d="M81.8255 13.9647C81.8328 13.9441 81.8447 13.9253 81.8601 13.9097C81.8756 13.8942 81.8942 13.8823 81.9148 13.875C81.9326 13.8684 81.9516 13.8656 81.9705 13.8667C81.9894 13.8679 82.0078 13.873 82.0246 13.8817C82.0417 13.8896 82.0571 13.9009 82.0698 13.9149C82.0825 13.9289 82.0923 13.9454 82.0986 13.9634C82.2513 14.4084 82.7667 15.614 83.3052 15.8492L83.335 15.8625L83.3668 15.8594C83.712 15.8276 84.4957 14.9537 85.6502 13.5541C86.5892 12.4152 86.8739 12.1091 87.0734 12.1177C87.1025 12.119 87.1309 12.1271 87.1564 12.1413C87.1818 12.1555 87.2036 12.1755 87.2201 12.1996C87.3932 12.4556 88.1972 12.9412 88.492 13.1072C88.5086 13.1165 88.5231 13.1289 88.5348 13.1439C88.5465 13.1589 88.5552 13.176 88.5603 13.1944C88.5655 13.2128 88.5669 13.2321 88.5647 13.2511C88.5624 13.2701 88.5565 13.2886 88.5472 13.3053C88.5379 13.3221 88.5255 13.3369 88.5106 13.3488C88.4957 13.3608 88.4786 13.3697 88.4603 13.375C88.4421 13.3803 88.423 13.382 88.4042 13.3799C88.3853 13.3777 88.3672 13.3719 88.3506 13.3627C88.2059 13.2814 87.4678 12.8602 87.1118 12.5145L87.0271 12.429L86.9402 12.5091C86.7055 12.7265 86.2631 13.2628 85.8722 13.7386C84.5803 15.3052 83.6984 16.3201 83.2145 16.127C82.5942 15.88 82.0498 14.7113 81.8258 14.0597C81.815 14.0291 81.8149 13.9956 81.8255 13.9647Z" fill="#525252"/>
            <path d="M85.7994 19.1177C85.8239 19.0484 85.8292 18.9737 85.8147 18.9019C85.8002 18.8301 85.7664 18.7638 85.7171 18.7103C85.5358 18.513 85.2485 18.0941 85.2496 17.8128C85.2508 17.7303 85.2306 17.6492 85.1908 17.5775C85.1511 17.5058 85.0933 17.446 85.0232 17.4043C84.6552 17.1869 84.1096 17.4133 81.5929 18.8336L81.5734 18.8439C81.1923 19.0587 80.8009 19.2799 80.5202 19.4277C80.5723 18.7647 80.8762 17.3215 81.2753 15.8694C81.2893 15.8185 81.2934 15.7654 81.2871 15.7132C81.2808 15.6609 81.2643 15.6105 81.2387 15.5648C81.213 15.5191 81.1786 15.4791 81.1375 15.447C81.0963 15.4149 81.0492 15.3914 80.9989 15.3778C80.8977 15.3514 80.7899 15.3661 80.6986 15.4188C80.6073 15.4715 80.5397 15.5581 80.5103 15.6599C79.5051 19.3153 79.6918 20.0274 79.9182 20.249C79.9827 20.3112 80.063 20.3542 80.1503 20.3733C80.2376 20.3924 80.3287 20.3869 80.4135 20.3575C80.6475 20.2796 81.1346 20.008 81.976 19.5338C82.675 19.1383 83.9337 18.4288 84.5122 18.2036C84.6597 18.7266 85.0509 19.1707 85.134 19.2606C85.1805 19.3106 85.239 19.3476 85.3039 19.368C85.3689 19.3885 85.4381 19.3917 85.5049 19.3773C85.5717 19.363 85.6339 19.3316 85.6854 19.2861C85.737 19.2406 85.7762 19.1826 85.7994 19.1177Z" fill="#D33D3D"/>
            <path d="M80.7527 15.7261C80.764 15.6893 80.7888 15.6581 80.8219 15.6389C80.855 15.6198 80.8941 15.614 80.9311 15.6229C80.9673 15.6333 80.998 15.6578 81.0165 15.6909C81.0258 15.7074 81.0318 15.7256 81.0341 15.7445C81.0363 15.7634 81.0347 15.7825 81.0295 15.8009C80.6418 17.2038 80.2419 19.0277 80.2576 19.6415L80.2626 19.8374L80.4379 19.752C80.7175 19.6149 81.2138 19.3361 81.6928 19.0656L81.7122 19.0541C83.9891 17.77 84.643 17.4756 84.8917 17.6236C84.9237 17.6429 84.9501 17.6704 84.9682 17.7034C84.9863 17.7364 84.9955 17.7736 84.9948 17.8115C84.9924 18.2925 85.5235 18.8777 85.5291 18.8835C85.5554 18.9118 85.5694 18.9496 85.568 18.9885C85.5666 19.0274 85.55 19.0643 85.5218 19.0911C85.4936 19.1178 85.4561 19.1323 85.4175 19.1312C85.379 19.1301 85.3426 19.1137 85.3163 19.0854C85.2663 19.0305 84.822 18.537 84.7242 18.0111L84.6981 17.8732L84.5641 17.9145C84.0413 18.0752 82.6694 18.851 81.8509 19.3101C81.0449 19.7647 80.5413 20.0459 80.3343 20.114C80.2929 20.1292 80.2483 20.1325 80.2053 20.1234C80.1624 20.1144 80.1229 20.0934 80.0913 20.0628C79.9648 19.9409 79.7758 19.274 80.7519 15.7269L80.7527 15.7261Z" fill="#525252"/>
            <path d="M81.7494 22.719C81.7739 22.6494 81.7789 22.5743 81.7638 22.5023C81.7235 22.2602 81.7343 22.0118 81.7955 21.7733C81.818 21.6973 81.8209 21.6168 81.8039 21.5396C81.7869 21.4624 81.7505 21.3911 81.6982 21.3325C81.571 21.1848 81.3069 20.8827 78.074 21.3457C78.594 20.4004 79.396 18.9048 79.4924 18.7238C79.5298 18.6539 79.546 18.5744 79.5388 18.4956C79.5316 18.4167 79.5015 18.3419 79.4522 18.2807C79.4028 18.2195 79.3366 18.1745 79.2617 18.1514C79.1868 18.1284 79.1066 18.1283 79.0313 18.1512C78.9308 18.1822 78.846 18.2517 78.7952 18.3448C78.2441 19.3732 77.1591 21.3863 76.9938 21.6471C76.9526 21.7123 76.9307 21.7879 76.9307 21.865C76.9308 21.9421 76.9528 22.0173 76.9942 22.0817C77.0356 22.1461 77.0945 22.197 77.164 22.2283C77.2335 22.2595 77.3106 22.2698 77.3861 22.258C78.7014 22.0498 80.325 21.8694 80.9628 21.8969C80.9318 22.1547 80.9391 22.4153 80.9844 22.6703C81.0023 22.7553 81.0472 22.832 81.1123 22.8886C81.1773 22.9453 81.259 22.9788 81.3451 22.9843C81.4311 22.9897 81.5168 22.9667 81.5892 22.9188C81.6615 22.8708 81.7167 22.8005 81.7463 22.7185L81.7494 22.719Z" fill="#D33D3D"/>
            <path d="M77.6071 21.6724L77.8594 21.6354C80.0107 21.316 81.307 21.2696 81.5089 21.5015C81.533 21.5283 81.5498 21.561 81.5577 21.5964C81.5655 21.6318 81.5642 21.6688 81.5539 21.7037C81.4809 21.9815 81.4678 22.2715 81.5154 22.5539C81.5195 22.5726 81.52 22.592 81.5167 22.611C81.5134 22.63 81.5065 22.6481 81.4963 22.6644C81.4861 22.6807 81.4728 22.6949 81.4572 22.7061C81.4416 22.7172 81.4241 22.7252 81.4055 22.7296C81.3869 22.7339 81.3677 22.7345 81.349 22.7313C81.3302 22.7282 81.3123 22.7213 81.2962 22.7112C81.2802 22.701 81.2663 22.6877 81.2553 22.6721C81.2444 22.6564 81.2366 22.6387 81.2325 22.62C81.1865 22.3509 81.188 22.0753 81.2368 21.8059L81.2609 21.6731L81.1258 21.6557C80.5655 21.5841 78.7615 21.7838 77.3477 22.0075C77.3205 22.0111 77.293 22.0069 77.2683 21.9953C77.2436 21.9838 77.2226 21.9654 77.2079 21.9423C77.1932 21.9191 77.1853 21.8922 77.1852 21.8646C77.185 21.837 77.1926 21.8099 77.2071 21.7863C77.3759 21.5184 78.4656 19.4982 79.0179 18.468C79.0269 18.4509 79.0391 18.4359 79.0538 18.4237C79.0686 18.4115 79.0856 18.4024 79.1039 18.3969C79.1219 18.3911 79.141 18.389 79.1598 18.3908C79.1787 18.3926 79.1969 18.3983 79.2134 18.4075C79.2303 18.4162 79.2453 18.4283 79.2574 18.443C79.2695 18.4578 79.2785 18.4748 79.284 18.4932C79.2894 18.5116 79.2911 18.5309 79.289 18.55C79.2869 18.5691 79.281 18.5876 79.2717 18.6045C79.1673 18.8003 78.2347 20.5392 77.7316 21.4477L77.6071 21.6724Z" fill="#525252"/>
            <g style="mix-blend-mode:color-dodge" opacity="0.8">
                <path d="M73.2272 14.7606C72.9373 15.2255 72.6771 15.7085 72.4482 16.2067C72.5057 15.9779 72.5778 15.7531 72.6643 15.5336C73.0428 14.5667 73.597 13.6786 74.2982 12.9155C74.6356 12.5419 74.9983 12.1924 75.3837 11.8696C75.5708 11.7186 76.3224 10.988 76.5961 11.0744C76.602 11.0763 76.6082 11.0772 76.6144 11.077C76.6012 11.1996 76.5941 11.3227 76.5931 11.446C75.1473 12.0054 73.9783 13.5169 73.2272 14.7606Z" fill="white"/>
            </g>
            <path d="M68.2236 22.9435C68.4539 20.8876 69.1904 18.8137 70.277 17.0574C71.158 15.6341 72.2716 14.597 73.7872 13.9209C74.7454 13.4925 75.7436 13.1537 76.7278 12.7938C77.22 12.6145 77.7061 12.4197 78.1903 12.2198C78.2723 12.1861 78.3844 12.1494 78.5091 12.1109C78.6175 12.0601 78.7271 12.0102 78.8364 11.9597C79.0078 11.8746 79.3313 11.7048 79.6167 11.6395L79.6207 11.636C79.8412 11.6315 80.051 11.6853 80.166 11.8425C80.1938 11.88 80.2181 11.92 80.2387 11.962C80.2827 12.1993 80.2587 12.5235 80.1952 12.8664C79.8178 14.9262 78.6772 16.934 77.707 18.7604C76.7625 20.5377 75.6006 22.2501 74.1381 23.6398C73.4933 24.2593 72.7839 24.8061 72.0225 25.2705C71.4212 25.6341 70.5125 26.1516 69.787 26.1058C68.2464 26.0073 68.0824 24.2054 68.2236 22.9435ZM72.6289 24.6454C74.0611 23.653 75.2138 22.2401 76.2035 20.8159C77.1932 19.3917 77.9508 17.8099 78.6819 16.2486C79.097 15.3616 79.4749 14.462 79.7567 13.5245C79.8656 13.16 80.1159 12.3703 79.9647 12.0107C79.5316 11.6061 78.1614 12.408 77.7069 12.5968C77.1431 12.8329 76.5614 13.0487 75.9777 13.2438C74.8785 13.6406 73.7724 14.0354 72.7748 14.6339C71.2923 15.5253 70.2999 17.2646 69.6191 18.8059C68.9546 20.3088 68.4461 22.0792 68.4841 23.7267C68.5012 24.4663 68.6629 25.4346 69.3946 25.7843C70.3517 26.2454 71.8667 25.1726 72.6289 24.6454Z" fill="#D33D3D"/>
            <path opacity="0.6" d="M68.4849 23.7285C68.4473 22.0795 68.9559 20.3091 69.6198 18.8077C70.3007 17.2664 71.2931 15.5271 72.7755 14.6357C73.7722 14.0369 74.8793 13.6424 75.9757 13.2441C76.5589 13.0488 77.1411 12.8332 77.7049 12.5971C78.1597 12.4073 79.53 11.6054 79.9627 12.011C80.1153 12.3711 79.8651 13.1608 79.7547 13.5247C79.4728 14.4639 79.0949 15.3636 78.6799 16.2489C77.9488 17.8102 77.1871 19.3989 76.2015 20.8162C75.2159 22.2335 74.0591 23.6533 72.6269 24.6456C71.8647 25.1729 70.3497 26.2457 69.393 25.7864C68.6636 25.4364 68.502 24.4681 68.4849 23.7285Z" fill="white"/>
            <g style="mix-blend-mode:multiply" opacity="0.6">
                <path d="M69.3952 25.7861C68.6634 25.4364 68.5018 24.4682 68.4847 23.7285C68.476 23.1576 68.5224 22.5866 68.6235 22.0239C68.6483 22.1674 68.6822 22.309 68.725 22.448C69.2679 24.1896 71.2043 23.3116 72.1764 22.49C73.9757 20.9721 75.6099 19.2648 77.051 17.3973C78.1808 15.9191 79.3479 14.2523 80.0041 12.4621C79.9701 12.8332 79.8313 13.2758 79.7572 13.5235C79.4753 14.4627 79.0974 15.3623 78.6824 16.2477C77.9512 17.8089 77.1896 19.3976 76.204 20.8149C75.2184 22.2322 74.0616 23.6521 72.6294 24.6444C71.8668 25.1726 70.3519 26.2454 69.3952 25.7861Z" fill="#AFB1B4"/>
            </g>
            <path d="M69.9223 25.0391C71.7903 23.7506 73.4831 22.2194 74.9567 20.4854C73.3569 20.7164 71.9019 21.3497 70.4958 22.1583C70.45 22.1842 70.4273 22.1401 70.4699 22.1126C71.0707 21.7099 71.6994 21.3519 72.3511 21.0414C72.1237 21.028 71.905 20.9654 71.6749 20.9643C71.326 20.9625 70.9773 20.9897 70.6323 21.0456C70.5944 21.0522 70.6187 21.0098 70.6422 21.0053C70.9558 20.9369 71.2739 20.8919 71.5937 20.8706C71.9062 20.8494 72.1851 20.9444 72.4932 20.9432C72.517 20.9422 72.526 20.9509 72.5274 20.9625C73.341 20.6021 74.1965 20.3508 75.0674 20.3167C75.0736 20.3149 75.08 20.314 75.0865 20.314C75.0908 20.3156 75.0964 20.3137 75.1008 20.3136C76.2663 18.9244 77.2861 17.4175 78.1437 15.8172C77.9261 15.9802 77.6537 16.0954 77.4365 16.2109C76.8427 16.5272 76.2138 16.7634 75.5797 16.9818C75.0351 17.7785 74.169 18.2701 73.4531 18.8814C73.4235 18.9064 73.3789 18.8855 73.4147 18.8522C73.7254 18.5626 74.0804 18.3302 74.3949 18.0451C74.7409 17.7314 75.0521 17.3909 75.371 17.0531L75.3055 17.0759C74.0659 17.495 72.6745 17.9273 71.3599 17.7548C71.3114 17.7482 71.3625 17.6964 71.3918 17.6957C72.6167 17.715 73.8315 17.3565 74.9913 16.9906C75.52 16.8242 76.1402 16.6437 76.7311 16.4067C76.0703 15.9541 75.2546 15.8802 74.4819 15.7588C74.4371 15.7524 74.4823 15.7035 74.5114 15.705C75.0636 15.7471 75.5972 15.772 76.1283 15.9386C76.3456 16.0067 76.7653 16.1045 76.8871 16.3417C77.4443 16.1055 77.9665 15.8154 78.3499 15.4284L78.351 15.4254C78.6503 14.8434 78.9257 14.2501 79.1759 13.649C79.1866 13.6189 79.2748 13.5986 79.26 13.6433C78.488 15.9874 76.9144 18.1495 75.4748 20.125C74.0439 22.0882 71.988 23.7855 69.9626 25.0844C69.9211 25.1152 69.8741 25.073 69.9223 25.0391Z" fill="#ADAFB2"/>
            <path d="M80.6411 6.48288C80.4021 6.13479 80.1458 5.7673 79.9788 5.37655C79.9619 5.33619 80.0488 5.28714 80.0683 5.32622C80.2598 5.71288 80.5961 6.01669 80.7644 6.41291C80.7883 6.46906 80.6758 6.53341 80.6411 6.48288Z" fill="#D33D3D"/>
            <path d="M79.6047 7.08411C79.3269 6.86207 79.0605 6.62592 78.8066 6.37655C78.7559 6.32479 78.8796 6.23997 78.9231 6.2809C79.1815 6.5266 79.4896 6.7184 79.7294 6.98247C79.7822 7.04054 79.6553 7.1253 79.6047 7.08411Z" fill="#D33D3D"/>
            <path d="M77.0171 8.54763C76.9495 8.51427 77.052 8.42748 77.1023 8.4492C77.6052 8.66289 78.175 8.64631 78.6739 8.87414C78.7426 8.90455 78.647 8.98715 78.6003 8.98001C78.0802 8.89829 77.4891 8.78529 77.0171 8.54763Z" fill="#D33D3D"/>
            <path d="M77.4904 9.55919C77.7158 9.55645 77.9369 9.52112 78.1615 9.50979C78.2353 9.50544 78.1664 9.59801 78.1227 9.60693C77.8946 9.63973 77.6649 9.65813 77.4348 9.66202C77.3552 9.661 77.4379 9.56055 77.4904 9.55919Z" fill="#D33D3D"/>
            <path d="M76.0834 12.1557C76.4778 11.9883 76.8663 11.811 77.2566 11.635C77.3093 11.6115 77.3188 11.6742 77.2747 11.6968C76.8903 11.8933 76.4871 12.0548 76.0896 12.2233C76.0271 12.2528 76.0357 12.176 76.0834 12.1557Z" fill="#D33D3D"/>
        </g>
    </g>
    <defs>
        <clipPath id="clip0_10080_746">
            <rect width="197" height="28" fill="white"/>
        </clipPath>
        <clipPath id="clip1_10080_746">
            <rect width="28.7969" height="21.5977" fill="white" transform="matrix(-0.334003 0.942572 0.942572 0.334003 72.1035 -3.55399)"/>
        </clipPath>
    </defs>
</svg>