<svg width="197" height="20" viewBox="0 0 197 20" fill="none" xmlns="http://www.w3.org/2000/svg">
    <rect y="0.40918" width="13.4357" height="3.95569" rx="0.409209" fill="white"/>
    <path d="M77.2742 0.341003C77.1059 0.341003 76.9547 0.444054 76.8933 0.600728L69.7505 18.8025C69.6452 19.0709 69.8431 19.3612 70.1314 19.3612H74.4577C74.6319 19.3612 74.787 19.2509 74.8442 19.0864L79.3814 6.04152C79.4027 5.98046 79.489 5.98046 79.5103 6.04152L84.0474 19.0864C84.1047 19.2509 84.2598 19.3612 84.4339 19.3612H88.7603C89.0486 19.3612 89.2465 19.0709 89.1412 18.8025L81.9984 0.600728C81.9369 0.444054 81.7858 0.341003 81.6175 0.341003H77.2742Z" fill="#FD4444"/>
    <path d="M123.118 19.3612C123.287 19.3612 123.438 19.2582 123.499 19.1015L130.642 0.899696C130.747 0.631269 130.55 0.341003 130.261 0.341003H125.932C125.759 0.341003 125.605 0.449722 125.547 0.612591L121.02 13.2903C120.998 13.3506 120.913 13.3506 120.891 13.2904L116.347 0.612137C116.288 0.449505 116.134 0.341003 115.962 0.341003H111.632C111.344 0.341003 111.146 0.631269 111.251 0.899696L118.394 19.1015C118.456 19.2582 118.607 19.3612 118.775 19.3612H123.118Z" fill="white"/>
    <rect x="16.2319" y="19.301" width="18.8918" height="4.4331" rx="0.409209" transform="rotate(-90 16.2319 19.301)" fill="white"/>
    <rect x="133.539" y="19.301" width="18.8918" height="4.4331" rx="0.409209" transform="rotate(-90 133.539 19.301)" fill="white"/>
    <path d="M156.285 3.23638L154.24 5.94381C154.093 6.13844 153.81 6.16134 153.625 6.00209C151.859 4.47962 150.073 4.058 148.406 4.058C145.981 4.058 145.743 5.74284 147.076 6.30865C148.202 6.78606 149.941 7.02477 152.669 7.97959C155.226 8.87473 156.863 10.8441 156.556 13.9813C156.249 17.1186 154.442 19.2669 149.293 19.5738C145.334 19.8098 142.262 17.6882 141.014 16.367C140.885 16.2306 140.879 16.0231 140.988 15.871L142.901 13.2213C143.05 13.0137 143.352 12.9939 143.537 13.1705C145.528 15.0669 147.715 15.5841 149.293 15.5841C150.964 15.5841 152.021 14.7997 152.021 13.9813C152.021 13.1629 150.759 12.6855 149.668 12.4127C148.577 12.1399 146.803 12.0035 143.973 10.503C141.143 9.00261 141.347 5.42204 142.063 3.717C142.78 2.01196 144.723 1.71438e-05 149.361 0.102319C152.771 0.177542 155.233 1.75655 156.253 2.72637C156.395 2.86149 156.403 3.07987 156.285 3.23638Z" fill="white"/>
    <path d="M44.9449 0.40918C44.7189 0.40918 44.5356 0.592388 44.5356 0.818389V3.95566C44.5356 4.18166 44.7189 4.36487 44.9449 4.36487H49.4462C49.6722 4.36487 49.8554 4.54808 49.8554 4.77408V18.8918C49.8554 19.1178 50.0386 19.301 50.2646 19.301H53.8792C54.1052 19.301 54.2885 19.1178 54.2885 18.8918V4.77408C54.2885 4.54808 54.4717 4.36487 54.6977 4.36487H59.199C59.4249 4.36487 59.6082 4.18166 59.6082 3.95566V0.818389C59.6082 0.592388 59.4249 0.40918 59.199 0.40918H44.9449Z" fill="white"/>
    <path d="M0.409209 7.97955C0.183225 7.97955 0 8.16276 0 8.38876V18.96C0 19.186 0.183225 19.3692 0.409209 19.3692H4.09209C4.31807 19.3692 4.5013 19.186 4.5013 18.96V12.208C4.5013 12.0574 4.62344 11.9352 4.77411 11.9352H13.0265C13.2525 11.9352 13.4357 11.752 13.4357 11.526V8.38876C13.4357 8.16276 13.2525 7.97955 13.0265 7.97955H0.409209Z" fill="white"/>
    <path d="M37.3758 12.9569C37.5002 12.7888 37.726 12.7244 37.9133 12.8172L41.2824 14.4859C41.4939 14.5907 41.5738 14.8527 41.4471 15.0518C39.7162 17.7704 36.6758 19.5738 33.2142 19.5738C27.8279 19.5738 23.4614 15.2073 23.4614 9.82099C23.4614 4.43466 27.8279 0.0681763 33.2142 0.0681763C36.7067 0.0681763 39.7704 1.90389 41.493 4.66307C41.6173 4.8621 41.5369 5.12191 41.3267 5.22609L37.9267 6.91099C37.7388 7.00413 37.5122 6.93893 37.388 6.76987C36.4385 5.47693 34.9073 4.63768 33.1801 4.63768C30.2986 4.63768 27.9627 6.97359 27.9627 9.85509C27.9627 12.7366 30.2986 15.0725 33.1801 15.0725C34.8999 15.0725 36.4253 14.2404 37.3758 12.9569Z" fill="white"/>
    <path fill-rule="evenodd" clip-rule="evenodd" d="M92.0718 18.8918C92.0718 19.1178 92.255 19.301 92.481 19.301H100.017C100.029 19.301 100.04 19.3011 100.051 19.301C101.28 19.2966 102.497 19.0523 103.632 18.582C104.778 18.1073 105.819 17.4115 106.697 16.5344C107.574 15.6572 108.269 14.6159 108.744 13.4699C109.219 12.3239 109.463 11.0956 109.463 9.8551C109.463 8.61465 109.219 7.38634 108.744 6.24031C108.269 5.09428 107.574 4.05297 106.697 3.17584C105.819 2.2987 104.778 1.60292 103.632 1.12822C102.497 0.657873 101.28 0.413636 100.051 0.409198C100.04 0.409157 100.029 0.409198 100.017 0.409198H92.481C92.255 0.409198 92.0718 0.592406 92.0718 0.818407V18.8918ZM100.017 4.8423H96.7777C96.627 4.8423 96.5049 4.96443 96.5049 5.1151V14.5951C96.5049 14.7458 96.627 14.8679 96.7777 14.8679H100.017V14.8656C100.675 14.8656 101.327 14.736 101.935 14.4842C102.543 14.2324 103.095 13.8633 103.56 13.3981C104.025 12.9328 104.395 12.3804 104.646 11.7725C104.898 11.1646 105.028 10.5131 105.028 9.8551C105.028 9.19712 104.898 8.54557 104.646 7.93767C104.395 7.32976 104.025 6.77741 103.56 6.31214C103.095 5.84687 102.543 5.4778 101.935 5.226C101.327 4.9742 100.675 4.8446 100.017 4.8446V4.8423Z" fill="white"/>
    <path fill-rule="evenodd" clip-rule="evenodd" d="M169.038 19.8466C174.443 19.8466 178.825 15.4038 178.825 9.92332C178.825 4.44282 174.443 0 169.038 0C163.633 0 159.251 4.44282 159.251 9.92332C159.251 15.4038 163.633 19.8466 169.038 19.8466ZM169.14 15.0725C172.041 15.0725 174.392 12.7213 174.392 9.82101C174.392 6.92068 172.041 4.5695 169.14 4.5695C166.24 4.5695 163.889 6.92068 163.889 9.82101C163.889 12.7213 166.24 15.0725 169.14 15.0725Z" fill="white"/>
    <path d="M181.484 0.818389C181.484 0.592389 181.668 0.40918 181.894 0.40918H191.169V0.413555C192.646 0.46784 194.041 1.02786 195.091 2.11422C196.197 3.25895 196.83 4.89432 196.83 6.51321C196.83 8.1321 196.208 9.68469 195.102 10.8294C194.501 11.4506 193.686 11.8263 192.894 12.1174C192.813 12.1471 192.779 12.2428 192.823 12.3167L196.63 18.6817C196.793 18.9545 196.596 19.301 196.279 19.301H191.924C191.774 19.301 191.636 19.2191 191.564 19.0876L188.456 13.3822C188.336 13.1629 188.107 13.0265 187.857 13.0265H186.872C186.496 13.0265 186.19 13.3318 186.19 13.7085V18.8236C186.19 19.0496 186.007 19.2328 185.781 19.2328H181.894C181.668 19.2328 181.484 19.0496 181.484 18.8236V8.86616C181.484 8.64016 181.666 8.45696 181.892 8.45696C183.654 8.45696 190.534 8.45696 190.623 8.45696C190.726 8.45696 190.93 8.38875 190.93 8.38875C191.408 8.18415 191.651 7.99357 191.919 7.57034C192.151 7.20589 192.255 6.94484 192.26 6.51321C192.266 6.03949 192.148 5.74794 191.885 5.35379C191.617 4.95232 191.203 4.70587 190.93 4.56947C190.657 4.43307 190.351 4.36487 189.703 4.36487C189.145 4.36487 183.468 4.36487 181.89 4.36487C181.664 4.36487 181.484 4.18166 181.484 3.95566V0.818389Z" fill="white"/>
</svg>
