<svg width="682" height="552" viewBox="0 0 682 552" fill="none" xmlns="http://www.w3.org/2000/svg">
<path d="M321.675 314.578C302.442 310.889 286.255 303.549 273.114 292.557C259.997 281.44 250.701 267.731 245.225 251.432C239.875 235.157 239.044 217.403 242.733 198.169L259.514 110.676C263.202 91.4423 270.543 75.2552 281.535 62.1144C292.652 48.9977 306.349 39.7643 322.624 34.4141C338.923 28.9382 356.689 28.0446 375.923 31.7334C395.156 35.4223 411.269 42.8134 424.259 53.907C437.4 64.8989 446.709 78.5445 452.185 94.8437C457.66 111.143 458.554 128.909 454.865 148.143L438.085 235.636C434.396 254.869 426.993 271.045 415.875 284.161C404.757 297.278 391.049 306.574 374.75 312.05C358.6 317.424 340.909 318.267 321.675 314.578ZM329.957 271.397C339.511 273.23 348.619 272.631 357.281 269.6C365.967 266.443 373.308 261.465 379.304 254.665C385.325 247.739 389.251 239.499 391.083 229.945L409.13 135.852C410.986 126.172 410.387 117.064 407.332 108.528C404.301 99.8664 399.323 92.5252 392.397 86.5049C385.495 80.3589 377.267 76.3697 367.713 74.5373C358.16 72.7049 349.04 73.367 340.354 76.5234C331.692 79.5541 324.351 84.5324 318.33 91.4584C312.334 98.2587 308.408 106.499 306.551 116.178L288.505 210.271C286.672 219.825 287.272 228.933 290.302 237.595C293.357 246.131 298.336 253.472 305.237 259.618C312.163 265.639 320.403 269.565 329.957 271.397Z" fill="#E5E5E5"/>
<path d="M122.696 277V231.304H0.200195V188.104L88.7122 0.52002H141.512L53.0002 188.104H122.696V116.104H169.544V188.104H195.464V231.304H169.544V277H122.696Z" fill="#E5E5E5"/>
<path d="M609.071 277V231.304H486.575V188.104L575.087 0.52002H627.887L539.375 188.104H609.071V116.104H655.919V188.104H681.839V231.304H655.919V277H609.071Z" fill="#E5E5E5"/>
<path d="M415.069 473.426C413.447 478.926 410.141 483.704 406.595 488.104C406.092 488.738 405.59 489.362 405.088 489.962C394.406 502.88 381.412 513.593 366.996 521.354C372.938 524.126 379.016 527.389 384.917 530.128C385.922 530.596 386.957 531.097 387.731 531.978C388.463 532.856 388.788 534.215 388.233 535.218C387.522 536.476 385.901 536.565 384.54 536.476C375.972 535.841 367.623 532.667 360.676 527.356C361.827 531.197 363.187 535.284 364.338 539.147C364.808 540.718 365.29 542.354 365.112 543.981C364.965 545.618 363.961 547.288 362.423 547.633C361.388 547.878 360.268 547.445 359.41 546.721C358.583 546.03 357.934 545.084 357.318 544.136C352.976 537.701 348.54 530.875 347.451 523.024C345.914 525.975 343.612 528.58 340.714 529.972C339.48 530.563 338.004 530.941 336.791 530.318C335.4 529.594 334.866 527.767 334.698 526.131C334.196 520.819 336.174 515.607 338.559 510.919C339.72 508.626 340.996 506.399 342.356 504.238C340.264 505.085 338.13 505.876 335.954 506.599C333.631 507.379 331.266 508.08 328.871 508.726C312.864 512.957 295.622 514.349 280.808 514.516C277.753 514.549 274.802 514.528 271.988 514.471C270.795 514.449 269.624 514.416 268.483 514.382C248.752 515.006 221.1 513.903 197.989 505.519C196.859 505.107 195.739 504.683 194.63 504.238C196 506.399 197.278 508.626 198.439 510.919C200.824 515.607 202.812 520.819 202.309 526.131C202.131 527.767 201.598 529.594 200.207 530.318C198.993 530.941 197.518 530.563 196.284 529.972C193.385 528.58 191.084 525.975 189.546 523.024C188.457 530.875 184.022 537.701 179.691 544.136C179.063 545.084 178.414 546.03 177.587 546.721C176.73 547.445 175.61 547.878 174.575 547.633C173.047 547.288 172.042 545.618 171.885 543.981C171.718 542.354 172.189 540.718 172.66 539.147C173.811 535.284 175.17 531.197 176.321 527.356C169.385 532.667 161.026 535.841 152.457 536.476C151.097 536.565 149.475 536.476 148.764 535.218C148.209 534.215 148.534 532.856 149.266 531.978C150.041 531.097 151.076 530.596 152.081 530.128C157.982 527.389 164.07 524.126 170.002 521.354C155.585 513.593 142.602 502.88 131.909 489.962C131.407 489.362 130.905 488.738 130.403 488.104C126.856 483.704 123.55 478.926 121.928 473.426C120.328 467.892 120.663 461.422 123.99 456.868C126.239 453.716 129.576 451.869 133.207 451.111C136.304 450.487 139.62 450.609 142.654 451.456C147.278 452.714 151.442 455.264 155.407 458.148C155.282 457.246 155.177 456.322 155.094 455.386C153.754 440.554 154.56 426.88 156.946 414.374C160.377 396.613 167.072 381.146 175.757 368.017C179.712 361.948 184.147 356.347 188.813 351.258C180.6 345.067 175.254 334.889 175.254 323.386C175.254 304.467 189.671 289.155 207.416 289.155C223.893 289.155 237.442 302.329 239.335 319.333C258.617 315.524 278.369 315.524 297.62 319.333C299.514 302.329 313.094 289.155 329.54 289.155C347.326 289.155 361.732 304.467 361.732 323.386C361.732 334.889 356.355 345.067 348.174 351.258C355.675 359.432 362.444 368.831 367.937 379.487C375.763 394.564 381.046 412.17 382.228 432.348C382.698 439.674 382.604 447.369 381.904 455.386C381.82 456.322 381.716 457.246 381.589 458.148C385.555 455.264 389.72 452.714 394.343 451.456C397.388 450.609 400.694 450.487 403.791 451.111C407.422 451.869 410.759 453.716 413.008 456.868C416.345 461.422 416.669 467.892 415.069 473.426Z" fill="#7BCC3F"/>
<path d="M138.583 469.749C138.347 477.009 135.778 483.955 131.909 489.958C131.407 489.361 130.905 488.733 130.403 488.104C126.86 483.703 123.553 478.926 121.928 473.426C120.334 467.894 120.659 461.42 123.995 456.863C126.24 453.72 129.576 451.866 133.209 451.111C136.87 456.36 138.789 463.149 138.583 469.749Z" fill="#99D536"/>
<path d="M151.033 487.285C151.033 490.944 148.247 493.909 144.81 493.909C141.373 493.909 138.587 490.944 138.587 487.285C138.587 483.627 141.373 480.662 144.81 480.662C148.247 480.662 151.033 483.627 151.033 487.285Z" fill="#99D536"/>
<path d="M398.416 469.749C398.653 477.009 401.222 483.955 405.09 489.958C405.593 489.361 406.095 488.733 406.596 488.104C410.139 483.703 413.447 478.926 415.071 473.426C416.667 467.894 416.342 461.42 413.004 456.863C410.76 453.72 407.423 451.866 403.792 451.111C400.13 456.36 398.21 463.149 398.416 469.749Z" fill="#99D536"/>
<path d="M385.966 487.285C385.966 490.944 388.753 493.909 392.19 493.909C395.626 493.909 398.413 490.944 398.413 487.285C398.413 483.627 395.626 480.662 392.19 480.662C388.753 480.662 385.966 483.627 385.966 487.285Z" fill="#99D536"/>
<path d="M177.412 394.381C174.075 403.967 166.161 411.573 156.948 414.37C160.374 396.612 167.077 381.149 175.758 368.011C179.656 376.058 180.394 385.863 177.412 394.381Z" fill="#99D536"/>
<path d="M177.734 421.191C177.734 424.515 175.202 427.211 172.08 427.211C168.956 427.211 166.425 424.515 166.425 421.191C166.425 417.867 168.956 415.173 172.08 415.173C175.202 415.173 177.734 417.867 177.734 421.191Z" fill="#99D536"/>
<path d="M382.226 432.348C372.422 430.179 363.622 422.541 360.257 412.422C356.506 401.138 359.784 387.687 367.934 379.483C375.759 394.569 381.045 412.17 382.226 432.348Z" fill="#99D536"/>
<path d="M365.965 435.055C365.965 438.232 363.547 440.806 360.562 440.806C357.578 440.806 355.159 438.232 355.159 435.055C355.159 431.88 357.578 429.305 360.562 429.305C363.547 429.305 365.965 431.88 365.965 435.055Z" fill="#99D536"/>
<path d="M344.354 479.528C343.455 489.082 340.379 498.214 335.953 506.599C333.63 507.378 331.265 508.08 328.87 508.726C312.863 512.957 295.621 514.349 280.807 514.516C278.588 514.494 276.454 514.449 274.404 514.382C273.609 514.406 272.803 514.439 271.987 514.471C270.794 514.449 269.623 514.416 268.482 514.382C248.751 515.006 221.099 513.903 197.988 505.518C194.702 497.189 192.182 484.851 192.401 476.511C192.841 460.286 199.609 444.608 210.061 432.793C220.481 421 234.397 412.96 249.096 408.74C271.066 402.492 295.663 404.975 314.83 418.049C333.965 431.155 346.604 455.453 344.354 479.528Z" fill="#99D536"/>
<path d="M214.943 465.136C213.621 464.578 212.052 465.147 211.037 466.208C210.022 467.27 209.473 468.734 209.103 470.197C207.389 476.96 208.983 484.15 211.05 490.802C215.241 504.291 221.35 516.998 227.434 529.642C225.975 531.991 224.425 534.264 222.587 536.289C221.749 537.211 220.866 538.112 220.26 539.221C219.654 540.33 219.359 541.711 219.791 542.907C220.37 544.507 222.127 545.353 223.733 545.236C225.339 545.119 226.805 544.231 228.107 543.225C230.17 541.631 231.99 539.683 233.474 537.477C233.724 540.741 234.301 544.638 235.576 547.617C236.031 548.681 236.57 549.743 237.414 550.491C238.258 551.238 239.471 551.615 240.481 551.155C241.233 550.814 241.769 550.061 242.06 549.249C242.349 548.435 242.424 547.554 242.481 546.686C242.704 543.315 242.696 539.927 242.461 536.556C245.274 539.628 248.65 541.994 252.404 543.557C253.333 543.944 254.415 544.27 255.294 543.766C255.981 543.373 256.365 542.553 256.522 541.74C256.935 539.596 256.028 537.366 254.676 535.718C253.323 534.069 251.559 532.878 249.878 531.616C248.197 530.355 246.533 528.951 245.52 527.047C239.762 516.215 242.443 502.416 240.07 490.228C239.197 485.744 238.185 481.25 236.377 477.095C234.568 472.939 231.901 469.103 228.275 466.636C224.648 464.17 219.001 463.614 214.943 465.136Z" fill="#99D536"/>
<path d="M321.681 465.136C323.003 464.578 324.572 465.147 325.586 466.208C326.6 467.27 327.15 468.734 327.521 470.197C329.234 476.96 327.64 484.15 325.573 490.802C321.383 504.291 315.274 516.998 309.189 529.642C310.648 531.991 312.199 534.264 314.036 536.289C314.874 537.211 315.758 538.112 316.364 539.221C316.969 540.33 317.265 541.711 316.832 542.907C316.254 544.507 314.495 545.353 312.89 545.236C311.285 545.119 309.819 544.231 308.517 543.225C306.454 541.631 304.634 539.683 303.149 537.477C302.899 540.741 302.323 544.638 301.048 547.617C300.593 548.681 300.054 549.743 299.21 550.491C298.366 551.238 297.153 551.615 296.143 551.155C295.39 550.814 294.855 550.061 294.564 549.249C294.274 548.435 294.199 547.554 294.142 546.686C293.92 543.315 293.927 539.927 294.163 536.556C291.349 539.628 287.973 541.994 284.22 543.557C283.29 543.944 282.208 544.27 281.329 543.766C280.642 543.373 280.258 542.553 280.102 541.74C279.688 539.596 280.595 537.366 281.948 535.718C283.3 534.069 285.064 532.878 286.745 531.616C288.426 530.355 290.091 528.951 291.103 527.047C296.861 516.215 294.18 502.416 296.553 490.228C297.427 485.744 298.438 481.25 300.247 477.095C302.056 472.939 304.723 469.103 308.349 466.636C311.975 464.17 317.622 463.614 321.681 465.136Z" fill="#99D536"/>
<path d="M148.805 469.341C153.72 469.905 158.586 471.204 163.215 473.159C167.856 475.091 172.261 477.665 176.343 480.72C180.408 483.802 184.151 487.37 187.405 491.387C190.676 495.386 193.443 499.84 195.573 504.588C190.196 495.768 183.373 488.124 175.402 482.135C167.449 476.119 158.409 471.806 148.805 469.341Z" fill="#335624"/>
<path d="M388.194 469.341C378.59 471.806 369.55 476.119 361.597 482.135C353.626 488.124 346.803 495.768 341.426 504.588C343.556 499.84 346.323 495.386 349.594 491.387C352.848 487.37 356.591 483.802 360.656 480.72C364.738 477.665 369.143 475.091 373.783 473.159C378.413 471.204 383.279 469.905 388.194 469.341Z" fill="#335624"/>
<path d="M218.183 509.734C216.836 506.995 215.638 504.197 214.494 501.376C213.341 498.558 212.276 495.704 211.228 492.844C210.21 489.971 209.21 487.092 208.299 484.175C207.377 481.262 206.511 478.329 205.796 475.333C207.145 478.07 208.343 480.869 209.487 483.69C210.64 486.508 211.704 489.362 212.75 492.223C213.767 495.096 214.767 497.976 215.678 500.892C216.598 503.805 217.466 506.738 218.183 509.734Z" fill="#335624"/>
<path d="M241.854 513.481C240.322 507.075 239.277 500.592 238.353 494.091C237.477 487.581 236.723 481.052 236.462 474.447C237.999 480.853 239.044 487.336 239.964 493.838C240.837 500.348 241.59 506.877 241.854 513.481Z" fill="#335624"/>
<path d="M294.681 514.299C294.889 507.347 295.585 500.463 296.402 493.595C297.268 486.735 298.256 479.892 299.739 473.117C299.535 480.069 298.838 486.954 298.018 493.821C297.149 500.68 296.16 507.524 294.681 514.299Z" fill="#335624"/>
<path d="M317.343 512.238C318.917 505.704 320.957 499.351 323.109 493.042C325.308 486.752 327.622 480.508 330.405 474.447C328.833 480.982 326.794 487.335 324.638 493.641C322.436 499.931 320.121 506.175 317.343 512.238Z" fill="#335624"/>
<path d="M259.314 326.052C260.076 326.124 260.754 326.342 261.402 326.612C262.056 326.873 262.668 327.208 263.256 327.584C263.841 327.964 264.403 328.387 264.922 328.884C265.446 329.371 265.94 329.911 266.351 330.599C265.589 330.529 264.91 330.312 264.261 330.041C263.609 329.78 262.997 329.445 262.41 329.068C261.825 328.685 261.263 328.263 260.745 327.765C260.22 327.278 259.726 326.738 259.314 326.052Z" fill="#335624"/>
<path d="M277.685 326.052C277.273 326.738 276.778 327.278 276.254 327.765C275.735 328.263 275.174 328.685 274.589 329.068C274.003 329.445 273.391 329.78 272.737 330.041C272.089 330.312 271.41 330.529 270.647 330.599C271.058 329.911 271.553 329.371 272.077 328.884C272.596 328.387 273.158 327.964 273.743 327.584C274.332 327.208 274.943 326.873 275.596 326.612C276.245 326.342 276.923 326.124 277.685 326.052Z" fill="#335624"/>
<path d="M228.813 323.381C228.813 335.901 219.276 346.05 207.514 346.05C195.751 346.05 186.215 335.901 186.215 323.381C186.215 310.861 195.751 300.712 207.514 300.712C219.276 300.712 228.813 310.861 228.813 323.381Z" fill="white"/>
<path d="M228.366 322.223C228.366 333.756 219.58 343.108 208.742 343.108C197.905 343.108 189.12 333.756 189.12 322.223C189.12 310.687 197.905 301.336 208.742 301.336C219.58 301.336 228.366 310.687 228.366 322.223Z" fill="#335624"/>
<path d="M352.467 323.381C352.467 335.901 342.932 346.05 331.169 346.05C319.406 346.05 309.87 335.901 309.87 323.381C309.87 310.861 319.406 300.712 331.169 300.712C342.932 300.712 352.467 310.861 352.467 323.381Z" fill="white"/>
<path d="M352.021 322.223C352.021 333.756 343.235 343.108 332.398 343.108C321.56 343.108 312.774 333.756 312.774 322.223C312.774 310.687 321.56 301.336 332.398 301.336C343.235 301.336 352.021 310.687 352.021 322.223Z" fill="#335624"/>
<path d="M321.337 367.131C321.219 369.238 320.481 371.406 319.418 373.229C317.912 375.806 315.844 377.912 313.512 379.673C310.411 381.998 306.75 383.695 303.118 385.015C300.017 386.146 295.824 386.964 291.011 387.561C278.313 389.163 261.54 389.132 250.999 388.913H250.084C243.173 388.723 236.322 387.466 229.768 385.077L229.679 385.015C223.331 382.721 216.952 379.264 213.379 373.229C210.603 368.484 210.072 361.16 216.716 359.086C218.812 358.425 221.086 358.583 223.212 359.148C234.58 362.229 246.156 364.304 257.85 365.372C263.549 365.906 269.248 365.906 274.946 365.372C286.641 364.304 298.216 362.229 309.584 359.148C311.71 358.583 313.984 358.425 316.081 359.086C320.185 360.374 321.573 363.674 321.337 367.131Z" fill="#335624"/>
<path d="M411.34 290.224C411.34 292.706 410.662 295.159 409.776 297.421C403.486 313.608 397.108 330.013 386.891 343.717C371.624 364.24 348.001 377.44 323.492 379.2C320.185 379.452 316.848 379.483 313.511 379.673C310.085 379.861 306.69 380.175 303.353 380.961C298.806 382.029 294.288 384.198 291.01 387.561C278.312 389.163 261.54 389.132 250.998 388.913C255.812 380.929 265.439 377.534 274.326 375.524C289.504 372.097 304.977 370.527 320.215 367.383C320.598 367.32 320.952 367.226 321.336 367.131C336.16 363.989 350.954 359.148 363.415 350.035C364.154 349.531 364.862 348.997 365.57 348.432C375.64 340.543 383.702 330.171 390.464 319.045C393.889 313.387 397.019 307.51 399.973 301.539C402.659 296.133 405.111 290.633 407.679 285.163C407.826 284.787 408.004 284.41 408.329 284.19C410.249 282.838 411.311 289.093 411.34 290.224Z" fill="#F68590"/>
<path d="M397.718 314.218C394.652 319.898 391.452 325.501 388.012 330.946C384.547 336.369 380.802 341.609 376.638 346.471C372.485 351.341 367.848 355.761 362.777 359.548C357.705 363.327 352.158 366.437 346.252 368.506C340.336 370.552 334.177 371.538 328.047 372.207C321.908 372.868 315.765 373.257 309.665 373.984C303.579 374.731 297.515 375.978 291.768 378.256C286.027 380.487 280.6 383.889 276.408 388.718C280.426 383.714 285.856 380.166 291.584 377.746C297.351 375.342 303.451 373.99 309.568 373.135C315.688 372.268 321.844 371.909 327.947 371.199C334.045 370.501 340.128 369.485 345.928 367.449C351.733 365.45 357.209 362.421 362.234 358.718C367.269 355.017 371.841 350.63 376.051 345.891C380.253 341.138 384.051 335.981 387.593 330.636C391.165 325.31 394.451 319.769 397.718 314.218Z" fill="#F46E76"/>
<path d="M161.831 438.146C162.244 438.859 162.337 439.571 162.355 440.283C162.34 440.996 162.246 441.708 161.831 442.421C161.417 441.708 161.324 440.996 161.309 440.283C161.327 439.571 161.419 438.859 161.831 438.146Z" fill="#658F2B"/>
<path d="M164.77 443.264C165.182 443.644 165.274 444.022 165.291 444.401C165.277 444.781 165.184 445.16 164.77 445.539C164.354 445.16 164.261 444.781 164.246 444.401C164.264 444.022 164.357 443.644 164.77 443.264Z" fill="#658F2B"/>
<path d="M186.674 365.362C187.086 365.837 187.18 366.31 187.198 366.784C187.182 367.258 187.089 367.732 186.674 368.205C186.26 367.732 186.167 367.258 186.151 366.784C186.169 366.31 186.262 365.837 186.674 365.362Z" fill="#658F2B"/>
<path d="M190.148 366.785C190.56 367.261 190.652 367.736 190.67 368.213C190.655 368.689 190.562 369.165 190.148 369.642C189.733 369.165 189.64 368.689 189.625 368.213C189.642 367.736 189.735 367.261 190.148 366.785Z" fill="#658F2B"/>
<path d="M186.14 388.392C186.552 388.726 186.645 389.062 186.663 389.397C186.648 389.733 186.555 390.067 186.14 390.402C185.726 390.067 185.632 389.733 185.617 389.397C185.635 389.062 185.727 388.726 186.14 388.392Z" fill="#658F2B"/>
<path d="M139.395 459.186C139.807 459.615 139.9 460.044 139.918 460.472C139.903 460.901 139.81 461.331 139.395 461.76C138.98 461.331 138.888 460.901 138.872 460.472C138.89 460.044 138.983 459.615 139.395 459.186Z" fill="#658F2B"/>
<path d="M142.866 459.186C143.279 459.708 143.372 460.232 143.39 460.755C143.375 461.278 143.282 461.802 142.866 462.325C142.452 461.802 142.359 461.278 142.344 460.755C142.362 460.232 142.454 459.708 142.866 459.186Z" fill="#658F2B"/>
<path d="M169.579 513.488C169.992 513.88 170.084 514.271 170.101 514.66C170.086 515.052 169.994 515.442 169.579 515.834C169.164 515.442 169.071 515.052 169.056 514.66C169.074 514.271 169.166 513.88 169.579 513.488Z" fill="#658F2B"/>
<path d="M370.72 459.186C371.133 459.755 371.225 460.327 371.243 460.897C371.228 461.469 371.135 462.038 370.72 462.609C370.306 462.038 370.212 461.469 370.197 460.897C370.215 460.327 370.307 459.755 370.72 459.186Z" fill="#658F2B"/>
<path d="M373.39 459.47C373.803 459.899 373.895 460.328 373.913 460.758C373.898 461.186 373.805 461.615 373.39 462.044C372.976 461.615 372.882 461.186 372.867 460.758C372.885 460.328 372.977 459.899 373.39 459.47Z" fill="#658F2B"/>
<path d="M375.262 438.146C375.674 439.1 375.767 440.051 375.785 441.003C375.769 441.957 375.677 442.908 375.262 443.861C374.848 442.908 374.754 441.957 374.739 441.003C374.757 440.051 374.849 439.1 375.262 438.146Z" fill="#658F2B"/>
<path d="M369.385 486.479C369.797 487.239 369.89 487.998 369.908 488.758C369.892 489.517 369.799 490.278 369.385 491.037C368.97 490.278 368.878 489.517 368.862 488.758C368.879 487.998 368.973 487.239 369.385 486.479Z" fill="#658F2B"/>
<path d="M373.659 489.038C374.072 489.562 374.164 490.085 374.182 490.608C374.167 491.131 374.074 491.654 373.659 492.178C373.244 491.654 373.152 491.131 373.136 490.608C373.154 490.085 373.247 489.562 373.659 489.038Z" fill="#658F2B"/>
<path d="M341.872 350.579C342.285 351.223 342.377 351.867 342.395 352.512C342.38 353.156 342.287 353.801 341.872 354.445C341.457 353.801 341.364 353.156 341.349 352.512C341.367 351.867 341.46 351.223 341.872 350.579Z" fill="#658F2B"/>
<path d="M352.556 395.215C352.968 395.698 353.06 396.181 353.078 396.665C353.063 397.148 352.97 397.632 352.556 398.114C352.141 397.632 352.048 397.148 352.033 396.665C352.05 396.181 352.143 395.698 352.556 395.215Z" fill="#658F2B"/>
<path d="M356.563 385.264C356.975 385.975 357.067 386.685 357.085 387.396C357.07 388.107 356.977 388.818 356.563 389.529C356.147 388.818 356.054 388.107 356.039 387.396C356.057 386.685 356.149 385.975 356.563 385.264Z" fill="#658F2B"/>
<path d="M222.201 427.627C222.614 428.137 222.707 428.648 222.724 429.158C222.709 429.667 222.617 430.178 222.201 430.689C221.787 430.178 221.694 429.667 221.679 429.158C221.696 428.648 221.789 428.137 222.201 427.627Z" fill="#658F2B"/>
<path d="M229.148 428.764C229.56 429.333 229.652 429.901 229.67 430.469C229.655 431.039 229.563 431.607 229.148 432.176C228.733 431.607 228.64 431.039 228.625 430.469C228.642 429.901 228.735 429.333 229.148 428.764Z" fill="#658F2B"/>
<path d="M222.201 407.725C222.614 408.199 222.707 408.673 222.724 409.146C222.709 409.621 222.617 410.094 222.201 410.568C221.787 410.094 221.694 409.621 221.679 409.146C221.696 408.673 221.789 408.199 222.201 407.725Z" fill="#658F2B"/>
<path d="M236.626 324.421C237.039 324.896 237.132 325.369 237.149 325.843C237.134 326.317 237.041 326.791 236.626 327.264C236.212 326.791 236.119 326.317 236.104 325.843C236.122 325.369 236.214 324.896 236.626 324.421Z" fill="#658F2B"/>
</svg>
