<svg width="434" height="609" viewBox="0 0 434 609" fill="none" xmlns="http://www.w3.org/2000/svg">
<path d="M416.96 358.488V356.976H281.266V358.488L282.227 357.307C279.175 354.931 277.056 350.695 277.077 346.85C277.077 345.418 277.356 344.05 277.942 342.818C278.901 340.797 280.527 339.087 282.506 337.888C284.483 336.687 286.797 336.01 289.075 336.012C289.806 336.012 290.53 336.08 291.244 336.222C292.424 336.453 293.58 336.901 294.477 337.529C295.377 338.166 296.017 338.945 296.344 339.954L296.4 340.136L296.342 339.954C296.447 340.278 296.499 340.62 296.499 340.954C296.499 341.519 296.348 342.051 296.068 342.481V342.479C295.785 342.909 295.487 343.158 295.166 343.324C294.846 343.489 294.488 343.572 294.08 343.572C293.44 343.577 292.68 343.347 292.009 342.924C291.338 342.506 290.77 341.905 290.452 341.271C289.967 340.316 289.764 339.233 289.763 338.042C289.763 336.709 290.026 335.26 290.384 333.841C293.917 319.767 304.939 307.335 318.989 303.347C322.108 302.458 325.365 302.024 328.633 302.024C340.046 302.016 351.506 307.335 357.579 316.637C359.043 318.858 360.14 321.424 360.128 323.714C360.124 325.004 359.814 326.209 359.04 327.39C358.233 328.623 356.821 329.358 355.528 329.35C354.857 329.347 354.222 329.17 353.633 328.77C353.119 328.418 352.805 328.032 352.586 327.585C352.371 327.139 352.26 326.614 352.259 326.009C352.256 325.076 352.542 323.97 353.049 322.899C353.556 321.83 354.277 320.801 355.061 320.003C359.246 315.715 365.339 313.219 371.394 313.223C372.2 313.223 373.005 313.267 373.804 313.356C380.614 314.103 387.047 318.169 390.565 323.945C391.759 325.891 392.588 328.162 392.58 330.194C392.58 331.118 392.419 331.992 392.065 332.815V332.817C391.631 333.848 390.639 334.787 389.497 335.293L389.368 335.331L389.292 335.272L389.174 334.958L389.197 334.852L389.337 334.742C392.223 333.268 395.519 332.503 398.801 332.503C402.113 332.503 405.401 333.28 408.255 334.852C410.849 336.275 412.781 338.866 414.056 342.097C415.332 345.315 415.926 349.122 415.923 352.728C415.923 354.657 415.755 356.53 415.446 358.219L416.96 358.488L418.474 358.756C418.818 356.872 419 354.83 419 352.728C418.998 348.802 418.372 344.668 416.926 341.002C415.479 337.345 413.182 334.104 409.759 332.214C406.401 330.366 402.599 329.48 398.801 329.479C395.036 329.48 391.268 330.35 387.918 332.058C387.332 332.354 386.849 332.803 386.541 333.324C386.23 333.845 386.095 334.418 386.096 334.958C386.101 335.809 386.404 336.598 386.952 337.235C387.49 337.868 388.361 338.358 389.368 338.355C389.841 338.355 390.325 338.246 390.774 338.045C392.547 337.244 394.093 335.85 394.901 333.992C395.432 332.757 395.658 331.465 395.658 330.194C395.65 327.382 394.592 324.674 393.204 322.39C389.155 315.78 381.951 311.226 374.15 310.353C373.233 310.25 372.313 310.2 371.394 310.2C364.49 310.206 357.649 313.001 352.842 317.907C351.811 318.962 350.917 320.242 350.26 321.625C349.607 323.008 349.184 324.502 349.181 326.009C349.181 326.98 349.364 327.962 349.804 328.877C350.241 329.793 350.945 330.622 351.879 331.255C352.996 332.019 354.28 332.376 355.528 332.374C357.946 332.365 360.245 331.107 361.622 329.034C362.739 327.349 363.21 325.501 363.205 323.714C363.194 320.512 361.802 317.508 360.168 315C353.397 304.691 340.986 299.006 328.633 299C325.09 299 321.544 299.47 318.132 300.444C302.857 304.819 291.2 318.063 287.398 333.113C287.01 334.655 286.687 336.328 286.687 338.042C286.685 339.566 286.948 341.143 287.698 342.62C288.305 343.811 289.25 344.779 290.355 345.474C291.461 346.165 292.741 346.593 294.08 346.596C294.925 346.598 295.796 346.416 296.597 346.002C297.399 345.591 298.115 344.947 298.656 344.115C299.289 343.146 299.576 342.039 299.576 340.954C299.576 340.308 299.476 339.667 299.279 339.052V339.05C298.733 337.33 297.598 335.996 296.262 335.067C294.922 334.132 293.38 333.562 291.852 333.257C290.932 333.076 290.001 332.988 289.075 332.988C286.182 332.989 283.334 333.833 280.89 335.315C278.447 336.796 276.397 338.925 275.152 341.537C274.354 343.219 274 345.036 274 346.85C274.02 351.729 276.485 356.639 280.306 359.667L280.727 360H418.246L418.474 358.756L416.96 358.488Z" fill="#CBCBCB"/>
<path d="M369.262 14.6523V14.3046H319.235V14.6523L319.678 14.565C319.273 13.3801 318.915 12.0718 318.915 10.8365C318.915 10.104 319.041 9.39887 319.346 8.7574C320.182 6.99327 322.028 5.46451 324.341 4.93394C324.903 4.80426 325.496 4.73994 326.091 4.73994C327.928 4.73889 329.758 5.35463 330.769 6.46478C331.118 6.84479 331.357 7.28878 331.355 7.69174C331.355 7.77971 331.344 7.86629 331.322 7.95147C331.269 8.15625 331.111 8.36591 330.901 8.51333C330.69 8.66248 330.441 8.74417 330.208 8.74348L330.099 8.73793C329.928 8.7188 329.798 8.67395 329.68 8.60406C329.505 8.50011 329.355 8.32592 329.253 8.09854C329.151 7.87254 329.099 7.59927 329.1 7.32703C329.1 7.1445 329.122 6.96231 329.164 6.79577C329.526 5.34211 330.514 3.99139 331.895 2.93374C333.276 1.87575 335.046 1.11433 336.957 0.827491C337.548 0.738484 338.149 0.695362 338.751 0.695362C342.044 0.692928 345.36 1.9943 347.156 4.09082C347.619 4.62729 347.969 5.25069 347.966 5.80732C347.966 5.98568 347.932 6.15778 347.859 6.32536C347.767 6.53849 347.554 6.74224 347.283 6.88792C347.013 7.03394 346.69 7.11669 346.416 7.1153C346.174 7.11391 345.979 7.0614 345.811 6.9411C345.7 6.85975 345.627 6.77144 345.576 6.66853C345.526 6.56631 345.5 6.44809 345.5 6.31701C345.496 5.94082 345.729 5.46555 346.042 5.10048C347.481 3.40137 350.143 2.31626 352.802 2.31904C352.964 2.31904 353.126 2.32287 353.289 2.33121C356.106 2.46785 358.793 3.85648 359.996 5.79585C360.259 6.21619 360.439 6.69947 360.438 7.12921C360.437 7.47723 360.328 7.7818 360.077 8.03318C359.887 8.22822 359.506 8.34852 359.113 8.34748C358.845 8.34818 358.588 8.29045 358.424 8.20318C358.341 8.15972 358.28 8.1107 358.237 8.0575C358.195 8.00361 358.168 7.94486 358.161 7.86697L358.159 7.82839C358.16 7.71852 358.198 7.62465 358.275 7.52765C358.39 7.38301 358.609 7.23802 358.888 7.12364C359.166 7.0089 359.497 6.92511 359.804 6.88269C360.218 6.82567 360.639 6.79752 361.06 6.79752C363.186 6.79613 365.329 7.51583 366.712 8.73862C368.028 9.89327 369.092 11.7127 369.085 13.287C369.085 13.7303 369.003 14.153 368.829 14.5397L369.262 14.6523L369.695 14.7646C369.907 14.2942 370 13.7946 370 13.287C369.993 11.4843 368.853 9.56887 367.405 8.28489C365.832 6.89903 363.453 6.10355 361.06 6.10216C360.585 6.10216 360.11 6.13379 359.64 6.1988C359.11 6.27321 358.551 6.42967 358.088 6.6873C357.857 6.81664 357.649 6.97309 357.495 7.16431C357.34 7.35449 357.243 7.58327 357.244 7.82839L357.248 7.91218C357.263 8.09715 357.336 8.27099 357.454 8.41771C357.631 8.63884 357.895 8.79563 358.184 8.89542C358.473 8.99555 358.792 9.04249 359.113 9.04284C359.729 9.04145 360.384 8.86865 360.805 8.45421C361.202 8.05855 361.355 7.5878 361.354 7.12921C361.352 6.55727 361.129 5.99055 360.824 5.49859C359.463 3.32106 356.515 1.79856 353.349 1.63724C353.166 1.6282 352.984 1.62368 352.802 1.62368C349.821 1.62646 346.898 2.81553 345.273 4.7236C344.89 5.17837 344.589 5.74299 344.584 6.31701C344.584 6.51658 344.623 6.71859 344.719 6.91191C344.813 7.10487 344.965 7.28844 345.177 7.44246C345.527 7.69939 345.982 7.8124 346.416 7.81066C346.917 7.80962 347.402 7.67437 347.812 7.45533C348.221 7.2349 348.56 6.92477 348.728 6.54545C348.835 6.30138 348.881 6.05244 348.881 5.80732C348.878 5.03756 348.437 4.31333 347.922 3.7108C345.934 1.4015 342.356 0.00243395 338.751 1.84238e-07C338.092 1.84238e-07 337.431 0.0472909 336.779 0.145337C334.671 0.462422 332.746 1.29477 331.245 2.44421C329.744 3.59364 328.665 5.06294 328.264 6.66644C328.212 6.87783 328.184 7.10104 328.184 7.32703C328.185 7.77554 328.289 8.23586 328.56 8.63048C328.695 8.82727 328.876 9.00807 329.114 9.15027C329.35 9.29247 329.644 9.39191 329.971 9.42633C330.05 9.43467 330.13 9.43884 330.208 9.43884C330.719 9.43814 331.177 9.26743 331.524 9.02232C331.872 8.77581 332.123 8.44935 332.22 8.08742C332.254 7.9553 332.27 7.82282 332.27 7.69174C332.268 7.08678 331.94 6.52806 331.521 6.06808C330.298 4.73577 328.186 4.04562 326.091 4.04457C325.41 4.04457 324.728 4.11794 324.075 4.26883C321.426 4.88388 319.409 6.57987 318.485 8.52132C318.134 9.2591 318 10.0449 318 10.8365C318.001 12.1723 318.38 13.531 318.792 14.7396L318.881 15H369.589L369.695 14.7646L369.262 14.6523Z" fill="#CBCBCB"/>
<path d="M117.818 514.133V513.265H39.2091V514.133L39.7663 513.455C37.9977 512.091 36.7703 509.661 36.7828 507.455C36.7828 506.633 36.9441 505.848 37.2837 505.141C37.8391 503.982 38.7813 503.001 39.9276 502.313C41.073 501.624 42.4137 501.235 43.7329 501.236C44.1563 501.236 44.5762 501.275 44.9898 501.357C45.6735 501.489 46.3429 501.746 46.8626 502.107C47.3841 502.472 47.7549 502.919 47.9439 503.498L47.9768 503.603L47.943 503.498C48.0036 503.684 48.0339 503.88 48.0339 504.072C48.0339 504.396 47.9465 504.702 47.7843 504.948V504.947C47.6203 505.193 47.4474 505.337 47.2619 505.432C47.0765 505.527 46.8688 505.574 46.6326 505.574C46.2618 505.577 45.8215 505.445 45.4328 505.202C45.0442 504.963 44.7153 504.617 44.5307 504.254C44.25 503.706 44.1323 503.085 44.1314 502.401C44.1314 501.636 44.2838 500.805 44.4915 499.99C46.5381 491.915 52.9232 484.782 61.0624 482.494C62.8693 481.984 64.7563 481.735 66.6496 481.735C73.2611 481.731 79.9001 484.782 83.4185 490.12C84.2662 491.394 84.9017 492.866 84.8946 494.18C84.8928 494.92 84.7128 495.612 84.2644 496.289C83.7973 496.997 82.979 497.418 82.2302 497.414C81.8416 497.412 81.4734 497.311 81.132 497.081C80.8343 496.879 80.6525 496.658 80.5259 496.401C80.4011 496.145 80.3369 495.844 80.336 495.497C80.3342 494.962 80.5 494.327 80.7942 493.713C81.0875 493.099 81.5055 492.509 81.9592 492.051C84.3838 489.591 87.9137 488.158 91.4213 488.161C91.8884 488.161 92.3546 488.186 92.8172 488.237C96.7625 488.666 100.489 490.998 102.527 494.313C103.219 495.429 103.699 496.732 103.695 497.898C103.695 498.428 103.601 498.93 103.396 499.402V499.403C103.145 499.995 102.57 500.533 101.909 500.824L101.834 500.846L101.79 500.812L101.721 500.632L101.735 500.571L101.816 500.507C103.488 499.662 105.397 499.223 107.299 499.223C109.217 499.223 111.122 499.669 112.775 500.571C114.278 501.387 115.397 502.874 116.136 504.728C116.875 506.574 117.219 508.759 117.217 510.828C117.217 511.934 117.12 513.009 116.941 513.978L117.818 514.133L118.695 514.286C118.895 513.205 119 512.033 119 510.828C118.999 508.575 118.636 506.203 117.798 504.1C116.961 502.001 115.63 500.141 113.646 499.057C111.701 497.997 109.499 497.489 107.299 497.488C105.118 497.489 102.935 497.988 100.994 498.968C100.654 499.138 100.374 499.395 100.196 499.694C100.016 499.993 99.9376 500.322 99.9385 500.632C99.9412 501.12 100.117 501.573 100.434 501.938C100.746 502.301 101.251 502.582 101.834 502.581C102.108 502.581 102.388 502.518 102.648 502.403C103.675 501.943 104.571 501.143 105.039 500.077C105.347 499.369 105.478 498.628 105.478 497.898C105.473 496.285 104.86 494.731 104.056 493.42C101.711 489.628 97.5371 487.015 93.0178 486.514C92.4865 486.455 91.9535 486.426 91.4213 486.426C87.4217 486.43 83.4586 488.033 80.6739 490.848C80.0766 491.454 79.5587 492.188 79.1781 492.981C78.8002 493.775 78.555 494.632 78.5532 495.497C78.5532 496.054 78.6593 496.618 78.9143 497.143C79.1674 497.668 79.5748 498.144 80.1159 498.507C80.763 498.945 81.5073 499.15 82.2302 499.149C83.6306 499.144 84.9623 498.422 85.7601 497.233C86.4073 496.266 86.68 495.206 86.6774 494.18C86.6711 492.343 85.8644 490.619 84.9178 489.18C80.9956 483.265 73.8057 480.003 66.6496 480C64.5968 480 62.543 480.27 60.5659 480.828C51.7171 483.339 44.9639 490.938 42.7613 499.573C42.5367 500.458 42.3495 501.417 42.3495 502.401C42.3486 503.276 42.501 504.18 42.9351 505.028C43.2872 505.711 43.8346 506.267 44.4746 506.666C45.1155 507.062 45.8571 507.307 46.6326 507.309C47.122 507.31 47.6265 507.206 48.0909 506.968C48.5554 506.732 48.9698 506.363 49.2836 505.886C49.65 505.33 49.8167 504.695 49.8167 504.072C49.8167 503.701 49.7587 503.334 49.6446 502.981V502.98C49.3282 501.993 48.6703 501.227 47.8966 500.694C47.1202 500.158 46.227 499.831 45.3419 499.656C44.8088 499.552 44.2695 499.501 43.7329 499.501C42.0571 499.502 40.4072 499.986 38.9916 500.836C37.5761 501.686 36.3888 502.908 35.6676 504.407C35.205 505.371 35 506.414 35 507.455C35.0116 510.254 36.4396 513.072 38.6529 514.809L38.8971 515H118.563L118.695 514.286L117.818 514.133Z" fill="#CBCBCB"/>
<path d="M262.992 550.513V550.026H194.686V550.513L195.291 550.391C194.738 548.732 194.249 546.901 194.25 545.171C194.25 544.146 194.421 543.158 194.837 542.26C195.979 539.791 198.5 537.65 201.658 536.908C202.426 536.726 203.235 536.636 204.047 536.636C206.556 536.634 209.054 537.496 210.434 539.051C210.911 539.583 211.238 540.204 211.234 540.768C211.234 540.892 211.22 541.013 211.189 541.132C211.118 541.419 210.902 541.712 210.615 541.919C210.327 542.127 209.987 542.242 209.669 542.241L209.519 542.233C209.286 542.206 209.109 542.144 208.948 542.046C208.709 541.9 208.504 541.656 208.365 541.338C208.225 541.022 208.155 540.639 208.155 540.258C208.155 540.002 208.186 539.747 208.243 539.514C208.737 537.479 210.086 535.588 211.972 534.107C213.857 532.626 216.274 531.56 218.883 531.158C219.69 531.034 220.512 530.974 221.334 530.974C225.83 530.97 230.357 532.792 232.809 535.727C233.441 536.478 233.92 537.351 233.915 538.13C233.915 538.38 233.869 538.621 233.769 538.856C233.643 539.154 233.353 539.439 232.982 539.643C232.614 539.848 232.173 539.963 231.799 539.961C231.469 539.959 231.202 539.886 230.973 539.718C230.822 539.604 230.722 539.48 230.652 539.336C230.583 539.193 230.548 539.027 230.548 538.844C230.542 538.317 230.861 537.652 231.289 537.141C233.253 534.762 236.887 533.243 240.519 533.247C240.74 533.247 240.961 533.252 241.182 533.264C245.029 533.455 248.699 535.399 250.341 538.114C250.7 538.703 250.946 539.379 250.944 539.981C250.943 540.468 250.794 540.895 250.451 541.246C250.192 541.52 249.672 541.688 249.135 541.686C248.769 541.687 248.419 541.607 248.194 541.484C248.081 541.424 247.997 541.355 247.939 541.281C247.881 541.205 247.845 541.123 247.835 541.014L247.833 540.96C247.834 540.806 247.886 540.675 247.991 540.539C248.148 540.336 248.447 540.133 248.828 539.973C249.207 539.812 249.659 539.695 250.079 539.636C250.644 539.556 251.218 539.517 251.793 539.517C254.696 539.515 257.622 540.522 259.51 542.234C261.307 543.851 262.76 546.398 262.75 548.602C262.75 549.222 262.639 549.814 262.401 550.356L262.992 550.513L263.584 550.67C263.873 550.012 264 549.312 264 548.602C263.99 546.078 262.434 543.396 260.457 541.599C258.309 539.659 255.061 538.545 251.793 538.543C251.145 538.543 250.496 538.587 249.855 538.678C249.131 538.782 248.367 539.002 247.735 539.362C247.42 539.543 247.136 539.762 246.926 540.03C246.714 540.296 246.582 540.617 246.583 540.96L246.588 541.077C246.609 541.336 246.709 541.579 246.87 541.785C247.111 542.094 247.472 542.314 247.866 542.454C248.262 542.594 248.697 542.659 249.135 542.66C249.976 542.658 250.871 542.416 251.446 541.836C251.987 541.282 252.196 540.623 252.194 539.981C252.192 539.18 251.887 538.387 251.471 537.698C249.612 534.649 245.587 532.518 241.264 532.292C241.016 532.279 240.767 532.273 240.519 532.273C236.447 532.277 232.457 533.942 230.238 536.613C229.716 537.25 229.304 538.04 229.298 538.844C229.298 539.123 229.351 539.406 229.481 539.677C229.61 539.947 229.818 540.204 230.107 540.419C230.584 540.779 231.206 540.937 231.799 540.935C232.482 540.933 233.146 540.744 233.705 540.437C234.263 540.129 234.726 539.695 234.955 539.164C235.101 538.822 235.165 538.473 235.165 538.13C235.16 537.053 234.558 536.039 233.856 535.195C231.141 531.962 226.255 530.003 221.334 530C220.433 530 219.53 530.066 218.64 530.203C215.763 530.647 213.133 531.813 211.084 533.422C209.035 535.031 207.561 537.088 207.015 539.333C206.943 539.629 206.905 539.941 206.905 540.258C206.907 540.886 207.049 541.53 207.418 542.083C207.603 542.358 207.85 542.611 208.174 542.81C208.497 543.009 208.898 543.149 209.345 543.197C209.453 543.209 209.562 543.214 209.669 543.214C210.367 543.213 210.992 542.974 211.466 542.631C211.941 542.286 212.283 541.829 212.415 541.322C212.463 541.137 212.484 540.952 212.484 540.768C212.481 539.921 212.033 539.139 211.461 538.495C209.791 536.63 206.908 535.664 204.047 535.662C203.117 535.662 202.186 535.765 201.294 535.976C197.677 536.837 194.924 539.212 193.662 541.93C193.183 542.963 193 544.063 193 545.171C193.001 547.041 193.518 548.943 194.081 550.635L194.202 551H263.439L263.584 550.67L262.992 550.513Z" fill="#CBCBCB"/>
<path d="M120.46 608.745V608.49H83.9024V608.745L84.2262 608.681C83.9301 607.812 83.6685 606.853 83.669 605.947C83.669 605.41 83.7605 604.893 83.9834 604.422C84.5943 603.128 85.9437 602.007 87.6339 601.618C88.0447 601.523 88.4781 601.476 88.9127 601.476C90.2552 601.475 91.5923 601.927 92.3311 602.741C92.5863 603.02 92.7611 603.345 92.7593 603.641C92.7593 603.705 92.7515 603.769 92.7351 603.831C92.6967 603.981 92.5812 604.135 92.4275 604.243C92.2733 604.352 92.0914 604.412 91.9213 604.412L91.8412 604.408C91.7164 604.394 91.622 604.361 91.5356 604.31C91.4074 604.233 91.2979 604.106 91.2233 603.939C91.1487 603.773 91.1109 603.573 91.1112 603.373C91.1112 603.239 91.1278 603.106 91.1582 602.984C91.4227 601.918 92.1445 600.927 93.1539 600.151C94.1629 599.376 95.4567 598.817 96.8531 598.607C97.285 598.542 97.7246 598.51 98.1645 598.51C100.571 598.508 102.994 599.462 104.306 601C104.645 601.393 104.901 601.851 104.898 602.259C104.898 602.39 104.874 602.516 104.82 602.639C104.753 602.795 104.597 602.944 104.399 603.051C104.202 603.158 103.966 603.219 103.765 603.218C103.589 603.217 103.446 603.178 103.324 603.09C103.243 603.03 103.189 602.966 103.152 602.89C103.115 602.815 103.096 602.729 103.096 602.632C103.093 602.357 103.264 602.008 103.493 601.74C104.544 600.494 106.489 599.699 108.433 599.701C108.551 599.701 108.669 599.703 108.788 599.71C110.846 599.81 112.811 600.828 113.69 602.25C113.882 602.559 114.013 602.913 114.012 603.228C114.012 603.483 113.932 603.707 113.749 603.891C113.61 604.034 113.331 604.122 113.044 604.121C112.848 604.122 112.661 604.08 112.541 604.016C112.48 603.984 112.435 603.948 112.404 603.909C112.373 603.869 112.354 603.826 112.348 603.769L112.347 603.741C112.348 603.66 112.375 603.591 112.432 603.52C112.516 603.414 112.676 603.308 112.88 603.224C113.083 603.14 113.325 603.078 113.549 603.047C113.852 603.005 114.159 602.985 114.467 602.985C116.021 602.984 117.587 603.512 118.597 604.408C119.559 605.255 120.336 606.589 120.331 607.744C120.331 608.069 120.271 608.379 120.144 608.662L120.46 608.745L120.777 608.827C120.932 608.482 121 608.116 121 607.744C120.995 606.422 120.162 605.017 119.104 604.076C117.954 603.059 116.216 602.476 114.467 602.475C114.12 602.475 113.773 602.498 113.429 602.546C113.042 602.6 112.633 602.715 112.295 602.904C112.126 602.999 111.974 603.114 111.862 603.254C111.749 603.393 111.678 603.561 111.678 603.741L111.681 603.802C111.692 603.938 111.746 604.065 111.832 604.173C111.961 604.335 112.154 604.45 112.365 604.523C112.577 604.597 112.81 604.631 113.044 604.631C113.494 604.63 113.973 604.504 114.281 604.2C114.571 603.91 114.682 603.564 114.681 603.228C114.68 602.809 114.517 602.393 114.294 602.032C113.3 600.435 111.145 599.319 108.832 599.201C108.698 599.194 108.565 599.191 108.433 599.191C106.254 599.193 104.118 600.065 102.93 601.464C102.651 601.797 102.43 602.212 102.427 602.632C102.427 602.779 102.456 602.927 102.525 603.069C102.594 603.21 102.705 603.345 102.86 603.458C103.116 603.646 103.448 603.729 103.765 603.728C104.131 603.727 104.486 603.628 104.786 603.467C105.084 603.306 105.332 603.078 105.455 602.8C105.533 602.621 105.567 602.438 105.567 602.259C105.564 601.694 105.242 601.163 104.866 600.721C103.414 599.028 100.798 598.002 98.1645 598C97.6824 598 97.1994 598.035 96.7231 598.107C95.1828 598.339 93.7756 598.95 92.6789 599.792C91.5824 600.635 90.7934 601.713 90.5008 602.889C90.4624 603.044 90.4422 603.207 90.4422 603.373C90.4432 603.702 90.519 604.04 90.7166 604.329C90.8158 604.473 90.948 604.606 91.1215 604.71C91.2942 604.814 91.5089 604.887 91.7481 604.913C91.8061 604.919 91.864 604.922 91.9213 604.922C92.295 604.921 92.6297 604.796 92.8831 604.616C93.1372 604.436 93.3206 604.196 93.3912 603.931C93.4166 603.834 93.4283 603.737 93.4283 603.641C93.4264 603.197 93.1866 602.787 92.8804 602.45C91.9867 601.473 90.4438 600.967 88.9127 600.966C88.4149 600.966 87.9166 601.02 87.4392 601.13C85.5033 601.582 84.0296 602.825 83.3541 604.249C83.0981 604.79 83.0001 605.366 83 605.947C83.0007 606.926 83.2774 607.923 83.5785 608.809L83.6436 609H120.7L120.777 608.827L120.46 608.745Z" fill="#CBCBCB"/>
<path d="M320.404 119.722V119.444H279.997V119.722L280.355 119.652C280.028 118.704 279.739 117.657 279.739 116.669C279.739 116.083 279.841 115.519 280.087 115.006C280.762 113.595 282.254 112.372 284.122 111.947C284.576 111.843 285.055 111.792 285.535 111.792C287.019 111.791 288.497 112.284 289.313 113.172C289.595 113.476 289.789 113.831 289.787 114.153C289.787 114.224 289.778 114.293 289.76 114.361C289.717 114.525 289.59 114.693 289.42 114.811C289.249 114.93 289.048 114.995 288.86 114.995L288.772 114.99C288.634 114.975 288.53 114.939 288.434 114.883C288.292 114.8 288.171 114.661 288.089 114.479C288.006 114.298 287.965 114.079 287.965 113.862C287.965 113.716 287.983 113.57 288.017 113.437C288.309 112.274 289.107 111.193 290.223 110.347C291.338 109.501 292.768 108.891 294.311 108.662C294.789 108.591 295.275 108.556 295.761 108.556C298.42 108.554 301.098 109.595 302.549 111.273C302.923 111.702 303.206 112.201 303.203 112.646C303.203 112.789 303.176 112.926 303.117 113.06C303.042 113.231 302.871 113.394 302.652 113.51C302.433 113.627 302.173 113.693 301.951 113.692C301.756 113.691 301.598 113.649 301.463 113.553C301.373 113.488 301.314 113.417 301.273 113.335C301.232 113.253 301.211 113.158 301.211 113.054C301.208 112.753 301.397 112.372 301.65 112.08C302.812 110.721 304.962 109.853 307.11 109.855C307.241 109.855 307.371 109.858 307.502 109.865C309.778 109.974 311.949 111.085 312.92 112.637C313.132 112.973 313.278 113.36 313.277 113.703C313.276 113.982 313.188 114.225 312.985 114.427C312.832 114.583 312.524 114.679 312.207 114.678C311.99 114.679 311.783 114.632 311.65 114.563C311.583 114.528 311.534 114.489 311.499 114.446C311.465 114.403 311.443 114.356 311.438 114.294L311.436 114.263C311.437 114.175 311.468 114.1 311.53 114.022C311.623 113.906 311.8 113.79 312.025 113.699C312.249 113.607 312.517 113.54 312.765 113.506C313.099 113.461 313.439 113.438 313.779 113.438C315.496 113.437 317.227 114.013 318.344 114.991C319.407 115.915 320.266 117.37 320.261 118.63C320.261 118.984 320.195 119.322 320.054 119.632L320.404 119.722L320.754 119.812C320.925 119.435 321 119.036 321 118.63C320.994 117.187 320.073 115.655 318.904 114.628C317.633 113.519 315.712 112.883 313.779 112.882C313.396 112.882 313.012 112.907 312.633 112.959C312.204 113.019 311.753 113.144 311.378 113.35C311.192 113.453 311.024 113.578 310.9 113.731C310.775 113.884 310.696 114.067 310.697 114.263L310.7 114.33C310.712 114.478 310.772 114.617 310.867 114.734C311.009 114.911 311.223 115.037 311.456 115.116C311.69 115.196 311.947 115.234 312.207 115.234C312.704 115.233 313.233 115.095 313.573 114.763C313.894 114.447 314.017 114.07 314.016 113.703C314.015 113.246 313.835 112.792 313.589 112.399C312.489 110.657 310.108 109.439 307.551 109.31C307.404 109.303 307.256 109.299 307.11 109.299C304.701 109.301 302.341 110.252 301.028 111.779C300.719 112.143 300.475 112.594 300.472 113.054C300.472 113.213 300.503 113.375 300.58 113.53C300.657 113.684 300.78 113.831 300.951 113.954C301.233 114.16 301.6 114.25 301.951 114.249C302.356 114.248 302.748 114.139 303.079 113.964C303.409 113.788 303.683 113.54 303.818 113.236C303.905 113.041 303.943 112.842 303.943 112.646C303.94 112.03 303.584 111.451 303.168 110.969C301.562 109.121 298.672 108.002 295.761 108C295.228 108 294.694 108.038 294.168 108.116C292.465 108.37 290.91 109.036 289.698 109.955C288.486 110.875 287.614 112.05 287.29 113.333C287.248 113.502 287.226 113.681 287.226 113.862C287.227 114.22 287.31 114.589 287.529 114.904C287.638 115.062 287.785 115.206 287.976 115.32C288.167 115.434 288.405 115.514 288.669 115.541C288.733 115.548 288.797 115.551 288.86 115.551C289.273 115.551 289.643 115.414 289.923 115.218C290.204 115.021 290.407 114.759 290.485 114.47C290.513 114.364 290.526 114.258 290.526 114.153C290.524 113.669 290.259 113.222 289.92 112.854C288.933 111.789 287.227 111.236 285.535 111.236C284.985 111.236 284.434 111.294 283.906 111.415C281.767 111.907 280.138 113.264 279.391 114.817C279.108 115.407 279 116.036 279 116.669C279.001 117.738 279.307 118.825 279.639 119.792L279.711 120H320.668L320.754 119.812L320.404 119.722Z" fill="#CBCBCB"/>
<path d="M69.4036 273.722V273.444H28.9974V273.722L29.3552 273.652C29.028 272.704 28.7389 271.657 28.7394 270.669C28.7394 270.083 28.8406 269.519 29.0869 269.006C29.7621 267.595 31.2535 266.372 33.1217 265.947C33.5757 265.843 34.0548 265.792 34.5351 265.792C36.0189 265.791 37.4968 266.284 38.3133 267.172C38.5954 267.476 38.7886 267.831 38.7866 268.153C38.7866 268.224 38.7779 268.293 38.7599 268.361C38.7174 268.525 38.5897 268.693 38.4199 268.811C38.2495 268.93 38.0484 268.995 37.8604 268.995L37.7719 268.99C37.6339 268.975 37.5295 268.939 37.4341 268.883C37.2924 268.8 37.1714 268.661 37.0889 268.479C37.0064 268.298 36.9647 268.079 36.965 267.862C36.965 267.716 36.9833 267.57 37.017 267.437C37.3093 266.274 38.1071 265.193 39.2227 264.347C40.338 263.501 41.7679 262.891 43.3113 262.662C43.7887 262.591 44.2745 262.556 44.7607 262.556C47.4205 262.554 50.0984 263.595 51.5488 265.273C51.9229 265.702 52.2061 266.201 52.2032 266.646C52.2032 266.789 52.1762 266.926 52.1167 267.06C52.0424 267.231 51.8708 267.394 51.6516 267.51C51.4334 267.627 51.1728 267.693 50.9513 267.692C50.7561 267.691 50.5982 267.649 50.4629 267.553C50.3734 267.488 50.3143 267.417 50.2729 267.335C50.2322 267.253 50.2115 267.158 50.2115 267.054C50.2082 266.753 50.3967 266.372 50.6496 266.08C51.8116 264.721 53.9616 263.853 56.1096 263.855C56.2405 263.855 56.3714 263.858 56.5023 263.865C58.7775 263.974 60.9485 265.085 61.9202 266.637C62.1324 266.973 62.278 267.36 62.2769 267.703C62.2762 267.982 62.1878 268.225 61.9852 268.427C61.8322 268.583 61.5242 268.679 61.2066 268.678C60.9903 268.679 60.7829 268.632 60.6502 268.563C60.5832 268.528 60.5337 268.489 60.4993 268.446C60.4649 268.403 60.4435 268.356 60.4376 268.294L60.4365 268.263C60.4368 268.175 60.4675 268.1 60.53 268.022C60.6228 267.906 60.7995 267.79 61.0251 267.699C61.2491 267.607 61.5168 267.54 61.7649 267.506C62.0991 267.461 62.4389 267.438 62.779 267.438C64.4964 267.437 66.2274 268.013 67.3439 268.991C68.4069 269.915 69.2665 271.37 69.2606 272.63C69.2606 272.984 69.1948 273.322 69.0539 273.632L69.4036 273.722L69.7538 273.812C69.925 273.435 70 273.036 70 272.63C69.9941 271.187 69.0735 269.655 67.9044 268.628C66.6333 267.519 64.7123 266.883 62.779 266.882C62.3956 266.882 62.0118 266.907 61.6325 266.959C61.204 267.019 60.7526 267.144 60.3784 267.35C60.1921 267.453 60.0242 267.578 59.8996 267.731C59.7747 267.884 59.6963 268.067 59.697 268.263L59.7 268.33C59.7122 268.478 59.7717 268.617 59.8667 268.734C60.0094 268.911 60.2231 269.037 60.4561 269.116C60.6901 269.196 60.9474 269.234 61.2066 269.234C61.7039 269.233 62.2333 269.095 62.5734 268.763C62.894 268.447 63.0171 268.07 63.0164 267.703C63.0153 267.246 62.8348 266.792 62.5886 266.399C61.4891 264.657 59.1081 263.439 56.5507 263.31C56.4036 263.303 56.2564 263.299 56.1096 263.299C53.7013 263.301 51.3406 264.252 50.0281 265.779C49.719 266.143 49.4754 266.594 49.4721 267.054C49.4721 267.213 49.5035 267.375 49.5804 267.53C49.6566 267.684 49.7797 267.831 49.9508 267.954C50.2329 268.16 50.6004 268.25 50.9513 268.249C51.3558 268.248 51.7481 268.139 52.079 267.964C52.4091 267.788 52.6827 267.54 52.8184 267.236C52.9049 267.041 52.9426 266.842 52.9426 266.646C52.9397 266.03 52.5836 265.451 52.1681 264.969C50.5624 263.121 47.6719 262.002 44.7607 262C44.228 262 43.6941 262.038 43.1676 262.116C41.4652 262.37 39.9099 263.036 38.6978 263.955C37.4858 264.875 36.6138 266.05 36.2904 267.333C36.2479 267.502 36.2256 267.681 36.2256 267.862C36.2267 268.22 36.3105 268.589 36.5288 268.904C36.6385 269.062 36.7846 269.206 36.9764 269.32C37.1673 269.434 37.4046 269.514 37.6689 269.541C37.733 269.548 37.797 269.551 37.8604 269.551C38.2734 269.551 38.6433 269.414 38.9235 269.218C39.2042 269.021 39.407 268.759 39.485 268.47C39.513 268.364 39.526 268.258 39.526 268.153C39.5239 267.669 39.2589 267.222 38.9204 266.854C37.9326 265.789 36.2274 265.236 34.5351 265.236C33.9848 265.236 33.4342 265.294 32.9064 265.415C30.7668 265.907 29.138 267.264 28.3914 268.817C28.1085 269.407 28.0001 270.036 28 270.669C28.0007 271.738 28.3066 272.825 28.6394 273.792L28.7113 274H69.668L69.7538 273.812L69.4036 273.722Z" fill="#CBCBCB"/>
<path d="M433.057 183.306V182.612H370.357V183.306L370.802 182.764C369.391 181.673 368.412 179.729 368.422 177.964C368.422 177.307 368.551 176.679 368.822 176.113C369.265 175.185 370.016 174.4 370.93 173.85C371.844 173.299 372.913 172.988 373.966 172.989C374.303 172.989 374.638 173.02 374.968 173.085C375.513 173.192 376.047 173.397 376.462 173.686C376.878 173.978 377.174 174.335 377.324 174.799C377.373 174.947 377.396 175.104 377.396 175.257C377.396 175.517 377.326 175.761 377.197 175.958C377.066 176.155 376.928 176.269 376.78 176.346C376.632 176.421 376.467 176.459 376.278 176.459C375.983 176.462 375.631 176.356 375.321 176.162C375.011 175.97 374.749 175.694 374.602 175.403C374.378 174.965 374.284 174.468 374.283 173.921C374.283 173.309 374.405 172.644 374.571 171.992C376.203 165.532 381.296 159.826 387.788 157.995C389.229 157.587 390.734 157.388 392.244 157.388C397.518 157.384 402.813 159.826 405.619 164.096C406.296 165.115 406.803 166.293 406.797 167.344C406.795 167.936 406.652 168.489 406.294 169.031C405.922 169.598 405.269 169.935 404.672 169.931C404.362 169.93 404.068 169.849 403.796 169.665C403.558 169.503 403.413 169.326 403.312 169.121C403.213 168.916 403.162 168.675 403.161 168.398C403.159 167.969 403.292 167.461 403.526 166.97C403.76 166.48 404.094 166.007 404.456 165.641C406.389 163.672 409.205 162.527 412.003 162.529C412.375 162.529 412.747 162.549 413.116 162.59C416.263 162.933 419.236 164.799 420.861 167.45C421.413 168.344 421.796 169.386 421.792 170.319C421.792 170.743 421.718 171.144 421.554 171.522C421.354 171.995 420.895 172.427 420.368 172.659L420.308 172.677L420.273 172.65L420.218 172.505L420.229 172.457L420.294 172.406C421.627 171.729 423.15 171.378 424.667 171.378C426.197 171.378 427.716 171.735 429.035 172.457C430.234 173.11 431.126 174.299 431.716 175.782C432.305 177.26 432.579 179.007 432.578 180.662C432.578 181.548 432.501 182.407 432.358 183.183L433.057 183.306L433.757 183.429C433.916 182.564 434 181.627 434 180.662C433.999 178.86 433.71 176.963 433.042 175.28C432.373 173.601 431.312 172.113 429.73 171.246C428.178 170.398 426.422 169.991 424.667 169.99C422.927 169.991 421.186 170.39 419.638 171.174C419.367 171.31 419.144 171.516 419.002 171.755C418.858 171.994 418.796 172.257 418.796 172.505C418.798 172.896 418.938 173.258 419.192 173.55C419.44 173.841 419.843 174.066 420.308 174.065C420.527 174.065 420.75 174.015 420.958 173.922C421.777 173.554 422.491 172.915 422.864 172.062C423.11 171.495 423.214 170.902 423.214 170.319C423.211 169.028 422.722 167.785 422.08 166.736C420.21 163.702 416.881 161.612 413.276 161.211C412.852 161.164 412.427 161.141 412.003 161.141C408.813 161.144 405.651 162.427 403.43 164.679C402.954 165.163 402.541 165.75 402.237 166.385C401.936 167.02 401.74 167.706 401.739 168.398C401.739 168.843 401.824 169.294 402.027 169.714C402.229 170.135 402.554 170.515 402.985 170.806C403.501 171.156 404.095 171.32 404.672 171.319C405.789 171.315 406.851 170.738 407.487 169.786C408.003 169.013 408.221 168.164 408.219 167.344C408.214 165.874 407.57 164.495 406.815 163.344C403.687 158.612 397.952 156.003 392.244 156C390.607 156 388.969 156.216 387.392 156.663C380.334 158.671 374.947 164.75 373.191 171.659C373.011 172.366 372.862 173.134 372.862 173.921C372.861 174.62 372.983 175.344 373.329 176.022C373.61 176.569 374.047 177.013 374.557 177.332C375.068 177.65 375.66 177.846 376.278 177.847C376.669 177.848 377.071 177.765 377.442 177.575C377.812 177.386 378.143 177.09 378.393 176.709C378.685 176.264 378.818 175.756 378.818 175.257C378.818 174.961 378.772 174.667 378.681 174.384C378.428 173.595 377.904 172.982 377.287 172.555C376.667 172.126 375.955 171.865 375.249 171.725C374.824 171.641 374.394 171.601 373.966 171.601C372.629 171.602 371.313 171.989 370.184 172.669C369.055 173.349 368.108 174.326 367.533 175.525C367.164 176.297 367 177.131 367 177.964C367.009 180.203 368.148 182.457 369.914 183.847L370.108 184H433.652L433.757 183.429L433.057 183.306Z" fill="#CBCBCB"/>
<path d="M163.451 23.6034V23.2069H126.954V23.6034L127.213 23.2937C126.392 22.6704 125.822 21.5592 125.828 20.5508C125.828 20.1753 125.903 19.8164 126.06 19.4932C126.318 18.963 126.756 18.5145 127.288 18.2001C127.82 17.8852 128.442 17.7075 129.055 17.7079C129.251 17.7079 129.446 17.7258 129.638 17.7631C129.956 17.8237 130.266 17.9411 130.508 18.1061C130.75 18.273 130.922 18.4773 131.01 18.7421C131.038 18.827 131.051 18.9166 131.051 19.0043C131.051 19.1526 131.011 19.2922 130.936 19.4048C130.859 19.5174 130.779 19.5824 130.693 19.6261C130.607 19.6693 130.511 19.6911 130.401 19.6911C130.229 19.6923 130.024 19.632 129.844 19.521C129.663 19.4115 129.511 19.2537 129.425 19.0875C129.295 18.8369 129.24 18.553 129.24 18.2405C129.24 17.8908 129.31 17.5109 129.407 17.1385C130.357 13.447 133.321 10.1862 137.1 9.14008C137.939 8.90691 138.815 8.7931 139.694 8.7931C142.764 8.79112 145.846 10.1862 147.48 12.6262C147.874 13.2087 148.169 13.8816 148.165 14.4824C148.165 14.8207 148.081 15.1367 147.873 15.4464C147.656 15.77 147.276 15.9627 146.928 15.9607C146.748 15.9599 146.577 15.9136 146.418 15.8085C146.28 15.7161 146.196 15.615 146.137 15.4976C146.079 15.3806 146.049 15.243 146.049 15.0844C146.048 14.8397 146.125 14.5494 146.262 14.2687C146.398 13.9883 146.592 13.7182 146.803 13.5089C147.928 12.3843 149.567 11.7296 151.196 11.7307C151.412 11.7307 151.629 11.7422 151.844 11.7656C153.675 11.9615 155.406 13.0279 156.352 14.5431C156.673 15.0534 156.896 15.6491 156.894 16.182C156.894 16.4243 156.851 16.6535 156.755 16.8696C156.639 17.1401 156.372 17.3867 156.065 17.5196L156.03 17.5295L156.01 17.514L155.978 17.4316L155.984 17.4038L156.022 17.3748C156.798 16.9882 157.685 16.7876 158.567 16.7876C159.458 16.7876 160.342 16.9914 161.11 17.4038C161.808 17.7769 162.327 18.4566 162.67 19.3041C163.013 20.1483 163.173 21.1468 163.172 22.0926C163.172 22.5986 163.127 23.0899 163.044 23.5329L163.451 23.6034L163.858 23.6736C163.951 23.1795 164 22.6438 164 22.0926C164 21.0628 163.831 19.9786 163.442 19.017C163.053 18.0577 162.435 17.2075 161.514 16.7118C160.611 16.2272 159.589 15.9948 158.567 15.9945C157.555 15.9948 156.541 16.2229 155.64 16.671C155.482 16.7487 155.352 16.8665 155.27 17.0029C155.186 17.1397 155.15 17.29 155.15 17.4316C155.151 17.6548 155.233 17.8618 155.38 18.0288C155.525 18.1949 155.759 18.3234 156.03 18.3226C156.157 18.3226 156.287 18.2941 156.408 18.2413C156.885 18.0311 157.301 17.6655 157.518 17.1782C157.661 16.8542 157.722 16.5155 157.722 16.182C157.72 15.4444 157.435 14.7342 157.062 14.135C155.973 12.4013 154.035 11.2069 151.937 10.9777C151.69 10.9507 151.443 10.9376 151.196 10.9376C149.339 10.9392 147.499 11.6725 146.206 12.9593C145.928 13.236 145.688 13.5715 145.511 13.9344C145.336 14.2972 145.222 14.689 145.221 15.0844C145.221 15.339 145.27 15.5967 145.389 15.8366C145.506 16.0769 145.695 16.2942 145.947 16.4604C146.247 16.6607 146.593 16.7542 146.928 16.7538C147.578 16.7515 148.197 16.4215 148.567 15.8779C148.868 15.4357 148.994 14.9511 148.993 14.4824C148.99 13.6425 148.616 12.8546 148.176 12.1967C146.355 9.49262 143.017 8.00159 139.694 8C138.741 8 137.788 8.12334 136.87 8.37872C132.762 9.52633 129.626 13.0001 128.603 16.9478C128.499 17.3522 128.412 17.7908 128.412 18.2405C128.412 18.6402 128.483 19.0538 128.684 19.4413C128.848 19.7537 129.102 20.0076 129.399 20.19C129.696 20.3712 130.041 20.4834 130.401 20.4842C130.628 20.4846 130.862 20.437 131.078 20.3283C131.294 20.2205 131.486 20.0516 131.632 19.8335C131.802 19.5793 131.879 19.289 131.879 19.0043C131.879 18.8349 131.852 18.6668 131.799 18.5054C131.652 18.0541 131.347 17.704 130.988 17.4601C130.627 17.215 130.213 17.0655 129.802 16.9854C129.554 16.9379 129.304 16.9148 129.055 16.9148C128.277 16.9152 127.51 17.1365 126.853 17.5251C126.196 17.9138 125.645 18.4721 125.31 19.1573C125.095 19.5983 125 20.0749 125 20.5508C125.005 21.8305 125.668 23.1185 126.696 23.9128L126.809 24H163.797L163.858 23.6736L163.451 23.6034Z" fill="#CBCBCB"/>
<path d="M82.818 114.133V113.265H4.20913V114.133L4.76625 113.455C2.99774 112.091 1.7703 109.661 1.78278 107.455C1.78278 106.633 1.94413 105.848 2.28375 105.141C2.83908 103.982 3.78127 103.001 4.9276 102.313C6.07303 101.624 7.41368 101.235 8.73293 101.236C9.15634 101.236 9.57619 101.275 9.9898 101.357C10.6735 101.489 11.3429 101.746 11.8626 102.107C12.3841 102.472 12.7549 102.919 12.9439 103.498L12.9768 103.603L12.943 103.498C13.0036 103.684 13.0339 103.88 13.0339 104.072C13.0339 104.396 12.9465 104.702 12.7843 104.948V104.947C12.6203 105.193 12.4474 105.337 12.2619 105.432C12.0765 105.527 11.8688 105.574 11.6326 105.574C11.2618 105.577 10.8215 105.445 10.4328 105.202C10.0442 104.963 9.71526 104.617 9.53074 104.254C9.24995 103.706 9.13229 103.085 9.1314 102.401C9.1314 101.636 9.28381 100.805 9.4915 99.9905C11.5381 91.9154 17.9232 84.7823 26.0624 82.4939C27.8693 81.9839 29.7563 81.7349 31.6496 81.7349C38.2611 81.7306 44.9001 84.7823 48.4185 90.1197C49.2662 91.394 49.9017 92.8661 49.8946 94.1803C49.8928 94.9202 49.7128 95.6116 49.2644 96.2891C48.7973 96.9969 47.979 97.4185 47.2302 97.4141C46.8416 97.4124 46.4734 97.3109 46.132 97.081C45.8343 96.8789 45.6525 96.6577 45.5259 96.401C45.4011 96.1451 45.3369 95.8441 45.336 95.4971C45.3342 94.9619 45.5 94.3269 45.7942 93.7127C46.0875 93.0994 46.5055 92.5087 46.9592 92.0507C49.3838 89.5906 52.9137 88.1584 56.4213 88.161C56.8884 88.161 57.3546 88.1862 57.8172 88.2373C61.7625 88.6659 65.4894 90.9984 67.5271 94.313C68.2189 95.4294 68.6993 96.7323 68.6949 97.8982C68.6949 98.4282 68.6013 98.9296 68.3962 99.4023V99.4032C68.1449 99.9948 67.5699 100.533 66.9085 100.824L66.8336 100.846L66.79 100.812L66.7213 100.632L66.7347 100.571L66.8158 100.507C68.4881 99.6617 70.3974 99.2228 72.2987 99.2228C74.217 99.2228 76.1219 99.6686 77.7754 100.571C79.2783 101.387 80.397 102.874 81.136 104.728C81.8749 106.574 82.219 108.759 82.2172 110.828C82.2172 111.934 82.1201 113.009 81.9409 113.978L82.818 114.133L83.6951 114.286C83.8948 113.205 84 112.033 84 110.828C83.9991 108.575 83.6363 106.203 82.7984 104.1C81.9605 102.001 80.6297 100.141 78.6463 99.0571C76.7013 97.997 74.4987 97.4887 72.2987 97.4879C70.1175 97.4887 67.9345 97.9875 65.994 98.9677C65.6543 99.1378 65.3744 99.3954 65.1962 99.6938C65.0161 99.9931 64.9376 100.322 64.9385 100.632C64.9412 101.12 65.1168 101.573 65.4342 101.938C65.7461 102.301 66.2507 102.582 66.8336 102.581C67.1082 102.581 67.3881 102.518 67.6484 102.403C68.6753 101.943 69.5711 101.143 70.0391 100.077C70.3466 99.3685 70.4776 98.6277 70.4776 97.8982C70.4732 96.2847 69.8599 94.7311 69.0559 93.4204C66.7106 89.6279 62.5371 87.0151 58.0178 86.5137C57.4865 86.4547 56.9535 86.4261 56.4213 86.4261C52.4217 86.4296 48.4586 88.0335 45.6739 90.8484C45.0766 91.4539 44.5587 92.1877 44.1781 92.9815C43.8002 93.7752 43.555 94.6322 43.5532 95.4971C43.5532 96.054 43.6593 96.6178 43.9143 97.1426C44.1674 97.6683 44.5748 98.1437 45.1159 98.5071C45.763 98.9452 46.5073 99.1499 47.2302 99.149C48.6306 99.1438 49.9623 98.4221 50.7601 97.2328C51.4073 96.2656 51.68 95.2056 51.6774 94.1803C51.6711 92.343 50.8644 90.6194 49.9178 89.1803C45.9956 83.2651 38.8057 80.0035 31.6496 80C29.5968 80 27.543 80.2698 25.5659 80.8284C16.7171 83.3389 9.96395 90.9377 7.76133 99.5732C7.5367 100.458 7.34952 101.417 7.34952 102.401C7.34862 103.276 7.50104 104.18 7.93514 105.028C8.28724 105.711 8.83455 106.267 9.47457 106.666C10.1155 107.062 10.8571 107.307 11.6326 107.309C12.122 107.31 12.6265 107.206 13.0909 106.968C13.5554 106.732 13.9698 106.363 14.2836 105.886C14.65 105.33 14.8167 104.695 14.8167 104.072C14.8167 103.701 14.7587 103.334 14.6446 102.981V102.98C14.3282 101.993 13.6703 101.227 12.8966 100.694C12.1202 100.158 11.227 99.8309 10.3419 99.6557C9.80884 99.5516 9.26955 99.5012 8.73293 99.5012C7.05712 99.5021 5.40716 99.9861 3.99164 100.836C2.57612 101.686 1.38878 102.908 0.667649 104.407C0.205018 105.371 0 106.414 0 107.455C0.011588 110.254 1.43959 113.072 3.65291 114.809L3.89715 115H83.5632L83.6951 114.286L82.818 114.133Z" fill="#CBCBCB"/>
</svg>
