<svg width="1349" height="583" viewBox="0 0 1349 583" fill="none" xmlns="http://www.w3.org/2000/svg">
<path d="M1147.13 38.096V37.1921H1020.13V38.096L1021.26 37.8691C1020.23 34.7884 1019.32 31.3868 1019.32 28.175C1019.32 26.2703 1019.64 24.4371 1020.42 22.7692C1022.54 18.1825 1027.23 14.2077 1033.1 12.8283C1034.52 12.4911 1036.03 12.3238 1037.54 12.3238C1042.2 12.3211 1046.85 13.922 1049.41 16.8084C1050.3 17.7965 1050.91 18.9508 1050.9 19.9985C1050.9 20.2272 1050.87 20.4523 1050.82 20.6738C1050.68 21.2063 1050.28 21.7514 1049.75 22.1346C1049.21 22.5224 1048.58 22.7348 1047.99 22.733L1047.71 22.7186C1047.28 22.6689 1046.95 22.5523 1046.65 22.3706C1046.2 22.1003 1045.82 21.6474 1045.57 21.0562C1045.31 20.4686 1045.17 19.7581 1045.18 19.0503C1045.18 18.5757 1045.23 18.102 1045.34 17.669C1046.26 13.8895 1048.77 10.3776 1052.27 7.62773C1055.78 4.87695 1060.27 2.89725 1065.12 2.15148C1066.62 1.92006 1068.15 1.80794 1069.68 1.80794C1078.04 1.80161 1086.45 5.18519 1091.01 10.6361C1092.19 12.031 1093.08 13.6518 1093.07 15.099C1093.07 15.5628 1092.98 16.0102 1092.8 16.4459C1092.56 17.0001 1092.02 17.5298 1091.33 17.9086C1090.65 18.2883 1089.83 18.5034 1089.13 18.4998C1088.52 18.4962 1088.02 18.3596 1087.6 18.0469C1087.32 17.8353 1087.13 17.6057 1087 17.3382C1086.87 17.0724 1086.81 16.765 1086.81 16.4242C1086.8 15.4461 1087.39 14.2104 1088.18 13.2613C1091.84 8.84356 1098.59 6.02227 1105.34 6.0295C1105.76 6.0295 1106.17 6.03945 1106.58 6.06115C1113.73 6.41641 1120.55 10.0269 1123.61 15.0692C1124.27 16.1621 1124.73 17.4186 1124.73 18.5359C1124.73 19.4408 1124.45 20.2327 1123.81 20.8863C1123.33 21.3934 1122.36 21.7062 1121.36 21.7034C1120.68 21.7053 1120.03 21.5552 1119.61 21.3283C1119.4 21.2153 1119.25 21.0878 1119.14 20.9495C1119.03 20.8094 1118.97 20.6566 1118.95 20.4541L1118.94 20.3538C1118.94 20.0682 1119.04 19.8241 1119.24 19.5719C1119.53 19.1958 1120.08 18.8189 1120.79 18.5215C1121.5 18.2231 1122.34 18.0053 1123.12 17.895C1124.17 17.7467 1125.24 17.6735 1126.31 17.6735C1131.7 17.6699 1137.14 19.5412 1140.65 22.7204C1143.99 25.7225 1146.69 30.453 1146.68 34.5461C1146.68 35.6987 1146.47 36.7979 1146.03 37.8031L1147.13 38.096L1148.23 38.388C1148.76 37.1649 1149 35.8659 1149 34.5461C1148.98 29.8591 1146.09 24.8791 1142.41 21.5407C1138.42 17.9375 1132.38 15.8692 1126.31 15.8656C1125.1 15.8656 1123.89 15.9478 1122.7 16.1169C1121.36 16.3103 1119.94 16.7171 1118.76 17.387C1118.18 17.7233 1117.65 18.13 1117.26 18.6272C1116.86 19.1217 1116.62 19.7165 1116.62 20.3538L1116.63 20.5717C1116.67 21.0526 1116.85 21.5046 1117.15 21.8861C1117.6 22.461 1118.27 22.8686 1119 23.1281C1119.74 23.3884 1120.55 23.5105 1121.36 23.5114C1122.93 23.5078 1124.59 23.0585 1125.66 21.981C1126.67 20.9522 1127.05 19.7283 1127.05 18.5359C1127.05 17.0489 1126.48 15.5754 1125.71 14.2963C1122.25 8.63476 1114.77 4.67627 1106.73 4.25683C1106.27 4.23332 1105.81 4.22156 1105.34 4.22156C1097.78 4.22879 1090.36 7.32038 1086.23 12.2814C1085.26 13.4638 1084.49 14.9318 1084.48 16.4242C1084.48 16.9431 1084.58 17.4683 1084.82 17.971C1085.06 18.4727 1085.45 18.9499 1085.99 19.3504C1086.87 20.0184 1088.03 20.3122 1089.13 20.3077C1090.4 20.305 1091.64 19.9533 1092.68 19.3838C1093.71 18.8107 1094.57 18.0044 1095 17.0182C1095.27 16.3836 1095.39 15.7363 1095.39 15.099C1095.38 13.0976 1094.26 11.2147 1092.96 9.64807C1087.91 3.6439 1078.83 0.00632763 1069.68 -1.63862e-07C1068 -1.63862e-07 1066.32 0.122956 1064.67 0.377875C1059.32 1.2023 1054.43 3.36641 1050.62 6.35494C1046.81 9.34346 1044.07 13.1636 1043.06 17.3327C1042.92 17.8824 1042.85 18.4627 1042.85 19.0503C1042.86 20.2164 1043.12 21.4132 1043.8 22.4392C1044.15 22.9509 1044.61 23.421 1045.21 23.7907C1045.81 24.1604 1046.56 24.419 1047.39 24.5084C1047.59 24.5301 1047.79 24.541 1047.99 24.541C1049.29 24.5392 1050.45 24.0953 1051.33 23.458C1052.21 22.8171 1052.85 21.9683 1053.1 21.0273C1053.18 20.6838 1053.22 20.3393 1053.22 19.9985C1053.22 18.4256 1052.38 16.973 1051.32 15.777C1048.22 12.313 1042.86 10.5186 1037.54 10.5159C1035.81 10.5159 1034.08 10.7066 1032.42 11.099C1025.7 12.6981 1020.58 17.1077 1018.23 22.1554C1017.34 24.0737 1017 26.1166 1017 28.175C1017 31.648 1017.96 35.1807 1019.01 38.3229L1019.24 39H1147.96L1148.23 38.388L1147.13 38.096Z" fill="#CBCBCB"/>
<path d="M1057.26 582.652V582.305H1007.23V582.652L1007.68 582.565C1007.27 581.38 1006.91 580.072 1006.92 578.837C1006.92 578.104 1007.04 577.399 1007.35 576.757C1008.18 574.993 1010.03 573.465 1012.34 572.934C1012.9 572.804 1013.5 572.74 1014.09 572.74C1015.93 572.739 1017.76 573.355 1018.77 574.465C1019.12 574.845 1019.36 575.289 1019.35 575.692C1019.35 575.78 1019.34 575.866 1019.32 575.951C1019.27 576.156 1019.11 576.366 1018.9 576.513C1018.69 576.662 1018.44 576.744 1018.21 576.743L1018.1 576.738C1017.93 576.719 1017.8 576.674 1017.68 576.604C1017.5 576.5 1017.36 576.326 1017.25 576.099C1017.15 575.873 1017.1 575.599 1017.1 575.327C1017.1 575.145 1017.12 574.962 1017.16 574.796C1017.53 573.342 1018.51 571.991 1019.89 570.934C1021.28 569.876 1023.05 569.114 1024.96 568.827C1025.55 568.738 1026.15 568.695 1026.75 568.695C1030.04 568.693 1033.36 569.994 1035.16 572.091C1035.62 572.627 1035.97 573.251 1035.97 573.807C1035.97 573.986 1035.93 574.158 1035.86 574.325C1035.77 574.538 1035.55 574.742 1035.28 574.888C1035.01 575.034 1034.69 575.117 1034.42 575.115C1034.17 575.114 1033.98 575.061 1033.81 574.941C1033.7 574.86 1033.63 574.771 1033.58 574.669C1033.53 574.566 1033.5 574.448 1033.5 574.317C1033.5 573.941 1033.73 573.466 1034.04 573.1C1035.48 571.401 1038.14 570.316 1040.8 570.319C1040.96 570.319 1041.13 570.323 1041.29 570.331C1044.11 570.468 1046.79 571.856 1048 573.796C1048.26 574.216 1048.44 574.699 1048.44 575.129C1048.44 575.477 1048.33 575.782 1048.08 576.033C1047.89 576.228 1047.51 576.349 1047.11 576.347C1046.85 576.348 1046.59 576.29 1046.42 576.203C1046.34 576.16 1046.28 576.111 1046.24 576.058C1046.19 576.004 1046.17 575.945 1046.16 575.867L1046.16 575.828C1046.16 575.719 1046.2 575.625 1046.28 575.528C1046.39 575.383 1046.61 575.238 1046.89 575.124C1047.17 575.009 1047.5 574.925 1047.8 574.883C1048.22 574.826 1048.64 574.798 1049.06 574.798C1051.19 574.796 1053.33 575.516 1054.71 576.739C1056.03 577.893 1057.09 579.713 1057.08 581.287C1057.08 581.73 1057 582.153 1056.83 582.54L1057.26 582.652L1057.7 582.765C1057.91 582.294 1058 581.795 1058 581.287C1057.99 579.484 1056.85 577.569 1055.41 576.285C1053.83 574.899 1051.45 574.104 1049.06 574.102C1048.59 574.102 1048.11 574.134 1047.64 574.199C1047.11 574.273 1046.55 574.43 1046.09 574.687C1045.86 574.817 1045.65 574.973 1045.49 575.164C1045.34 575.354 1045.24 575.583 1045.24 575.828L1045.25 575.912C1045.26 576.097 1045.34 576.271 1045.45 576.418C1045.63 576.639 1045.9 576.796 1046.18 576.895C1046.47 576.996 1046.79 577.042 1047.11 577.043C1047.73 577.041 1048.38 576.869 1048.81 576.454C1049.2 576.059 1049.35 575.588 1049.35 575.129C1049.35 574.557 1049.13 573.991 1048.82 573.499C1047.46 571.321 1044.51 569.799 1041.35 569.637C1041.17 569.628 1040.98 569.624 1040.8 569.624C1037.82 569.626 1034.9 570.816 1033.27 572.724C1032.89 573.178 1032.59 573.743 1032.58 574.317C1032.58 574.517 1032.62 574.719 1032.72 574.912C1032.81 575.105 1032.97 575.288 1033.18 575.442C1033.53 575.699 1033.98 575.812 1034.42 575.811C1034.92 575.81 1035.4 575.674 1035.81 575.455C1036.22 575.235 1036.56 574.925 1036.73 574.545C1036.83 574.301 1036.88 574.052 1036.88 573.807C1036.88 573.038 1036.44 572.313 1035.92 571.711C1033.93 569.402 1030.36 568.002 1026.75 568C1026.09 568 1025.43 568.047 1024.78 568.145C1022.67 568.462 1020.75 569.295 1019.24 570.444C1017.74 571.594 1016.66 573.063 1016.26 574.666C1016.21 574.878 1016.18 575.101 1016.18 575.327C1016.19 575.776 1016.29 576.236 1016.56 576.63C1016.7 576.827 1016.88 577.008 1017.11 577.15C1017.35 577.292 1017.64 577.392 1017.97 577.426C1018.05 577.435 1018.13 577.439 1018.21 577.439C1018.72 577.438 1019.18 577.267 1019.52 577.022C1019.87 576.776 1020.12 576.449 1020.22 576.087C1020.25 575.955 1020.27 575.823 1020.27 575.692C1020.27 575.087 1019.94 574.528 1019.52 574.068C1018.3 572.736 1016.19 572.046 1014.09 572.045C1013.41 572.045 1012.73 572.118 1012.07 572.269C1009.43 572.884 1007.41 574.58 1006.48 576.521C1006.13 577.259 1006 578.045 1006 578.837C1006 580.172 1006.38 581.531 1006.79 582.74L1006.88 583H1057.59L1057.7 582.765L1057.26 582.652Z" fill="#CBCBCB"/>
<path d="M259.992 227.513V227.026H191.686V227.513L192.291 227.391C191.738 225.732 191.249 223.901 191.25 222.171C191.25 221.146 191.421 220.158 191.837 219.26C192.979 216.791 195.5 214.65 198.658 213.908C199.426 213.726 200.235 213.636 201.047 213.636C203.556 213.634 206.054 214.496 207.434 216.051C207.911 216.583 208.238 217.204 208.234 217.768C208.234 217.892 208.22 218.013 208.189 218.132C208.118 218.419 207.902 218.712 207.615 218.919C207.327 219.127 206.987 219.242 206.669 219.241L206.519 219.233C206.286 219.206 206.109 219.144 205.948 219.046C205.709 218.9 205.504 218.656 205.365 218.338C205.225 218.022 205.155 217.639 205.155 217.258C205.155 217.002 205.186 216.747 205.243 216.514C205.737 214.479 207.086 212.588 208.972 211.107C210.857 209.626 213.274 208.56 215.883 208.158C216.69 208.034 217.512 207.974 218.334 207.974C222.83 207.97 227.357 209.792 229.809 212.727C230.441 213.478 230.92 214.351 230.915 215.13C230.915 215.38 230.869 215.621 230.769 215.856C230.643 216.154 230.353 216.439 229.982 216.643C229.614 216.848 229.173 216.963 228.799 216.961C228.469 216.959 228.202 216.886 227.973 216.718C227.822 216.604 227.722 216.48 227.652 216.336C227.583 216.193 227.548 216.027 227.548 215.844C227.542 215.317 227.861 214.652 228.289 214.141C230.253 211.762 233.887 210.243 237.519 210.247C237.74 210.247 237.961 210.252 238.182 210.264C242.029 210.455 245.699 212.399 247.341 215.114C247.7 215.703 247.946 216.379 247.944 216.981C247.943 217.468 247.794 217.895 247.451 218.246C247.192 218.52 246.672 218.688 246.135 218.686C245.769 218.687 245.419 218.607 245.194 218.484C245.081 218.424 244.997 218.355 244.939 218.281C244.881 218.205 244.845 218.123 244.835 218.014L244.833 217.96C244.834 217.806 244.886 217.675 244.991 217.539C245.148 217.336 245.447 217.133 245.828 216.973C246.207 216.812 246.659 216.695 247.079 216.636C247.644 216.556 248.218 216.517 248.793 216.517C251.696 216.515 254.622 217.522 256.51 219.234C258.307 220.851 259.76 223.398 259.75 225.602C259.75 226.222 259.639 226.814 259.401 227.356L259.992 227.513L260.584 227.67C260.873 227.012 261 226.312 261 225.602C260.99 223.078 259.434 220.396 257.457 218.599C255.309 216.659 252.061 215.545 248.793 215.543C248.145 215.543 247.496 215.587 246.855 215.678C246.131 215.782 245.367 216.002 244.735 216.362C244.42 216.543 244.136 216.762 243.926 217.03C243.714 217.296 243.582 217.617 243.583 217.96L243.588 218.077C243.609 218.336 243.709 218.579 243.87 218.785C244.111 219.094 244.472 219.314 244.866 219.454C245.262 219.594 245.697 219.659 246.135 219.66C246.976 219.658 247.871 219.416 248.446 218.836C248.987 218.282 249.196 217.623 249.194 216.981C249.192 216.18 248.887 215.387 248.471 214.698C246.612 211.649 242.587 209.518 238.264 209.292C238.016 209.279 237.767 209.273 237.519 209.273C233.447 209.277 229.457 210.942 227.238 213.613C226.716 214.25 226.304 215.04 226.298 215.844C226.298 216.123 226.351 216.406 226.481 216.677C226.61 216.947 226.818 217.204 227.107 217.419C227.584 217.779 228.206 217.937 228.799 217.935C229.482 217.933 230.146 217.744 230.705 217.437C231.263 217.129 231.726 216.695 231.955 216.164C232.101 215.822 232.165 215.473 232.165 215.13C232.16 214.053 231.558 213.039 230.856 212.195C228.141 208.962 223.255 207.003 218.334 207C217.433 207 216.53 207.066 215.64 207.203C212.763 207.647 210.133 208.813 208.084 210.422C206.035 212.031 204.561 214.088 204.015 216.333C203.943 216.629 203.905 216.941 203.905 217.258C203.907 217.886 204.049 218.53 204.418 219.083C204.603 219.358 204.85 219.611 205.174 219.81C205.497 220.009 205.898 220.149 206.345 220.197C206.453 220.209 206.562 220.214 206.669 220.214C207.367 220.213 207.992 219.974 208.466 219.631C208.941 219.286 209.283 218.829 209.415 218.322C209.463 218.137 209.484 217.952 209.484 217.768C209.481 216.921 209.033 216.139 208.461 215.495C206.791 213.63 203.908 212.664 201.047 212.662C200.117 212.662 199.186 212.765 198.294 212.976C194.677 213.837 191.924 216.212 190.662 218.93C190.183 219.963 190 221.063 190 222.171C190.001 224.041 190.518 225.943 191.081 227.635L191.202 228H260.439L260.584 227.67L259.992 227.513Z" fill="#CBCBCB"/>
<path d="M1080.19 462.656V461.311H889.702V462.656L891.389 462.318C889.846 457.737 888.483 452.678 888.486 447.901C888.486 445.069 888.963 442.342 890.124 439.862C893.307 433.041 900.338 427.129 909.145 425.078C911.285 424.576 913.544 424.328 915.808 424.328C922.803 424.324 929.77 426.705 933.62 430.997C934.95 432.467 935.861 434.183 935.851 435.741C935.851 436.082 935.81 436.416 935.725 436.746C935.525 437.538 934.923 438.348 934.122 438.918C933.319 439.495 932.371 439.811 931.485 439.808L931.067 439.787C930.417 439.713 929.925 439.539 929.475 439.269C928.807 438.867 928.236 438.194 927.848 437.314C927.459 436.44 927.262 435.384 927.264 434.331C927.264 433.625 927.35 432.921 927.509 432.277C928.887 426.656 932.648 421.433 937.907 417.344C943.165 413.253 949.906 410.309 957.182 409.2C959.433 408.855 961.723 408.689 964.015 408.689C976.554 408.679 989.178 413.711 996.016 421.818C997.78 423.892 999.115 426.303 999.101 428.455C999.101 429.145 998.973 429.81 998.693 430.458C998.343 431.282 997.534 432.07 996.5 432.633C995.472 433.198 994.243 433.518 993.199 433.512C992.279 433.507 991.534 433.304 990.897 432.839C990.475 432.524 990.196 432.183 990.001 431.785C989.809 431.39 989.711 430.933 989.711 430.426C989.696 428.971 990.585 427.133 991.777 425.722C997.255 419.152 1007.39 414.956 1017.52 414.967C1018.13 414.967 1018.75 414.982 1019.37 415.014C1030.09 415.542 1040.33 420.912 1044.91 428.411C1045.91 430.036 1046.6 431.905 1046.59 433.566C1046.59 434.912 1046.17 436.09 1045.22 437.062C1044.49 437.816 1043.04 438.281 1041.55 438.277C1040.53 438.28 1039.55 438.056 1038.92 437.719C1038.61 437.551 1038.37 437.361 1038.21 437.156C1038.05 436.947 1037.95 436.72 1037.92 436.419L1037.91 436.27C1037.92 435.845 1038.06 435.482 1038.36 435.107C1038.79 434.548 1039.63 433.987 1040.69 433.545C1041.75 433.101 1043.01 432.777 1044.18 432.613C1045.75 432.393 1047.35 432.284 1048.96 432.284C1057.05 432.278 1065.21 435.061 1070.48 439.789C1075.49 444.254 1079.54 451.289 1079.51 457.376C1079.51 459.09 1079.2 460.725 1078.54 462.22L1080.19 462.656L1081.84 463.09C1082.65 461.271 1083 459.339 1083 457.376C1082.97 450.406 1078.63 443 1073.12 438.035C1067.13 432.676 1058.07 429.6 1048.96 429.595C1047.15 429.595 1045.34 429.717 1043.55 429.969C1041.53 430.256 1039.4 430.861 1037.64 431.858C1036.76 432.358 1035.97 432.963 1035.38 433.702C1034.79 434.437 1034.43 435.322 1034.43 436.27L1034.44 436.594C1034.5 437.309 1034.78 437.981 1035.23 438.548C1035.9 439.404 1036.91 440.01 1038.01 440.396C1039.11 440.783 1040.32 440.964 1041.55 440.966C1043.89 440.96 1046.39 440.292 1047.99 438.69C1049.5 437.16 1050.08 435.339 1050.08 433.566C1050.07 431.355 1049.22 429.163 1048.06 427.261C1042.88 418.841 1031.65 412.954 1019.6 412.331C1018.9 412.296 1018.21 412.278 1017.52 412.278C1006.16 412.289 995.034 416.887 988.847 424.265C987.39 426.023 986.241 428.206 986.225 430.426C986.225 431.197 986.374 431.979 986.736 432.726C987.095 433.472 987.676 434.182 988.483 434.778C989.812 435.771 991.545 436.208 993.199 436.201C995.106 436.197 996.955 435.674 998.515 434.827C1000.07 433.975 1001.36 432.776 1002 431.309C1002.41 430.365 1002.59 429.403 1002.59 428.455C1002.57 425.479 1000.89 422.678 998.935 420.348C991.365 411.419 977.739 406.009 964.015 406C961.503 406 958.986 406.183 956.504 406.562C948.479 407.788 941.147 411.006 935.432 415.451C929.719 419.895 925.608 425.577 924.083 431.777C923.883 432.594 923.778 433.457 923.778 434.331C923.783 436.065 924.178 437.845 925.207 439.371C925.724 440.132 926.413 440.831 927.317 441.381C928.217 441.931 929.336 442.315 930.582 442.448C930.884 442.481 931.186 442.497 931.485 442.497C933.432 442.494 935.176 441.834 936.496 440.886C937.82 439.933 938.776 438.671 939.144 437.271C939.276 436.76 939.337 436.248 939.337 435.741C939.327 433.402 938.077 431.242 936.482 429.463C931.825 424.312 923.786 421.643 915.808 421.639C913.214 421.639 910.618 421.923 908.13 422.506C898.044 424.884 890.365 431.442 886.845 438.949C885.511 441.802 885.001 444.84 885 447.901C885.003 453.066 886.445 458.32 888.014 462.993L888.353 464H1081.43L1081.84 463.09L1080.19 462.656Z" fill="#CBCBCB"/>
<path d="M1345.85 242.695V240.39H1136.22V242.695L1137.71 240.895C1132.99 237.271 1129.72 230.813 1129.75 224.952C1129.75 222.769 1130.18 220.683 1131.09 218.804C1132.57 215.723 1135.08 213.116 1138.14 211.288C1141.19 209.458 1144.77 208.425 1148.29 208.427C1149.42 208.427 1150.54 208.531 1151.64 208.748C1153.46 209.1 1155.25 209.783 1156.63 210.742C1158.02 211.712 1159.01 212.899 1159.52 214.439L1159.6 214.715L1159.51 214.439C1159.68 214.932 1159.76 215.453 1159.76 215.962C1159.76 216.824 1159.52 217.636 1159.09 218.29V218.288C1158.65 218.943 1158.19 219.323 1157.7 219.576C1157.2 219.828 1156.65 219.955 1156.02 219.955C1155.03 219.961 1153.86 219.611 1152.82 218.966C1151.78 218.33 1150.91 217.412 1150.42 216.446C1149.67 214.99 1149.35 213.339 1149.35 211.523C1149.35 209.49 1149.76 207.282 1150.31 205.118C1155.77 183.661 1172.8 164.707 1194.5 158.627C1199.32 157.271 1204.35 156.61 1209.4 156.61C1227.03 156.598 1244.73 164.707 1254.12 178.89C1256.38 182.276 1258.07 186.187 1258.05 189.679C1258.05 191.645 1257.57 193.482 1256.37 195.282C1255.13 197.163 1252.94 198.283 1250.95 198.272C1249.91 198.267 1248.93 197.998 1248.02 197.387C1247.22 196.85 1246.74 196.262 1246.4 195.58C1246.07 194.9 1245.9 194.1 1245.9 193.178C1245.89 191.756 1246.33 190.069 1247.12 188.437C1247.9 186.807 1249.01 185.237 1250.22 184.02C1256.69 177.483 1266.1 173.678 1275.46 173.685C1276.7 173.685 1277.95 173.752 1279.18 173.888C1289.7 175.026 1299.64 181.224 1305.07 190.032C1306.92 192.998 1308.2 196.46 1308.19 199.558C1308.19 200.966 1307.94 202.299 1307.39 203.555V203.557C1306.72 205.129 1305.19 206.56 1303.42 207.333L1303.22 207.39L1303.11 207.3L1302.92 206.821L1302.96 206.66L1303.18 206.491C1307.63 204.244 1312.73 203.078 1317.8 203.078C1322.91 203.078 1327.99 204.262 1332.4 206.66C1336.41 208.829 1339.39 212.779 1341.36 217.705C1343.33 222.612 1344.25 228.416 1344.25 233.913C1344.25 236.854 1343.99 239.71 1343.51 242.285L1345.85 242.695L1348.19 243.103C1348.72 240.231 1349 237.117 1349 233.913C1349 227.927 1348.03 221.626 1345.8 216.036C1343.56 210.46 1340.01 205.519 1334.72 202.637C1329.54 199.821 1323.66 198.47 1317.8 198.468C1311.98 198.47 1306.16 199.795 1300.98 202.4C1300.08 202.852 1299.33 203.536 1298.86 204.329C1298.38 205.124 1298.17 205.998 1298.17 206.821C1298.18 208.119 1298.64 209.322 1299.49 210.292C1300.32 211.258 1301.67 212.005 1303.22 212C1303.96 212 1304.7 211.834 1305.4 211.528C1308.13 210.306 1310.52 208.181 1311.77 205.348C1312.59 203.465 1312.94 201.496 1312.94 199.558C1312.93 195.271 1311.29 191.143 1309.15 187.66C1302.9 177.583 1291.77 170.64 1279.71 169.308C1278.3 169.151 1276.88 169.075 1275.46 169.075C1264.79 169.084 1254.22 173.346 1246.8 180.826C1245.2 182.435 1243.82 184.385 1242.81 186.494C1241.8 188.603 1241.15 190.88 1241.14 193.178C1241.14 194.658 1241.42 196.156 1242.1 197.55C1242.78 198.947 1243.87 200.21 1245.31 201.176C1247.03 202.34 1249.02 202.884 1250.95 202.882C1254.68 202.868 1258.23 200.95 1260.36 197.79C1262.09 195.22 1262.81 192.403 1262.81 189.679C1262.79 184.797 1260.64 180.217 1258.11 176.393C1247.66 160.676 1228.48 152.009 1209.4 152C1203.92 152 1198.45 152.717 1193.18 154.201C1169.58 160.872 1151.57 181.063 1145.7 204.009C1145.1 206.36 1144.6 208.909 1144.6 211.523C1144.6 213.846 1145 216.25 1146.16 218.502C1147.1 220.319 1148.56 221.794 1150.27 222.854C1151.97 223.908 1153.95 224.56 1156.02 224.564C1157.33 224.567 1158.67 224.29 1159.91 223.659C1161.15 223.032 1162.25 222.05 1163.09 220.782C1164.07 219.304 1164.51 217.617 1164.51 215.962C1164.51 214.978 1164.36 214.001 1164.05 213.063V213.06C1163.21 210.437 1161.45 208.404 1159.39 206.987C1157.32 205.562 1154.94 204.693 1152.58 204.228C1151.16 203.951 1149.72 203.818 1148.29 203.818C1143.82 203.82 1139.42 205.106 1135.64 207.365C1131.87 209.624 1128.7 212.869 1126.78 216.852C1125.55 219.415 1125 222.186 1125 224.952C1125.03 232.39 1128.84 239.876 1134.74 244.493L1135.39 245H1347.84L1348.19 243.103L1345.85 242.695Z" fill="#CBCBCB"/>
<path d="M356.818 531.133V530.265H278.209V531.133L278.766 530.455C276.998 529.091 275.77 526.661 275.783 524.455C275.783 523.633 275.944 522.848 276.284 522.141C276.839 520.982 277.781 520.001 278.928 519.313C280.073 518.624 281.414 518.235 282.733 518.236C283.156 518.236 283.576 518.275 283.99 518.357C284.673 518.489 285.343 518.746 285.863 519.107C286.384 519.472 286.755 519.919 286.944 520.498L286.977 520.603L286.943 520.498C287.004 520.684 287.034 520.88 287.034 521.072C287.034 521.396 286.947 521.702 286.784 521.948V521.947C286.62 522.193 286.447 522.337 286.262 522.432C286.077 522.527 285.869 522.574 285.633 522.574C285.262 522.577 284.821 522.445 284.433 522.202C284.044 521.963 283.715 521.617 283.531 521.254C283.25 520.706 283.132 520.085 283.131 519.401C283.131 518.636 283.284 517.805 283.492 516.99C285.538 508.915 291.923 501.782 300.062 499.494C301.869 498.984 303.756 498.735 305.65 498.735C312.261 498.731 318.9 501.782 322.418 507.12C323.266 508.394 323.902 509.866 323.895 511.18C323.893 511.92 323.713 512.612 323.264 513.289C322.797 513.997 321.979 514.418 321.23 514.414C320.842 514.412 320.473 514.311 320.132 514.081C319.834 513.879 319.652 513.658 319.526 513.401C319.401 513.145 319.337 512.844 319.336 512.497C319.334 511.962 319.5 511.327 319.794 510.713C320.087 510.099 320.506 509.509 320.959 509.051C323.384 506.591 326.914 505.158 330.421 505.161C330.888 505.161 331.355 505.186 331.817 505.237C335.763 505.666 339.489 507.998 341.527 511.313C342.219 512.429 342.699 513.732 342.695 514.898C342.695 515.428 342.601 515.93 342.396 516.402V516.403C342.145 516.995 341.57 517.533 340.909 517.824L340.834 517.846L340.79 517.812L340.721 517.632L340.735 517.571L340.816 517.507C342.488 516.662 344.397 516.223 346.299 516.223C348.217 516.223 350.122 516.669 351.775 517.571C353.278 518.387 354.397 519.874 355.136 521.728C355.875 523.574 356.219 525.759 356.217 527.828C356.217 528.934 356.12 530.009 355.941 530.978L356.818 531.133L357.695 531.286C357.895 530.205 358 529.033 358 527.828C357.999 525.575 357.636 523.203 356.798 521.1C355.961 519.001 354.63 517.141 352.646 516.057C350.701 514.997 348.499 514.489 346.299 514.488C344.118 514.489 341.935 514.988 339.994 515.968C339.654 516.138 339.374 516.395 339.196 516.694C339.016 516.993 338.938 517.322 338.939 517.632C338.941 518.12 339.117 518.573 339.434 518.938C339.746 519.301 340.251 519.582 340.834 519.581C341.108 519.581 341.388 519.518 341.648 519.403C342.675 518.943 343.571 518.143 344.039 517.077C344.347 516.369 344.478 515.628 344.478 514.898C344.473 513.285 343.86 511.731 343.056 510.42C340.711 506.628 336.537 504.015 332.018 503.514C331.487 503.455 330.954 503.426 330.421 503.426C326.422 503.43 322.459 505.033 319.674 507.848C319.077 508.454 318.559 509.188 318.178 509.981C317.8 510.775 317.555 511.632 317.553 512.497C317.553 513.054 317.659 513.618 317.914 514.143C318.167 514.668 318.575 515.144 319.116 515.507C319.763 515.945 320.507 516.15 321.23 516.149C322.631 516.144 323.962 515.422 324.76 514.233C325.407 513.266 325.68 512.206 325.677 511.18C325.671 509.343 324.864 507.619 323.918 506.18C319.996 500.265 312.806 497.003 305.65 497C303.597 497 301.543 497.27 299.566 497.828C290.717 500.339 283.964 507.938 281.761 516.573C281.537 517.458 281.35 518.417 281.35 519.401C281.349 520.276 281.501 521.18 281.935 522.028C282.287 522.711 282.835 523.267 283.475 523.666C284.115 524.062 284.857 524.307 285.633 524.309C286.122 524.31 286.627 524.206 287.091 523.968C287.555 523.732 287.97 523.363 288.284 522.886C288.65 522.33 288.817 521.695 288.817 521.072C288.817 520.701 288.759 520.334 288.645 519.981V519.98C288.328 518.993 287.67 518.227 286.897 517.694C286.12 517.158 285.227 516.831 284.342 516.656C283.809 516.552 283.27 516.501 282.733 516.501C281.057 516.502 279.407 516.986 277.992 517.836C276.576 518.686 275.389 519.908 274.668 521.407C274.205 522.371 274 523.414 274 524.455C274.012 527.254 275.44 530.072 277.653 531.809L277.897 532H357.563L357.695 531.286L356.818 531.133Z" fill="#CBCBCB"/>
<path d="M192.96 90.4882V88.9763H57.2658V90.4882L58.2275 89.3074C55.1747 86.9308 53.0559 82.6946 53.0774 78.85C53.0774 77.4182 53.3559 76.05 53.9422 74.8179C54.9008 72.7965 56.5272 71.0867 58.506 69.8878C60.4832 68.6874 62.7974 68.01 65.0747 68.0115C65.8056 68.0115 66.5303 68.0796 67.2443 68.2217C68.4245 68.453 69.58 68.9005 70.4771 69.5294C71.3773 70.1659 72.0174 70.9445 72.3436 71.9544L72.4005 72.1359L72.342 71.9544C72.4467 72.278 72.499 72.6196 72.499 72.9538C72.499 73.5192 72.3482 74.0514 72.0682 74.4807V74.4793C71.785 74.9086 71.4865 75.1581 71.1665 75.3244C70.8464 75.4891 70.4879 75.5723 70.0801 75.5723C69.44 75.5769 68.6799 75.347 68.009 74.9237C67.3381 74.5065 66.7704 73.9047 66.4519 73.2713C65.9672 72.3158 65.7641 71.2333 65.7625 70.042C65.7625 68.7085 66.0256 67.2602 66.3841 65.8405C69.917 51.7668 80.9388 39.3348 94.9887 35.3466C98.1077 34.4576 101.365 34.0237 104.633 34.0237C116.046 34.0161 127.506 39.3348 133.579 48.6372C135.043 50.8581 136.14 53.4237 136.128 55.7142C136.124 57.0038 135.814 58.2088 135.04 59.3895C134.233 60.6232 132.821 61.3579 131.528 61.3503C130.857 61.3473 130.222 61.1704 129.633 60.7698C129.119 60.4175 128.805 60.032 128.586 59.5845C128.371 59.1385 128.26 58.6139 128.259 58.0092C128.256 57.0764 128.542 55.9697 129.049 54.8993C129.556 53.8304 130.277 52.8008 131.061 52.0026C135.246 47.715 141.339 45.2189 147.394 45.2235C148.2 45.2235 149.005 45.2673 149.804 45.3565C156.614 46.1033 163.047 50.1687 166.565 55.9455C167.759 57.8912 168.588 60.162 168.58 62.1939C168.58 63.1177 168.419 63.9915 168.065 64.8155V64.817C167.631 65.8481 166.639 66.7869 165.497 67.2934L165.368 67.3312L165.292 67.2722L165.174 66.9578L165.197 66.852L165.337 66.7416C168.223 65.2675 171.519 64.5025 174.801 64.5025C178.113 64.5025 181.401 65.2796 184.255 66.852C186.849 68.2746 188.781 70.8659 190.056 74.0967C191.332 77.3154 191.926 81.1223 191.923 84.7281C191.923 86.6572 191.755 88.5303 191.446 90.2191L192.96 90.4882L194.474 90.7558C194.818 88.872 195 86.8295 195 84.7281C194.998 80.8018 194.372 76.6684 192.926 73.0022C191.479 69.345 189.182 66.1036 185.759 64.2138C182.401 62.3663 178.599 61.4804 174.801 61.4788C171.036 61.4804 167.268 62.3497 163.918 64.0581C163.332 64.3544 162.849 64.8034 162.541 65.3235C162.23 65.8451 162.095 66.4181 162.096 66.9578C162.101 67.809 162.404 68.5982 162.952 69.2347C163.49 69.8681 164.361 70.3579 165.368 70.3549C165.841 70.3549 166.325 70.2461 166.774 70.045C168.547 69.2437 170.093 67.8498 170.901 65.9917C171.432 64.7565 171.658 63.4654 171.658 62.1939C171.65 59.3819 170.592 56.6742 169.204 54.3898C165.155 47.78 157.951 43.2264 150.15 42.3525C149.233 42.2497 148.313 42.1998 147.394 42.1998C140.49 42.2058 133.649 45.0012 128.842 49.9072C127.811 50.9624 126.917 52.2415 126.26 53.6248C125.607 55.0082 125.184 56.5019 125.181 58.0092C125.181 58.9798 125.364 59.9625 125.804 60.8771C126.241 61.7933 126.945 62.6218 127.879 63.2553C128.996 64.0188 130.28 64.3755 131.528 64.374C133.946 64.365 136.245 63.1071 137.622 61.0344C138.739 59.3487 139.21 57.5012 139.205 55.7142C139.194 52.5121 137.802 49.508 136.168 46.9999C129.397 36.6906 116.986 31.006 104.633 31C101.09 31 97.5445 31.4702 94.1316 32.4439C78.8569 36.8191 67.1997 50.0629 63.3975 65.1133C63.0098 66.6554 62.6867 68.3275 62.6867 70.042C62.6851 71.5659 62.9482 73.1427 63.6976 74.6198C64.3054 75.8111 65.2501 76.7788 66.3549 77.4742C67.4612 78.1651 68.7414 78.593 70.0801 78.596C70.9249 78.5975 71.7958 78.4161 72.5975 78.0018C73.3991 77.5906 74.1146 76.9466 74.6562 76.115C75.2886 75.146 75.5764 74.0393 75.5764 72.9538C75.5764 72.3082 75.4764 71.6672 75.2794 71.0518V71.0504C74.7332 69.3299 73.5976 67.9964 72.262 67.0666C70.9218 66.1323 69.38 65.5624 67.8521 65.257C66.9319 65.0756 66.001 64.9878 65.0747 64.9878C62.1819 64.9894 59.3338 65.833 56.8903 67.3146C54.4469 68.7962 52.3973 70.9249 51.1525 73.5374C50.3539 75.2186 50 77.0357 50 78.85C50.02 83.7287 52.485 88.6392 56.3056 91.6674L56.7272 92H194.246L194.474 90.7558L192.96 90.4882Z" fill="#CBCBCB"/>
<path d="M1232.82 394.133V393.265H1154.21V394.133L1154.77 393.455C1153 392.091 1151.77 389.661 1151.78 387.455C1151.78 386.633 1151.94 385.848 1152.28 385.141C1152.84 383.982 1153.78 383.001 1154.93 382.313C1156.07 381.624 1157.41 381.235 1158.73 381.236C1159.16 381.236 1159.58 381.275 1159.99 381.357C1160.67 381.489 1161.34 381.746 1161.86 382.107C1162.38 382.472 1162.75 382.919 1162.94 383.498L1162.98 383.603L1162.94 383.498C1163 383.684 1163.03 383.88 1163.03 384.072C1163.03 384.396 1162.95 384.702 1162.78 384.948V384.947C1162.62 385.193 1162.45 385.337 1162.26 385.432C1162.08 385.527 1161.87 385.574 1161.63 385.574C1161.26 385.577 1160.82 385.445 1160.43 385.202C1160.04 384.963 1159.72 384.617 1159.53 384.254C1159.25 383.706 1159.13 383.085 1159.13 382.401C1159.13 381.636 1159.28 380.805 1159.49 379.99C1161.54 371.915 1167.92 364.782 1176.06 362.494C1177.87 361.984 1179.76 361.735 1181.65 361.735C1188.26 361.731 1194.9 364.782 1198.42 370.12C1199.27 371.394 1199.9 372.866 1199.89 374.18C1199.89 374.92 1199.71 375.612 1199.26 376.289C1198.8 376.997 1197.98 377.418 1197.23 377.414C1196.84 377.412 1196.47 377.311 1196.13 377.081C1195.83 376.879 1195.65 376.658 1195.53 376.401C1195.4 376.145 1195.34 375.844 1195.34 375.497C1195.33 374.962 1195.5 374.327 1195.79 373.713C1196.09 373.099 1196.51 372.509 1196.96 372.051C1199.38 369.591 1202.91 368.158 1206.42 368.161C1206.89 368.161 1207.35 368.186 1207.82 368.237C1211.76 368.666 1215.49 370.998 1217.53 374.313C1218.22 375.429 1218.7 376.732 1218.69 377.898C1218.69 378.428 1218.6 378.93 1218.4 379.402V379.403C1218.14 379.995 1217.57 380.533 1216.91 380.824L1216.83 380.846L1216.79 380.812L1216.72 380.632L1216.73 380.571L1216.82 380.507C1218.49 379.662 1220.4 379.223 1222.3 379.223C1224.22 379.223 1226.12 379.669 1227.78 380.571C1229.28 381.387 1230.4 382.874 1231.14 384.728C1231.87 386.574 1232.22 388.759 1232.22 390.828C1232.22 391.934 1232.12 393.009 1231.94 393.978L1232.82 394.133L1233.7 394.286C1233.89 393.205 1234 392.033 1234 390.828C1234 388.575 1233.64 386.203 1232.8 384.1C1231.96 382.001 1230.63 380.141 1228.65 379.057C1226.7 377.997 1224.5 377.489 1222.3 377.488C1220.12 377.489 1217.93 377.988 1215.99 378.968C1215.65 379.138 1215.37 379.395 1215.2 379.694C1215.02 379.993 1214.94 380.322 1214.94 380.632C1214.94 381.12 1215.12 381.573 1215.43 381.938C1215.75 382.301 1216.25 382.582 1216.83 382.581C1217.11 382.581 1217.39 382.518 1217.65 382.403C1218.68 381.943 1219.57 381.143 1220.04 380.077C1220.35 379.369 1220.48 378.628 1220.48 377.898C1220.47 376.285 1219.86 374.731 1219.06 373.42C1216.71 369.628 1212.54 367.015 1208.02 366.514C1207.49 366.455 1206.95 366.426 1206.42 366.426C1202.42 366.43 1198.46 368.033 1195.67 370.848C1195.08 371.454 1194.56 372.188 1194.18 372.981C1193.8 373.775 1193.56 374.632 1193.55 375.497C1193.55 376.054 1193.66 376.618 1193.91 377.143C1194.17 377.668 1194.57 378.144 1195.12 378.507C1195.76 378.945 1196.51 379.15 1197.23 379.149C1198.63 379.144 1199.96 378.422 1200.76 377.233C1201.41 376.266 1201.68 375.206 1201.68 374.18C1201.67 372.343 1200.86 370.619 1199.92 369.18C1196 363.265 1188.81 360.003 1181.65 360C1179.6 360 1177.54 360.27 1175.57 360.828C1166.72 363.339 1159.96 370.938 1157.76 379.573C1157.54 380.458 1157.35 381.417 1157.35 382.401C1157.35 383.276 1157.5 384.18 1157.94 385.028C1158.29 385.711 1158.83 386.267 1159.47 386.666C1160.12 387.062 1160.86 387.307 1161.63 387.309C1162.12 387.31 1162.63 387.206 1163.09 386.968C1163.56 386.732 1163.97 386.363 1164.28 385.886C1164.65 385.33 1164.82 384.695 1164.82 384.072C1164.82 383.701 1164.76 383.334 1164.64 382.981V382.98C1164.33 381.993 1163.67 381.227 1162.9 380.694C1162.12 380.158 1161.23 379.831 1160.34 379.656C1159.81 379.552 1159.27 379.501 1158.73 379.501C1157.06 379.502 1155.41 379.986 1153.99 380.836C1152.58 381.686 1151.39 382.908 1150.67 384.407C1150.21 385.371 1150 386.414 1150 387.455C1150.01 390.254 1151.44 393.072 1153.65 394.809L1153.9 395H1233.56L1233.7 394.286L1232.82 394.133Z" fill="#CBCBCB"/>
<path d="M175.495 376.166V374.332H8.91935V376.166L10.0999 374.734C6.35235 371.85 3.75134 366.711 3.77779 362.047C3.77779 360.311 4.1197 358.651 4.83937 357.156C6.01615 354.704 8.0127 352.63 10.4418 351.175C12.869 349.719 15.7099 348.897 18.5055 348.899C19.4027 348.899 20.2924 348.982 21.1689 349.154C22.6176 349.435 24.0362 349.978 25.1374 350.741C26.2424 351.513 27.0282 352.457 27.4287 353.682L27.4985 353.903L27.4268 353.682C27.5552 354.075 27.6194 354.489 27.6194 354.895C27.6194 355.581 27.4343 356.226 27.0906 356.747V356.745C26.743 357.266 26.3765 357.569 25.9836 357.771C25.5908 357.97 25.1506 358.071 24.6501 358.071C23.8643 358.077 22.9312 357.798 22.1076 357.285C21.2841 356.778 20.5871 356.048 20.1961 355.28C19.6011 354.121 19.3518 352.808 19.3499 351.362C19.3499 349.745 19.6728 347.988 20.1129 346.266C24.4498 329.192 37.98 314.111 55.2275 309.273C59.0563 308.194 63.0551 307.668 67.0671 307.668C81.077 307.659 95.1455 314.111 102.601 325.396C104.397 328.09 105.744 331.203 105.729 333.981C105.725 335.546 105.344 337.007 104.394 338.44C103.404 339.936 101.67 340.828 100.083 340.818C99.2595 340.815 98.4794 340.6 97.756 340.114C97.1251 339.687 96.7397 339.219 96.4715 338.676C96.2071 338.135 96.0711 337.499 96.0692 336.765C96.0654 335.634 96.4167 334.291 97.0401 332.993C97.6615 331.696 98.5474 330.447 99.5089 329.479C104.647 324.277 112.127 321.249 119.56 321.255C120.549 321.255 121.537 321.308 122.517 321.416C130.878 322.322 138.775 327.254 143.093 334.262C144.559 336.622 145.577 339.377 145.568 341.842C145.568 342.962 145.369 344.022 144.935 345.022V345.024C144.402 346.275 143.184 347.414 141.782 348.028L141.624 348.074L141.531 348.002L141.386 347.621L141.414 347.493L141.586 347.359C145.129 345.57 149.175 344.642 153.204 344.642C157.269 344.642 161.306 345.585 164.81 347.493C167.995 349.218 170.365 352.362 171.931 356.281C173.497 360.186 174.226 364.804 174.222 369.178C174.222 371.519 174.016 373.791 173.637 375.84L175.495 376.166L177.354 376.491C177.777 374.205 178 371.728 178 369.178C177.998 364.415 177.229 359.401 175.454 354.953C173.678 350.517 170.858 346.585 166.655 344.292C162.534 342.051 157.866 340.976 153.204 340.974C148.582 340.976 143.956 342.031 139.844 344.103C139.125 344.463 138.532 345.007 138.154 345.638C137.772 346.271 137.606 346.966 137.608 347.621C137.614 348.654 137.986 349.611 138.658 350.383C139.319 351.152 140.388 351.746 141.624 351.742C142.205 351.742 142.799 351.61 143.35 351.366C145.526 350.394 147.424 348.703 148.416 346.449C149.068 344.951 149.345 343.384 149.345 341.842C149.336 338.431 148.036 335.146 146.333 332.374C141.363 324.356 132.519 318.832 122.943 317.772C121.817 317.647 120.687 317.587 119.56 317.587C111.084 317.594 102.686 320.985 96.7851 326.937C95.5195 328.217 94.4221 329.768 93.6155 331.447C92.8146 333.125 92.2952 334.937 92.2914 336.765C92.2914 337.943 92.5162 339.135 93.0564 340.244C93.5929 341.356 94.4561 342.361 95.6027 343.129C96.974 344.056 98.5512 344.488 100.083 344.487C103.051 344.476 105.873 342.95 107.563 340.435C108.934 338.39 109.512 336.149 109.507 333.981C109.494 330.097 107.784 326.452 105.778 323.41C97.467 310.903 82.2312 304.007 67.0671 304C62.717 304 58.365 304.57 54.1754 305.752C35.4243 311.059 21.1141 327.125 16.4466 345.383C15.9706 347.254 15.574 349.283 15.574 351.362C15.5721 353.211 15.8951 355.124 16.8149 356.916C17.5611 358.361 18.7208 359.535 20.0771 360.379C21.4352 361.217 23.0067 361.736 24.6501 361.739C25.6871 361.741 26.7562 361.521 27.7403 361.019C28.7244 360.52 29.6028 359.738 30.2676 358.73C31.044 357.554 31.3972 356.212 31.3972 354.895C31.3972 354.112 31.2744 353.334 31.0327 352.587V352.586C30.3621 350.499 28.9681 348.881 27.3286 347.753C25.6833 346.62 23.7906 345.928 21.915 345.558C20.7854 345.338 19.6426 345.231 18.5055 345.231C14.9544 345.233 11.458 346.256 8.45848 348.054C5.45891 349.851 2.9429 352.433 1.41478 355.603C0.434444 357.642 0 359.847 0 362.047C0.0245556 367.966 3.05056 373.923 7.74069 377.597L8.25824 378H177.074L177.354 376.491L175.495 376.166Z" fill="#CBCBCB"/>
</svg>
