<svg width="434" height="699" viewBox="0 0 434 699" fill="none" xmlns="http://www.w3.org/2000/svg">
<path d="M416.96 444.488V442.976H281.266V444.488L282.227 443.307C279.175 440.931 277.056 436.695 277.077 432.85C277.077 431.418 277.356 430.05 277.942 428.818C278.901 426.797 280.527 425.087 282.506 423.888C284.483 422.687 286.797 422.01 289.075 422.012C289.806 422.012 290.53 422.08 291.244 422.222C292.424 422.453 293.58 422.901 294.477 423.529C295.377 424.166 296.017 424.945 296.344 425.954L296.4 426.136L296.342 425.954C296.447 426.278 296.499 426.62 296.499 426.954C296.499 427.519 296.348 428.051 296.068 428.481V428.479C295.785 428.909 295.487 429.158 295.166 429.324C294.846 429.489 294.488 429.572 294.08 429.572C293.44 429.577 292.68 429.347 292.009 428.924C291.338 428.506 290.77 427.905 290.452 427.271C289.967 426.316 289.764 425.233 289.763 424.042C289.763 422.709 290.026 421.26 290.384 419.841C293.917 405.767 304.939 393.335 318.989 389.347C322.108 388.458 325.365 388.024 328.633 388.024C340.046 388.016 351.506 393.335 357.579 402.637C359.043 404.858 360.14 407.424 360.128 409.714C360.124 411.004 359.814 412.209 359.04 413.39C358.233 414.623 356.821 415.358 355.528 415.35C354.857 415.347 354.222 415.17 353.633 414.77C353.119 414.418 352.805 414.032 352.586 413.585C352.371 413.139 352.26 412.614 352.259 412.009C352.256 411.076 352.542 409.97 353.049 408.899C353.556 407.83 354.277 406.801 355.061 406.003C359.246 401.715 365.339 399.219 371.394 399.223C372.2 399.223 373.005 399.267 373.804 399.356C380.614 400.103 387.047 404.169 390.565 409.945C391.759 411.891 392.588 414.162 392.58 416.194C392.58 417.118 392.419 417.992 392.065 418.815V418.817C391.631 419.848 390.639 420.787 389.497 421.293L389.368 421.331L389.292 421.272L389.174 420.958L389.197 420.852L389.337 420.742C392.223 419.268 395.519 418.503 398.801 418.503C402.113 418.503 405.401 419.28 408.255 420.852C410.849 422.275 412.781 424.866 414.056 428.097C415.332 431.315 415.926 435.122 415.923 438.728C415.923 440.657 415.755 442.53 415.446 444.219L416.96 444.488L418.474 444.756C418.818 442.872 419 440.83 419 438.728C418.998 434.802 418.372 430.668 416.926 427.002C415.479 423.345 413.182 420.104 409.759 418.214C406.401 416.366 402.599 415.48 398.801 415.479C395.036 415.48 391.268 416.35 387.918 418.058C387.332 418.354 386.849 418.803 386.541 419.324C386.23 419.845 386.095 420.418 386.096 420.958C386.101 421.809 386.404 422.598 386.952 423.235C387.49 423.868 388.361 424.358 389.368 424.355C389.841 424.355 390.325 424.246 390.774 424.045C392.547 423.244 394.093 421.85 394.901 419.992C395.432 418.757 395.658 417.465 395.658 416.194C395.65 413.382 394.592 410.674 393.204 408.39C389.155 401.78 381.951 397.226 374.15 396.353C373.233 396.25 372.313 396.2 371.394 396.2C364.49 396.206 357.649 399.001 352.842 403.907C351.811 404.962 350.917 406.242 350.26 407.625C349.607 409.008 349.184 410.502 349.181 412.009C349.181 412.98 349.364 413.962 349.804 414.877C350.241 415.793 350.945 416.622 351.879 417.255C352.996 418.019 354.28 418.376 355.528 418.374C357.946 418.365 360.245 417.107 361.622 415.034C362.739 413.349 363.21 411.501 363.205 409.714C363.194 406.512 361.802 403.508 360.168 401C353.397 390.691 340.986 385.006 328.633 385C325.09 385 321.544 385.47 318.132 386.444C302.857 390.819 291.2 404.063 287.398 419.113C287.01 420.655 286.687 422.328 286.687 424.042C286.685 425.566 286.948 427.143 287.698 428.62C288.305 429.811 289.25 430.779 290.355 431.474C291.461 432.165 292.741 432.593 294.08 432.596C294.925 432.598 295.796 432.416 296.597 432.002C297.399 431.591 298.115 430.947 298.656 430.115C299.289 429.146 299.576 428.039 299.576 426.954C299.576 426.308 299.476 425.667 299.279 425.052V425.05C298.733 423.33 297.598 421.996 296.262 421.067C294.922 420.132 293.38 419.562 291.852 419.257C290.932 419.076 290.001 418.988 289.075 418.988C286.182 418.989 283.334 419.833 280.89 421.315C278.447 422.796 276.397 424.925 275.152 427.537C274.354 429.219 274 431.036 274 432.85C274.02 437.729 276.485 442.639 280.306 445.667L280.727 446H418.246L418.474 444.756L416.96 444.488Z" fill="#CBCBCB"/>
<path d="M372.262 38.6523V38.3046H322.235V38.6523L322.678 38.565C322.273 37.3801 321.915 36.0718 321.915 34.8365C321.915 34.104 322.041 33.3989 322.346 32.7574C323.182 30.9933 325.028 29.4645 327.341 28.9339C327.903 28.8043 328.496 28.7399 329.091 28.7399C330.928 28.7389 332.758 29.3546 333.769 30.4648C334.118 30.8448 334.357 31.2888 334.355 31.6917C334.355 31.7797 334.344 31.8663 334.322 31.9515C334.269 32.1563 334.111 32.3659 333.901 32.5133C333.69 32.6625 333.441 32.7442 333.208 32.7435L333.099 32.7379C332.928 32.7188 332.798 32.6739 332.68 32.6041C332.505 32.5001 332.355 32.3259 332.253 32.0985C332.151 31.8725 332.099 31.5993 332.1 31.327C332.1 31.1445 332.122 30.9623 332.164 30.7958C332.526 29.3421 333.514 27.9914 334.895 26.9337C336.276 25.8758 338.046 25.1143 339.957 24.8275C340.548 24.7385 341.149 24.6954 341.751 24.6954C345.044 24.6929 348.36 25.9943 350.156 28.0908C350.619 28.6273 350.969 29.2507 350.966 29.8073C350.966 29.9857 350.932 30.1578 350.859 30.3254C350.767 30.5385 350.554 30.7422 350.283 30.8879C350.013 31.0339 349.69 31.1167 349.416 31.1153C349.174 31.1139 348.979 31.0614 348.811 30.9411C348.7 30.8597 348.627 30.7714 348.576 30.6685C348.526 30.5663 348.5 30.4481 348.5 30.317C348.496 29.9408 348.729 29.4655 349.042 29.1005C350.481 27.4014 353.143 26.3163 355.802 26.319C355.964 26.319 356.126 26.3229 356.289 26.3312C359.106 26.4678 361.793 27.8565 362.996 29.7958C363.259 30.2162 363.439 30.6995 363.438 31.1292C363.437 31.4772 363.328 31.7818 363.077 32.0332C362.887 32.2282 362.506 32.3485 362.113 32.3475C361.845 32.3482 361.588 32.2904 361.424 32.2032C361.341 32.1597 361.28 32.1107 361.237 32.0575C361.195 32.0036 361.168 31.9449 361.161 31.867L361.159 31.8284C361.16 31.7185 361.198 31.6246 361.275 31.5276C361.39 31.383 361.609 31.238 361.888 31.1236C362.166 31.0089 362.497 30.9251 362.804 30.8827C363.218 30.8257 363.639 30.7975 364.06 30.7975C366.186 30.7961 368.329 31.5158 369.712 32.7386C371.028 33.8933 372.092 35.7127 372.085 37.287C372.085 37.7303 372.003 38.153 371.829 38.5397L372.262 38.6523L372.695 38.7646C372.907 38.2942 373 37.7946 373 37.287C372.993 35.4843 371.853 33.5689 370.405 32.2849C368.832 30.899 366.453 30.1035 364.06 30.1022C363.585 30.1022 363.11 30.1338 362.64 30.1988C362.11 30.2732 361.551 30.4297 361.088 30.6873C360.857 30.8166 360.649 30.9731 360.495 31.1643C360.34 31.3545 360.243 31.5833 360.244 31.8284L360.248 31.9122C360.263 32.0971 360.336 32.271 360.454 32.4177C360.631 32.6388 360.895 32.7956 361.184 32.8954C361.473 32.9955 361.792 33.0425 362.113 33.0428C362.729 33.0415 363.384 32.8686 363.805 32.4542C364.202 32.0586 364.355 31.5878 364.354 31.1292C364.352 30.5573 364.129 29.9906 363.824 29.4986C362.463 27.3211 359.515 25.7986 356.349 25.6372C356.166 25.6282 355.984 25.6237 355.802 25.6237C352.821 25.6265 349.898 26.8155 348.273 28.7236C347.89 29.1784 347.589 29.743 347.584 30.317C347.584 30.5166 347.623 30.7186 347.719 30.9119C347.813 31.1049 347.965 31.2884 348.177 31.4425C348.527 31.6994 348.982 31.8124 349.416 31.8107C349.917 31.8096 350.402 31.6744 350.812 31.4553C351.221 31.2349 351.56 30.9248 351.728 30.5454C351.835 30.3014 351.881 30.0524 351.881 29.8073C351.878 29.0376 351.437 28.3133 350.922 27.7108C348.934 25.4015 345.356 24.0024 341.751 24C341.092 24 340.431 24.0473 339.779 24.1453C337.671 24.4624 335.746 25.2948 334.245 26.4442C332.744 27.5936 331.665 29.0629 331.264 30.6664C331.212 30.8778 331.184 31.101 331.184 31.327C331.185 31.7755 331.289 32.2359 331.56 32.6305C331.695 32.8273 331.876 33.0081 332.114 33.1503C332.35 33.2925 332.644 33.3919 332.971 33.4263C333.05 33.4347 333.13 33.4388 333.208 33.4388C333.719 33.4381 334.177 33.2674 334.524 33.0223C334.872 32.7758 335.123 32.4494 335.22 32.0874C335.254 31.9553 335.27 31.8228 335.27 31.6917C335.268 31.0868 334.94 30.5281 334.521 30.0681C333.298 28.7358 331.186 28.0456 329.091 28.0446C328.41 28.0446 327.728 28.1179 327.075 28.2688C324.426 28.8839 322.409 30.5799 321.485 32.5213C321.134 33.2591 321 34.0449 321 34.8365C321.001 36.1723 321.38 37.531 321.792 38.7396L321.881 39H372.589L372.695 38.7646L372.262 38.6523Z" fill="#CBCBCB"/>
<path d="M117.818 604.133V603.265H39.2091V604.133L39.7663 603.455C37.9977 602.091 36.7703 599.661 36.7828 597.455C36.7828 596.633 36.9441 595.848 37.2837 595.141C37.8391 593.982 38.7813 593.001 39.9276 592.313C41.073 591.624 42.4137 591.235 43.7329 591.236C44.1563 591.236 44.5762 591.275 44.9898 591.357C45.6735 591.489 46.3429 591.746 46.8626 592.107C47.3841 592.472 47.7549 592.919 47.9439 593.498L47.9768 593.603L47.943 593.498C48.0036 593.684 48.0339 593.88 48.0339 594.072C48.0339 594.396 47.9465 594.702 47.7843 594.948V594.947C47.6203 595.193 47.4474 595.337 47.2619 595.432C47.0765 595.527 46.8688 595.574 46.6326 595.574C46.2618 595.577 45.8215 595.445 45.4328 595.202C45.0442 594.963 44.7153 594.617 44.5307 594.254C44.25 593.706 44.1323 593.085 44.1314 592.401C44.1314 591.636 44.2838 590.805 44.4915 589.99C46.5381 581.915 52.9232 574.782 61.0624 572.494C62.8693 571.984 64.7563 571.735 66.6496 571.735C73.2611 571.731 79.9001 574.782 83.4185 580.12C84.2662 581.394 84.9017 582.866 84.8946 584.18C84.8928 584.92 84.7128 585.612 84.2644 586.289C83.7973 586.997 82.979 587.418 82.2302 587.414C81.8416 587.412 81.4734 587.311 81.132 587.081C80.8343 586.879 80.6525 586.658 80.5259 586.401C80.4011 586.145 80.3369 585.844 80.336 585.497C80.3342 584.962 80.5 584.327 80.7942 583.713C81.0875 583.099 81.5055 582.509 81.9592 582.051C84.3838 579.591 87.9137 578.158 91.4213 578.161C91.8884 578.161 92.3546 578.186 92.8172 578.237C96.7625 578.666 100.489 580.998 102.527 584.313C103.219 585.429 103.699 586.732 103.695 587.898C103.695 588.428 103.601 588.93 103.396 589.402V589.403C103.145 589.995 102.57 590.533 101.909 590.824L101.834 590.846L101.79 590.812L101.721 590.632L101.735 590.571L101.816 590.507C103.488 589.662 105.397 589.223 107.299 589.223C109.217 589.223 111.122 589.669 112.775 590.571C114.278 591.387 115.397 592.874 116.136 594.728C116.875 596.574 117.219 598.759 117.217 600.828C117.217 601.934 117.12 603.009 116.941 603.978L117.818 604.133L118.695 604.286C118.895 603.205 119 602.033 119 600.828C118.999 598.575 118.636 596.203 117.798 594.1C116.961 592.001 115.63 590.141 113.646 589.057C111.701 587.997 109.499 587.489 107.299 587.488C105.118 587.489 102.935 587.988 100.994 588.968C100.654 589.138 100.374 589.395 100.196 589.694C100.016 589.993 99.9376 590.322 99.9385 590.632C99.9412 591.12 100.117 591.573 100.434 591.938C100.746 592.301 101.251 592.582 101.834 592.581C102.108 592.581 102.388 592.518 102.648 592.403C103.675 591.943 104.571 591.143 105.039 590.077C105.347 589.369 105.478 588.628 105.478 587.898C105.473 586.285 104.86 584.731 104.056 583.42C101.711 579.628 97.5371 577.015 93.0178 576.514C92.4865 576.455 91.9535 576.426 91.4213 576.426C87.4217 576.43 83.4586 578.033 80.6739 580.848C80.0766 581.454 79.5587 582.188 79.1781 582.981C78.8002 583.775 78.555 584.632 78.5532 585.497C78.5532 586.054 78.6593 586.618 78.9143 587.143C79.1674 587.668 79.5748 588.144 80.1159 588.507C80.763 588.945 81.5073 589.15 82.2302 589.149C83.6306 589.144 84.9623 588.422 85.7601 587.233C86.4073 586.266 86.68 585.206 86.6774 584.18C86.6711 582.343 85.8644 580.619 84.9178 579.18C80.9956 573.265 73.8057 570.003 66.6496 570C64.5968 570 62.543 570.27 60.5659 570.828C51.7171 573.339 44.9639 580.938 42.7613 589.573C42.5367 590.458 42.3495 591.417 42.3495 592.401C42.3486 593.276 42.501 594.18 42.9351 595.028C43.2872 595.711 43.8346 596.267 44.4746 596.666C45.1155 597.062 45.8571 597.307 46.6326 597.309C47.122 597.31 47.6265 597.206 48.0909 596.968C48.5554 596.732 48.9698 596.363 49.2836 595.886C49.65 595.33 49.8167 594.695 49.8167 594.072C49.8167 593.701 49.7587 593.334 49.6446 592.981V592.98C49.3282 591.993 48.6703 591.227 47.8966 590.694C47.1202 590.158 46.227 589.831 45.3419 589.656C44.8088 589.552 44.2695 589.501 43.7329 589.501C42.0571 589.502 40.4072 589.986 38.9916 590.836C37.5761 591.686 36.3888 592.908 35.6676 594.407C35.205 595.371 35 596.414 35 597.455C35.0116 600.254 36.4396 603.072 38.6529 604.809L38.8971 605H118.563L118.695 604.286L117.818 604.133Z" fill="#CBCBCB"/>
<path d="M262.992 640.513V640.026H194.686V640.513L195.291 640.391C194.738 638.732 194.249 636.901 194.25 635.171C194.25 634.146 194.421 633.158 194.837 632.26C195.979 629.791 198.5 627.65 201.658 626.908C202.426 626.726 203.235 626.636 204.047 626.636C206.556 626.634 209.054 627.496 210.434 629.051C210.911 629.583 211.238 630.204 211.234 630.768C211.234 630.892 211.22 631.013 211.189 631.132C211.118 631.419 210.902 631.712 210.615 631.919C210.327 632.127 209.987 632.242 209.669 632.241L209.519 632.233C209.286 632.206 209.109 632.144 208.948 632.046C208.709 631.9 208.504 631.656 208.365 631.338C208.225 631.022 208.155 630.639 208.155 630.258C208.155 630.002 208.186 629.747 208.243 629.514C208.737 627.479 210.086 625.588 211.972 624.107C213.857 622.626 216.274 621.56 218.883 621.158C219.69 621.034 220.512 620.974 221.334 620.974C225.83 620.97 230.357 622.792 232.809 625.727C233.441 626.478 233.92 627.351 233.915 628.13C233.915 628.38 233.869 628.621 233.769 628.856C233.643 629.154 233.353 629.439 232.982 629.643C232.614 629.848 232.173 629.963 231.799 629.961C231.469 629.959 231.202 629.886 230.973 629.718C230.822 629.604 230.722 629.48 230.652 629.336C230.583 629.193 230.548 629.027 230.548 628.844C230.542 628.317 230.861 627.652 231.289 627.141C233.253 624.762 236.887 623.243 240.519 623.247C240.74 623.247 240.961 623.252 241.182 623.264C245.029 623.455 248.699 625.399 250.341 628.114C250.7 628.703 250.946 629.379 250.944 629.981C250.943 630.468 250.794 630.895 250.451 631.246C250.192 631.52 249.672 631.688 249.135 631.686C248.769 631.687 248.419 631.607 248.194 631.484C248.081 631.424 247.997 631.355 247.939 631.281C247.881 631.205 247.845 631.123 247.835 631.014L247.833 630.96C247.834 630.806 247.886 630.675 247.991 630.539C248.148 630.336 248.447 630.133 248.828 629.973C249.207 629.812 249.659 629.695 250.079 629.636C250.644 629.556 251.218 629.517 251.793 629.517C254.696 629.515 257.622 630.522 259.51 632.234C261.307 633.851 262.76 636.398 262.75 638.602C262.75 639.222 262.639 639.814 262.401 640.356L262.992 640.513L263.584 640.67C263.873 640.012 264 639.312 264 638.602C263.99 636.078 262.434 633.396 260.457 631.599C258.309 629.659 255.061 628.545 251.793 628.543C251.145 628.543 250.496 628.587 249.855 628.678C249.131 628.782 248.367 629.002 247.735 629.362C247.42 629.543 247.136 629.762 246.926 630.03C246.714 630.296 246.582 630.617 246.583 630.96L246.588 631.077C246.609 631.336 246.709 631.579 246.87 631.785C247.111 632.094 247.472 632.314 247.866 632.454C248.262 632.594 248.697 632.659 249.135 632.66C249.976 632.658 250.871 632.416 251.446 631.836C251.987 631.282 252.196 630.623 252.194 629.981C252.192 629.18 251.887 628.387 251.471 627.698C249.612 624.649 245.587 622.518 241.264 622.292C241.016 622.279 240.767 622.273 240.519 622.273C236.447 622.277 232.457 623.942 230.238 626.613C229.716 627.25 229.304 628.04 229.298 628.844C229.298 629.123 229.351 629.406 229.481 629.677C229.61 629.947 229.818 630.204 230.107 630.419C230.584 630.779 231.206 630.937 231.799 630.935C232.482 630.933 233.146 630.744 233.705 630.437C234.263 630.129 234.726 629.695 234.955 629.164C235.101 628.822 235.165 628.473 235.165 628.13C235.16 627.053 234.558 626.039 233.856 625.195C231.141 621.962 226.255 620.003 221.334 620C220.433 620 219.53 620.066 218.64 620.203C215.763 620.647 213.133 621.813 211.084 623.422C209.035 625.031 207.561 627.088 207.015 629.333C206.943 629.629 206.905 629.941 206.905 630.258C206.907 630.886 207.049 631.53 207.418 632.083C207.603 632.358 207.85 632.611 208.174 632.81C208.497 633.009 208.898 633.149 209.345 633.197C209.453 633.209 209.562 633.214 209.669 633.214C210.367 633.213 210.992 632.974 211.466 632.631C211.941 632.286 212.283 631.829 212.415 631.322C212.463 631.137 212.484 630.952 212.484 630.768C212.481 629.921 212.033 629.139 211.461 628.495C209.791 626.63 206.908 625.664 204.047 625.662C203.117 625.662 202.186 625.765 201.294 625.976C197.677 626.837 194.924 629.212 193.662 631.93C193.183 632.963 193 634.063 193 635.171C193.001 637.041 193.518 638.943 194.081 640.635L194.202 641H263.439L263.584 640.67L262.992 640.513Z" fill="#CBCBCB"/>
<path d="M120.46 698.745V698.49H83.9024V698.745L84.2262 698.681C83.9301 697.812 83.6685 696.853 83.669 695.947C83.669 695.41 83.7605 694.893 83.9834 694.422C84.5943 693.128 85.9437 692.007 87.6339 691.618C88.0447 691.523 88.4781 691.476 88.9127 691.476C90.2552 691.475 91.5923 691.927 92.3311 692.741C92.5863 693.02 92.7611 693.345 92.7593 693.641C92.7593 693.705 92.7515 693.769 92.7351 693.831C92.6967 693.981 92.5812 694.135 92.4275 694.243C92.2733 694.352 92.0914 694.412 91.9213 694.412L91.8412 694.408C91.7164 694.394 91.622 694.361 91.5356 694.31C91.4074 694.233 91.2979 694.106 91.2233 693.939C91.1487 693.773 91.1109 693.573 91.1112 693.373C91.1112 693.239 91.1278 693.106 91.1582 692.984C91.4227 691.918 92.1445 690.927 93.1539 690.151C94.1629 689.376 95.4567 688.817 96.8531 688.607C97.285 688.542 97.7246 688.51 98.1645 688.51C100.571 688.508 102.994 689.462 104.306 691C104.645 691.393 104.901 691.851 104.898 692.259C104.898 692.39 104.874 692.516 104.82 692.639C104.753 692.795 104.597 692.944 104.399 693.051C104.202 693.158 103.966 693.219 103.765 693.218C103.589 693.217 103.446 693.178 103.324 693.09C103.243 693.03 103.189 692.966 103.152 692.89C103.115 692.815 103.096 692.729 103.096 692.632C103.093 692.357 103.264 692.008 103.493 691.74C104.544 690.494 106.489 689.699 108.433 689.701C108.551 689.701 108.669 689.703 108.788 689.71C110.846 689.81 112.811 690.828 113.69 692.25C113.882 692.559 114.013 692.913 114.012 693.228C114.012 693.483 113.932 693.707 113.749 693.891C113.61 694.034 113.331 694.122 113.044 694.121C112.848 694.122 112.661 694.08 112.541 694.016C112.48 693.984 112.435 693.948 112.404 693.909C112.373 693.869 112.354 693.826 112.348 693.769L112.347 693.741C112.348 693.66 112.375 693.591 112.432 693.52C112.516 693.414 112.676 693.308 112.88 693.224C113.083 693.14 113.325 693.078 113.549 693.047C113.852 693.005 114.159 692.985 114.467 692.985C116.021 692.984 117.587 693.512 118.597 694.408C119.559 695.255 120.336 696.589 120.331 697.744C120.331 698.069 120.271 698.379 120.144 698.662L120.46 698.745L120.777 698.827C120.932 698.482 121 698.116 121 697.744C120.995 696.422 120.162 695.017 119.104 694.076C117.954 693.059 116.216 692.476 114.467 692.475C114.12 692.475 113.773 692.498 113.429 692.546C113.042 692.6 112.633 692.715 112.295 692.904C112.126 692.999 111.974 693.114 111.862 693.254C111.749 693.393 111.678 693.561 111.678 693.741L111.681 693.802C111.692 693.938 111.746 694.065 111.832 694.173C111.961 694.335 112.154 694.45 112.365 694.523C112.577 694.597 112.81 694.631 113.044 694.631C113.494 694.63 113.973 694.504 114.281 694.2C114.571 693.91 114.682 693.564 114.681 693.228C114.68 692.809 114.517 692.393 114.294 692.032C113.3 690.435 111.145 689.319 108.832 689.201C108.698 689.194 108.565 689.191 108.433 689.191C106.254 689.193 104.118 690.065 102.93 691.464C102.651 691.797 102.43 692.212 102.427 692.632C102.427 692.779 102.456 692.927 102.525 693.069C102.594 693.21 102.705 693.345 102.86 693.458C103.116 693.646 103.448 693.729 103.765 693.728C104.131 693.727 104.486 693.628 104.786 693.467C105.084 693.306 105.332 693.078 105.455 692.8C105.533 692.621 105.567 692.438 105.567 692.259C105.564 691.694 105.242 691.163 104.866 690.721C103.414 689.028 100.798 688.002 98.1645 688C97.6824 688 97.1994 688.035 96.7231 688.107C95.1828 688.339 93.7756 688.95 92.6789 689.792C91.5824 690.635 90.7934 691.713 90.5008 692.889C90.4624 693.044 90.4422 693.207 90.4422 693.373C90.4432 693.702 90.519 694.04 90.7166 694.329C90.8158 694.473 90.948 694.606 91.1215 694.71C91.2942 694.814 91.5089 694.887 91.7481 694.913C91.8061 694.919 91.864 694.922 91.9213 694.922C92.295 694.921 92.6297 694.796 92.8831 694.616C93.1372 694.436 93.3206 694.196 93.3912 693.931C93.4166 693.834 93.4283 693.737 93.4283 693.641C93.4264 693.197 93.1866 692.787 92.8804 692.45C91.9867 691.473 90.4438 690.967 88.9127 690.966C88.4149 690.966 87.9166 691.02 87.4392 691.13C85.5033 691.582 84.0296 692.825 83.3541 694.249C83.0981 694.79 83.0001 695.366 83 695.947C83.0007 696.926 83.2774 697.923 83.5785 698.809L83.6436 699H120.7L120.777 698.827L120.46 698.745Z" fill="#CBCBCB"/>
<path d="M320.404 161.722V161.444H279.997V161.722L280.355 161.652C280.028 160.704 279.739 159.657 279.739 158.669C279.739 158.083 279.841 157.519 280.087 157.006C280.762 155.595 282.254 154.372 284.122 153.947C284.576 153.843 285.055 153.792 285.535 153.792C287.019 153.791 288.497 154.284 289.313 155.172C289.595 155.476 289.789 155.831 289.787 156.153C289.787 156.224 289.778 156.293 289.76 156.361C289.717 156.525 289.59 156.693 289.42 156.811C289.249 156.93 289.048 156.995 288.86 156.995L288.772 156.99C288.634 156.975 288.53 156.939 288.434 156.883C288.292 156.8 288.171 156.661 288.089 156.479C288.006 156.298 287.965 156.079 287.965 155.862C287.965 155.716 287.983 155.57 288.017 155.437C288.309 154.274 289.107 153.193 290.223 152.347C291.338 151.501 292.768 150.891 294.311 150.662C294.789 150.591 295.275 150.556 295.761 150.556C298.42 150.554 301.098 151.595 302.549 153.273C302.923 153.702 303.206 154.201 303.203 154.646C303.203 154.789 303.176 154.926 303.117 155.06C303.042 155.231 302.871 155.394 302.652 155.51C302.433 155.627 302.173 155.693 301.951 155.692C301.756 155.691 301.598 155.649 301.463 155.553C301.373 155.488 301.314 155.417 301.273 155.335C301.232 155.253 301.211 155.158 301.211 155.054C301.208 154.753 301.397 154.372 301.65 154.08C302.812 152.721 304.962 151.853 307.11 151.855C307.241 151.855 307.371 151.858 307.502 151.865C309.778 151.974 311.949 153.085 312.92 154.637C313.132 154.973 313.278 155.36 313.277 155.703C313.276 155.982 313.188 156.225 312.985 156.427C312.832 156.583 312.524 156.679 312.207 156.678C311.99 156.679 311.783 156.632 311.65 156.563C311.583 156.528 311.534 156.489 311.499 156.446C311.465 156.403 311.443 156.356 311.438 156.294L311.436 156.263C311.437 156.175 311.468 156.1 311.53 156.022C311.623 155.906 311.8 155.79 312.025 155.699C312.249 155.607 312.517 155.54 312.765 155.506C313.099 155.461 313.439 155.438 313.779 155.438C315.496 155.437 317.227 156.013 318.344 156.991C319.407 157.915 320.266 159.37 320.261 160.63C320.261 160.984 320.195 161.322 320.054 161.632L320.404 161.722L320.754 161.812C320.925 161.435 321 161.036 321 160.63C320.994 159.187 320.073 157.655 318.904 156.628C317.633 155.519 315.712 154.883 313.779 154.882C313.396 154.882 313.012 154.907 312.633 154.959C312.204 155.019 311.753 155.144 311.378 155.35C311.192 155.453 311.024 155.578 310.9 155.731C310.775 155.884 310.696 156.067 310.697 156.263L310.7 156.33C310.712 156.478 310.772 156.617 310.867 156.734C311.009 156.911 311.223 157.037 311.456 157.116C311.69 157.196 311.947 157.234 312.207 157.234C312.704 157.233 313.233 157.095 313.573 156.763C313.894 156.447 314.017 156.07 314.016 155.703C314.015 155.246 313.835 154.792 313.589 154.399C312.489 152.657 310.108 151.439 307.551 151.31C307.404 151.303 307.256 151.299 307.11 151.299C304.701 151.301 302.341 152.252 301.028 153.779C300.719 154.143 300.475 154.594 300.472 155.054C300.472 155.213 300.503 155.375 300.58 155.53C300.657 155.684 300.78 155.831 300.951 155.954C301.233 156.16 301.6 156.25 301.951 156.249C302.356 156.248 302.748 156.139 303.079 155.964C303.409 155.788 303.683 155.54 303.818 155.236C303.905 155.041 303.943 154.842 303.943 154.646C303.94 154.03 303.584 153.451 303.168 152.969C301.562 151.121 298.672 150.002 295.761 150C295.228 150 294.694 150.038 294.168 150.116C292.465 150.37 290.91 151.036 289.698 151.955C288.486 152.875 287.614 154.05 287.29 155.333C287.248 155.502 287.226 155.681 287.226 155.862C287.227 156.22 287.31 156.589 287.529 156.904C287.638 157.062 287.785 157.206 287.976 157.32C288.167 157.434 288.405 157.514 288.669 157.541C288.733 157.548 288.797 157.551 288.86 157.551C289.273 157.551 289.643 157.414 289.923 157.218C290.204 157.021 290.407 156.759 290.485 156.47C290.513 156.364 290.526 156.258 290.526 156.153C290.524 155.669 290.259 155.222 289.92 154.854C288.933 153.789 287.227 153.236 285.535 153.236C284.985 153.236 284.434 153.294 283.906 153.415C281.767 153.907 280.138 155.264 279.391 156.817C279.108 157.407 279 158.036 279 158.669C279.001 159.738 279.307 160.825 279.639 161.792L279.711 162H320.668L320.754 161.812L320.404 161.722Z" fill="#CBCBCB"/>
<path d="M69.4036 363.722V363.444H28.9974V363.722L29.3552 363.652C29.028 362.704 28.7389 361.657 28.7394 360.669C28.7394 360.083 28.8406 359.519 29.0869 359.006C29.7621 357.595 31.2535 356.372 33.1217 355.947C33.5757 355.843 34.0548 355.792 34.5351 355.792C36.0189 355.791 37.4968 356.284 38.3133 357.172C38.5954 357.476 38.7886 357.831 38.7866 358.153C38.7866 358.224 38.7779 358.293 38.7599 358.361C38.7174 358.525 38.5897 358.693 38.4199 358.811C38.2495 358.93 38.0484 358.995 37.8604 358.995L37.7719 358.99C37.6339 358.975 37.5295 358.939 37.4341 358.883C37.2924 358.8 37.1714 358.661 37.0889 358.479C37.0064 358.298 36.9647 358.079 36.965 357.862C36.965 357.716 36.9833 357.57 37.017 357.437C37.3093 356.274 38.1071 355.193 39.2227 354.347C40.338 353.501 41.7679 352.891 43.3113 352.662C43.7887 352.591 44.2745 352.556 44.7607 352.556C47.4205 352.554 50.0984 353.595 51.5488 355.273C51.9229 355.702 52.2061 356.201 52.2032 356.646C52.2032 356.789 52.1762 356.926 52.1167 357.06C52.0424 357.231 51.8708 357.394 51.6516 357.51C51.4334 357.627 51.1728 357.693 50.9513 357.692C50.7561 357.691 50.5982 357.649 50.4629 357.553C50.3734 357.488 50.3143 357.417 50.2729 357.335C50.2322 357.253 50.2115 357.158 50.2115 357.054C50.2082 356.753 50.3967 356.372 50.6496 356.08C51.8116 354.721 53.9616 353.853 56.1096 353.855C56.2405 353.855 56.3714 353.858 56.5023 353.865C58.7775 353.974 60.9485 355.085 61.9202 356.637C62.1324 356.973 62.278 357.36 62.2769 357.703C62.2762 357.982 62.1878 358.225 61.9852 358.427C61.8322 358.583 61.5242 358.679 61.2066 358.678C60.9903 358.679 60.7829 358.632 60.6502 358.563C60.5832 358.528 60.5337 358.489 60.4993 358.446C60.4649 358.403 60.4435 358.356 60.4376 358.294L60.4365 358.263C60.4368 358.175 60.4675 358.1 60.53 358.022C60.6228 357.906 60.7995 357.79 61.0251 357.699C61.2491 357.607 61.5168 357.54 61.7649 357.506C62.0991 357.461 62.4389 357.438 62.779 357.438C64.4964 357.437 66.2274 358.013 67.3439 358.991C68.4069 359.915 69.2665 361.37 69.2606 362.63C69.2606 362.984 69.1948 363.322 69.0539 363.632L69.4036 363.722L69.7538 363.812C69.925 363.435 70 363.036 70 362.63C69.9941 361.187 69.0735 359.655 67.9044 358.628C66.6333 357.519 64.7123 356.883 62.779 356.882C62.3956 356.882 62.0118 356.907 61.6325 356.959C61.204 357.019 60.7526 357.144 60.3784 357.35C60.1921 357.453 60.0242 357.578 59.8996 357.731C59.7747 357.884 59.6963 358.067 59.697 358.263L59.7 358.33C59.7122 358.478 59.7717 358.617 59.8667 358.734C60.0094 358.911 60.2231 359.037 60.4561 359.116C60.6901 359.196 60.9474 359.234 61.2066 359.234C61.7039 359.233 62.2333 359.095 62.5734 358.763C62.894 358.447 63.0171 358.07 63.0164 357.703C63.0153 357.246 62.8348 356.792 62.5886 356.399C61.4891 354.657 59.1081 353.439 56.5507 353.31C56.4036 353.303 56.2564 353.299 56.1096 353.299C53.7013 353.301 51.3406 354.252 50.0281 355.779C49.719 356.143 49.4754 356.594 49.4721 357.054C49.4721 357.213 49.5035 357.375 49.5804 357.53C49.6566 357.684 49.7797 357.831 49.9508 357.954C50.2329 358.16 50.6004 358.25 50.9513 358.249C51.3558 358.248 51.7481 358.139 52.079 357.964C52.4091 357.788 52.6827 357.54 52.8184 357.236C52.9049 357.041 52.9426 356.842 52.9426 356.646C52.9397 356.03 52.5836 355.451 52.1681 354.969C50.5624 353.121 47.6719 352.002 44.7607 352C44.228 352 43.6941 352.038 43.1676 352.116C41.4652 352.37 39.9099 353.036 38.6978 353.955C37.4858 354.875 36.6138 356.05 36.2904 357.333C36.2479 357.502 36.2256 357.681 36.2256 357.862C36.2267 358.22 36.3105 358.589 36.5288 358.904C36.6385 359.062 36.7846 359.206 36.9764 359.32C37.1673 359.434 37.4046 359.514 37.6689 359.541C37.733 359.548 37.797 359.551 37.8604 359.551C38.2734 359.551 38.6433 359.414 38.9235 359.218C39.2042 359.021 39.407 358.759 39.485 358.47C39.513 358.364 39.526 358.258 39.526 358.153C39.5239 357.669 39.2589 357.222 38.9204 356.854C37.9326 355.789 36.2274 355.236 34.5351 355.236C33.9848 355.236 33.4342 355.294 32.9064 355.415C30.7668 355.907 29.138 357.264 28.3914 358.817C28.1085 359.407 28.0001 360.036 28 360.669C28.0007 361.738 28.3066 362.825 28.6394 363.792L28.7113 364H69.668L69.7538 363.812L69.4036 363.722Z" fill="#CBCBCB"/>
<path d="M433.057 273.306V272.612H370.357V273.306L370.802 272.764C369.391 271.673 368.412 269.729 368.422 267.964C368.422 267.307 368.551 266.679 368.822 266.113C369.265 265.185 370.016 264.4 370.93 263.85C371.844 263.299 372.913 262.988 373.966 262.989C374.303 262.989 374.638 263.02 374.968 263.085C375.513 263.192 376.047 263.397 376.462 263.686C376.878 263.978 377.174 264.335 377.324 264.799C377.373 264.947 377.396 265.104 377.396 265.257C377.396 265.517 377.326 265.761 377.197 265.958C377.066 266.155 376.928 266.269 376.78 266.346C376.632 266.421 376.467 266.459 376.278 266.459C375.983 266.462 375.631 266.356 375.321 266.162C375.011 265.97 374.749 265.694 374.602 265.403C374.378 264.965 374.284 264.468 374.283 263.921C374.283 263.309 374.405 262.644 374.571 261.992C376.203 255.532 381.296 249.826 387.788 247.995C389.229 247.587 390.734 247.388 392.244 247.388C397.518 247.384 402.813 249.826 405.619 254.096C406.296 255.115 406.803 256.293 406.797 257.344C406.795 257.936 406.652 258.489 406.294 259.031C405.922 259.598 405.269 259.935 404.672 259.931C404.362 259.93 404.068 259.849 403.796 259.665C403.558 259.503 403.413 259.326 403.312 259.121C403.213 258.916 403.162 258.675 403.161 258.398C403.159 257.969 403.292 257.461 403.526 256.97C403.76 256.48 404.094 256.007 404.456 255.641C406.389 253.672 409.205 252.527 412.003 252.529C412.375 252.529 412.747 252.549 413.116 252.59C416.263 252.933 419.236 254.799 420.861 257.45C421.413 258.344 421.796 259.386 421.792 260.319C421.792 260.743 421.718 261.144 421.554 261.522C421.354 261.995 420.895 262.427 420.368 262.659L420.308 262.677L420.273 262.65L420.218 262.505L420.229 262.457L420.294 262.406C421.627 261.729 423.15 261.378 424.667 261.378C426.197 261.378 427.716 261.735 429.035 262.457C430.234 263.11 431.126 264.299 431.716 265.782C432.305 267.26 432.579 269.007 432.578 270.662C432.578 271.548 432.501 272.407 432.358 273.183L433.057 273.306L433.757 273.429C433.916 272.564 434 271.627 434 270.662C433.999 268.86 433.71 266.963 433.042 265.28C432.373 263.601 431.312 262.113 429.73 261.246C428.178 260.398 426.422 259.991 424.667 259.99C422.927 259.991 421.186 260.39 419.638 261.174C419.367 261.31 419.144 261.516 419.002 261.755C418.858 261.994 418.796 262.257 418.796 262.505C418.798 262.896 418.938 263.258 419.192 263.55C419.44 263.841 419.843 264.066 420.308 264.065C420.527 264.065 420.75 264.015 420.958 263.922C421.777 263.554 422.491 262.915 422.864 262.062C423.11 261.495 423.214 260.902 423.214 260.319C423.211 259.028 422.722 257.785 422.08 256.736C420.21 253.702 416.881 251.612 413.276 251.211C412.852 251.164 412.427 251.141 412.003 251.141C408.813 251.144 405.651 252.427 403.43 254.679C402.954 255.163 402.541 255.75 402.237 256.385C401.936 257.02 401.74 257.706 401.739 258.398C401.739 258.843 401.824 259.294 402.027 259.714C402.229 260.135 402.554 260.515 402.985 260.806C403.501 261.156 404.095 261.32 404.672 261.319C405.789 261.315 406.851 260.738 407.487 259.786C408.003 259.013 408.221 258.164 408.219 257.344C408.214 255.874 407.57 254.495 406.815 253.344C403.687 248.612 397.952 246.003 392.244 246C390.607 246 388.969 246.216 387.392 246.663C380.334 248.671 374.947 254.75 373.191 261.659C373.011 262.366 372.862 263.134 372.862 263.921C372.861 264.62 372.983 265.344 373.329 266.022C373.61 266.569 374.047 267.013 374.557 267.332C375.068 267.65 375.66 267.846 376.278 267.847C376.669 267.848 377.071 267.765 377.442 267.575C377.812 267.386 378.143 267.09 378.393 266.709C378.685 266.264 378.818 265.756 378.818 265.257C378.818 264.961 378.772 264.667 378.681 264.384C378.428 263.595 377.904 262.982 377.287 262.555C376.667 262.126 375.955 261.865 375.249 261.725C374.824 261.641 374.394 261.601 373.966 261.601C372.629 261.602 371.313 261.989 370.184 262.669C369.055 263.349 368.108 264.326 367.533 265.525C367.164 266.297 367 267.131 367 267.964C367.009 270.203 368.148 272.457 369.914 273.847L370.108 274H433.652L433.757 273.429L433.057 273.306Z" fill="#CBCBCB"/>
<path d="M165.451 15.6034V15.2069H128.954V15.6034L129.213 15.2937C128.392 14.6704 127.822 13.5592 127.828 12.5508C127.828 12.1753 127.903 11.8164 128.06 11.4932C128.318 10.963 128.756 10.5145 129.288 10.2001C129.82 9.88521 130.442 9.70755 131.055 9.70794C131.251 9.70794 131.446 9.72579 131.638 9.76307C131.956 9.82374 132.266 9.94112 132.508 10.1061C132.75 10.273 132.922 10.4773 133.01 10.7421C133.038 10.827 133.051 10.9166 133.051 11.0043C133.051 11.1526 133.011 11.2922 132.936 11.4048C132.859 11.5174 132.779 11.5824 132.693 11.6261C132.607 11.6693 132.511 11.6911 132.401 11.6911C132.229 11.6923 132.024 11.632 131.844 11.521C131.663 11.4115 131.511 11.2537 131.425 11.0875C131.295 10.8369 131.24 10.553 131.24 10.2405C131.24 9.89076 131.31 9.51086 131.407 9.1385C132.357 5.44702 135.321 2.18618 139.1 1.14008C139.939 0.90691 140.815 0.793101 141.694 0.793101C144.764 0.791118 147.846 2.18619 149.48 4.62616C149.874 5.20869 150.169 5.88164 150.165 6.48241C150.165 6.82067 150.081 7.13672 149.873 7.44643C149.656 7.77001 149.276 7.96272 148.928 7.96074C148.748 7.95995 148.577 7.91356 148.418 7.80847C148.28 7.71608 148.196 7.61496 148.137 7.49758C148.079 7.3806 148.049 7.243 148.049 7.08438C148.048 6.83971 148.125 6.54942 148.262 6.26867C148.398 5.9883 148.592 5.71825 148.803 5.50887C149.928 4.38425 151.567 3.72956 153.196 3.73075C153.412 3.73075 153.629 3.74224 153.844 3.76564C155.675 3.96153 157.406 5.02786 158.352 6.54308C158.673 7.05344 158.896 7.64906 158.894 8.18202C158.894 8.42431 158.851 8.65351 158.755 8.86963C158.639 9.14008 158.372 9.38674 158.065 9.51958L158.03 9.5295L158.01 9.51403L157.978 9.43156L157.984 9.40379L158.022 9.37485C158.798 8.98821 159.685 8.78755 160.567 8.78755C161.458 8.78755 162.342 8.99138 163.11 9.40379C163.808 9.77695 164.327 10.4566 164.67 11.3041C165.013 12.1483 165.173 13.1468 165.172 14.0926C165.172 14.5986 165.127 15.0899 165.044 15.5329L165.451 15.6034L165.858 15.6736C165.951 15.1795 166 14.6438 166 14.0926C166 13.0628 165.831 11.9786 165.442 11.017C165.053 10.0577 164.435 9.20749 163.514 8.71181C162.611 8.22722 161.589 7.99485 160.567 7.99445C159.555 7.99485 158.541 8.22287 157.64 8.67097C157.482 8.74869 157.352 8.86647 157.27 9.00289C157.186 9.1397 157.15 9.28999 157.15 9.43156C157.151 9.65482 157.233 9.86182 157.38 10.0288C157.525 10.1949 157.759 10.3234 158.03 10.3226C158.157 10.3226 158.287 10.2941 158.408 10.2413C158.885 10.0311 159.301 9.66552 159.518 9.17816C159.661 8.85418 159.722 8.51552 159.722 8.18202C159.72 7.44444 159.435 6.73421 159.062 6.13502C157.973 4.40131 156.035 3.20691 153.937 2.97771C153.69 2.95074 153.443 2.93765 153.196 2.93765C151.339 2.93923 149.499 3.67245 148.206 4.95926C147.928 5.23605 147.688 5.57154 147.511 5.93439C147.336 6.29723 147.222 6.68902 147.221 7.08438C147.221 7.33897 147.27 7.59671 147.389 7.83663C147.506 8.07694 147.695 8.29424 147.947 8.4604C148.247 8.66066 148.593 8.75424 148.928 8.75384C149.578 8.75146 150.197 8.42154 150.567 7.87787C150.868 7.43572 150.994 6.95113 150.993 6.48241C150.99 5.64252 150.616 4.85457 150.176 4.19669C148.355 1.49262 145.017 0.00158657 141.694 3.74658e-07C140.741 3.74658e-07 139.788 0.123339 138.87 0.378717C134.762 1.52633 131.626 5.0001 130.603 8.94776C130.499 9.35224 130.412 9.79083 130.412 10.2405C130.412 10.6402 130.483 11.0538 130.684 11.4413C130.848 11.7537 131.102 12.0076 131.399 12.19C131.696 12.3712 132.041 12.4834 132.401 12.4842C132.628 12.4846 132.862 12.437 133.078 12.3283C133.294 12.2205 133.486 12.0516 133.632 11.8335C133.802 11.5793 133.879 11.289 133.879 11.0043C133.879 10.8349 133.852 10.6668 133.799 10.5054C133.652 10.0541 133.347 9.70398 132.988 9.4601C132.627 9.21503 132.213 9.06554 131.802 8.98544C131.554 8.93785 131.304 8.91484 131.055 8.91484C130.277 8.91524 129.51 9.13652 128.853 9.52514C128.196 9.91376 127.645 10.4721 127.31 11.1573C127.095 11.5983 127 12.0749 127 12.5508C127.005 13.8305 127.668 15.1185 128.696 15.9128L128.809 16H165.797L165.858 15.6736L165.451 15.6034Z" fill="#CBCBCB"/>
<path d="M82.818 204.133V203.265H4.20913V204.133L4.76625 203.455C2.99774 202.091 1.7703 199.661 1.78278 197.455C1.78278 196.633 1.94413 195.848 2.28375 195.141C2.83908 193.982 3.78127 193.001 4.9276 192.313C6.07303 191.624 7.41368 191.235 8.73293 191.236C9.15634 191.236 9.57619 191.275 9.9898 191.357C10.6735 191.489 11.3429 191.746 11.8626 192.107C12.3841 192.472 12.7549 192.919 12.9439 193.498L12.9768 193.603L12.943 193.498C13.0036 193.684 13.0339 193.88 13.0339 194.072C13.0339 194.396 12.9465 194.702 12.7843 194.948V194.947C12.6203 195.193 12.4474 195.337 12.2619 195.432C12.0765 195.527 11.8688 195.574 11.6326 195.574C11.2618 195.577 10.8215 195.445 10.4328 195.202C10.0442 194.963 9.71526 194.617 9.53074 194.254C9.24995 193.706 9.13229 193.085 9.1314 192.401C9.1314 191.636 9.28381 190.805 9.4915 189.99C11.5381 181.915 17.9232 174.782 26.0624 172.494C27.8693 171.984 29.7563 171.735 31.6496 171.735C38.2611 171.731 44.9001 174.782 48.4185 180.12C49.2662 181.394 49.9017 182.866 49.8946 184.18C49.8928 184.92 49.7128 185.612 49.2644 186.289C48.7973 186.997 47.979 187.418 47.2302 187.414C46.8416 187.412 46.4734 187.311 46.132 187.081C45.8343 186.879 45.6525 186.658 45.5259 186.401C45.4011 186.145 45.3369 185.844 45.336 185.497C45.3342 184.962 45.5 184.327 45.7942 183.713C46.0875 183.099 46.5055 182.509 46.9592 182.051C49.3838 179.591 52.9137 178.158 56.4213 178.161C56.8884 178.161 57.3546 178.186 57.8172 178.237C61.7625 178.666 65.4894 180.998 67.5271 184.313C68.2189 185.429 68.6993 186.732 68.6949 187.898C68.6949 188.428 68.6013 188.93 68.3962 189.402V189.403C68.1449 189.995 67.5699 190.533 66.9085 190.824L66.8336 190.846L66.79 190.812L66.7213 190.632L66.7347 190.571L66.8158 190.507C68.4881 189.662 70.3974 189.223 72.2987 189.223C74.217 189.223 76.1219 189.669 77.7754 190.571C79.2783 191.387 80.397 192.874 81.136 194.728C81.8749 196.574 82.219 198.759 82.2172 200.828C82.2172 201.934 82.1201 203.009 81.9409 203.978L82.818 204.133L83.6951 204.286C83.8948 203.205 84 202.033 84 200.828C83.9991 198.575 83.6363 196.203 82.7984 194.1C81.9605 192.001 80.6297 190.141 78.6463 189.057C76.7013 187.997 74.4987 187.489 72.2987 187.488C70.1175 187.489 67.9345 187.988 65.994 188.968C65.6543 189.138 65.3744 189.395 65.1962 189.694C65.0161 189.993 64.9376 190.322 64.9385 190.632C64.9412 191.12 65.1168 191.573 65.4342 191.938C65.7461 192.301 66.2507 192.582 66.8336 192.581C67.1082 192.581 67.3881 192.518 67.6484 192.403C68.6753 191.943 69.5711 191.143 70.0391 190.077C70.3466 189.369 70.4776 188.628 70.4776 187.898C70.4732 186.285 69.8599 184.731 69.0559 183.42C66.7106 179.628 62.5371 177.015 58.0178 176.514C57.4865 176.455 56.9535 176.426 56.4213 176.426C52.4217 176.43 48.4586 178.033 45.6739 180.848C45.0766 181.454 44.5587 182.188 44.1781 182.981C43.8002 183.775 43.555 184.632 43.5532 185.497C43.5532 186.054 43.6593 186.618 43.9143 187.143C44.1674 187.668 44.5748 188.144 45.1159 188.507C45.763 188.945 46.5073 189.15 47.2302 189.149C48.6306 189.144 49.9623 188.422 50.7601 187.233C51.4073 186.266 51.68 185.206 51.6774 184.18C51.6711 182.343 50.8644 180.619 49.9178 179.18C45.9956 173.265 38.8057 170.003 31.6496 170C29.5968 170 27.543 170.27 25.5659 170.828C16.7171 173.339 9.96395 180.938 7.76133 189.573C7.5367 190.458 7.34952 191.417 7.34952 192.401C7.34862 193.276 7.50104 194.18 7.93514 195.028C8.28724 195.711 8.83455 196.267 9.47457 196.666C10.1155 197.062 10.8571 197.307 11.6326 197.309C12.122 197.31 12.6265 197.206 13.0909 196.968C13.5554 196.732 13.9698 196.363 14.2836 195.886C14.65 195.33 14.8167 194.695 14.8167 194.072C14.8167 193.701 14.7587 193.334 14.6446 192.981V192.98C14.3282 191.993 13.6703 191.227 12.8966 190.694C12.1202 190.158 11.227 189.831 10.3419 189.656C9.80884 189.552 9.26955 189.501 8.73293 189.501C7.05712 189.502 5.40716 189.986 3.99164 190.836C2.57612 191.686 1.38878 192.908 0.667649 194.407C0.205018 195.371 0 196.414 0 197.455C0.011588 200.254 1.43959 203.072 3.65291 204.809L3.89715 205H83.5632L83.6951 204.286L82.818 204.133Z" fill="#CBCBCB"/>
</svg>
