<svg width="1440" height="808" viewBox="0 0 1440 808" fill="none" xmlns="http://www.w3.org/2000/svg">
<path d="M1018.4 707.366C1050.78 688.241 1095.56 700.766 1118.48 731.355C1120.69 701.673 1140.71 674.244 1167.55 664.148C1170.54 663.022 1173.56 662.135 1176.59 661.419C1176.13 659.353 1176.39 657.091 1177.53 655.346C1178.83 653.366 1181.33 652.225 1183.54 652.877C1185.76 653.527 1187.36 656.115 1186.77 658.433C1187.46 656.812 1188.2 655.133 1189.51 653.995C1190.81 652.858 1192.87 652.448 1194.2 653.554C1195.71 654.81 1195.59 657.204 1195.29 659.192L1195.23 659.567C1213.11 660.196 1230.28 667.757 1243.39 681.878C1241.54 666.394 1243.13 650.687 1247.54 635.84C1247.25 635.708 1246.97 635.59 1246.69 635.442C1244.53 634.283 1242.58 632.536 1241.6 630.222C1240.62 627.908 1240.77 624.983 1242.35 623.071C1243.7 621.446 1246.13 620.869 1247.95 621.751C1246.68 620.563 1246.36 618.274 1247.33 616.721C1248.5 614.844 1251 614.182 1253.06 614.822C1253.89 615.082 1254.63 615.554 1255.32 616.115C1259.37 607.948 1264.3 600.259 1270 593.259C1269.75 592.785 1269.51 592.303 1269.33 591.793C1268.52 589.46 1268.79 586.519 1270.62 584.929C1272.47 583.315 1275.29 583.651 1277.35 585.035C1287.15 575.088 1298.65 567.032 1311.4 561.723C1322.15 557.246 1333.55 554.835 1345.05 554.29C1343.52 552.886 1342.59 550.754 1342.84 548.654C1343.13 546.218 1345.18 544.051 1347.53 544.001C1349.88 543.95 1352.1 546.299 1351.77 548.73C1352.43 547.666 1353.12 546.581 1354.09 545.827C1355.07 545.072 1356.42 544.707 1357.52 545.237C1359.44 546.158 1359.53 548.972 1359 551.102C1358.71 552.255 1358.3 553.367 1357.83 554.453C1369.09 555.264 1380.26 557.811 1390.85 561.971C1391.57 560.756 1392.26 559.523 1393.05 558.36C1394.36 556.442 1396.05 554.678 1398.2 553.958C1400.35 553.239 1403.01 553.833 1404.24 555.81C1405.38 557.636 1405.02 560.146 1403.9 561.991C1402.9 563.633 1401.4 564.856 1399.88 565.992C1415.62 573.821 1429.61 585.34 1439.98 600.032C1439.91 668.762 1440.05 739.269 1439.98 808H983.769C970.443 771.743 986.014 726.492 1018.4 707.366Z" fill="#7CB32A"/>
<path d="M1397.91 583C1398.91 581.517 1399.72 579.889 1399.96 578.097C1400.18 576.317 1399.54 574.347 1397.99 572.987C1397.23 572.3 1396.19 571.788 1395.04 571.643C1393.89 571.492 1392.71 571.712 1391.72 572.165C1389.76 573.105 1388.46 574.569 1387.3 575.982L1388.77 576.416C1388.78 575.575 1388.67 574.732 1388.35 573.915C1388.04 573.106 1387.51 572.294 1386.65 571.73C1385.81 571.153 1384.68 570.9 1383.64 571.036C1382.6 571.174 1381.7 571.629 1380.99 572.2C1380.27 572.77 1379.72 573.488 1379.39 574.274C1379.08 575.072 1378.96 575.877 1379.01 576.676C1379.12 578.27 1379.65 579.751 1380.27 581.185C1379.99 579.675 1379.63 578.159 1379.77 576.685C1379.84 575.207 1380.49 573.831 1381.77 572.998C1382.99 572.142 1384.66 571.934 1385.72 572.76C1386.77 573.541 1387.21 575.009 1387.15 576.369L1387.05 578.658L1388.62 576.802C1389.75 575.457 1390.93 574.103 1392.46 573.373C1393.95 572.606 1395.79 572.766 1397.1 573.813C1398.44 574.827 1399.18 576.416 1399.13 578.061C1399.17 579.719 1398.57 581.38 1397.91 583Z" fill="#95D325"/>
<path d="M1375.97 589.569C1377.14 588.367 1378.26 586.809 1377.95 584.939C1377.81 584.045 1377.26 583.114 1376.28 582.535C1375.29 581.938 1373.99 581.89 1372.94 582.15C1371.88 582.435 1370.97 582.973 1370.28 583.68C1369.6 584.411 1369.2 585.3 1369.08 586.146C1368.8 587.875 1369.28 589.487 1369.9 591C1369.96 589.388 1369.89 587.783 1370.36 586.376C1370.61 585.67 1370.93 585.038 1371.48 584.568C1372.01 584.078 1372.69 583.694 1373.41 583.524C1374.85 583.101 1376.24 583.799 1376.67 585.17C1377.16 586.492 1376.58 588.06 1375.97 589.569Z" fill="#95D325"/>
<path d="M1138.97 800.569C1140.14 799.367 1141.26 797.809 1140.95 795.939C1140.81 795.045 1140.26 794.114 1139.28 793.535C1138.29 792.938 1136.99 792.89 1135.94 793.15C1134.88 793.435 1133.97 793.973 1133.28 794.68C1132.6 795.411 1132.2 796.3 1132.08 797.146C1131.8 798.875 1132.28 800.487 1132.9 802C1132.96 800.388 1132.89 798.783 1133.36 797.376C1133.61 796.67 1133.93 796.038 1134.48 795.568C1135.01 795.078 1135.69 794.694 1136.41 794.524C1137.85 794.101 1139.24 794.799 1139.67 796.17C1140.16 797.492 1139.58 799.06 1138.97 800.569Z" fill="#95D325"/>
<path d="M1354 596.399C1353.56 594.636 1353.04 592.857 1351.97 591.238C1350.93 589.608 1349.01 588.327 1346.79 588.042C1345.68 587.913 1344.45 588.07 1343.45 588.647C1342.43 589.182 1341.71 590.095 1341.32 591.04C1340.58 592.963 1340.76 594.956 1341.35 596.793L1342.62 596.041C1341.51 595.233 1340.34 594.432 1338.99 593.815C1337.65 593.204 1336.09 592.786 1334.47 592.895C1332.9 593.003 1331.29 593.542 1330.18 594.679C1329.03 595.826 1328.82 597.467 1329.13 598.774C1329.42 600.12 1330.02 601.289 1330.64 602.451C1331.28 603.606 1332.02 604.711 1332.86 605.753C1334.55 607.819 1336.65 609.619 1339.03 611C1336.89 609.337 1335.05 607.427 1333.59 605.316C1332.16 603.234 1330.96 600.877 1330.51 598.574C1330.3 597.433 1330.54 596.333 1331.33 595.582C1332.12 594.828 1333.35 594.382 1334.58 594.319C1337.08 594.199 1339.49 595.605 1341.61 597.138L1343.6 598.57L1342.88 596.387C1342.35 594.775 1342.13 592.997 1342.69 591.464C1343.21 589.945 1344.81 588.865 1346.67 589.025C1348.53 589.151 1350.25 590.165 1351.4 591.572C1352.58 592.985 1353.27 594.714 1354 596.399Z" fill="#95D325"/>
<path d="M1359.61 672C1359.39 669.528 1359.86 667.109 1359.99 664.61C1360.06 662.148 1359.74 659.423 1357.78 657.28C1356.8 656.241 1355.45 655.466 1353.91 655.142C1352.38 654.795 1350.58 655.088 1349.29 655.985C1347.98 656.888 1347.28 658.22 1346.93 659.509C1346.58 660.814 1346.55 662.147 1346.76 663.449L1348.33 663.093C1347.4 660.991 1346.31 658.572 1343.79 657.15C1342.58 656.479 1341.1 656.076 1339.59 656.267C1338.06 656.434 1336.74 657.355 1336.04 658.455C1334.64 660.699 1334.85 663.253 1335.52 665.473C1336.21 667.716 1337.37 669.843 1339 671.634C1337.67 669.669 1336.7 667.538 1336.27 665.324C1335.78 663.156 1335.82 660.781 1337.09 659.022C1337.71 658.171 1338.7 657.61 1339.77 657.504C1340.85 657.391 1342.01 657.715 1342.96 658.28C1344.88 659.42 1345.93 661.501 1346.81 663.601L1349.37 669.768L1348.38 663.245C1348.04 661.017 1348.42 658.41 1350.27 657.07C1351.18 656.421 1352.39 656.166 1353.6 656.396C1354.8 656.616 1355.94 657.221 1356.81 658.029C1358.55 659.706 1359.09 662.216 1359.16 664.613C1359.31 667.039 1359.01 669.568 1359.61 672Z" fill="#95D325"/>
<path d="M1263.61 789C1263.39 786.528 1263.86 784.109 1263.99 781.61C1264.06 779.148 1263.74 776.423 1261.78 774.28C1260.8 773.241 1259.45 772.466 1257.91 772.142C1256.38 771.795 1254.58 772.088 1253.29 772.985C1251.98 773.888 1251.28 775.22 1250.93 776.509C1250.58 777.814 1250.55 779.147 1250.76 780.449L1252.33 780.093C1251.4 777.991 1250.31 775.572 1247.79 774.15C1246.58 773.479 1245.1 773.076 1243.59 773.267C1242.06 773.434 1240.74 774.355 1240.04 775.455C1238.64 777.699 1238.85 780.253 1239.52 782.473C1240.21 784.716 1241.37 786.843 1243 788.634C1241.67 786.669 1240.7 784.538 1240.27 782.324C1239.78 780.156 1239.82 777.781 1241.09 776.022C1241.71 775.171 1242.7 774.61 1243.77 774.504C1244.85 774.391 1246.01 774.715 1246.96 775.28C1248.88 776.42 1249.93 778.501 1250.81 780.601L1253.37 786.768L1252.38 780.245C1252.04 778.017 1252.42 775.41 1254.27 774.07C1255.18 773.421 1256.39 773.166 1257.6 773.396C1258.8 773.616 1259.94 774.221 1260.81 775.029C1262.55 776.706 1263.09 779.216 1263.16 781.613C1263.31 784.039 1263.01 786.568 1263.61 789Z" fill="#95D325"/>
<path d="M1286 671.074C1285.66 668.835 1285.28 666.462 1283.68 664.498C1282.89 663.544 1281.83 662.738 1280.53 662.296C1279.24 661.857 1277.7 661.897 1276.43 662.478C1273.9 663.636 1272.43 666.121 1272.26 668.577C1272.05 671.039 1272.79 673.355 1273.46 675.541L1274.77 674.927C1273.57 673.57 1271.69 672.937 1269.92 672.939C1268.14 672.942 1266.32 673.627 1265.19 674.93C1264.07 676.233 1263.76 677.97 1264.18 679.477C1264.56 680.984 1265.61 682.382 1267.11 683C1265.76 682.163 1264.96 680.779 1264.78 679.377C1264.61 677.98 1264.97 676.517 1265.97 675.536C1267.95 673.561 1271.93 673.772 1273.6 675.784L1275.94 678.615L1274.91 675.171C1274.25 672.984 1273.65 670.806 1273.79 668.683C1273.92 666.618 1275.11 664.554 1277.04 663.583C1277.99 663.125 1279.11 662.982 1280.18 663.27C1281.25 663.56 1282.24 664.189 1283.02 664.999C1284.61 666.624 1285.3 668.898 1286 671.074Z" fill="#95D325"/>
<path d="M1047 731.074C1046.66 728.835 1046.28 726.462 1044.68 724.498C1043.89 723.544 1042.83 722.738 1041.53 722.296C1040.24 721.857 1038.7 721.897 1037.43 722.478C1034.9 723.636 1033.43 726.121 1033.26 728.577C1033.05 731.039 1033.79 733.355 1034.46 735.541L1035.77 734.927C1034.57 733.57 1032.69 732.937 1030.92 732.939C1029.14 732.942 1027.32 733.627 1026.19 734.93C1025.07 736.233 1024.76 737.97 1025.18 739.477C1025.56 740.984 1026.61 742.382 1028.11 743C1026.76 742.163 1025.96 740.779 1025.78 739.377C1025.61 737.98 1025.97 736.517 1026.97 735.536C1028.95 733.561 1032.93 733.772 1034.6 735.784L1036.94 738.615L1035.91 735.171C1035.25 732.984 1034.65 730.806 1034.79 728.683C1034.92 726.618 1036.11 724.554 1038.04 723.583C1038.99 723.125 1040.11 722.982 1041.18 723.27C1042.25 723.56 1043.24 724.189 1044.02 724.999C1045.61 726.624 1046.3 728.898 1047 731.074Z" fill="#95D325"/>
<path d="M1227.68 685.655C1228.35 683.271 1227.97 680.613 1226.61 678.347C1225.94 677.213 1225.04 676.156 1223.85 675.304C1222.68 674.471 1221.08 673.861 1219.38 674.028C1217.7 674.209 1216.29 675.129 1215.4 676.225C1214.52 677.336 1214 678.655 1214 679.986C1213.98 682.64 1215.39 684.911 1216.78 687C1215.95 684.678 1215.04 682.314 1215.28 680.043C1215.5 677.889 1217.28 675.667 1219.58 675.441C1220.71 675.304 1221.89 675.706 1222.9 676.366C1223.93 677.01 1224.77 677.93 1225.5 678.893C1226.9 680.859 1227.71 683.206 1227.68 685.655Z" fill="#95D325"/>
<path d="M1224.03 723C1226.13 721.836 1227.93 720.172 1229.34 718.252C1230.03 717.276 1230.61 716.232 1231.07 715.139C1231.52 714.056 1231.91 712.9 1231.98 711.662C1232.06 710.454 1231.89 709.102 1230.95 707.984C1230.03 706.852 1228.28 706.435 1226.91 706.805C1225.52 707.124 1224.34 708.026 1223.58 709.046C1222.8 710.068 1222.29 711.18 1221.83 712.237L1223.36 712.416C1223 710.282 1222.55 707.993 1221.14 706.034C1219.75 704.105 1217.27 702.659 1214.63 703.07C1213.33 703.277 1212.2 704.021 1211.45 704.945C1210.7 705.876 1210.24 706.968 1210.07 708.088C1209.78 710.35 1210.44 712.488 1211.14 714.523C1210.77 712.412 1210.31 710.239 1210.82 708.218C1211.26 706.246 1212.79 704.377 1214.81 704.191C1216.79 704.004 1218.82 705.188 1219.89 706.81C1221.02 708.48 1221.47 710.538 1221.78 712.632L1222.19 715.437L1223.3 712.811C1224.19 710.737 1225.25 708.681 1227.29 708.201C1228.26 707.931 1229.24 708.157 1229.87 708.837C1230.48 709.519 1230.73 710.577 1230.73 711.623C1230.74 712.677 1230.47 713.75 1230.1 714.812C1229.73 715.865 1229.25 716.887 1228.66 717.857C1227.53 719.831 1225.92 721.553 1224.03 723Z" fill="#95D325"/>
<path d="M1341.3 721.086C1342.04 719.357 1342.76 717.581 1342.95 715.662C1343.18 713.765 1342.63 711.664 1341.15 710.187C1340.43 709.448 1339.46 708.861 1338.34 708.675C1337.23 708.472 1336.06 708.709 1335.09 709.233C1333.17 710.315 1332 712.274 1331.8 714.352L1333.21 714.526C1333.64 712.585 1332.73 710.611 1331.22 709.387C1329.69 708.098 1327.47 707.745 1325.57 708.173C1323.65 708.567 1321.93 709.749 1320.88 711.277C1319.81 712.801 1319.28 714.603 1319.28 716.392L1320.69 716.132C1319.69 713.975 1317.31 712.761 1315.02 712.676C1312.65 712.554 1310.43 713.762 1309.06 715.396C1307.64 717.03 1306.94 719.148 1307 721.193C1307.04 723.245 1307.65 725.229 1308.63 727C1307.88 725.136 1307.44 723.157 1307.58 721.208C1307.71 719.269 1308.46 717.398 1309.8 715.99C1311.12 714.584 1313.04 713.693 1314.94 713.887C1316.82 714.034 1318.68 715.081 1319.34 716.668L1320.64 719.808L1320.75 716.409C1320.8 714.874 1321.26 713.336 1322.15 712.09C1323.04 710.835 1324.4 709.951 1325.92 709.616C1327.44 709.273 1329.08 709.536 1330.22 710.48C1331.38 711.404 1332.09 712.895 1331.81 714.264L1333.22 714.438C1333.32 712.801 1334.27 711.129 1335.72 710.219C1337.17 709.275 1339.21 709.539 1340.49 710.799C1341.8 712.023 1342.46 713.814 1342.41 715.636C1342.38 717.468 1341.82 719.285 1341.3 721.086Z" fill="#95D325"/>
<path d="M1106.3 763.086C1107.04 761.357 1107.76 759.581 1107.95 757.662C1108.18 755.765 1107.63 753.664 1106.15 752.187C1105.43 751.448 1104.46 750.861 1103.34 750.675C1102.23 750.472 1101.06 750.709 1100.09 751.233C1098.17 752.315 1097 754.274 1096.8 756.352L1098.21 756.526C1098.64 754.585 1097.73 752.611 1096.22 751.387C1094.69 750.098 1092.47 749.745 1090.57 750.173C1088.65 750.567 1086.93 751.749 1085.88 753.277C1084.81 754.801 1084.28 756.603 1084.28 758.392L1085.69 758.132C1084.69 755.975 1082.31 754.761 1080.02 754.676C1077.65 754.554 1075.43 755.762 1074.06 757.396C1072.64 759.03 1071.94 761.148 1072 763.193C1072.04 765.245 1072.65 767.229 1073.63 769C1072.88 767.136 1072.44 765.157 1072.58 763.208C1072.71 761.269 1073.46 759.398 1074.8 757.99C1076.12 756.584 1078.04 755.693 1079.94 755.887C1081.82 756.034 1083.68 757.081 1084.34 758.668L1085.64 761.808L1085.75 758.409C1085.8 756.874 1086.26 755.336 1087.15 754.09C1088.04 752.835 1089.4 751.951 1090.92 751.616C1092.44 751.273 1094.08 751.536 1095.22 752.48C1096.38 753.404 1097.09 754.895 1096.81 756.264L1098.22 756.438C1098.32 754.801 1099.27 753.129 1100.72 752.219C1102.17 751.275 1104.21 751.539 1105.49 752.799C1106.8 754.023 1107.46 755.814 1107.41 757.636C1107.38 759.468 1106.82 761.285 1106.3 763.086Z" fill="#95D325"/>
<path d="M1352.61 655.208C1353.4 653.674 1352.93 651.704 1351.75 650.308C1350.6 648.886 1348.63 647.869 1346.51 648.014C1344.39 648.176 1342.61 649.467 1341.73 651.038C1340.81 652.587 1340.7 654.601 1341.75 656C1341.34 654.381 1341.85 652.822 1342.78 651.61C1343.71 650.408 1345.13 649.522 1346.63 649.432C1348.13 649.303 1349.68 649.971 1350.82 651.023C1351.95 652.085 1352.73 653.55 1352.61 655.208Z" fill="#95D325"/>
<path d="M1391.49 696C1392.65 693.773 1393.75 691.448 1393.95 688.864C1394.22 686.304 1393.29 683.498 1391.06 681.623C1389.94 680.696 1388.43 680.076 1386.89 680.005C1385.34 679.95 1383.86 680.328 1382.59 680.976C1379.99 682.275 1378.41 684.448 1377 686.531C1378.92 684.78 1380.83 682.948 1383.17 682.009C1385.49 681.035 1388.2 681.148 1389.95 682.717C1391.76 684.206 1392.67 686.507 1392.68 688.828C1392.71 691.178 1392.05 693.585 1391.49 696Z" fill="#95D325"/>
<path d="M1181.93 750C1182.23 748.389 1181.56 746.635 1180.35 745.343C1179.14 744.03 1177.34 743.121 1175.37 743.008C1173.41 742.916 1171.5 743.634 1170.15 744.816C1168.78 745.976 1167.9 747.651 1168.01 749.283C1168.59 747.76 1169.67 746.567 1170.96 745.727C1172.26 744.902 1173.79 744.422 1175.28 744.514C1176.77 744.575 1178.24 745.209 1179.43 746.161C1180.61 747.13 1181.54 748.427 1181.93 750Z" fill="#95D325"/>
<path d="M1035.93 792C1036.23 790.389 1035.56 788.635 1034.35 787.343C1033.14 786.03 1031.34 785.121 1029.37 785.008C1027.41 784.916 1025.5 785.634 1024.15 786.816C1022.78 787.976 1021.9 789.651 1022.01 791.283C1022.59 789.76 1023.67 788.567 1024.96 787.727C1026.26 786.902 1027.79 786.422 1029.28 786.514C1030.77 786.575 1032.24 787.209 1033.43 788.161C1034.61 789.13 1035.54 790.427 1035.93 792Z" fill="#95D325"/>
<path d="M1337.43 793C1322.76 767.279 1317.06 736.313 1321.43 707.517C1321.54 706.835 1322.61 706.826 1322.75 707.501C1328.47 734.208 1341.76 759.545 1361 780.343C1353.56 784.698 1344.87 788.646 1337.43 793Z" fill="#7BCC3F"/>
<path d="M1313.82 799C1304.83 773.158 1301.84 745.432 1305.56 718.531C1305.66 717.846 1306.73 717.815 1306.89 718.489C1312.76 742.838 1324.87 765.928 1342 785.373C1333.25 790.912 1323.82 795.653 1313.82 799Z" fill="#6DB837"/>
<path d="M1368.73 753C1388.67 674.261 1382 589.383 1349.94 514L1346 515.373C1377.76 590.054 1384.37 674.141 1364.62 752.145L1368.73 753Z" fill="#99D536"/>
<path d="M1355.6 533C1359.21 498.009 1337.23 464.059 1339.88 429C1328.65 440.307 1321.43 455.51 1320.2 470.56C1318.97 485.608 1323.43 500.983 1332.71 513.62C1335.57 517.525 1338.91 521.199 1343.01 524.104C1347.45 527.251 1351.91 529.163 1355.6 533Z" fill="#99D536"/>
<path d="M1368.11 581C1374.63 575.837 1379.15 568.989 1382.06 561.771C1384.98 554.554 1386.37 546.942 1387.33 539.343C1389.45 522.631 1389.55 505.731 1387.64 489C1369.68 516.492 1361.91 549.883 1368.11 581Z" fill="#99D536"/>
<path d="M1378 663C1394.31 650.188 1404.21 631.628 1409.35 612.542C1414.49 593.454 1415.25 573.644 1416 554C1403.63 573.851 1391.75 594.09 1386.36 616.395C1382.65 631.734 1381.25 647.574 1378 663Z" fill="#99D536"/>
<path d="M1373 724C1382.43 714.286 1391.87 704.571 1401.3 694.855C1409.18 686.745 1417.11 678.561 1423.05 669.144C1428.98 659.724 1432.84 648.86 1431.84 638C1413.52 652.404 1395.04 669.076 1385.11 689.333C1379.65 700.483 1375.43 711.965 1373 724Z" fill="#99D536"/>
<path d="M1312.11 508C1321.21 519.545 1333.02 529.007 1343.22 539.74C1354.11 551.196 1363.16 564.133 1370 578C1352.26 576.888 1335.44 569.118 1324.68 556.052C1313.93 542.985 1308.51 524.066 1312.11 508Z" fill="#99D536"/>
<path d="M1378 663C1375.78 647.341 1368.54 632.552 1359.1 619.363C1349.66 606.175 1338.03 594.446 1326.21 583C1324.98 599.58 1329.2 617.098 1338.56 631.309C1347.92 645.519 1361.46 656.327 1378 663Z" fill="#99D536"/>
<path d="M1375 722C1374.25 709.858 1367.35 698.805 1360.2 688.519C1351.23 675.607 1341.58 663.083 1331.3 651C1326.76 665.441 1329.12 681.784 1336.77 695.1C1344.42 708.418 1359.36 717.121 1375 722Z" fill="#99D536"/>
<path d="M1431 643L1417.7 661.133C1413.25 667.162 1408.84 673.215 1404.29 679.179C1399.84 685.207 1395.26 691.154 1390.71 697.119L1377 715C1379.55 712.198 1382 709.326 1384.48 706.474L1391.71 697.773C1396.48 691.935 1401.06 685.974 1405.61 679.999C1410.06 673.958 1414.5 667.908 1418.73 661.741C1422.97 655.574 1427.1 649.348 1431 643Z" fill="#658F2B"/>
<path d="M1369 717C1364.82 712.658 1360.82 708.204 1357.11 703.565C1353.4 698.928 1349.89 694.167 1346.76 689.195C1343.53 684.284 1340.68 679.173 1338.05 673.968L1336.13 670.042L1334.34 666.063L1332.62 662.052C1332.1 660.7 1331.56 659.35 1331 658C1331.39 659.394 1331.79 660.787 1332.2 662.174L1333.58 666.31L1335.17 670.386L1336.89 674.419C1339.29 679.762 1342.18 684.923 1345.34 689.941C1348.61 694.897 1352.15 699.721 1356.1 704.25C1360.06 708.781 1364.33 713.08 1369 717Z" fill="#658F2B"/>
<path d="M1374 657C1369.32 652.104 1364.81 647.092 1360.6 641.887C1356.39 636.683 1352.37 631.349 1348.75 625.795C1345.01 620.302 1341.66 614.599 1338.54 608.795L1336.25 604.416L1334.08 599.98L1331.99 595.514C1331.34 594.006 1330.68 592.502 1330 591C1330.51 592.552 1331.04 594.103 1331.59 595.649L1333.35 600.251L1335.31 604.787L1337.41 609.273C1340.32 615.216 1343.71 620.962 1347.37 626.556C1351.13 632.088 1355.16 637.48 1359.62 642.572C1364.06 647.664 1368.83 652.522 1374 657Z" fill="#658F2B"/>
<path d="M1381 659C1383.89 651.257 1386.62 643.467 1389.33 635.669C1392.03 627.871 1394.61 620.034 1397.25 612.22C1399.78 604.369 1402.37 596.537 1404.83 588.669L1408.49 576.858C1409.66 572.905 1410.88 568.967 1412 565C1410.54 568.868 1409.17 572.762 1407.76 576.642L1403.67 588.331C1400.97 596.129 1398.39 603.964 1395.75 611.78C1393.23 619.633 1390.63 627.463 1388.17 635.332C1385.71 643.2 1383.27 651.076 1381 659Z" fill="#658F2B"/>
<path d="M1365 571C1359.36 567.839 1354.52 563.723 1350.17 559.248C1345.82 554.76 1341.83 549.977 1337.84 545.174C1333.75 540.44 1329.73 535.667 1325.59 530.968L1319.36 523.937C1317.24 521.627 1315.16 519.285 1313 517C1314.87 519.486 1316.83 521.915 1318.74 524.374L1324.61 531.656C1328.54 536.497 1332.58 541.267 1336.57 546.073C1340.66 550.794 1344.66 555.622 1349.26 560.009C1351.57 562.19 1354 564.275 1356.6 566.16C1359.24 568.008 1362.01 569.699 1365 571Z" fill="#658F2B"/>
<path d="M1354 527L1346.98 505.336C1344.71 498.108 1342.49 490.868 1340.77 483.541C1338.91 476.239 1337.54 468.851 1336.66 461.419L1336.12 455.834L1335.83 450.231L1335.76 444.62L1335.95 439L1335.31 444.604L1335 450.234L1335.05 455.876L1335.36 461.514C1335.97 469.027 1337.37 476.474 1339.11 483.842C1340.98 491.188 1343.19 498.465 1345.73 505.646C1348.27 512.829 1351.04 519.941 1354 527Z" fill="#658F2B"/>
<path d="M1371 572C1372.59 565.803 1373.99 559.579 1375.37 553.35C1376.76 547.12 1378 540.869 1379.31 534.63C1380.5 528.37 1381.76 522.121 1382.88 515.851L1384.52 506.439C1385.01 503.293 1385.56 500.155 1386 497C1385.19 500.096 1384.49 503.208 1383.72 506.312L1381.62 515.652C1380.24 521.881 1379 528.132 1377.68 534.372C1376.5 540.632 1375.24 546.88 1374.12 553.151C1373.01 559.422 1371.91 565.697 1371 572Z" fill="#658F2B"/>
<path d="M1345.92 801.954C1375.58 812.664 1406.34 806.932 1424.14 801.644C1432.6 799.132 1436.48 790.106 1432.32 782.838C1429.41 777.77 1425.75 771.787 1421.53 765.804C1421.26 765.391 1420.96 764.977 1420.67 764.563C1416.12 758.196 1410.99 751.932 1405.56 746.895C1405.18 746.526 1404.79 746.171 1404.39 745.831C1397.35 739.567 1389.86 735.49 1382.53 736.052C1367.94 737.145 1354.85 754.163 1345.79 769.823C1345.54 770.281 1345.28 770.724 1345.02 771.167C1344.07 772.866 1343.16 774.535 1342.29 776.16C1342.05 776.633 1341.81 777.091 1341.57 777.534C1340.34 779.927 1339.23 782.188 1338.24 784.271C1334.98 791.125 1338.38 799.236 1345.92 801.954Z" fill="#8EAC6E"/>
<path d="M1343 770.428C1347.43 771.481 1352.01 772 1356.6 772C1364.78 772 1372.95 770.339 1380.31 767.033C1390.3 762.54 1398.66 755.053 1404 746.068C1403.61 745.697 1403.23 745.341 1402.82 745C1397.63 753.867 1389.43 761.28 1379.6 765.699C1368.59 770.651 1355.65 771.807 1343.77 769.079C1343.52 769.539 1343.26 769.984 1343 770.428Z" fill="#C2E79C"/>
<path d="M1343 780.127C1351.71 782.033 1360.69 783 1369.67 783C1375.74 783 1381.82 782.558 1387.83 781.674C1401.57 779.644 1413.62 775.32 1423 769.16C1422.73 768.773 1422.42 768.387 1422.14 768C1412.93 774.064 1401.09 778.318 1387.55 780.307C1373.01 782.448 1358.01 781.936 1343.72 778.843C1343.48 779.285 1343.24 779.713 1343 780.127Z" fill="#C2E79C"/>
<path d="M1324.53 803.634C1346.24 811.369 1368.76 807.228 1381.78 803.411C1387.98 801.595 1390.82 795.077 1387.77 789.828C1385.64 786.169 1382.96 781.846 1379.88 777.527C1379.68 777.227 1379.45 776.929 1379.24 776.63C1375.91 772.031 1372.16 767.508 1368.18 763.869C1367.9 763.603 1367.62 763.347 1367.33 763.101C1362.17 758.578 1356.69 755.632 1351.32 756.037C1340.65 756.827 1331.06 769.118 1324.43 780.428C1324.25 780.759 1324.06 781.079 1323.87 781.4C1323.17 782.627 1322.5 783.832 1321.87 785.005C1321.7 785.347 1321.52 785.677 1321.35 785.997C1320.45 787.726 1319.63 789.358 1318.9 790.863C1316.52 795.813 1319.01 801.67 1324.53 803.634Z" fill="#98B97A"/>
<path d="M1324 781.895C1327.19 782.634 1330.5 783 1333.81 783C1339.71 783 1345.61 781.832 1350.91 779.505C1358.12 776.343 1364.15 771.075 1368 764.751C1367.72 764.491 1367.44 764.24 1367.15 764C1363.4 770.24 1357.49 775.456 1350.4 778.565C1342.46 782.05 1333.13 782.864 1324.56 780.945C1324.37 781.268 1324.19 781.58 1324 781.895Z" fill="#C2E79C"/>
<path d="M1321 786.702C1327.42 788.226 1334.05 789 1340.67 789C1345.15 789 1349.63 788.647 1354.06 787.939C1364.19 786.315 1373.08 782.856 1380 777.929C1379.8 777.619 1379.58 777.31 1379.36 777C1372.57 781.851 1363.84 785.254 1353.86 786.844C1343.13 788.558 1332.07 788.15 1321.53 785.674C1321.35 786.028 1321.18 786.37 1321 786.702Z" fill="#C2E79C"/>
<path d="M65.067 554.871C65.2119 553.989 65.4691 553.127 65.9663 552.33C66.924 550.792 69.0232 549.561 71.1396 549.879C72.8842 550.139 74.1944 551.379 74.7499 552.722C75.3077 554.066 75.2494 555.516 75.1823 556.932C75.3769 555.035 78.0121 553.646 80.3534 554.001C86.7741 554.971 85.0316 560.854 81.1122 563.656C95.6527 574.302 104.289 589.634 108.17 605.394C117.215 604.506 126.357 604.439 135.422 605.106C134.382 603.69 134.138 601.642 134.449 599.854C134.869 597.47 137.569 595.167 140.537 595.594C143.317 595.994 144.869 598.499 144.932 600.751C144.99 602.913 144.402 604.727 142.764 605.808C145.71 606.158 148.642 606.589 151.551 607.095C151.744 604.845 153.378 602.077 155.374 600.751C157.933 599.051 161.576 599.651 161.511 602.84C161.481 604.258 159.952 606.589 158.104 608.37C178.548 612.804 197.692 621.081 213.179 632.619C214.096 633.301 214.952 634.012 215.836 634.71C216.452 633.788 217.312 633.019 218.547 632.734C220.808 632.212 223.177 633.705 223.934 635.482C224.691 637.262 224.276 639.205 223.852 641.053C225.015 639.394 227.142 638.186 229.488 637.851C230.755 637.672 232.227 637.794 233.057 638.579C234.047 639.515 233.699 640.929 233.178 642.082C232.482 643.62 231.263 645.765 229.708 647.715C245.959 665.995 253.316 687.842 251.716 711.254C257.806 708.621 264.177 706.445 270.727 704.707C270.476 704.219 270.217 703.735 269.99 703.249C269.108 701.378 268.805 698.987 270.654 697.637C272.214 696.494 274.835 696.654 276.486 697.711C278.138 698.77 278.914 700.511 279.005 702.199C279.016 702.388 278.994 702.578 278.99 702.768C314.217 695.549 353.498 700.599 383.355 717.319C419.163 737.373 439.783 773.298 436.071 808H0V549.61C21.4822 544.762 45.2149 546.755 65.067 554.871Z" fill="#7CB32A"/>
<path d="M265.832 731.5C267.511 730.47 268.93 729.031 270.055 727.391C271.176 725.73 271.92 723.872 272.217 721.815C272.335 720.794 272.162 719.53 271.308 718.61C270.479 717.699 269.286 717.293 268.151 717.228C265.751 717.123 263.84 718.419 262.248 719.491L263.419 720.774C265.535 718.465 265.897 714.877 264.156 712.244C262.448 709.649 258.98 708.379 255.993 709.297C253.029 710.246 251.117 712.54 249.497 714.686C247.9 716.872 246.451 719.154 244.125 720.653C246.687 719.535 248.507 717.273 250.274 715.28C251.993 713.267 254.005 711.346 256.414 710.761C258.753 710.116 261.393 711.251 262.651 713.18C263.893 715.1 263.646 717.911 262.097 719.622L257.032 725.225L263.267 720.904C264.844 719.811 266.428 718.742 268.079 718.786C268.899 718.808 269.716 719.072 270.252 719.574C270.792 720.066 271.015 720.865 270.982 721.737C270.885 723.512 270.239 725.352 269.4 727.019C268.529 728.7 267.298 730.208 265.832 731.5Z" fill="#95D325"/>
<path d="M356.957 741.625C358.636 740.595 360.055 739.156 361.18 737.516C362.301 735.855 363.045 733.997 363.342 731.94C363.46 730.919 363.287 729.655 362.433 728.735C361.604 727.824 360.411 727.418 359.276 727.353C356.876 727.248 354.965 728.544 353.373 729.616L354.544 730.899C356.66 728.59 357.022 725.002 355.281 722.369C353.573 719.774 350.105 718.504 347.118 719.422C344.154 720.371 342.242 722.665 340.622 724.811C339.025 726.997 337.576 729.279 335.25 730.778C337.812 729.66 339.632 727.398 341.399 725.405C343.118 723.392 345.13 721.471 347.539 720.886C349.878 720.241 352.518 721.376 353.776 723.305C355.018 725.225 354.771 728.036 353.222 729.747L348.157 735.35L354.392 731.029C355.969 729.936 357.553 728.867 359.204 728.911C360.024 728.933 360.841 729.197 361.377 729.699C361.917 730.191 362.14 730.99 362.107 731.862C362.01 733.637 361.364 735.477 360.525 737.144C359.654 738.825 358.423 740.333 356.957 741.625Z" fill="#95D325"/>
<path d="M242.152 774.25C243.998 771.973 245.871 769.501 246.292 766.42C246.809 763.342 244.892 759.894 241.406 758.739C239.631 758.178 237.515 758.638 236.182 759.762C234.85 760.897 234.104 762.349 233.691 763.795C232.839 766.713 233.246 769.562 231.75 772.145C233.886 769.912 234.086 766.682 235.065 764.192C235.582 762.936 236.291 761.737 237.319 760.978C238.329 760.215 239.637 759.96 240.829 760.344C242.054 760.684 243.119 761.605 243.845 762.667C244.62 763.749 244.899 764.975 244.862 766.317C244.75 768.99 243.407 771.64 242.152 774.25Z" fill="#95D325"/>
<path d="M299.527 787.75C301.373 785.473 303.246 783.001 303.667 779.92C304.184 776.842 302.267 773.394 298.781 772.239C297.006 771.678 294.89 772.138 293.557 773.262C292.225 774.397 291.479 775.849 291.066 777.295C290.214 780.213 290.621 783.062 289.125 785.645C291.261 783.412 291.461 780.182 292.44 777.692C292.957 776.436 293.666 775.237 294.694 774.478C295.704 773.715 297.012 773.46 298.204 773.844C299.429 774.184 300.494 775.105 301.22 776.167C301.995 777.249 302.274 778.475 302.237 779.817C302.125 782.49 300.782 785.14 299.527 787.75Z" fill="#95D325"/>
<path d="M193.756 765.25C195.454 763.212 196.764 760.896 197.745 758.461C198.235 757.241 198.58 755.974 198.862 754.695C199.124 753.423 199.338 751.998 198.744 750.573C198.168 749.12 196.534 748.139 194.969 747.98C193.388 747.782 191.785 748.094 190.417 748.875C187.724 750.481 186.524 753.151 185.411 755.454L187.189 755.865C187.327 754.449 187.37 753.001 187.196 751.533C187.003 750.081 186.621 748.537 185.566 747.229C184.546 745.925 182.82 745.039 181.063 745.004C179.322 744.944 177.645 745.497 176.346 746.469C173.666 748.492 172.979 751.761 173.338 754.568C173.774 757.442 175.133 759.994 176.55 762.443C175.526 759.832 174.377 757.202 174.28 754.493C174.096 751.849 175.019 749.006 177.241 747.561C178.334 746.851 179.689 746.455 180.967 746.542C182.247 746.604 183.382 747.253 184.117 748.208C185.611 750.182 185.547 753.063 185.337 755.721L184.926 760.974L187.116 756.131C188.167 753.804 189.334 751.502 191.359 750.217C193.258 749.008 196.504 749.101 197.466 751.079C197.962 752.048 197.917 753.298 197.734 754.523C197.548 755.766 197.264 756.999 196.906 758.217C196.229 760.668 195.113 763.012 193.756 765.25Z" fill="#95D325"/>
<path d="M128.971 751.792C129.792 748.881 129.356 745.62 127.711 742.85C126.935 741.442 125.801 740.193 124.508 739.093C123.096 737.997 121.376 737.18 119.289 737.125C118.257 737.122 117.094 737.466 116.318 738.179C115.506 738.875 115.154 739.796 114.997 740.595C114.752 742.2 114.699 743.666 114.795 745.207C114.95 748.247 115.742 751.249 117.101 754C116.467 751.056 116.216 748.109 116.314 745.195C116.539 742.445 116.413 738.644 119.303 738.828C122.152 738.848 124.698 741.153 126.39 743.496C128.092 745.915 129.035 748.797 128.971 751.792Z" fill="#95D325"/>
<path d="M91.3833 722.5C95.3608 721.358 98.7752 718.628 100.917 715.241C103.043 711.847 104.043 707.719 103.203 703.736L103.115 703.318L102.664 703.183C97.8833 701.746 92.2973 704.02 90.2088 708.323L91.9058 708.943C93.1633 705.651 92.8365 701.872 90.8755 698.841C89.9097 697.328 88.425 696.061 86.6929 695.295C84.9608 694.554 83.0348 694.228 81.1476 694.437C79.2751 694.637 77.4175 695.367 76.0639 696.623C74.7049 697.862 73.9053 699.481 73.4178 701.071C72.4409 704.275 72.4538 707.565 70.9175 710.504L70.875 710.584L70.9599 710.608L72.3523 710.976L71.0116 710.469L71.056 710.574C72.9118 707.739 73.2423 704.323 74.3687 701.35C74.9135 699.861 75.7204 698.464 76.9281 697.47C78.1136 696.476 79.6943 695.935 81.2953 695.839C82.8981 695.731 84.5342 696.029 85.9598 696.688C87.378 697.355 88.5321 698.415 89.352 699.693C91.0029 702.252 91.2189 705.556 90.183 708.383L91.88 709.003C93.4865 705.55 98.2341 703.486 102.18 704.592L101.643 704.041C102.531 707.594 101.887 711.476 100.027 714.788C99.0872 716.436 97.9146 717.993 96.4521 719.313C94.9952 720.633 93.2779 721.725 91.3833 722.5Z" fill="#95D325"/>
<path d="M180.523 703.375C181.901 700.954 183.268 698.347 183.366 695.287C183.516 692.24 181.786 688.958 178.666 687.856C177.09 687.33 175.274 687.736 174.025 688.724C172.772 689.715 171.941 691.032 171.375 692.394C170.238 695.148 170.15 697.95 168.75 700.426C170.722 698.347 171.392 695.319 172.601 693.002C173.237 691.852 173.999 690.764 174.985 690.102C175.946 689.422 177.098 689.196 178.15 689.563C179.217 689.889 180.187 690.725 180.857 691.761C181.559 692.807 181.939 693.985 182.011 695.307C182.163 697.937 181.303 700.67 180.523 703.375Z" fill="#95D325"/>
<path d="M177.494 659.5C179.115 657.936 180.691 656.244 181.597 654.087C182.06 653.009 182.299 651.857 182.242 650.611C182.12 649.374 181.633 648.202 180.863 647.21C180.086 646.232 179 645.391 177.647 645.03C176.293 644.673 174.751 644.945 173.687 645.716C172.585 646.468 171.941 647.551 171.549 648.615C171.192 649.702 170.996 650.796 171 651.894C171.722 649.862 172.734 647.746 174.457 646.805C176.198 645.838 178.262 646.631 179.416 648.194C180.034 648.938 180.411 649.854 180.556 650.766C180.684 651.68 180.535 652.706 180.271 653.679C179.696 655.646 178.564 657.556 177.494 659.5Z" fill="#95D325"/>
<path d="M154.309 661.051C155.63 659.002 155.525 656.255 154.213 654.083C152.893 651.861 150.073 650.486 147.274 650.501C144.491 650.458 141.538 651.834 140.16 654.188C138.758 656.459 138.567 659.369 139.977 661.733L142.416 665.826L141.693 661.225C141.504 660.03 140.708 658.984 139.706 658.34C138.702 657.688 137.519 657.357 136.32 657.32C135.122 657.275 133.872 657.632 132.922 658.234C131.954 658.844 131.197 659.658 130.645 660.547C129.537 662.326 129.202 664.408 129.455 666.331C129.707 668.265 130.318 670.09 131.019 671.875C130.681 670.004 130.253 668.141 130.279 666.29C130.271 664.454 130.688 662.638 131.776 661.182C132.825 659.745 134.522 658.723 136.248 658.857C137.979 658.953 139.708 660.047 139.876 661.452L141.592 660.943C140.562 659.146 140.646 656.806 141.739 654.993C142.797 653.155 144.964 651.996 147.31 651.907C149.639 651.75 152.064 652.689 153.387 654.553C154.774 656.354 155.21 658.84 154.309 661.051Z" fill="#95D325"/>
<path d="M410.809 784.801C412.13 782.752 412.025 780.005 410.713 777.833C409.393 775.611 406.573 774.236 403.774 774.251C400.991 774.208 398.038 775.584 396.66 777.938C395.258 780.209 395.067 783.119 396.477 785.483L398.916 789.576L398.193 784.975C398.004 783.78 397.208 782.734 396.206 782.09C395.202 781.438 394.019 781.107 392.82 781.07C391.622 781.025 390.372 781.382 389.422 781.984C388.454 782.594 387.697 783.408 387.145 784.297C386.037 786.076 385.702 788.158 385.955 790.081C386.207 792.015 386.818 793.84 387.519 795.625C387.181 793.754 386.753 791.891 386.779 790.04C386.771 788.204 387.188 786.388 388.276 784.932C389.325 783.495 391.022 782.473 392.748 782.607C394.479 782.703 396.208 783.797 396.376 785.202L398.092 784.693C397.062 782.896 397.146 780.556 398.239 778.743C399.297 776.905 401.464 775.746 403.81 775.657C406.139 775.5 408.564 776.439 409.887 778.303C411.274 780.104 411.71 782.59 410.809 784.801Z" fill="#95D325"/>
<path d="M126.493 620.125C127.478 618.572 127.24 616.471 126.276 614.85C125.329 613.189 123.742 611.857 121.847 611.05C119.974 610.288 117.947 609.987 115.991 610C114.031 610.006 112.124 610.269 110.25 610.706C114.07 611.2 117.87 611.232 121.069 612.586C122.622 613.216 124 614.263 125.031 615.531C126.042 616.81 126.697 618.372 126.493 620.125Z" fill="#95D325"/>
<path d="M88.5856 639.25C91.1294 637.388 93.8137 635.321 95.0496 632.133C95.65 630.577 95.8236 628.825 95.3636 627.122C94.9166 625.423 93.605 623.869 91.9202 623.105C88.508 621.613 84.5528 622.538 81.9646 624.702C79.3247 626.84 77.832 629.723 76.5 632.533C78.4471 630.056 80.3555 627.501 82.8476 625.791C85.2492 624.099 88.5819 623.546 91.1109 624.695C93.7028 625.782 94.5158 628.977 93.6826 631.716C92.8771 634.501 90.6713 636.895 88.5856 639.25Z" fill="#95D325"/>
<path d="M72.3713 587.5C73.4063 586.189 73.306 584.211 72.4915 582.715C71.697 581.176 70.2993 579.936 68.5937 579.239C66.919 578.593 65.1222 578.411 63.4202 578.538C61.7145 578.654 60.0836 579.021 58.5 579.563C61.8439 579.858 65.1276 579.696 67.8902 580.819C69.215 581.328 70.3959 582.255 71.2651 583.383C72.1161 584.521 72.661 585.921 72.3713 587.5Z" fill="#95D325"/>
<path d="M60.75 565C60.1364 563.493 58.5858 562.465 56.9176 561.952C55.2395 561.469 53.2889 561.462 51.75 562.333C53.4653 562.82 54.863 563.131 56.2882 563.568C57.7271 563.973 59.0523 564.474 60.75 565Z" fill="#95D325"/>
<path d="M66.7332 684.25C68.6491 682.027 70.1131 679.408 70.9781 676.606C71.4338 675.21 71.7147 673.767 71.8895 672.31C72.0532 670.855 72.0718 669.326 71.6886 667.79C71.2905 666.279 70.314 664.724 68.7962 663.861C67.3043 663.002 65.5446 662.71 63.8928 662.962C60.4832 663.469 58.1302 666.161 57.375 668.89C58.8129 666.396 61.3464 664.491 64.0603 664.318C65.407 664.26 66.7854 664.542 67.8308 665.247C68.9003 665.91 69.5737 666.984 69.8843 668.217C70.2266 669.446 70.2377 670.804 70.1391 672.172C70.0721 673.55 69.8452 674.914 69.5736 676.279C68.984 678.994 68.039 681.666 66.7332 684.25Z" fill="#95D325"/>
<path d="M122.631 774.605C122.926 777.514 127.604 776.351 129.427 775.797C134.119 774.343 138.782 772.764 143.416 771.102C153.313 767.571 163.124 763.583 171.905 757.975C175.287 755.814 178.509 753.403 181.465 750.746C186.187 746.494 190.217 741.619 193.085 736.107C194.614 733.158 195.822 729.972 195.747 726.69C195.673 723.407 194.128 720.029 191.187 718.284C188.335 716.608 184.702 716.691 181.377 717.19C174.068 718.298 167.286 721.081 161.139 724.931C153.857 729.516 147.475 735.636 142.237 742.255C136.871 749.07 132.442 756.478 128.265 763.97C127.221 765.868 126.178 767.778 125.148 769.675C124.501 770.867 122.499 773.262 122.631 774.605Z" fill="#7BCC3F"/>
<path d="M177.783 750.625C179.073 750.625 180.376 750.519 181.668 750.328C182.558 749.524 183.426 748.697 184.264 747.847C184.663 747.443 185.057 747.032 185.444 746.616C188.478 743.354 191.096 739.774 193.123 735.869C194.59 733.037 195.755 729.982 195.75 726.834C195.75 726.746 195.748 726.657 195.746 726.568C195.674 723.326 194.151 719.989 191.251 718.266C189.491 717.23 187.43 716.875 185.33 716.875C184.074 716.875 182.806 717.001 181.581 717.185C174.375 718.279 167.69 721.029 161.63 724.831C161.121 727.102 160.875 729.413 160.875 731.753C160.904 737.963 163.007 744.678 168.458 748.167C171.208 749.921 174.453 750.625 177.783 750.625Z" fill="#9BD754"/>
<path d="M97.9542 806.481L96.8895 808H95.625C96.0042 807.275 96.374 806.549 96.755 805.826C98.3576 803.057 100.057 800.336 101.828 797.647C105.405 792.291 109.529 787.256 113.973 782.491C118.465 777.763 123.284 773.295 128.518 769.291C133.727 765.264 139.239 761.581 145.125 758.5C139.906 762.476 134.803 766.515 129.962 770.801C125.143 775.108 120.471 779.539 116.106 784.228C111.69 788.876 107.587 793.77 103.636 798.784C101.673 801.298 99.7865 803.869 97.9542 806.481Z" fill="#99D536"/>
<path d="M102.445 746.919C102.487 749.041 102.561 751.181 102.619 753.303C102.665 754.627 102.135 757.634 102.944 758.737C104.698 761.15 108.205 758.021 109.516 756.71C112.905 753.331 116.175 749.829 119.388 746.312C126.285 738.74 132.84 730.823 137.689 721.985C138.691 720.149 139.604 718.288 140.428 716.37C143.627 709.048 145.468 701.201 145.072 693.326C144.91 690.058 144.333 686.734 142.58 683.907C140.843 681.08 137.762 678.818 134.272 678.638C130.912 678.459 127.774 680.169 125.104 682.099C119.522 686.169 115.131 691.34 111.771 697.147C107.454 704.648 104.845 713.172 103.594 721.653C102.355 730.024 102.267 738.478 102.445 746.919Z" fill="#7BCC3F"/>
<path d="M132.785 718C135.458 718 138.008 717.314 140.373 716.179C143.319 709.548 145.127 702.485 145.125 695.361C145.125 694.659 145.106 693.954 145.071 693.251C144.908 689.999 144.324 686.692 142.55 683.879C140.792 681.067 137.675 678.817 134.143 678.637C133.978 678.628 133.812 678.625 133.649 678.625C130.435 678.625 127.436 680.253 124.867 682.081C119.219 686.13 114.775 691.275 111.375 697.052C112.315 700.853 113.909 704.502 116.176 707.825C119.784 713.106 125.493 717.771 132.263 717.991C132.438 717.997 132.612 718 132.785 718Z" fill="#9BD754"/>
<path d="M107.598 746.658C104.77 754.04 102.134 761.474 99.894 769.009C97.589 776.529 95.6898 784.143 93.9783 791.799C92.8028 797.168 91.813 802.571 90.9074 808H90C90.3006 802.473 90.9151 796.952 91.7824 791.464C92.9809 783.658 94.8283 775.938 97.0893 768.323C99.4154 760.723 102.157 753.221 105.505 745.942C107.202 742.311 108.967 738.71 110.83 735.153C112.813 731.644 114.783 728.138 117 724.75C116.196 726.579 115.375 728.395 114.519 730.196L112.135 735.667C110.546 739.309 109.026 742.968 107.598 746.658Z" fill="#99D536"/>
<path d="M63.1048 703.947C63.4723 710.127 64.7862 716.304 66.7175 722.194C69.371 730.238 73.1031 737.913 77.0704 745.45C78.0737 747.358 79.09 749.253 80.108 751.147C80.7419 752.329 81.6129 755.239 82.8496 755.939C85.5178 757.422 87.2892 753.207 87.8919 751.519C89.441 747.139 90.8431 742.691 92.1717 738.243C95.0144 728.714 97.4051 718.995 97.8186 709.111C97.9803 705.073 97.8038 700.996 97.168 696.988C96.2989 691.18 94.5293 685.511 91.6094 680.336C89.9868 677.453 87.9673 674.678 85.1061 672.812C82.245 670.943 78.4266 670.107 75.1814 671.315C72.0557 672.468 69.9774 675.255 68.4283 678.041C64.0181 685.991 62.5737 694.956 63.1048 703.947Z" fill="#7BCC3F"/>
<path d="M76.9654 711.25C83.1603 711.25 88.7436 707.337 92.6878 702.771C94.2161 701.006 95.572 699.101 96.75 697.116C95.8915 691.279 94.1435 685.582 91.2593 680.382C89.6566 677.485 87.6618 674.697 84.8356 672.821C82.9171 671.548 80.5611 670.75 78.2432 670.75C77.1487 670.75 76.0615 670.927 75.0323 671.317C71.9448 672.476 69.892 675.276 68.3618 678.077C64.5755 685.02 63.0036 692.734 63 700.566C63 701.745 63.0345 702.926 63.1034 704.109C66.5558 708.028 71.1734 711.049 76.4608 711.241C76.6296 711.248 76.7984 711.25 76.9654 711.25Z" fill="#9BD754"/>
<path d="M87.8133 808C86.9624 803.623 86.2683 799.228 85.6666 794.825C84.7405 788.32 84.1839 781.787 83.7476 775.25C83.3888 768.71 83.1546 762.167 83.2878 755.62L83.5887 745.803C83.8422 742.533 84.0077 739.265 84.4095 736C84.749 739.268 84.8994 742.533 85.1895 745.796L85.7977 755.579L87.0075 775.123L88.1594 794.67C88.4087 799.108 88.6601 803.552 88.875 808H87.8133Z" fill="#99D536"/>
<path d="M1201.13 38.096V37.1921H1074.13V38.096L1075.26 37.8691C1074.23 34.7884 1073.32 31.3868 1073.32 28.175C1073.32 26.2703 1073.64 24.4371 1074.42 22.7692C1076.54 18.1825 1081.23 14.2077 1087.1 12.8283C1088.52 12.4911 1090.03 12.3238 1091.54 12.3238C1096.2 12.3211 1100.85 13.922 1103.41 16.8084C1104.3 17.7965 1104.91 18.9508 1104.9 19.9985C1104.9 20.2272 1104.87 20.4523 1104.82 20.6738C1104.68 21.2063 1104.28 21.7514 1103.75 22.1346C1103.21 22.5224 1102.58 22.7348 1101.99 22.733L1101.71 22.7186C1101.28 22.6689 1100.95 22.5523 1100.65 22.3706C1100.2 22.1003 1099.82 21.6474 1099.57 21.0562C1099.31 20.4686 1099.17 19.7581 1099.18 19.0503C1099.18 18.5757 1099.23 18.102 1099.34 17.669C1100.26 13.8895 1102.77 10.3776 1106.27 7.62773C1109.78 4.87695 1114.27 2.89725 1119.12 2.15147C1120.62 1.92006 1122.15 1.80794 1123.68 1.80794C1132.04 1.80161 1140.45 5.18519 1145.01 10.6361C1146.19 12.031 1147.08 13.6518 1147.07 15.099C1147.07 15.5628 1146.98 16.0102 1146.8 16.4459C1146.56 17.0001 1146.02 17.5298 1145.33 17.9086C1144.65 18.2883 1143.83 18.5034 1143.13 18.4998C1142.52 18.4962 1142.02 18.3596 1141.6 18.0469C1141.32 17.8353 1141.13 17.6057 1141 17.3382C1140.87 17.0724 1140.81 16.765 1140.81 16.4242C1140.8 15.4461 1141.39 14.2104 1142.18 13.2613C1145.84 8.84356 1152.59 6.02227 1159.34 6.0295C1159.76 6.0295 1160.17 6.03945 1160.58 6.06115C1167.73 6.4164 1174.55 10.0269 1177.61 15.0692C1178.27 16.1621 1178.73 17.4186 1178.73 18.5359C1178.73 19.4408 1178.45 20.2327 1177.81 20.8863C1177.33 21.3934 1176.36 21.7062 1175.36 21.7034C1174.68 21.7053 1174.03 21.5552 1173.61 21.3283C1173.4 21.2153 1173.25 21.0878 1173.14 20.9495C1173.03 20.8094 1172.97 20.6566 1172.95 20.4541L1172.94 20.3538C1172.94 20.0682 1173.04 19.8241 1173.24 19.5719C1173.53 19.1958 1174.08 18.8189 1174.79 18.5215C1175.5 18.2231 1176.34 18.0053 1177.12 17.895C1178.17 17.7467 1179.24 17.6735 1180.31 17.6735C1185.7 17.6699 1191.14 19.5412 1194.65 22.7204C1197.99 25.7225 1200.69 30.453 1200.68 34.5461C1200.68 35.6987 1200.47 36.7979 1200.03 37.8031L1201.13 38.096L1202.23 38.388C1202.76 37.1649 1203 35.8659 1203 34.5461C1202.98 29.8591 1200.09 24.8791 1196.41 21.5407C1192.42 17.9375 1186.38 15.8692 1180.31 15.8656C1179.1 15.8656 1177.89 15.9478 1176.7 16.1169C1175.36 16.3103 1173.94 16.7171 1172.76 17.387C1172.18 17.7233 1171.65 18.13 1171.26 18.6272C1170.86 19.1217 1170.62 19.7165 1170.62 20.3538L1170.63 20.5717C1170.67 21.0526 1170.85 21.5046 1171.15 21.8861C1171.6 22.461 1172.27 22.8686 1173 23.1281C1173.74 23.3884 1174.55 23.5105 1175.36 23.5114C1176.93 23.5078 1178.59 23.0585 1179.66 21.981C1180.67 20.9522 1181.05 19.7283 1181.05 18.5359C1181.05 17.0489 1180.48 15.5754 1179.71 14.2963C1176.25 8.63476 1168.77 4.67627 1160.73 4.25682C1160.27 4.23332 1159.81 4.22156 1159.34 4.22156C1151.78 4.22879 1144.36 7.32038 1140.23 12.2814C1139.26 13.4638 1138.49 14.9318 1138.48 16.4242C1138.48 16.9431 1138.58 17.4683 1138.82 17.971C1139.06 18.4727 1139.45 18.9499 1139.99 19.3504C1140.87 20.0184 1142.03 20.3122 1143.13 20.3077C1144.4 20.305 1145.64 19.9533 1146.68 19.3838C1147.71 18.8107 1148.57 18.0044 1149 17.0182C1149.27 16.3836 1149.39 15.7363 1149.39 15.099C1149.38 13.0976 1148.26 11.2147 1146.96 9.64807C1141.91 3.6439 1132.83 0.00632858 1123.68 0C1122 0 1120.32 0.122955 1118.67 0.377876C1113.32 1.2023 1108.43 3.36641 1104.62 6.35493C1100.81 9.34346 1098.07 13.1636 1097.06 17.3327C1096.92 17.8824 1096.85 18.4627 1096.85 19.0503C1096.86 20.2164 1097.12 21.4132 1097.8 22.4392C1098.15 22.9509 1098.61 23.421 1099.21 23.7907C1099.81 24.1604 1100.56 24.419 1101.39 24.5084C1101.59 24.5301 1101.79 24.541 1101.99 24.541C1103.29 24.5392 1104.45 24.0953 1105.33 23.458C1106.21 22.8171 1106.85 21.9683 1107.1 21.0273C1107.18 20.6838 1107.22 20.3393 1107.22 19.9985C1107.22 18.4256 1106.38 16.973 1105.32 15.777C1102.22 12.313 1096.86 10.5186 1091.54 10.5159C1089.81 10.5159 1088.08 10.7066 1086.42 11.099C1079.7 12.6981 1074.58 17.1077 1072.23 22.1554C1071.34 24.0737 1071 26.1166 1071 28.175C1071 31.648 1071.96 35.1807 1073.01 38.3229L1073.24 39H1201.96L1202.23 38.388L1201.13 38.096Z" fill="#CBCBCB"/>
<path d="M1111.26 582.652V582.305H1061.23V582.652L1061.68 582.565C1061.27 581.38 1060.91 580.072 1060.92 578.837C1060.92 578.104 1061.04 577.399 1061.35 576.757C1062.18 574.993 1064.03 573.465 1066.34 572.934C1066.9 572.804 1067.5 572.74 1068.09 572.74C1069.93 572.739 1071.76 573.355 1072.77 574.465C1073.12 574.845 1073.36 575.289 1073.35 575.692C1073.35 575.78 1073.34 575.866 1073.32 575.951C1073.27 576.156 1073.11 576.366 1072.9 576.513C1072.69 576.662 1072.44 576.744 1072.21 576.743L1072.1 576.738C1071.93 576.719 1071.8 576.674 1071.68 576.604C1071.5 576.5 1071.36 576.326 1071.25 576.099C1071.15 575.873 1071.1 575.599 1071.1 575.327C1071.1 575.145 1071.12 574.962 1071.16 574.796C1071.53 573.342 1072.51 571.991 1073.89 570.934C1075.28 569.876 1077.05 569.114 1078.96 568.827C1079.55 568.738 1080.15 568.695 1080.75 568.695C1084.04 568.693 1087.36 569.994 1089.16 572.091C1089.62 572.627 1089.97 573.251 1089.97 573.807C1089.97 573.986 1089.93 574.158 1089.86 574.325C1089.77 574.538 1089.55 574.742 1089.28 574.888C1089.01 575.034 1088.69 575.117 1088.42 575.115C1088.17 575.114 1087.98 575.061 1087.81 574.941C1087.7 574.86 1087.63 574.771 1087.58 574.669C1087.53 574.566 1087.5 574.448 1087.5 574.317C1087.5 573.941 1087.73 573.466 1088.04 573.1C1089.48 571.401 1092.14 570.316 1094.8 570.319C1094.96 570.319 1095.13 570.323 1095.29 570.331C1098.11 570.468 1100.79 571.856 1102 573.796C1102.26 574.216 1102.44 574.699 1102.44 575.129C1102.44 575.477 1102.33 575.782 1102.08 576.033C1101.89 576.228 1101.51 576.349 1101.11 576.347C1100.85 576.348 1100.59 576.29 1100.42 576.203C1100.34 576.16 1100.28 576.111 1100.24 576.058C1100.19 576.004 1100.17 575.945 1100.16 575.867L1100.16 575.828C1100.16 575.719 1100.2 575.625 1100.28 575.528C1100.39 575.383 1100.61 575.238 1100.89 575.124C1101.17 575.009 1101.5 574.925 1101.8 574.883C1102.22 574.826 1102.64 574.798 1103.06 574.798C1105.19 574.796 1107.33 575.516 1108.71 576.739C1110.03 577.893 1111.09 579.713 1111.08 581.287C1111.08 581.73 1111 582.153 1110.83 582.54L1111.26 582.652L1111.7 582.765C1111.91 582.294 1112 581.795 1112 581.287C1111.99 579.484 1110.85 577.569 1109.41 576.285C1107.83 574.899 1105.45 574.104 1103.06 574.102C1102.59 574.102 1102.11 574.134 1101.64 574.199C1101.11 574.273 1100.55 574.43 1100.09 574.687C1099.86 574.817 1099.65 574.973 1099.49 575.164C1099.34 575.354 1099.24 575.583 1099.24 575.828L1099.25 575.912C1099.26 576.097 1099.34 576.271 1099.45 576.418C1099.63 576.639 1099.9 576.796 1100.18 576.895C1100.47 576.996 1100.79 577.042 1101.11 577.043C1101.73 577.041 1102.38 576.869 1102.81 576.454C1103.2 576.059 1103.35 575.588 1103.35 575.129C1103.35 574.557 1103.13 573.991 1102.82 573.499C1101.46 571.321 1098.51 569.799 1095.35 569.637C1095.17 569.628 1094.98 569.624 1094.8 569.624C1091.82 569.626 1088.9 570.816 1087.27 572.724C1086.89 573.178 1086.59 573.743 1086.58 574.317C1086.58 574.517 1086.62 574.719 1086.72 574.912C1086.81 575.105 1086.97 575.288 1087.18 575.442C1087.53 575.699 1087.98 575.812 1088.42 575.811C1088.92 575.81 1089.4 575.674 1089.81 575.455C1090.22 575.235 1090.56 574.925 1090.73 574.545C1090.83 574.301 1090.88 574.052 1090.88 573.807C1090.88 573.038 1090.44 572.313 1089.92 571.711C1087.93 569.402 1084.36 568.002 1080.75 568C1080.09 568 1079.43 568.047 1078.78 568.145C1076.67 568.462 1074.75 569.295 1073.24 570.444C1071.74 571.594 1070.66 573.063 1070.26 574.666C1070.21 574.878 1070.18 575.101 1070.18 575.327C1070.19 575.776 1070.29 576.236 1070.56 576.63C1070.7 576.827 1070.88 577.008 1071.11 577.15C1071.35 577.292 1071.64 577.392 1071.97 577.426C1072.05 577.435 1072.13 577.439 1072.21 577.439C1072.72 577.438 1073.18 577.267 1073.52 577.022C1073.87 576.776 1074.12 576.449 1074.22 576.087C1074.25 575.955 1074.27 575.823 1074.27 575.692C1074.27 575.087 1073.94 574.528 1073.52 574.068C1072.3 572.736 1070.19 572.046 1068.09 572.045C1067.41 572.045 1066.73 572.118 1066.07 572.269C1063.43 572.884 1061.41 574.58 1060.48 576.521C1060.13 577.259 1060 578.045 1060 578.837C1060 580.172 1060.38 581.531 1060.79 582.74L1060.88 583H1111.59L1111.7 582.765L1111.26 582.652Z" fill="#CBCBCB"/>
<path d="M313.992 227.513V227.026H245.686V227.513L246.291 227.391C245.738 225.732 245.249 223.901 245.25 222.171C245.25 221.146 245.421 220.158 245.837 219.26C246.979 216.791 249.5 214.65 252.658 213.908C253.426 213.726 254.235 213.636 255.047 213.636C257.556 213.634 260.054 214.496 261.434 216.051C261.911 216.583 262.238 217.204 262.234 217.768C262.234 217.892 262.22 218.013 262.189 218.132C262.118 218.419 261.902 218.712 261.615 218.919C261.327 219.127 260.987 219.242 260.669 219.241L260.519 219.233C260.286 219.206 260.109 219.144 259.948 219.046C259.709 218.9 259.504 218.656 259.365 218.338C259.225 218.022 259.155 217.639 259.155 217.258C259.155 217.002 259.186 216.747 259.243 216.514C259.737 214.479 261.086 212.588 262.972 211.107C264.857 209.626 267.274 208.56 269.883 208.158C270.69 208.034 271.512 207.974 272.334 207.974C276.83 207.97 281.357 209.792 283.809 212.727C284.441 213.478 284.92 214.351 284.915 215.13C284.915 215.38 284.869 215.621 284.769 215.856C284.643 216.154 284.353 216.439 283.982 216.643C283.614 216.848 283.173 216.963 282.799 216.961C282.469 216.959 282.202 216.886 281.973 216.718C281.822 216.604 281.722 216.48 281.652 216.336C281.583 216.193 281.548 216.027 281.548 215.844C281.542 215.317 281.861 214.652 282.289 214.141C284.253 211.762 287.887 210.243 291.519 210.247C291.74 210.247 291.961 210.252 292.182 210.264C296.029 210.455 299.699 212.399 301.341 215.114C301.7 215.703 301.946 216.379 301.944 216.981C301.943 217.468 301.794 217.895 301.451 218.246C301.192 218.52 300.672 218.688 300.135 218.686C299.769 218.687 299.419 218.607 299.194 218.484C299.081 218.424 298.997 218.355 298.939 218.281C298.881 218.205 298.845 218.123 298.835 218.014L298.833 217.96C298.834 217.806 298.886 217.675 298.991 217.539C299.148 217.336 299.447 217.133 299.828 216.973C300.207 216.812 300.659 216.695 301.079 216.636C301.644 216.556 302.218 216.517 302.793 216.517C305.696 216.515 308.622 217.522 310.51 219.234C312.307 220.851 313.76 223.398 313.75 225.602C313.75 226.222 313.639 226.814 313.401 227.356L313.992 227.513L314.584 227.67C314.873 227.012 315 226.312 315 225.602C314.99 223.078 313.434 220.396 311.457 218.599C309.309 216.659 306.061 215.545 302.793 215.543C302.145 215.543 301.496 215.587 300.855 215.678C300.131 215.782 299.367 216.002 298.735 216.362C298.42 216.543 298.136 216.762 297.926 217.03C297.714 217.296 297.582 217.617 297.583 217.96L297.588 218.077C297.609 218.336 297.709 218.579 297.87 218.785C298.111 219.094 298.472 219.314 298.866 219.454C299.262 219.594 299.697 219.659 300.135 219.66C300.976 219.658 301.871 219.416 302.446 218.836C302.987 218.282 303.196 217.623 303.194 216.981C303.192 216.18 302.887 215.387 302.471 214.698C300.612 211.649 296.587 209.518 292.264 209.292C292.016 209.279 291.767 209.273 291.519 209.273C287.447 209.277 283.457 210.942 281.238 213.613C280.716 214.25 280.304 215.04 280.298 215.844C280.298 216.123 280.351 216.406 280.481 216.677C280.61 216.947 280.818 217.204 281.107 217.419C281.584 217.779 282.206 217.937 282.799 217.935C283.482 217.933 284.146 217.744 284.705 217.437C285.263 217.129 285.726 216.695 285.955 216.164C286.101 215.822 286.165 215.473 286.165 215.13C286.16 214.053 285.558 213.039 284.856 212.195C282.141 208.962 277.255 207.003 272.334 207C271.433 207 270.53 207.066 269.64 207.203C266.763 207.647 264.133 208.813 262.084 210.422C260.035 212.031 258.561 214.088 258.015 216.333C257.943 216.629 257.905 216.941 257.905 217.258C257.907 217.886 258.049 218.53 258.418 219.083C258.603 219.358 258.85 219.611 259.174 219.81C259.497 220.009 259.898 220.149 260.345 220.197C260.453 220.209 260.562 220.214 260.669 220.214C261.367 220.213 261.992 219.974 262.466 219.631C262.941 219.286 263.283 218.829 263.415 218.322C263.463 218.137 263.484 217.952 263.484 217.768C263.481 216.921 263.033 216.139 262.461 215.495C260.791 213.63 257.908 212.664 255.047 212.662C254.117 212.662 253.186 212.765 252.294 212.976C248.677 213.837 245.924 216.212 244.662 218.93C244.183 219.963 244 221.063 244 222.171C244.001 224.041 244.518 225.943 245.081 227.635L245.202 228H314.439L314.584 227.67L313.992 227.513Z" fill="#CBCBCB"/>
<path d="M1134.19 462.656V461.311H943.702V462.656L945.389 462.318C943.846 457.737 942.483 452.678 942.486 447.901C942.486 445.069 942.963 442.342 944.124 439.862C947.307 433.041 954.338 427.129 963.145 425.078C965.285 424.576 967.544 424.328 969.808 424.328C976.803 424.324 983.77 426.705 987.62 430.997C988.95 432.467 989.861 434.183 989.851 435.741C989.851 436.082 989.81 436.416 989.725 436.746C989.525 437.538 988.923 438.348 988.122 438.918C987.319 439.495 986.371 439.811 985.485 439.808L985.067 439.787C984.417 439.713 983.925 439.539 983.475 439.269C982.807 438.867 982.236 438.194 981.848 437.314C981.459 436.44 981.262 435.384 981.264 434.331C981.264 433.625 981.35 432.921 981.509 432.277C982.887 426.656 986.648 421.433 991.907 417.344C997.165 413.253 1003.91 410.309 1011.18 409.2C1013.43 408.855 1015.72 408.689 1018.01 408.689C1030.55 408.679 1043.18 413.711 1050.02 421.818C1051.78 423.892 1053.11 426.303 1053.1 428.455C1053.1 429.145 1052.97 429.81 1052.69 430.458C1052.34 431.282 1051.53 432.07 1050.5 432.633C1049.47 433.198 1048.24 433.518 1047.2 433.512C1046.28 433.507 1045.53 433.304 1044.9 432.839C1044.47 432.524 1044.2 432.183 1044 431.785C1043.81 431.39 1043.71 430.933 1043.71 430.426C1043.7 428.971 1044.58 427.133 1045.78 425.722C1051.25 419.152 1061.39 414.956 1071.52 414.967C1072.13 414.967 1072.75 414.982 1073.37 415.014C1084.09 415.542 1094.33 420.912 1098.91 428.411C1099.91 430.036 1100.6 431.905 1100.59 433.566C1100.59 434.912 1100.17 436.09 1099.22 437.062C1098.49 437.816 1097.04 438.281 1095.55 438.277C1094.53 438.28 1093.55 438.056 1092.92 437.719C1092.61 437.551 1092.37 437.361 1092.21 437.156C1092.05 436.947 1091.95 436.72 1091.92 436.419L1091.91 436.27C1091.92 435.845 1092.06 435.482 1092.36 435.107C1092.79 434.548 1093.63 433.987 1094.69 433.545C1095.75 433.101 1097.01 432.777 1098.18 432.613C1099.75 432.393 1101.35 432.284 1102.96 432.284C1111.05 432.278 1119.21 435.061 1124.48 439.789C1129.49 444.254 1133.54 451.289 1133.51 457.376C1133.51 459.09 1133.2 460.725 1132.54 462.22L1134.19 462.656L1135.84 463.09C1136.65 461.271 1137 459.339 1137 457.376C1136.97 450.406 1132.63 443 1127.12 438.035C1121.13 432.676 1112.07 429.6 1102.96 429.595C1101.15 429.595 1099.34 429.717 1097.55 429.969C1095.53 430.256 1093.4 430.861 1091.64 431.858C1090.76 432.358 1089.97 432.963 1089.38 433.702C1088.79 434.437 1088.43 435.322 1088.43 436.27L1088.44 436.594C1088.5 437.309 1088.78 437.981 1089.23 438.548C1089.9 439.404 1090.91 440.01 1092.01 440.396C1093.11 440.783 1094.32 440.964 1095.55 440.966C1097.89 440.96 1100.39 440.292 1101.99 438.69C1103.5 437.16 1104.08 435.339 1104.08 433.566C1104.07 431.355 1103.22 429.163 1102.06 427.261C1096.88 418.841 1085.65 412.954 1073.6 412.331C1072.9 412.296 1072.21 412.278 1071.52 412.278C1060.16 412.289 1049.03 416.887 1042.85 424.265C1041.39 426.023 1040.24 428.206 1040.23 430.426C1040.23 431.197 1040.37 431.979 1040.74 432.726C1041.1 433.472 1041.68 434.182 1042.48 434.778C1043.81 435.771 1045.54 436.208 1047.2 436.201C1049.11 436.197 1050.96 435.674 1052.52 434.827C1054.07 433.975 1055.36 432.776 1056 431.309C1056.41 430.365 1056.59 429.403 1056.59 428.455C1056.57 425.479 1054.89 422.678 1052.94 420.348C1045.37 411.419 1031.74 406.009 1018.01 406C1015.5 406 1012.99 406.183 1010.5 406.562C1002.48 407.788 995.147 411.006 989.432 415.451C983.719 419.895 979.608 425.577 978.083 431.777C977.883 432.594 977.778 433.457 977.778 434.331C977.783 436.065 978.178 437.845 979.207 439.371C979.724 440.132 980.413 440.831 981.317 441.381C982.217 441.931 983.336 442.315 984.582 442.448C984.884 442.481 985.186 442.497 985.485 442.497C987.432 442.494 989.176 441.834 990.496 440.886C991.82 439.933 992.776 438.671 993.144 437.271C993.276 436.76 993.337 436.248 993.337 435.741C993.327 433.402 992.077 431.242 990.482 429.463C985.825 424.312 977.786 421.643 969.808 421.639C967.214 421.639 964.618 421.923 962.13 422.506C952.044 424.884 944.365 431.442 940.845 438.949C939.511 441.802 939.001 444.84 939 447.901C939.003 453.066 940.445 458.32 942.014 462.993L942.353 464H1135.43L1135.84 463.09L1134.19 462.656Z" fill="#CBCBCB"/>
<path d="M1399.85 242.695V240.39H1190.22V242.695L1191.71 240.895C1186.99 237.271 1183.72 230.813 1183.75 224.952C1183.75 222.769 1184.18 220.683 1185.09 218.804C1186.57 215.723 1189.08 213.116 1192.14 211.288C1195.19 209.458 1198.77 208.425 1202.29 208.427C1203.42 208.427 1204.54 208.531 1205.64 208.748C1207.46 209.1 1209.25 209.783 1210.63 210.742C1212.02 211.712 1213.01 212.899 1213.52 214.439L1213.6 214.715L1213.51 214.439C1213.68 214.932 1213.76 215.453 1213.76 215.962C1213.76 216.824 1213.52 217.636 1213.09 218.29V218.288C1212.65 218.943 1212.19 219.323 1211.7 219.576C1211.2 219.828 1210.65 219.955 1210.02 219.955C1209.03 219.961 1207.86 219.611 1206.82 218.966C1205.78 218.33 1204.91 217.412 1204.42 216.446C1203.67 214.99 1203.35 213.339 1203.35 211.523C1203.35 209.49 1203.76 207.282 1204.31 205.118C1209.77 183.661 1226.8 164.707 1248.5 158.627C1253.32 157.271 1258.35 156.61 1263.4 156.61C1281.03 156.598 1298.73 164.707 1308.12 178.89C1310.38 182.276 1312.07 186.187 1312.05 189.679C1312.05 191.645 1311.57 193.482 1310.37 195.282C1309.13 197.163 1306.94 198.283 1304.95 198.272C1303.91 198.267 1302.93 197.998 1302.02 197.387C1301.22 196.85 1300.74 196.262 1300.4 195.58C1300.07 194.9 1299.9 194.1 1299.9 193.178C1299.89 191.756 1300.33 190.069 1301.12 188.437C1301.9 186.807 1303.01 185.237 1304.22 184.02C1310.69 177.483 1320.1 173.678 1329.46 173.685C1330.7 173.685 1331.95 173.752 1333.18 173.888C1343.7 175.026 1353.64 181.224 1359.07 190.032C1360.92 192.998 1362.2 196.46 1362.19 199.558C1362.19 200.966 1361.94 202.299 1361.39 203.555V203.557C1360.72 205.129 1359.19 206.56 1357.42 207.333L1357.22 207.39L1357.11 207.3L1356.92 206.821L1356.96 206.66L1357.18 206.491C1361.63 204.244 1366.73 203.078 1371.8 203.078C1376.91 203.078 1381.99 204.262 1386.4 206.66C1390.41 208.829 1393.39 212.779 1395.36 217.705C1397.33 222.612 1398.25 228.416 1398.25 233.913C1398.25 236.854 1397.99 239.71 1397.51 242.285L1399.85 242.695L1402.19 243.103C1402.72 240.231 1403 237.117 1403 233.913C1403 227.927 1402.03 221.626 1399.8 216.036C1397.56 210.46 1394.01 205.519 1388.72 202.637C1383.54 199.821 1377.66 198.47 1371.8 198.468C1365.98 198.47 1360.16 199.795 1354.98 202.4C1354.08 202.852 1353.33 203.536 1352.86 204.329C1352.38 205.124 1352.17 205.998 1352.17 206.821C1352.18 208.119 1352.64 209.322 1353.49 210.292C1354.32 211.258 1355.67 212.005 1357.22 212C1357.96 212 1358.7 211.834 1359.4 211.528C1362.13 210.306 1364.52 208.181 1365.77 205.348C1366.59 203.465 1366.94 201.496 1366.94 199.558C1366.93 195.271 1365.29 191.143 1363.15 187.66C1356.9 177.583 1345.77 170.64 1333.71 169.308C1332.3 169.151 1330.88 169.075 1329.46 169.075C1318.79 169.084 1308.22 173.346 1300.8 180.826C1299.2 182.435 1297.82 184.385 1296.81 186.494C1295.8 188.603 1295.15 190.88 1295.14 193.178C1295.14 194.658 1295.42 196.156 1296.1 197.55C1296.78 198.947 1297.87 200.21 1299.31 201.176C1301.03 202.34 1303.02 202.884 1304.95 202.882C1308.68 202.868 1312.23 200.95 1314.36 197.79C1316.09 195.22 1316.81 192.403 1316.81 189.679C1316.79 184.797 1314.64 180.217 1312.11 176.393C1301.66 160.676 1282.48 152.009 1263.4 152C1257.92 152 1252.45 152.717 1247.18 154.201C1223.58 160.872 1205.57 181.063 1199.7 204.009C1199.1 206.36 1198.6 208.909 1198.6 211.523C1198.6 213.846 1199 216.25 1200.16 218.502C1201.1 220.319 1202.56 221.794 1204.27 222.854C1205.97 223.908 1207.95 224.56 1210.02 224.564C1211.33 224.567 1212.67 224.29 1213.91 223.659C1215.15 223.032 1216.25 222.05 1217.09 220.782C1218.07 219.304 1218.51 217.617 1218.51 215.962C1218.51 214.978 1218.36 214.001 1218.05 213.063V213.06C1217.21 210.437 1215.45 208.404 1213.39 206.987C1211.32 205.562 1208.94 204.693 1206.58 204.228C1205.16 203.951 1203.72 203.818 1202.29 203.818C1197.82 203.82 1193.42 205.106 1189.64 207.365C1185.87 209.624 1182.7 212.869 1180.78 216.852C1179.55 219.415 1179 222.186 1179 224.952C1179.03 232.39 1182.84 239.876 1188.74 244.493L1189.39 245H1401.84L1402.19 243.103L1399.85 242.695Z" fill="#CBCBCB"/>
<path d="M410.818 531.133V530.265H332.209V531.133L332.766 530.455C330.998 529.091 329.77 526.661 329.783 524.455C329.783 523.633 329.944 522.848 330.284 522.141C330.839 520.982 331.781 520.001 332.928 519.313C334.073 518.624 335.414 518.235 336.733 518.236C337.156 518.236 337.576 518.275 337.99 518.357C338.673 518.489 339.343 518.746 339.863 519.107C340.384 519.472 340.755 519.919 340.944 520.498L340.977 520.603L340.943 520.498C341.004 520.684 341.034 520.88 341.034 521.072C341.034 521.396 340.947 521.702 340.784 521.948V521.947C340.62 522.193 340.447 522.337 340.262 522.432C340.077 522.527 339.869 522.574 339.633 522.574C339.262 522.577 338.821 522.445 338.433 522.202C338.044 521.963 337.715 521.617 337.531 521.254C337.25 520.706 337.132 520.085 337.131 519.401C337.131 518.636 337.284 517.805 337.492 516.99C339.538 508.915 345.923 501.782 354.062 499.494C355.869 498.984 357.756 498.735 359.65 498.735C366.261 498.731 372.9 501.782 376.418 507.12C377.266 508.394 377.902 509.866 377.895 511.18C377.893 511.92 377.713 512.612 377.264 513.289C376.797 513.997 375.979 514.418 375.23 514.414C374.842 514.412 374.473 514.311 374.132 514.081C373.834 513.879 373.652 513.658 373.526 513.401C373.401 513.145 373.337 512.844 373.336 512.497C373.334 511.962 373.5 511.327 373.794 510.713C374.087 510.099 374.506 509.509 374.959 509.051C377.384 506.591 380.914 505.158 384.421 505.161C384.888 505.161 385.355 505.186 385.817 505.237C389.763 505.666 393.489 507.998 395.527 511.313C396.219 512.429 396.699 513.732 396.695 514.898C396.695 515.428 396.601 515.93 396.396 516.402V516.403C396.145 516.995 395.57 517.533 394.909 517.824L394.834 517.846L394.79 517.812L394.721 517.632L394.735 517.571L394.816 517.507C396.488 516.662 398.397 516.223 400.299 516.223C402.217 516.223 404.122 516.669 405.775 517.571C407.278 518.387 408.397 519.874 409.136 521.728C409.875 523.574 410.219 525.759 410.217 527.828C410.217 528.934 410.12 530.009 409.941 530.978L410.818 531.133L411.695 531.286C411.895 530.205 412 529.033 412 527.828C411.999 525.575 411.636 523.203 410.798 521.1C409.961 519.001 408.63 517.141 406.646 516.057C404.701 514.997 402.499 514.489 400.299 514.488C398.118 514.489 395.935 514.988 393.994 515.968C393.654 516.138 393.374 516.395 393.196 516.694C393.016 516.993 392.938 517.322 392.939 517.632C392.941 518.12 393.117 518.573 393.434 518.938C393.746 519.301 394.251 519.582 394.834 519.581C395.108 519.581 395.388 519.518 395.648 519.403C396.675 518.943 397.571 518.143 398.039 517.077C398.347 516.369 398.478 515.628 398.478 514.898C398.473 513.285 397.86 511.731 397.056 510.42C394.711 506.628 390.537 504.015 386.018 503.514C385.487 503.455 384.954 503.426 384.421 503.426C380.422 503.43 376.459 505.033 373.674 507.848C373.077 508.454 372.559 509.188 372.178 509.981C371.8 510.775 371.555 511.632 371.553 512.497C371.553 513.054 371.659 513.618 371.914 514.143C372.167 514.668 372.575 515.144 373.116 515.507C373.763 515.945 374.507 516.15 375.23 516.149C376.631 516.144 377.962 515.422 378.76 514.233C379.407 513.266 379.68 512.206 379.677 511.18C379.671 509.343 378.864 507.619 377.918 506.18C373.996 500.265 366.806 497.003 359.65 497C357.597 497 355.543 497.27 353.566 497.828C344.717 500.339 337.964 507.938 335.761 516.573C335.537 517.458 335.35 518.417 335.35 519.401C335.349 520.276 335.501 521.18 335.935 522.028C336.287 522.711 336.835 523.267 337.475 523.666C338.115 524.062 338.857 524.307 339.633 524.309C340.122 524.31 340.627 524.206 341.091 523.968C341.555 523.732 341.97 523.363 342.284 522.886C342.65 522.33 342.817 521.695 342.817 521.072C342.817 520.701 342.759 520.334 342.645 519.981V519.98C342.328 518.993 341.67 518.227 340.897 517.694C340.12 517.158 339.227 516.831 338.342 516.656C337.809 516.552 337.27 516.501 336.733 516.501C335.057 516.502 333.407 516.986 331.992 517.836C330.576 518.686 329.389 519.908 328.668 521.407C328.205 522.371 328 523.414 328 524.455C328.012 527.254 329.44 530.072 331.653 531.809L331.897 532H411.563L411.695 531.286L410.818 531.133Z" fill="#CBCBCB"/>
<path d="M248.96 143.488V141.976H113.266V143.488L114.227 142.307C111.175 139.931 109.056 135.695 109.077 131.85C109.077 130.418 109.356 129.05 109.942 127.818C110.901 125.797 112.527 124.087 114.506 122.888C116.483 121.687 118.797 121.01 121.075 121.012C121.806 121.012 122.53 121.08 123.244 121.222C124.424 121.453 125.58 121.901 126.477 122.529C127.377 123.166 128.017 123.945 128.344 124.954L128.4 125.136L128.342 124.954C128.447 125.278 128.499 125.62 128.499 125.954C128.499 126.519 128.348 127.051 128.068 127.481V127.479C127.785 127.909 127.487 128.158 127.166 128.324C126.846 128.489 126.488 128.572 126.08 128.572C125.44 128.577 124.68 128.347 124.009 127.924C123.338 127.506 122.77 126.905 122.452 126.271C121.967 125.316 121.764 124.233 121.763 123.042C121.763 121.709 122.026 120.26 122.384 118.841C125.917 104.767 136.939 92.3348 150.989 88.3466C154.108 87.4576 157.365 87.0237 160.633 87.0237C172.046 87.0161 183.506 92.3348 189.579 101.637C191.043 103.858 192.14 106.424 192.128 108.714C192.124 110.004 191.814 111.209 191.04 112.39C190.233 113.623 188.821 114.358 187.528 114.35C186.857 114.347 186.222 114.17 185.633 113.77C185.119 113.418 184.805 113.032 184.586 112.585C184.371 112.139 184.26 111.614 184.259 111.009C184.256 110.076 184.542 108.97 185.049 107.899C185.556 106.83 186.277 105.801 187.061 105.003C191.246 100.715 197.339 98.2189 203.394 98.2235C204.2 98.2235 205.005 98.2673 205.804 98.3565C212.614 99.1033 219.047 103.169 222.565 108.945C223.759 110.891 224.588 113.162 224.58 115.194C224.58 116.118 224.419 116.992 224.065 117.815V117.817C223.631 118.848 222.639 119.787 221.497 120.293L221.368 120.331L221.292 120.272L221.174 119.958L221.197 119.852L221.337 119.742C224.223 118.268 227.519 117.503 230.801 117.503C234.113 117.503 237.401 118.28 240.255 119.852C242.849 121.275 244.781 123.866 246.056 127.097C247.332 130.315 247.926 134.122 247.923 137.728C247.923 139.657 247.755 141.53 247.446 143.219L248.96 143.488L250.474 143.756C250.818 141.872 251 139.83 251 137.728C250.998 133.802 250.372 129.668 248.926 126.002C247.479 122.345 245.182 119.104 241.759 117.214C238.401 115.366 234.599 114.48 230.801 114.479C227.036 114.48 223.268 115.35 219.918 117.058C219.332 117.354 218.849 117.803 218.541 118.324C218.23 118.845 218.095 119.418 218.096 119.958C218.101 120.809 218.404 121.598 218.952 122.235C219.49 122.868 220.361 123.358 221.368 123.355C221.841 123.355 222.325 123.246 222.774 123.045C224.547 122.244 226.093 120.85 226.901 118.992C227.432 117.757 227.658 116.465 227.658 115.194C227.65 112.382 226.592 109.674 225.204 107.39C221.155 100.78 213.951 96.2264 206.15 95.3525C205.233 95.2497 204.313 95.1998 203.394 95.1998C196.49 95.2058 189.649 98.0012 184.842 102.907C183.811 103.962 182.917 105.242 182.26 106.625C181.607 108.008 181.184 109.502 181.181 111.009C181.181 111.98 181.364 112.962 181.804 113.877C182.241 114.793 182.945 115.622 183.879 116.255C184.996 117.019 186.28 117.376 187.528 117.374C189.946 117.365 192.245 116.107 193.622 114.034C194.739 112.349 195.21 110.501 195.205 108.714C195.194 105.512 193.802 102.508 192.168 99.9999C185.397 89.6906 172.986 84.006 160.633 84C157.09 84 153.544 84.4702 150.132 85.4439C134.857 89.8191 123.2 103.063 119.398 118.113C119.01 119.655 118.687 121.328 118.687 123.042C118.685 124.566 118.948 126.143 119.698 127.62C120.305 128.811 121.25 129.779 122.355 130.474C123.461 131.165 124.741 131.593 126.08 131.596C126.925 131.598 127.796 131.416 128.597 131.002C129.399 130.591 130.115 129.947 130.656 129.115C131.289 128.146 131.576 127.039 131.576 125.954C131.576 125.308 131.476 124.667 131.279 124.052V124.05C130.733 122.33 129.598 120.996 128.262 120.067C126.922 119.132 125.38 118.562 123.852 118.257C122.932 118.076 122.001 117.988 121.075 117.988C118.182 117.989 115.334 118.833 112.89 120.315C110.447 121.796 108.397 123.925 107.152 126.537C106.354 128.219 106 130.036 106 131.85C106.02 136.729 108.485 141.639 112.306 144.667L112.727 145H250.246L250.474 143.756L248.96 143.488Z" fill="#CBCBCB"/>
<path d="M1286.82 394.133V393.265H1208.21V394.133L1208.77 393.455C1207 392.091 1205.77 389.661 1205.78 387.455C1205.78 386.633 1205.94 385.848 1206.28 385.141C1206.84 383.982 1207.78 383.001 1208.93 382.313C1210.07 381.624 1211.41 381.235 1212.73 381.236C1213.16 381.236 1213.58 381.275 1213.99 381.357C1214.67 381.489 1215.34 381.746 1215.86 382.107C1216.38 382.472 1216.75 382.919 1216.94 383.498L1216.98 383.603L1216.94 383.498C1217 383.684 1217.03 383.88 1217.03 384.072C1217.03 384.396 1216.95 384.702 1216.78 384.948V384.947C1216.62 385.193 1216.45 385.337 1216.26 385.432C1216.08 385.527 1215.87 385.574 1215.63 385.574C1215.26 385.577 1214.82 385.445 1214.43 385.202C1214.04 384.963 1213.72 384.617 1213.53 384.254C1213.25 383.706 1213.13 383.085 1213.13 382.401C1213.13 381.636 1213.28 380.805 1213.49 379.99C1215.54 371.915 1221.92 364.782 1230.06 362.494C1231.87 361.984 1233.76 361.735 1235.65 361.735C1242.26 361.731 1248.9 364.782 1252.42 370.12C1253.27 371.394 1253.9 372.866 1253.89 374.18C1253.89 374.92 1253.71 375.612 1253.26 376.289C1252.8 376.997 1251.98 377.418 1251.23 377.414C1250.84 377.412 1250.47 377.311 1250.13 377.081C1249.83 376.879 1249.65 376.658 1249.53 376.401C1249.4 376.145 1249.34 375.844 1249.34 375.497C1249.33 374.962 1249.5 374.327 1249.79 373.713C1250.09 373.099 1250.51 372.509 1250.96 372.051C1253.38 369.591 1256.91 368.158 1260.42 368.161C1260.89 368.161 1261.35 368.186 1261.82 368.237C1265.76 368.666 1269.49 370.998 1271.53 374.313C1272.22 375.429 1272.7 376.732 1272.69 377.898C1272.69 378.428 1272.6 378.93 1272.4 379.402V379.403C1272.14 379.995 1271.57 380.533 1270.91 380.824L1270.83 380.846L1270.79 380.812L1270.72 380.632L1270.73 380.571L1270.82 380.507C1272.49 379.662 1274.4 379.223 1276.3 379.223C1278.22 379.223 1280.12 379.669 1281.78 380.571C1283.28 381.387 1284.4 382.874 1285.14 384.728C1285.87 386.574 1286.22 388.759 1286.22 390.828C1286.22 391.934 1286.12 393.009 1285.94 393.978L1286.82 394.133L1287.7 394.286C1287.89 393.205 1288 392.033 1288 390.828C1288 388.575 1287.64 386.203 1286.8 384.1C1285.96 382.001 1284.63 380.141 1282.65 379.057C1280.7 377.997 1278.5 377.489 1276.3 377.488C1274.12 377.489 1271.93 377.988 1269.99 378.968C1269.65 379.138 1269.37 379.395 1269.2 379.694C1269.02 379.993 1268.94 380.322 1268.94 380.632C1268.94 381.12 1269.12 381.573 1269.43 381.938C1269.75 382.301 1270.25 382.582 1270.83 382.581C1271.11 382.581 1271.39 382.518 1271.65 382.403C1272.68 381.943 1273.57 381.143 1274.04 380.077C1274.35 379.369 1274.48 378.628 1274.48 377.898C1274.47 376.285 1273.86 374.731 1273.06 373.42C1270.71 369.628 1266.54 367.015 1262.02 366.514C1261.49 366.455 1260.95 366.426 1260.42 366.426C1256.42 366.43 1252.46 368.033 1249.67 370.848C1249.08 371.454 1248.56 372.188 1248.18 372.981C1247.8 373.775 1247.56 374.632 1247.55 375.497C1247.55 376.054 1247.66 376.618 1247.91 377.143C1248.17 377.668 1248.57 378.144 1249.12 378.507C1249.76 378.945 1250.51 379.15 1251.23 379.149C1252.63 379.144 1253.96 378.422 1254.76 377.233C1255.41 376.266 1255.68 375.206 1255.68 374.18C1255.67 372.343 1254.86 370.619 1253.92 369.18C1250 363.265 1242.81 360.003 1235.65 360C1233.6 360 1231.54 360.27 1229.57 360.828C1220.72 363.339 1213.96 370.938 1211.76 379.573C1211.54 380.458 1211.35 381.417 1211.35 382.401C1211.35 383.276 1211.5 384.18 1211.94 385.028C1212.29 385.711 1212.83 386.267 1213.47 386.666C1214.12 387.062 1214.86 387.307 1215.63 387.309C1216.12 387.31 1216.63 387.206 1217.09 386.968C1217.56 386.732 1217.97 386.363 1218.28 385.886C1218.65 385.33 1218.82 384.695 1218.82 384.072C1218.82 383.701 1218.76 383.334 1218.64 382.981V382.98C1218.33 381.993 1217.67 381.227 1216.9 380.694C1216.12 380.158 1215.23 379.831 1214.34 379.656C1213.81 379.552 1213.27 379.501 1212.73 379.501C1211.06 379.502 1209.41 379.986 1207.99 380.836C1206.58 381.686 1205.39 382.908 1204.67 384.407C1204.21 385.371 1204 386.414 1204 387.455C1204.01 390.254 1205.44 393.072 1207.65 394.809L1207.9 395H1287.56L1287.7 394.286L1286.82 394.133Z" fill="#CBCBCB"/>
<path d="M229.495 376.166V374.332H62.9194V376.166L64.0999 374.734C60.3523 371.85 57.7513 366.711 57.7778 362.047C57.7778 360.311 58.1197 358.651 58.8394 357.156C60.0162 354.704 62.0127 352.63 64.4418 351.175C66.869 349.719 69.7099 348.897 72.5055 348.899C73.4027 348.899 74.2924 348.982 75.1689 349.154C76.6176 349.435 78.0362 349.978 79.1374 350.741C80.2424 351.513 81.0282 352.457 81.4287 353.682L81.4985 353.903L81.4268 353.682C81.5552 354.075 81.6194 354.489 81.6194 354.895C81.6194 355.581 81.4343 356.226 81.0906 356.747V356.745C80.743 357.266 80.3765 357.569 79.9836 357.771C79.5908 357.97 79.1506 358.071 78.6501 358.071C77.8643 358.077 76.9312 357.798 76.1076 357.285C75.2841 356.778 74.5871 356.048 74.1961 355.28C73.6011 354.121 73.3518 352.808 73.3499 351.362C73.3499 349.745 73.6728 347.988 74.1129 346.266C78.4498 329.192 91.98 314.111 109.228 309.273C113.056 308.194 117.055 307.668 121.067 307.668C135.077 307.659 149.146 314.111 156.601 325.396C158.397 328.09 159.744 331.203 159.729 333.981C159.725 335.546 159.344 337.007 158.394 338.44C157.404 339.936 155.67 340.828 154.083 340.818C153.26 340.815 152.479 340.6 151.756 340.114C151.125 339.687 150.74 339.219 150.472 338.676C150.207 338.135 150.071 337.499 150.069 336.765C150.065 335.634 150.417 334.291 151.04 332.993C151.662 331.696 152.547 330.447 153.509 329.479C158.647 324.277 166.127 321.249 173.56 321.255C174.549 321.255 175.537 321.308 176.518 321.416C184.878 322.322 192.775 327.254 197.093 334.262C198.559 336.622 199.577 339.377 199.568 341.842C199.568 342.962 199.369 344.022 198.935 345.022V345.024C198.402 346.275 197.184 347.414 195.782 348.028L195.624 348.074L195.531 348.002L195.386 347.621L195.414 347.493L195.586 347.359C199.129 345.57 203.175 344.642 207.204 344.642C211.269 344.642 215.306 345.585 218.81 347.493C221.995 349.218 224.365 352.362 225.931 356.281C227.497 360.186 228.226 364.804 228.222 369.178C228.222 371.519 228.016 373.791 227.637 375.84L229.495 376.166L231.354 376.491C231.777 374.205 232 371.728 232 369.178C231.998 364.415 231.229 359.401 229.454 354.953C227.678 350.517 224.858 346.585 220.655 344.292C216.534 342.051 211.866 340.976 207.204 340.974C202.582 340.976 197.956 342.031 193.844 344.103C193.125 344.463 192.532 345.007 192.154 345.638C191.772 346.271 191.606 346.966 191.608 347.621C191.614 348.654 191.986 349.611 192.658 350.383C193.319 351.152 194.388 351.746 195.624 351.742C196.205 351.742 196.799 351.61 197.35 351.366C199.526 350.394 201.424 348.703 202.416 346.449C203.068 344.951 203.345 343.384 203.345 341.842C203.336 338.431 202.036 335.146 200.333 332.374C195.363 324.356 186.519 318.832 176.943 317.772C175.817 317.647 174.687 317.587 173.56 317.587C165.084 317.594 156.686 320.985 150.785 326.937C149.52 328.217 148.422 329.768 147.616 331.447C146.815 333.125 146.295 334.937 146.291 336.765C146.291 337.943 146.516 339.135 147.056 340.244C147.593 341.356 148.456 342.361 149.603 343.129C150.974 344.056 152.551 344.488 154.083 344.487C157.051 344.476 159.873 342.95 161.563 340.435C162.934 338.39 163.512 336.149 163.507 333.981C163.494 330.097 161.784 326.452 159.778 323.41C151.467 310.903 136.231 304.007 121.067 304C116.717 304 112.365 304.57 108.175 305.752C89.4243 311.059 75.1141 327.125 70.4466 345.383C69.9706 347.254 69.574 349.283 69.574 351.362C69.5721 353.211 69.8951 355.124 70.8149 356.916C71.5611 358.361 72.7208 359.535 74.0771 360.379C75.4352 361.217 77.0067 361.736 78.6501 361.739C79.6871 361.741 80.7562 361.521 81.7403 361.019C82.7244 360.52 83.6028 359.738 84.2676 358.73C85.044 357.554 85.3972 356.212 85.3972 354.895C85.3972 354.112 85.2744 353.334 85.0327 352.587V352.586C84.3621 350.499 82.9681 348.881 81.3286 347.753C79.6833 346.62 77.7906 345.928 75.915 345.558C74.7854 345.338 73.6426 345.231 72.5055 345.231C68.9544 345.233 65.458 346.256 62.4585 348.054C59.4589 349.851 56.9429 352.433 55.4148 355.603C54.4344 357.642 54 359.847 54 362.047C54.0246 367.966 57.0506 373.923 61.7407 377.597L62.2582 378H231.074L231.354 376.491L229.495 376.166Z" fill="#CBCBCB"/>
</svg>
