<svg width="48" height="35" viewBox="0 0 48 35" fill="none" xmlns="http://www.w3.org/2000/svg">
<path d="M46.818 34.1325V33.2651H-31.7909V34.1325L-31.2337 33.4551C-33.0023 32.0914 -34.2297 29.6608 -34.2172 27.4549C-34.2172 26.6334 -34.0559 25.8484 -33.7163 25.1414C-33.1609 23.9816 -32.2187 23.0005 -31.0724 22.3126C-29.927 21.6239 -28.5863 21.2353 -27.2671 21.2361C-26.8437 21.2361 -26.4238 21.2752 -26.0102 21.3567C-25.3265 21.4894 -24.6571 21.7462 -24.1374 22.1071C-23.6159 22.4723 -23.2451 22.919 -23.0561 23.4985L-23.0232 23.6026L-23.057 23.4985C-22.9964 23.6841 -22.9661 23.8801 -22.9661 24.0718C-22.9661 24.3963 -23.0535 24.7016 -23.2157 24.948V24.9471C-23.3797 25.1935 -23.5526 25.3366 -23.7381 25.432C-23.9235 25.5266 -24.1312 25.5743 -24.3674 25.5743C-24.7382 25.5769 -25.1785 25.445 -25.5672 25.2021C-25.9558 24.9627 -26.2847 24.6175 -26.4693 24.254C-26.75 23.7058 -26.8677 23.0847 -26.8686 22.4011C-26.8686 21.636 -26.7162 20.805 -26.5085 19.9905C-24.4619 11.9154 -18.0768 4.78227 -9.93757 2.49393C-8.13073 1.98386 -6.24367 1.73491 -4.35036 1.73491C2.26107 1.73057 8.90014 4.78228 12.4185 10.1197C13.2662 11.394 13.9017 12.8661 13.8946 14.1803C13.8928 14.9202 13.7127 15.6116 13.2644 16.2891C12.7973 16.9969 11.979 17.4185 11.2302 17.4141C10.8416 17.4124 10.4734 17.3109 10.132 17.081C9.8343 16.8789 9.65246 16.6577 9.52588 16.401C9.40109 16.1451 9.33691 15.8441 9.33602 15.4971C9.33424 14.9619 9.50003 14.3269 9.79419 13.7127C10.0875 13.0994 10.5055 12.5087 10.9592 12.0507C13.3838 9.59056 16.9137 8.1584 20.4213 8.16101C20.8884 8.16101 21.3546 8.18615 21.8172 8.23733C25.7625 8.66585 29.4894 10.9984 31.5271 14.313C32.2189 15.4294 32.6993 16.7323 32.6949 17.8982C32.6949 18.4282 32.6013 18.9296 32.3962 19.4023V19.4032C32.1449 19.9948 31.5699 20.5335 30.9085 20.8241L30.8336 20.8458L30.79 20.8119L30.7213 20.6315L30.7347 20.5708L30.8158 20.5075C32.4881 19.6617 34.3974 19.2228 36.2987 19.2228C38.217 19.2228 40.1219 19.6686 41.7754 20.5708C43.2783 21.3871 44.397 22.8739 45.136 24.7276C45.8749 26.5744 46.219 28.7587 46.2172 30.8276C46.2172 31.9345 46.12 33.0092 45.9409 33.9782L46.818 34.1325L47.6952 34.2861C47.8948 33.2052 48 32.0333 48 30.8276C47.9991 28.5748 47.6363 26.2032 46.7984 24.0996C45.9605 22.0012 44.6297 20.1414 42.6463 19.0571C40.7013 17.997 38.4987 17.4887 36.2987 17.4879C34.1175 17.4887 31.9345 17.9875 29.9939 18.9677C29.6543 19.1378 29.3744 19.3954 29.1962 19.6938C29.0161 19.9931 28.9376 20.3219 28.9385 20.6315C28.9412 21.1199 29.1168 21.5727 29.4342 21.9379C29.7461 22.3014 30.2507 22.5824 30.8336 22.5807C31.1082 22.5807 31.3881 22.5182 31.6484 22.4029C32.6753 21.9431 33.5711 21.1433 34.0391 20.0772C34.3466 19.3685 34.4776 18.6277 34.4776 17.8982C34.4732 16.2847 33.8599 14.7311 33.0559 13.4204C30.7106 9.62786 26.5371 7.01512 22.0178 6.51373C21.4865 6.45475 20.9535 6.4261 20.4213 6.4261C16.4217 6.42957 12.4586 8.03349 9.67386 10.8484C9.07663 11.4539 8.55873 12.1877 8.17811 12.9815C7.80016 13.7752 7.55503 14.6322 7.55325 15.4971C7.55325 16.054 7.65933 16.6178 7.91426 17.1426C8.16742 17.6683 8.57478 18.1437 9.11586 18.5071C9.763 18.9452 10.5073 19.1499 11.2302 19.149C12.6306 19.1438 13.9623 18.4221 14.7601 17.2328C15.4073 16.2656 15.68 15.2056 15.6774 14.1803C15.6711 12.343 14.8644 10.6194 13.9178 9.18026C9.99564 3.2651 2.80571 0.00346756 -4.35036 0C-6.40322 0 -8.45698 0.269802 -10.4341 0.828442C-19.2829 3.33885 -26.0361 10.9377 -28.2387 19.5732C-28.4633 20.458 -28.6505 21.4174 -28.6505 22.4011C-28.6514 23.2755 -28.499 24.1803 -28.0649 25.0278C-27.7128 25.7113 -27.1654 26.2665 -26.5254 26.6655C-25.8845 27.062 -25.1429 27.3075 -24.3674 27.3092C-23.878 27.3101 -23.3735 27.2059 -22.9091 26.9683C-22.4446 26.7323 -22.0302 26.3628 -21.7164 25.8857C-21.35 25.3296 -21.1833 24.6947 -21.1833 24.0718C-21.1833 23.7014 -21.2413 23.3336 -21.3554 22.9806V22.9797C-21.6718 21.9926 -22.3297 21.2275 -23.1034 20.694C-23.8798 20.1579 -24.773 19.8309 -25.6581 19.6557C-26.1912 19.5516 -26.7305 19.5012 -27.2671 19.5012C-28.9429 19.5021 -30.5928 19.9861 -32.0084 20.8362C-33.4239 21.6863 -34.6112 22.9077 -35.3324 24.4067C-35.795 25.3713 -36 26.4139 -36 27.4549C-35.9884 30.2542 -34.5604 33.0717 -32.3471 34.8092L-32.1029 35H47.5632L47.6952 34.2861L46.818 34.1325Z" fill="#CBCBCB"/>
</svg>
