<svg width="95" height="61" viewBox="0 0 95 61" fill="none" xmlns="http://www.w3.org/2000/svg">
<path d="M142.96 59.4882V57.9763H7.26577V59.4882L8.22746 58.3074C5.17466 55.9308 3.05587 51.6946 3.07741 47.85C3.07741 46.4182 3.35594 45.05 3.94218 43.8179C4.9008 41.7965 6.5272 40.0867 8.50597 38.8878C10.4832 37.6874 12.7974 37.01 15.0747 37.0115C15.8056 37.0115 16.5303 37.0796 17.2443 37.2217C18.4245 37.453 19.58 37.9005 20.4771 38.5294C21.3773 39.1659 22.0174 39.9445 22.3436 40.9544L22.4005 41.1359L22.342 40.9544C22.4467 41.278 22.499 41.6196 22.499 41.9538C22.499 42.5192 22.3482 43.0514 22.0682 43.4807V43.4793C21.785 43.9086 21.4865 44.1581 21.1665 44.3244C20.8464 44.4891 20.4879 44.5723 20.0801 44.5723C19.44 44.5769 18.6799 44.347 18.009 43.9237C17.3381 43.5065 16.7704 42.9047 16.4519 42.2713C15.9672 41.3158 15.7641 40.2333 15.7625 39.042C15.7625 37.7085 16.0256 36.2602 16.3841 34.8405C19.917 20.7668 30.9388 8.33481 44.9887 4.34656C48.1077 3.45759 51.3651 3.02369 54.6333 3.02369C66.0459 3.01613 77.5062 8.33483 83.5795 17.6372C85.0428 19.8581 86.1399 22.4237 86.1275 24.7142C86.1245 26.0038 85.8137 27.2088 85.0397 28.3895C84.2334 29.6232 82.8209 30.3579 81.5284 30.3503C80.8575 30.3473 80.222 30.1704 79.6327 29.7698C79.1187 29.4175 78.8048 29.032 78.5863 28.5845C78.3709 28.1385 78.2601 27.6139 78.2586 27.0092C78.2555 26.0764 78.5417 24.9697 79.0495 23.8993C79.5557 22.8304 80.2774 21.8008 81.0606 21.0026C85.2459 16.715 91.3392 14.2189 97.394 14.2235C98.2003 14.2235 99.005 14.2673 99.8036 14.3565C106.614 15.1033 113.047 19.1687 116.565 24.9455C117.759 26.8912 118.588 29.162 118.58 31.1939C118.58 32.1177 118.419 32.9915 118.065 33.8155V33.817C117.631 34.8481 116.639 35.7869 115.497 36.2934L115.368 36.3312L115.292 36.2722L115.174 35.9578L115.197 35.852L115.337 35.7416C118.223 34.2675 121.519 33.5025 124.801 33.5025C128.113 33.5025 131.401 34.2796 134.255 35.852C136.849 37.2746 138.781 39.8659 140.056 43.0967C141.332 46.3154 141.926 50.1223 141.923 53.7281C141.923 55.6572 141.755 57.5303 141.446 59.2191L142.96 59.4882L144.474 59.7558C144.818 57.872 145 55.8295 145 53.7281C144.998 49.8018 144.372 45.6684 142.926 42.0022C141.479 38.345 139.182 35.1036 135.759 33.2138C132.401 31.3663 128.599 30.4804 124.801 30.4788C121.036 30.4804 117.268 31.3497 113.918 33.0581C113.332 33.3544 112.849 33.8034 112.541 34.3235C112.23 34.8451 112.095 35.4181 112.096 35.9578C112.101 36.809 112.404 37.5982 112.952 38.2347C113.49 38.8681 114.361 39.3579 115.368 39.3549C115.841 39.3549 116.325 39.2461 116.774 39.045C118.547 38.2437 120.093 36.8498 120.901 34.9917C121.432 33.7565 121.658 32.4654 121.658 31.1939C121.65 28.3819 120.592 25.6742 119.204 23.3898C115.155 16.78 107.951 12.2264 100.15 11.3525C99.2327 11.2497 98.3126 11.1998 97.394 11.1998C90.4898 11.2058 83.6487 14.0012 78.8418 18.9072C77.8109 19.9624 76.9169 21.2415 76.2598 22.6248C75.6074 24.0082 75.1843 25.5019 75.1812 27.0092C75.1812 27.9798 75.3643 28.9625 75.8044 29.8771C76.2414 30.7933 76.9446 31.6218 77.8786 32.2553C78.9957 33.0188 80.2805 33.3755 81.5284 33.374C83.9457 33.365 86.2445 32.1071 87.6217 30.0344C88.7388 28.3487 89.2096 26.5012 89.2049 24.7142C89.1942 21.5121 87.8017 18.508 86.1675 15.9999C79.3972 5.6906 66.986 0.0060463 54.6333 -3.8147e-06C51.0897 -3.8147e-06 47.5445 0.470226 44.1316 1.44386C28.8569 5.81914 17.1997 19.0629 13.3975 34.1133C13.0098 35.6554 12.6867 37.3275 12.6867 39.042C12.6851 40.5659 12.9482 42.1427 13.6976 43.6198C14.3054 44.8111 15.2501 45.7788 16.3549 46.4742C17.4612 47.1651 18.7414 47.593 20.0801 47.596C20.9249 47.5975 21.7958 47.4161 22.5975 47.0018C23.3991 46.5906 24.1146 45.9466 24.6562 45.115C25.2886 44.146 25.5764 43.0393 25.5764 41.9538C25.5764 41.3082 25.4764 40.6672 25.2794 40.0518V40.0504C24.7332 38.3299 23.5976 36.9964 22.262 36.0666C20.9218 35.1323 19.38 34.5624 17.8521 34.257C16.9319 34.0756 16.001 33.9878 15.0747 33.9878C12.1819 33.9894 9.3338 34.833 6.89033 36.3146C4.44687 37.7962 2.3973 39.9249 1.15249 42.5374C0.353901 44.2186 0 46.0357 0 47.85C0.0200032 52.7287 2.48501 57.6392 6.30561 60.6674L6.72722 61H144.246L144.474 59.7558L142.96 59.4882Z" fill="#CBCBCB"/>
</svg>
