<svg width="84" height="35" viewBox="0 0 84 35" fill="none" xmlns="http://www.w3.org/2000/svg">
<path d="M82.818 34.1325V33.2651H4.20913V34.1325L4.76625 33.4551C2.99774 32.0914 1.7703 29.6608 1.78278 27.4549C1.78278 26.6334 1.94413 25.8484 2.28375 25.1414C2.83908 23.9816 3.78127 23.0005 4.9276 22.3126C6.07303 21.6239 7.41368 21.2353 8.73293 21.2361C9.15634 21.2361 9.57619 21.2752 9.9898 21.3567C10.6735 21.4894 11.3429 21.7462 11.8626 22.1071C12.3841 22.4723 12.7549 22.919 12.9439 23.4985L12.9768 23.6026L12.943 23.4985C13.0036 23.6841 13.0339 23.8801 13.0339 24.0718C13.0339 24.3963 12.9465 24.7016 12.7843 24.948V24.9471C12.6203 25.1935 12.4474 25.3366 12.2619 25.432C12.0765 25.5266 11.8688 25.5743 11.6326 25.5743C11.2618 25.5769 10.8215 25.445 10.4328 25.2021C10.0442 24.9627 9.71526 24.6175 9.53074 24.254C9.24995 23.7058 9.13229 23.0847 9.1314 22.4011C9.1314 21.636 9.28381 20.805 9.4915 19.9905C11.5381 11.9154 17.9232 4.78227 26.0624 2.49393C27.8693 1.98386 29.7563 1.73491 31.6496 1.73491C38.2611 1.73057 44.9001 4.78228 48.4185 10.1197C49.2662 11.394 49.9017 12.8661 49.8946 14.1803C49.8928 14.9202 49.7127 15.6116 49.2644 16.2891C48.7973 16.9969 47.979 17.4185 47.2302 17.4141C46.8416 17.4124 46.4734 17.3109 46.132 17.081C45.8343 16.8789 45.6525 16.6577 45.5259 16.401C45.4011 16.1451 45.3369 15.8441 45.336 15.4971C45.3342 14.9619 45.5 14.3269 45.7942 13.7127C46.0875 13.0994 46.5055 12.5087 46.9592 12.0507C49.3838 9.59056 52.9137 8.1584 56.4213 8.16101C56.8884 8.16101 57.3546 8.18615 57.8172 8.23733C61.7625 8.66585 65.4894 10.9984 67.5271 14.313C68.2189 15.4294 68.6993 16.7323 68.6949 17.8982C68.6949 18.4282 68.6013 18.9296 68.3962 19.4023V19.4032C68.1449 19.9948 67.5699 20.5335 66.9085 20.8241L66.8336 20.8458L66.79 20.8119L66.7213 20.6315L66.7347 20.5708L66.8158 20.5075C68.4881 19.6617 70.3974 19.2228 72.2987 19.2228C74.217 19.2228 76.1219 19.6686 77.7754 20.5708C79.2783 21.3871 80.397 22.8739 81.136 24.7276C81.8749 26.5744 82.219 28.7587 82.2172 30.8276C82.2172 31.9345 82.12 33.0092 81.9409 33.9782L82.818 34.1325L83.6952 34.2861C83.8948 33.2052 84 32.0333 84 30.8276C83.9991 28.5748 83.6363 26.2032 82.7984 24.0996C81.9605 22.0012 80.6297 20.1414 78.6463 19.0571C76.7013 17.997 74.4987 17.4887 72.2987 17.4879C70.1175 17.4887 67.9345 17.9875 65.9939 18.9677C65.6543 19.1378 65.3744 19.3954 65.1962 19.6938C65.0161 19.9931 64.9376 20.3219 64.9385 20.6315C64.9412 21.1199 65.1168 21.5727 65.4342 21.9379C65.7461 22.3014 66.2507 22.5824 66.8336 22.5807C67.1082 22.5807 67.3881 22.5182 67.6484 22.4029C68.6753 21.9431 69.5711 21.1433 70.0391 20.0772C70.3466 19.3685 70.4776 18.6277 70.4776 17.8982C70.4732 16.2847 69.8599 14.7311 69.0559 13.4204C66.7106 9.62786 62.5371 7.01512 58.0178 6.51373C57.4865 6.45475 56.9535 6.4261 56.4213 6.4261C52.4217 6.42957 48.4586 8.03349 45.6739 10.8484C45.0766 11.4539 44.5587 12.1877 44.1781 12.9815C43.8002 13.7752 43.555 14.6322 43.5532 15.4971C43.5532 16.054 43.6593 16.6178 43.9143 17.1426C44.1674 17.6683 44.5748 18.1437 45.1159 18.5071C45.763 18.9452 46.5073 19.1499 47.2302 19.149C48.6306 19.1438 49.9623 18.4221 50.7601 17.2328C51.4073 16.2656 51.68 15.2056 51.6774 14.1803C51.6711 12.343 50.8644 10.6194 49.9178 9.18026C45.9956 3.2651 38.8057 0.00346756 31.6496 0C29.5968 0 27.543 0.269802 25.5659 0.828442C16.7171 3.33885 9.96395 10.9377 7.76133 19.5732C7.5367 20.458 7.34951 21.4174 7.34951 22.4011C7.34862 23.2755 7.50104 24.1803 7.93514 25.0278C8.28724 25.7113 8.83455 26.2665 9.47457 26.6655C10.1155 27.062 10.8571 27.3075 11.6326 27.3092C12.122 27.3101 12.6265 27.2059 13.0909 26.9683C13.5554 26.7323 13.9698 26.3628 14.2836 25.8857C14.65 25.3296 14.8167 24.6947 14.8167 24.0718C14.8167 23.7014 14.7587 23.3336 14.6446 22.9806V22.9797C14.3282 21.9926 13.6703 21.2275 12.8966 20.694C12.1202 20.1579 11.227 19.8309 10.3419 19.6557C9.80884 19.5516 9.26955 19.5012 8.73293 19.5012C7.05712 19.5021 5.40717 19.9861 3.99164 20.8362C2.57612 21.6863 1.38878 22.9077 0.667649 24.4067C0.205018 25.3713 0 26.4139 0 27.4549C0.0115881 30.2542 1.43959 33.0717 3.65291 34.8092L3.89715 35H83.5632L83.6952 34.2861L82.818 34.1325Z" fill="#CBCBCB"/>
</svg>
