<svg width="332" height="324" viewBox="0 0 332 324" fill="none" xmlns="http://www.w3.org/2000/svg">
<path d="M33.3293 240.211C60.7234 224.264 98.6054 234.708 117.996 260.211C119.864 235.463 136.805 212.594 159.507 204.176C162.037 203.237 164.594 202.498 167.161 201.901C166.767 200.178 166.988 198.293 167.954 196.838C169.052 195.187 171.169 194.235 173.041 194.779C174.915 195.321 176.272 197.479 175.767 199.411C176.354 198.06 176.977 196.66 178.085 195.711C179.191 194.763 180.93 194.421 182.056 195.344C183.334 196.391 183.233 198.387 182.977 200.044L182.925 200.356C198.051 200.881 212.583 207.185 223.672 218.959C222.106 206.049 223.449 192.953 227.179 180.574C226.94 180.464 226.697 180.365 226.464 180.242C224.639 179.276 222.988 177.819 222.157 175.89C221.325 173.961 221.452 171.521 222.795 169.927C223.935 168.572 225.99 168.092 227.527 168.826C226.451 167.836 226.185 165.928 227.004 164.633C227.995 163.068 230.108 162.516 231.848 163.05C232.555 163.267 233.183 163.66 233.761 164.128C237.189 157.318 241.363 150.907 246.184 145.071C245.97 144.676 245.771 144.274 245.619 143.849C244.927 141.903 245.158 139.451 246.706 138.125C248.275 136.78 250.659 137.06 252.4 138.214C260.688 129.921 270.419 123.204 281.207 118.777C290.303 115.044 299.944 113.034 309.675 112.579C308.381 111.409 307.59 109.632 307.802 107.88C308.049 105.849 309.782 104.043 311.771 104.001C313.76 103.959 315.636 105.917 315.357 107.944C315.919 107.057 316.498 106.152 317.324 105.524C318.151 104.894 319.29 104.59 320.223 105.032C321.844 105.799 321.92 108.146 321.471 109.921C321.229 110.883 320.88 111.81 320.482 112.715C330.012 113.392 339.465 115.515 348.419 118.984C349.026 117.971 349.61 116.943 350.28 115.973C351.387 114.374 352.815 112.903 354.634 112.302C356.453 111.704 358.707 112.199 359.748 113.847C360.711 115.37 360.404 117.462 359.457 119C358.612 120.369 357.347 121.389 356.056 122.336C369.372 128.864 381.207 138.468 389.982 150.718C389.921 208.024 390.044 266.81 389.982 324.116H4.03427C-7.23871 293.886 5.93353 256.157 33.3293 240.211Z" fill="#7CB32A"/>
<path d="M335.829 133.878C336.822 132.876 337.771 131.577 337.503 130.018C337.386 129.273 336.921 128.496 336.09 128.013C335.256 127.515 334.155 127.476 333.268 127.692C332.372 127.93 331.604 128.379 331.02 128.968C330.442 129.577 330.108 130.319 330.005 131.024C329.766 132.466 330.175 133.81 330.698 135.071C330.746 133.727 330.686 132.389 331.083 131.216C331.297 130.627 331.572 130.1 332.032 129.709C332.479 129.3 333.058 128.98 333.666 128.838C334.883 128.485 336.063 129.067 336.428 130.21C336.835 131.313 336.347 132.62 335.829 133.878Z" fill="#95D325"/>
<path d="M135.329 309.804C136.322 308.802 137.271 307.503 137.003 305.944C136.886 305.199 136.421 304.422 135.59 303.939C134.756 303.441 133.655 303.402 132.768 303.618C131.872 303.856 131.104 304.305 130.52 304.894C129.942 305.503 129.608 306.245 129.505 306.95C129.266 308.392 129.675 309.736 130.198 310.997C130.246 309.653 130.186 308.315 130.583 307.142C130.797 306.553 131.072 306.026 131.532 305.635C131.979 305.226 132.558 304.906 133.166 304.764C134.383 304.411 135.563 304.993 135.928 306.136C136.335 307.239 135.847 308.546 135.329 309.804Z" fill="#95D325"/>
<path d="M317.246 139.573C316.874 138.103 316.432 136.619 315.525 135.27C314.65 133.911 313.025 132.843 311.144 132.605C310.209 132.498 309.164 132.628 308.324 133.11C307.459 133.555 306.85 134.317 306.523 135.105C305.891 136.708 306.047 138.37 306.547 139.902L307.621 139.274C306.68 138.6 305.689 137.933 304.546 137.419C303.415 136.909 302.093 136.561 300.727 136.651C299.396 136.741 298.032 137.191 297.091 138.139C296.123 139.095 295.945 140.463 296.204 141.554C296.453 142.676 296.959 143.65 297.482 144.619C298.021 145.582 298.65 146.503 299.358 147.372C300.795 149.095 302.567 150.596 304.579 151.747C302.773 150.361 301.212 148.768 299.982 147.008C298.767 145.272 297.754 143.307 297.375 141.387C297.199 140.435 297.398 139.518 298.068 138.892C298.738 138.263 299.773 137.891 300.82 137.839C302.936 137.739 304.967 138.911 306.767 140.189L308.449 141.383L307.841 139.563C307.392 138.219 307.206 136.736 307.674 135.458C308.115 134.191 309.469 133.291 311.045 133.425C312.62 133.53 314.071 134.375 315.044 135.549C316.047 136.727 316.627 138.168 317.246 139.573Z" fill="#95D325"/>
<path d="M321.994 202.607C321.809 200.546 322.201 198.529 322.315 196.446C322.369 194.393 322.101 192.12 320.443 190.334C319.613 189.468 318.473 188.821 317.169 188.551C315.875 188.262 314.353 188.507 313.262 189.254C312.154 190.007 311.563 191.118 311.263 192.193C310.968 193.281 310.944 194.392 311.121 195.477L312.452 195.18C311.663 193.428 310.74 191.411 308.611 190.225C307.584 189.666 306.329 189.33 305.052 189.49C303.76 189.628 302.647 190.397 302.05 191.313C300.869 193.184 301.047 195.314 301.607 197.165C302.199 199.035 303.18 200.809 304.554 202.302C303.433 200.664 302.612 198.887 302.25 197.04C301.835 195.234 301.862 193.253 302.937 191.786C303.466 191.077 304.3 190.609 305.211 190.521C306.124 190.427 307.103 190.697 307.906 191.167C309.534 192.118 310.42 193.854 311.159 195.604L313.328 200.746L312.49 195.307C312.204 193.45 312.527 191.276 314.09 190.159C314.862 189.617 315.884 189.405 316.904 189.597C317.919 189.78 318.884 190.284 319.619 190.959C321.096 192.357 321.554 194.449 321.615 196.448C321.737 198.471 321.484 200.579 321.994 202.607Z" fill="#95D325"/>
<path d="M240.778 300.158C240.594 298.097 240.985 296.08 241.099 293.997C241.153 291.944 240.886 289.671 239.227 287.885C238.397 287.019 237.258 286.372 235.953 286.102C234.659 285.813 233.138 286.058 232.046 286.805C230.938 287.558 230.347 288.669 230.047 289.744C229.753 290.832 229.728 291.943 229.905 293.028L231.236 292.731C230.447 290.979 229.524 288.962 227.395 287.776C226.368 287.217 225.113 286.881 223.836 287.041C222.545 287.179 221.432 287.948 220.834 288.864C219.653 290.735 219.831 292.865 220.392 294.716C220.983 296.586 221.964 298.36 223.338 299.853C222.217 298.215 221.396 296.438 221.034 294.591C220.619 292.785 220.646 290.804 221.721 289.337C222.25 288.628 223.084 288.16 223.995 288.072C224.909 287.978 225.887 288.248 226.69 288.718C228.318 289.669 229.205 291.405 229.943 293.155L232.112 298.297L231.274 292.858C230.988 291.001 231.311 288.827 232.874 287.71C233.646 287.168 234.669 286.956 235.688 287.148C236.704 287.331 237.669 287.835 238.403 288.51C239.88 289.908 240.339 292.001 240.399 293.999C240.521 296.022 240.268 298.13 240.778 300.158Z" fill="#95D325"/>
<path d="M259.718 201.834C259.434 199.968 259.107 197.989 257.758 196.352C257.086 195.556 256.186 194.885 255.092 194.516C254.001 194.15 252.693 194.184 251.624 194.667C249.479 195.633 248.24 197.705 248.097 199.753C247.913 201.806 248.543 203.737 249.109 205.559L250.217 205.048C249.202 203.916 247.615 203.388 246.116 203.39C244.61 203.393 243.07 203.964 242.114 205.05C241.162 206.136 240.906 207.584 241.255 208.841C241.581 210.097 242.467 211.263 243.741 211.778C242.594 211.081 241.919 209.926 241.768 208.758C241.624 207.593 241.929 206.373 242.772 205.555C244.449 203.909 247.814 204.084 249.224 205.762L251.206 208.122L250.333 205.251C249.777 203.427 249.27 201.611 249.392 199.841C249.494 198.12 250.502 196.399 252.135 195.589C252.945 195.208 253.887 195.088 254.796 195.328C255.701 195.57 256.541 196.094 257.196 196.769C258.541 198.124 259.126 200.021 259.718 201.834Z" fill="#95D325"/>
<path d="M57.5273 251.861C57.2439 249.995 56.9162 248.016 55.5673 246.379C54.8952 245.583 53.9954 244.911 52.9011 244.542C51.8108 244.177 50.5022 244.21 49.4336 244.694C47.2883 245.659 46.0499 247.731 45.907 249.779C45.7222 251.832 46.353 253.763 46.9187 255.585L48.0265 255.074C47.0116 253.942 45.4249 253.414 43.9253 253.417C42.42 253.419 40.8796 253.99 39.9237 255.076C38.9718 256.163 38.7157 257.611 39.0642 258.868C39.3903 260.124 40.2762 261.29 41.5501 261.805C40.4036 261.107 39.729 259.953 39.5777 258.784C39.4338 257.619 39.7383 256.399 40.5818 255.582C42.2585 253.935 45.6231 254.111 47.0333 255.789L49.0155 258.149L48.1421 255.277C47.5867 253.454 47.0798 251.638 47.2016 249.868C47.3038 248.146 48.3119 246.425 49.9442 245.615C50.7542 245.234 51.6963 245.115 52.6057 245.355C53.5101 245.596 54.3506 246.121 55.0057 246.796C56.3508 248.151 56.9357 250.047 57.5273 251.861Z" fill="#95D325"/>
<path d="M210.378 213.992C210.945 212.005 210.624 209.788 209.473 207.899C208.906 206.954 208.149 206.072 207.144 205.362C206.152 204.667 204.794 204.159 203.363 204.298C201.937 204.448 200.744 205.216 199.991 206.129C199.245 207.056 198.805 208.156 198.808 209.265C198.788 211.479 199.981 213.372 201.162 215.114C200.455 213.177 199.684 211.207 199.891 209.313C200.08 207.517 201.584 205.665 203.528 205.476C204.483 205.362 205.484 205.697 206.338 206.247C207.212 206.784 207.916 207.551 208.535 208.354C209.721 209.994 210.405 211.95 210.378 213.992Z" fill="#95D325"/>
<path d="M207.294 245.129C209.073 244.159 210.593 242.771 211.788 241.17C212.365 240.357 212.856 239.487 213.248 238.575C213.63 237.672 213.958 236.708 214.021 235.676C214.086 234.669 213.94 233.541 213.15 232.609C212.368 231.665 210.892 231.317 209.731 231.626C208.554 231.893 207.558 232.645 206.912 233.495C206.249 234.347 205.822 235.274 205.433 236.155L206.723 236.305C206.424 234.526 206.04 232.617 204.847 230.983C203.67 229.375 201.57 228.17 199.338 228.512C198.24 228.684 197.283 229.305 196.652 230.076C196.014 230.852 195.623 231.762 195.481 232.696C195.241 234.582 195.793 236.365 196.39 238.061C196.073 236.301 195.684 234.489 196.117 232.804C196.492 231.161 197.788 229.602 199.491 229.447C201.166 229.291 202.885 230.278 203.792 231.63C204.746 233.023 205.129 234.739 205.388 236.484L205.736 238.824L206.678 236.634C207.424 234.905 208.322 233.191 210.054 232.79C210.87 232.566 211.704 232.754 212.23 233.32C212.753 233.889 212.958 234.772 212.963 235.643C212.971 236.522 212.738 237.417 212.429 238.302C212.119 239.18 211.709 240.033 211.211 240.841C210.254 242.487 208.888 243.923 207.294 245.129Z" fill="#95D325"/>
<path d="M306.497 243.534C307.128 242.092 307.733 240.611 307.894 239.012C308.096 237.429 307.628 235.678 306.377 234.446C305.765 233.83 304.94 233.34 303.999 233.185C303.062 233.016 302.065 233.214 301.249 233.651C299.62 234.553 298.635 236.186 298.465 237.919L299.657 238.064C300.017 236.446 299.25 234.8 297.972 233.779C296.678 232.705 294.799 232.41 293.195 232.767C291.57 233.096 290.116 234.081 289.224 235.355C288.318 236.626 287.871 238.128 287.875 239.62L289.068 239.403C288.22 237.604 286.208 236.592 284.267 236.521C282.261 236.419 280.388 237.427 279.228 238.789C278.027 240.152 277.436 241.918 277.487 243.623C277.514 245.333 278.036 246.988 278.86 248.464C278.232 246.911 277.856 245.26 277.974 243.636C278.088 242.018 278.723 240.458 279.855 239.285C280.967 238.112 282.592 237.37 284.199 237.531C285.793 237.654 287.365 238.527 287.923 239.85L289.026 242.468L289.117 239.634C289.158 238.354 289.544 237.071 290.305 236.033C291.052 234.986 292.201 234.25 293.494 233.97C294.776 233.685 296.166 233.903 297.131 234.691C298.106 235.461 298.707 236.704 298.475 237.845L299.667 237.991C299.754 236.626 300.557 235.232 301.784 234.473C303.011 233.686 304.732 233.906 305.814 234.956C306.926 235.977 307.482 237.47 307.438 238.989C307.418 240.517 306.941 242.032 306.497 243.534Z" fill="#95D325"/>
<path d="M107.69 278.552C108.32 277.11 108.926 275.63 109.087 274.03C109.288 272.448 108.82 270.696 107.57 269.464C106.957 268.848 106.133 268.359 105.192 268.204C104.254 268.035 103.258 268.232 102.442 268.669C100.812 269.571 99.8271 271.204 99.6571 272.937L100.849 273.082C101.209 271.464 100.443 269.818 99.1645 268.797C97.87 267.723 95.991 267.429 94.3878 267.785C92.7622 268.114 91.3086 269.099 90.4162 270.373C89.5101 271.644 89.0632 273.147 89.0669 274.639L90.2608 274.421C89.4125 272.623 87.4001 271.61 85.4596 271.54C83.4535 271.438 81.5808 272.445 80.4202 273.808C79.219 275.17 78.6279 276.936 78.6794 278.642C78.7066 280.352 79.2285 282.006 80.0528 283.483C79.4245 281.929 79.048 280.279 79.1664 278.654C79.2805 277.037 79.915 275.477 81.0475 274.303C82.1595 273.131 83.7845 272.388 85.3918 272.549C86.9857 272.672 88.5575 273.546 89.1154 274.868L90.2186 277.486L90.3092 274.652C90.3505 273.373 90.7367 272.09 91.497 271.052C92.244 270.005 93.3931 269.268 94.686 268.989C95.9686 268.703 97.3585 268.922 98.3235 269.709C99.2979 270.479 99.8991 271.722 99.6675 272.864L100.859 273.009C100.946 271.644 101.749 270.25 102.977 269.492C104.204 268.704 105.925 268.924 107.007 269.975C108.119 270.996 108.674 272.489 108.631 274.008C108.61 275.535 108.133 277.051 107.69 278.552Z" fill="#95D325"/>
<path d="M316.068 188.606C316.734 187.327 316.342 185.685 315.344 184.521C314.372 183.334 312.699 182.487 310.904 182.608C309.111 182.743 307.611 183.819 306.862 185.129C306.084 186.421 305.993 188.1 306.88 189.266C306.535 187.916 306.969 186.617 307.751 185.606C308.543 184.604 309.739 183.865 311.011 183.79C312.28 183.682 313.593 184.239 314.555 185.117C315.509 186.002 316.169 187.224 316.068 188.606Z" fill="#95D325"/>
<path d="M171.675 267.641C171.928 266.298 171.363 264.836 170.336 263.758C169.318 262.663 167.79 261.906 166.129 261.811C164.468 261.735 162.854 262.334 161.708 263.319C160.553 264.286 159.81 265.683 159.899 267.043C160.394 265.773 161.302 264.779 162.395 264.078C163.492 263.391 164.79 262.991 166.052 263.067C167.315 263.118 168.556 263.646 169.562 264.44C170.562 265.249 171.342 266.33 171.675 267.641Z" fill="#95D325"/>
<path d="M48.1608 302.66C48.4134 301.317 47.8484 299.854 46.8211 298.777C45.8035 297.682 44.275 296.924 42.6146 296.83C40.9529 296.753 39.3397 297.352 38.193 298.338C37.038 299.304 36.2952 300.701 36.3841 302.062C36.8797 300.792 37.7876 299.798 38.8802 299.096C39.9769 298.409 41.275 298.009 42.5369 298.086C43.8002 298.136 45.0413 298.665 46.0478 299.459C47.0474 300.267 47.8276 301.348 48.1608 302.66Z" fill="#95D325"/>
<path d="M303.225 303.493C290.816 282.047 285.999 256.229 289.695 232.22C289.782 231.651 290.687 231.644 290.81 232.207C295.646 254.474 306.888 275.599 323.167 292.94C316.87 296.571 309.522 299.863 303.225 303.493Z" fill="#7BCC3F"/>
<path d="M283.254 308.496C275.649 286.95 273.12 263.833 276.268 241.404C276.348 240.832 277.256 240.807 277.394 241.368C282.358 261.67 292.6 280.921 307.093 297.135C299.692 301.753 291.714 305.706 283.254 308.496Z" fill="#6DB837"/>
<path d="M329.706 270.143C346.575 204.492 340.929 133.723 313.808 70.8708L310.477 72.0157C337.344 134.283 342.937 204.392 326.226 269.43L329.706 270.143Z" fill="#99D536"/>
<path d="M318.597 86.7124C321.648 57.5382 303.062 29.2316 305.303 -1.52588e-05C295.799 9.42735 289.695 22.1031 288.651 34.6517C287.608 47.1979 291.385 60.0179 299.23 70.5537C301.654 73.8094 304.48 76.8732 307.949 79.2954C311.707 81.9193 315.473 83.5129 318.597 86.7124Z" fill="#99D536"/>
<path d="M329.18 126.734C334.697 122.429 338.52 116.72 340.988 110.701C343.455 104.683 344.631 98.3369 345.445 92.0013C347.233 78.0674 347.322 63.9762 345.708 50.0265C330.513 72.9482 323.934 100.789 329.18 126.734Z" fill="#99D536"/>
<path d="M281.807 65.8679C289.505 75.4942 299.497 83.3828 308.127 92.3316C317.338 101.883 324.997 112.67 330.781 124.232C315.772 123.305 301.541 116.826 292.443 105.932C283.345 95.0378 278.759 79.263 281.807 65.8679Z" fill="#99D536"/>
<path d="M337.549 195.103C335.668 182.047 329.55 169.716 321.563 158.72C313.575 147.724 303.736 137.944 293.732 128.401C292.697 142.225 296.267 156.831 304.185 168.68C312.104 180.528 323.557 189.539 337.549 195.103Z" fill="#99D536"/>
<path d="M335.012 244.296C334.376 234.172 328.538 224.956 322.492 216.38C314.902 205.614 306.741 195.172 298.046 185.098C294.202 197.139 296.197 210.764 302.668 221.867C309.138 232.971 321.78 240.228 335.012 244.296Z" fill="#99D536"/>
<path d="M329.935 240.127C326.402 236.506 323.018 232.793 319.877 228.925C316.74 225.059 313.765 221.089 311.123 216.944C308.384 212.849 305.974 208.588 303.753 204.248L302.129 200.974L300.614 197.657L299.157 194.313C298.715 193.185 298.258 192.06 297.787 190.934C298.113 192.097 298.452 193.258 298.806 194.414L299.972 197.863L301.311 201.261L302.769 204.624C304.804 209.079 307.248 213.382 309.92 217.565C312.687 221.698 315.678 225.72 319.025 229.496C322.369 233.274 325.986 236.858 329.935 240.127Z" fill="#658F2B"/>
<path d="M334.166 190.1C330.206 186.018 326.394 181.839 322.829 177.5C319.266 173.16 315.867 168.713 312.802 164.082C309.641 159.503 306.81 154.748 304.167 149.908L302.229 146.258L300.398 142.559L298.627 138.835C298.08 137.577 297.517 136.324 296.943 135.071C297.377 136.365 297.824 137.658 298.287 138.947L299.776 142.784L301.437 146.566L303.215 150.306C305.676 155.262 308.541 160.053 311.635 164.717C314.821 169.33 318.231 173.825 321.997 178.071C325.759 182.316 329.796 186.366 334.166 190.1Z" fill="#658F2B"/>
<path d="M326.552 118.396C321.779 115.761 317.683 112.328 314.005 108.597C310.329 104.855 306.947 100.868 303.571 96.8629C300.117 92.9155 296.71 88.9364 293.212 85.0184L287.944 79.1562C286.148 77.2302 284.39 75.2773 282.56 73.3721C284.144 75.4448 285.797 77.4699 287.414 79.5206L292.382 85.592C295.709 89.6285 299.127 93.6052 302.498 97.6125C305.959 101.549 309.348 105.574 313.238 109.232C315.191 111.05 317.243 112.789 319.447 114.361C321.676 115.901 324.025 117.311 326.552 118.396Z" fill="#658F2B"/>
<path d="M317.246 81.7097L311.306 63.6471C309.384 57.6205 307.511 51.5842 306.053 45.4748C304.482 39.3862 303.319 33.2269 302.58 27.0299L302.117 22.3732L301.875 17.702L301.813 13.0235L301.979 8.33768L301.433 13.0101L301.172 17.7045L301.213 22.4086L301.48 27.109C301.997 33.373 303.181 39.5822 304.651 45.7257C306.235 51.8509 308.097 57.9177 310.25 63.9052C312.401 69.8941 314.744 75.8244 317.246 81.7097Z" fill="#658F2B"/>
<path d="M331.627 119.23C332.968 114.063 334.159 108.873 335.327 103.679C336.498 98.4857 337.545 93.2736 338.66 88.0713C339.663 82.8518 340.727 77.6422 341.674 72.4141L343.068 64.5664C343.482 61.9431 343.944 59.3273 344.316 56.6966C343.631 59.2781 343.035 61.8731 342.392 64.4607L340.613 72.2481C339.446 77.4418 338.394 82.6539 337.282 87.8562C336.282 93.0757 335.214 98.2853 334.27 103.513C333.324 108.743 332.399 113.974 331.627 119.23Z" fill="#658F2B"/>
<path d="M310.408 310.959C335.502 319.889 361.527 315.11 376.58 310.7C383.741 308.606 387.025 301.08 383.499 295.02C381.039 290.795 377.944 285.807 374.377 280.818C374.147 280.474 373.89 280.129 373.647 279.784C369.796 274.475 365.459 269.252 360.865 265.052C360.54 264.744 360.216 264.449 359.878 264.165C353.919 258.943 347.582 255.543 341.379 256.011C329.042 256.923 317.962 271.112 310.3 284.169C310.084 284.551 309.868 284.92 309.651 285.29C308.841 286.706 308.07 288.098 307.34 289.453C307.138 289.847 306.935 290.229 306.733 290.598C305.692 292.594 304.746 294.478 303.908 296.215C301.151 301.93 304.03 308.693 310.408 310.959Z" fill="#8EAC6E"/>
<path d="M307.94 284.674C311.684 285.552 315.565 285.984 319.445 285.984C326.363 285.984 333.279 284.6 339.502 281.843C347.957 278.097 355.024 271.854 359.545 264.363C359.218 264.054 358.891 263.757 358.55 263.472C354.153 270.865 347.222 277.046 338.903 280.73C329.59 284.859 318.642 285.824 308.593 283.549C308.376 283.932 308.158 284.303 307.94 284.674Z" fill="#C2E79C"/>
<path d="M307.939 292.76C315.307 294.349 322.905 295.155 330.504 295.155C335.641 295.155 340.779 294.787 345.861 294.05C357.488 292.357 367.682 288.752 375.618 283.616C375.388 283.294 375.131 282.971 374.888 282.649C367.1 287.704 357.083 291.251 345.632 292.91C333.328 294.695 320.634 294.269 308.547 291.689C308.345 292.058 308.142 292.415 307.939 292.76Z" fill="#C2E79C"/>
<path d="M292.313 312.36C310.68 318.809 329.73 315.357 340.748 312.174C345.99 310.66 348.394 305.225 345.812 300.849C344.012 297.798 341.747 294.194 339.136 290.592C338.968 290.342 338.78 290.094 338.602 289.844C335.783 286.01 332.608 282.239 329.245 279.205C329.008 278.983 328.771 278.769 328.523 278.565C324.161 274.793 319.522 272.337 314.982 272.675C305.952 273.333 297.842 283.581 292.234 293.012C292.076 293.287 291.917 293.554 291.759 293.822C291.165 294.845 290.601 295.85 290.068 296.827C289.919 297.112 289.771 297.388 289.623 297.655C288.861 299.096 288.169 300.457 287.555 301.711C285.538 305.839 287.644 310.722 292.313 312.36Z" fill="#98B97A"/>
<path d="M291.865 294.234C294.566 294.85 297.366 295.155 300.165 295.155C305.154 295.155 310.143 294.181 314.632 292.241C320.731 289.605 325.829 285.213 329.089 279.94C328.853 279.723 328.618 279.514 328.373 279.314C325.2 284.516 320.201 288.865 314.2 291.457C307.482 294.363 299.585 295.042 292.337 293.442C292.18 293.711 292.022 293.972 291.865 294.234Z" fill="#C2E79C"/>
<path d="M289.327 298.242C294.761 299.513 300.365 300.158 305.967 300.158C309.757 300.158 313.545 299.864 317.294 299.273C325.869 297.92 333.387 295.035 339.24 290.927C339.07 290.669 338.881 290.411 338.702 290.153C332.959 294.197 325.57 297.035 317.125 298.361C308.052 299.789 298.69 299.45 289.775 297.385C289.625 297.68 289.477 297.965 289.327 298.242Z" fill="#C2E79C"/>
</svg>
