<svg width="360" height="506" viewBox="0 0 360 506" fill="none" xmlns="http://www.w3.org/2000/svg">
<path d="M407.96 265.488V263.976H272.266V265.488L273.227 264.307C270.175 261.931 268.056 257.695 268.077 253.85C268.077 252.418 268.356 251.05 268.942 249.818C269.901 247.797 271.527 246.087 273.506 244.888C275.483 243.687 277.797 243.01 280.075 243.012C280.806 243.012 281.53 243.08 282.244 243.222C283.424 243.453 284.58 243.901 285.477 244.529C286.377 245.166 287.017 245.945 287.344 246.954L287.4 247.136L287.342 246.954C287.447 247.278 287.499 247.62 287.499 247.954C287.499 248.519 287.348 249.051 287.068 249.481V249.479C286.785 249.909 286.487 250.158 286.166 250.324C285.846 250.489 285.488 250.572 285.08 250.572C284.44 250.577 283.68 250.347 283.009 249.924C282.338 249.506 281.77 248.905 281.452 248.271C280.967 247.316 280.764 246.233 280.763 245.042C280.763 243.709 281.026 242.26 281.384 240.841C284.917 226.767 295.939 214.335 309.989 210.347C313.108 209.458 316.365 209.024 319.633 209.024C331.046 209.016 342.506 214.335 348.579 223.637C350.043 225.858 351.14 228.424 351.128 230.714C351.124 232.004 350.814 233.209 350.04 234.39C349.233 235.623 347.821 236.358 346.528 236.35C345.857 236.347 345.222 236.17 344.633 235.77C344.119 235.418 343.805 235.032 343.586 234.585C343.371 234.139 343.26 233.614 343.259 233.009C343.256 232.076 343.542 230.97 344.049 229.899C344.556 228.83 345.277 227.801 346.061 227.003C350.246 222.715 356.339 220.219 362.394 220.223C363.2 220.223 364.005 220.267 364.804 220.356C371.614 221.103 378.047 225.169 381.565 230.945C382.759 232.891 383.588 235.162 383.58 237.194C383.58 238.118 383.419 238.992 383.065 239.815V239.817C382.631 240.848 381.639 241.787 380.497 242.293L380.368 242.331L380.292 242.272L380.174 241.958L380.197 241.852L380.337 241.742C383.223 240.268 386.519 239.503 389.801 239.503C393.113 239.503 396.401 240.28 399.255 241.852C401.849 243.275 403.781 245.866 405.056 249.097C406.332 252.315 406.926 256.122 406.923 259.728C406.923 261.657 406.755 263.53 406.446 265.219L407.96 265.488L409.474 265.756C409.818 263.872 410 261.83 410 259.728C409.998 255.802 409.372 251.668 407.926 248.002C406.479 244.345 404.182 241.104 400.759 239.214C397.401 237.366 393.599 236.48 389.801 236.479C386.036 236.48 382.268 237.35 378.918 239.058C378.332 239.354 377.849 239.803 377.541 240.324C377.23 240.845 377.095 241.418 377.096 241.958C377.101 242.809 377.404 243.598 377.952 244.235C378.49 244.868 379.361 245.358 380.368 245.355C380.841 245.355 381.325 245.246 381.774 245.045C383.547 244.244 385.093 242.85 385.901 240.992C386.432 239.757 386.658 238.465 386.658 237.194C386.65 234.382 385.592 231.674 384.204 229.39C380.155 222.78 372.951 218.226 365.15 217.353C364.233 217.25 363.313 217.2 362.394 217.2C355.49 217.206 348.649 220.001 343.842 224.907C342.811 225.962 341.917 227.242 341.26 228.625C340.607 230.008 340.184 231.502 340.181 233.009C340.181 233.98 340.364 234.962 340.804 235.877C341.241 236.793 341.945 237.622 342.879 238.255C343.996 239.019 345.28 239.376 346.528 239.374C348.946 239.365 351.245 238.107 352.622 236.034C353.739 234.349 354.21 232.501 354.205 230.714C354.194 227.512 352.802 224.508 351.168 222C344.397 211.691 331.986 206.006 319.633 206C316.09 206 312.544 206.47 309.132 207.444C293.857 211.819 282.2 225.063 278.398 240.113C278.01 241.655 277.687 243.328 277.687 245.042C277.685 246.566 277.948 248.143 278.698 249.62C279.305 250.811 280.25 251.779 281.355 252.474C282.461 253.165 283.741 253.593 285.08 253.596C285.925 253.598 286.796 253.416 287.597 253.002C288.399 252.591 289.115 251.947 289.656 251.115C290.289 250.146 290.576 249.039 290.576 247.954C290.576 247.308 290.476 246.667 290.279 246.052V246.05C289.733 244.33 288.598 242.996 287.262 242.067C285.922 241.132 284.38 240.562 282.852 240.257C281.932 240.076 281.001 239.988 280.075 239.988C277.182 239.989 274.334 240.833 271.89 242.315C269.447 243.796 267.397 245.925 266.152 248.537C265.354 250.219 265 252.036 265 253.85C265.02 258.729 267.485 263.639 271.306 266.667L271.727 267H409.246L409.474 265.756L407.96 265.488Z" fill="#CBCBCB"/>
<path d="M87.818 505.133V504.265H9.20913V505.133L9.76625 504.455C7.99774 503.091 6.7703 500.661 6.78278 498.455C6.78278 497.633 6.94413 496.848 7.28375 496.141C7.83908 494.982 8.78127 494.001 9.9276 493.313C11.073 492.624 12.4137 492.235 13.7329 492.236C14.1563 492.236 14.5762 492.275 14.9898 492.357C15.6735 492.489 16.3429 492.746 16.8626 493.107C17.3841 493.472 17.7549 493.919 17.9439 494.498L17.9768 494.603L17.943 494.498C18.0036 494.684 18.0339 494.88 18.0339 495.072C18.0339 495.396 17.9465 495.702 17.7843 495.948V495.947C17.6203 496.193 17.4474 496.337 17.2619 496.432C17.0765 496.527 16.8688 496.574 16.6326 496.574C16.2618 496.577 15.8215 496.445 15.4328 496.202C15.0442 495.963 14.7153 495.617 14.5307 495.254C14.25 494.706 14.1323 494.085 14.1314 493.401C14.1314 492.636 14.2838 491.805 14.4915 490.99C16.5381 482.915 22.9232 475.782 31.0624 473.494C32.8693 472.984 34.7563 472.735 36.6496 472.735C43.2611 472.731 49.9001 475.782 53.4185 481.12C54.2662 482.394 54.9017 483.866 54.8946 485.18C54.8928 485.92 54.7128 486.612 54.2644 487.289C53.7973 487.997 52.979 488.418 52.2302 488.414C51.8416 488.412 51.4734 488.311 51.132 488.081C50.8343 487.879 50.6525 487.658 50.5259 487.401C50.4011 487.145 50.3369 486.844 50.336 486.497C50.3342 485.962 50.5 485.327 50.7942 484.713C51.0875 484.099 51.5055 483.509 51.9592 483.051C54.3838 480.591 57.9137 479.158 61.4213 479.161C61.8884 479.161 62.3546 479.186 62.8172 479.237C66.7625 479.666 70.4894 481.998 72.5271 485.313C73.2189 486.429 73.6993 487.732 73.6949 488.898C73.6949 489.428 73.6013 489.93 73.3962 490.402V490.403C73.1449 490.995 72.5699 491.533 71.9085 491.824L71.8336 491.846L71.79 491.812L71.7213 491.632L71.7347 491.571L71.8158 491.507C73.4881 490.662 75.3974 490.223 77.2987 490.223C79.217 490.223 81.1219 490.669 82.7754 491.571C84.2783 492.387 85.397 493.874 86.136 495.728C86.8749 497.574 87.219 499.759 87.2172 501.828C87.2172 502.934 87.1201 504.009 86.9409 504.978L87.818 505.133L88.6951 505.286C88.8948 504.205 89 503.033 89 501.828C88.9991 499.575 88.6363 497.203 87.7984 495.1C86.9605 493.001 85.6297 491.141 83.6463 490.057C81.7013 488.997 79.4987 488.489 77.2987 488.488C75.1175 488.489 72.9345 488.988 70.994 489.968C70.6543 490.138 70.3744 490.395 70.1962 490.694C70.0161 490.993 69.9376 491.322 69.9385 491.632C69.9412 492.12 70.1168 492.573 70.4342 492.938C70.7461 493.301 71.2507 493.582 71.8336 493.581C72.1082 493.581 72.3881 493.518 72.6484 493.403C73.6753 492.943 74.5711 492.143 75.0391 491.077C75.3466 490.369 75.4776 489.628 75.4776 488.898C75.4732 487.285 74.8599 485.731 74.0559 484.42C71.7106 480.628 67.5371 478.015 63.0178 477.514C62.4865 477.455 61.9535 477.426 61.4213 477.426C57.4217 477.43 53.4586 479.033 50.6739 481.848C50.0766 482.454 49.5587 483.188 49.1781 483.981C48.8002 484.775 48.555 485.632 48.5532 486.497C48.5532 487.054 48.6593 487.618 48.9143 488.143C49.1674 488.668 49.5748 489.144 50.1159 489.507C50.763 489.945 51.5073 490.15 52.2302 490.149C53.6306 490.144 54.9623 489.422 55.7601 488.233C56.4073 487.266 56.68 486.206 56.6774 485.18C56.6711 483.343 55.8644 481.619 54.9178 480.18C50.9956 474.265 43.8057 471.003 36.6496 471C34.5968 471 32.543 471.27 30.5659 471.828C21.7171 474.339 14.9639 481.938 12.7613 490.573C12.5367 491.458 12.3495 492.417 12.3495 493.401C12.3486 494.276 12.501 495.18 12.9351 496.028C13.2872 496.711 13.8346 497.267 14.4746 497.666C15.1155 498.062 15.8571 498.307 16.6326 498.309C17.122 498.31 17.6265 498.206 18.0909 497.968C18.5554 497.732 18.9698 497.363 19.2836 496.886C19.65 496.33 19.8167 495.695 19.8167 495.072C19.8167 494.701 19.7587 494.334 19.6446 493.981V493.98C19.3282 492.993 18.6703 492.227 17.8966 491.694C17.1202 491.158 16.227 490.831 15.3419 490.656C14.8088 490.552 14.2695 490.501 13.7329 490.501C12.0571 490.502 10.4072 490.986 8.99164 491.836C7.57612 492.686 6.38878 493.908 5.66765 495.407C5.20502 496.371 5 497.414 5 498.455C5.01159 501.254 6.43959 504.072 8.65291 505.809L8.89715 506H88.5632L88.6951 505.286L87.818 505.133Z" fill="#CBCBCB"/>
<path d="M46.818 34.1325V33.2651H-31.7909V34.1325L-31.2337 33.4551C-33.0023 32.0914 -34.2297 29.6608 -34.2172 27.4549C-34.2172 26.6334 -34.0559 25.8484 -33.7163 25.1414C-33.1609 23.9816 -32.2187 23.0005 -31.0724 22.3126C-29.927 21.6239 -28.5863 21.2353 -27.2671 21.2361C-26.8437 21.2361 -26.4238 21.2752 -26.0102 21.3567C-25.3265 21.4894 -24.6571 21.7462 -24.1374 22.1071C-23.6159 22.4723 -23.2451 22.919 -23.0561 23.4985L-23.0232 23.6026L-23.057 23.4985C-22.9964 23.6841 -22.9661 23.8801 -22.9661 24.0718C-22.9661 24.3963 -23.0535 24.7016 -23.2157 24.948V24.9471C-23.3797 25.1935 -23.5526 25.3366 -23.7381 25.432C-23.9235 25.5266 -24.1312 25.5743 -24.3674 25.5743C-24.7382 25.5769 -25.1785 25.445 -25.5672 25.2021C-25.9558 24.9627 -26.2847 24.6175 -26.4693 24.254C-26.75 23.7058 -26.8677 23.0847 -26.8686 22.4011C-26.8686 21.636 -26.7162 20.805 -26.5085 19.9905C-24.4619 11.9154 -18.0768 4.78227 -9.93757 2.49393C-8.13073 1.98386 -6.24367 1.73491 -4.35036 1.73491C2.26107 1.73057 8.90014 4.78228 12.4185 10.1197C13.2662 11.394 13.9017 12.8661 13.8946 14.1803C13.8928 14.9202 13.7128 15.6116 13.2644 16.2891C12.7973 16.9969 11.979 17.4185 11.2302 17.4141C10.8416 17.4124 10.4734 17.3109 10.132 17.081C9.8343 16.8789 9.65246 16.6577 9.52588 16.401C9.40109 16.1451 9.33691 15.8441 9.33602 15.4971C9.33424 14.9619 9.50003 14.3269 9.79419 13.7127C10.0875 13.0994 10.5055 12.5087 10.9592 12.0507C13.3838 9.59055 16.9137 8.1584 20.4213 8.16101C20.8884 8.16101 21.3546 8.18615 21.8172 8.23733C25.7625 8.66585 29.4894 10.9984 31.5271 14.313C32.2189 15.4294 32.6993 16.7323 32.6949 17.8982C32.6949 18.4282 32.6013 18.9296 32.3962 19.4023V19.4032C32.1449 19.9948 31.5699 20.5335 30.9085 20.8241L30.8336 20.8458L30.79 20.8119L30.7213 20.6315L30.7347 20.5708L30.8158 20.5075C32.4881 19.6617 34.3974 19.2228 36.2987 19.2228C38.217 19.2228 40.1219 19.6686 41.7754 20.5708C43.2783 21.3871 44.397 22.8739 45.136 24.7276C45.8749 26.5744 46.219 28.7587 46.2172 30.8276C46.2172 31.9345 46.1201 33.0092 45.9409 33.9782L46.818 34.1325L47.6951 34.2861C47.8948 33.2052 48 32.0333 48 30.8276C47.9991 28.5748 47.6363 26.2032 46.7984 24.0996C45.9605 22.0012 44.6297 20.1414 42.6463 19.0571C40.7013 17.997 38.4987 17.4887 36.2987 17.4879C34.1175 17.4887 31.9345 17.9875 29.994 18.9677C29.6543 19.1378 29.3744 19.3954 29.1962 19.6938C29.0161 19.9931 28.9376 20.3219 28.9385 20.6315C28.9412 21.1199 29.1168 21.5727 29.4342 21.9379C29.7461 22.3014 30.2507 22.5824 30.8336 22.5807C31.1082 22.5807 31.3881 22.5182 31.6484 22.4029C32.6753 21.9431 33.5711 21.1433 34.0391 20.0772C34.3466 19.3685 34.4776 18.6277 34.4776 17.8982C34.4732 16.2847 33.8599 14.7311 33.0559 13.4204C30.7106 9.62786 26.5371 7.01512 22.0178 6.51373C21.4865 6.45475 20.9535 6.4261 20.4213 6.4261C16.4217 6.42957 12.4586 8.03349 9.67386 10.8484C9.07663 11.4539 8.55874 12.1877 8.17811 12.9815C7.80016 13.7752 7.55503 14.6322 7.55325 15.4971C7.55325 16.054 7.65933 16.6178 7.91427 17.1426C8.16742 17.6683 8.57478 18.1437 9.11586 18.5071C9.763 18.9452 10.5073 19.1499 11.2302 19.149C12.6306 19.1438 13.9623 18.4221 14.7601 17.2328C15.4073 16.2656 15.68 15.2056 15.6774 14.1803C15.6711 12.343 14.8644 10.6194 13.9178 9.18026C9.99564 3.2651 2.80571 0.00346937 -4.35036 -4.46047e-07C-6.40322 -4.46047e-07 -8.45698 0.269803 -10.4341 0.828443C-19.2829 3.33885 -26.0361 10.9377 -28.2387 19.5732C-28.4633 20.458 -28.6505 21.4174 -28.6505 22.4011C-28.6514 23.2755 -28.499 24.1803 -28.0649 25.0278C-27.7128 25.7113 -27.1654 26.2665 -26.5254 26.6655C-25.8845 27.062 -25.1429 27.3075 -24.3674 27.3092C-23.878 27.3101 -23.3735 27.2059 -22.9091 26.9683C-22.4446 26.7323 -22.0302 26.3628 -21.7164 25.8857C-21.35 25.3296 -21.1833 24.6947 -21.1833 24.0718C-21.1833 23.7014 -21.2413 23.3336 -21.3554 22.9806V22.9797C-21.6718 21.9926 -22.3297 21.2275 -23.1034 20.694C-23.8798 20.1579 -24.773 19.8309 -25.6581 19.6557C-26.1912 19.5516 -26.7305 19.5012 -27.2671 19.5012C-28.9429 19.5021 -30.5928 19.9861 -32.0084 20.8362C-33.4239 21.6863 -34.6112 22.9077 -35.3324 24.4067C-35.795 25.3713 -36 26.4139 -36 27.4549C-35.9884 30.2542 -34.5604 33.0717 -32.3471 34.8092L-32.1029 35H47.5632L47.6951 34.2861L46.818 34.1325Z" fill="#CBCBCB"/>
</svg>
