<svg width="461" height="379" viewBox="0 0 461 379" fill="none" xmlns="http://www.w3.org/2000/svg">
<path d="M39.3969 278.366C71.7782 259.241 116.557 271.766 139.478 302.355C141.686 272.673 161.711 245.244 188.546 235.148C191.536 234.022 194.559 233.135 197.593 232.419C197.128 230.353 197.388 228.091 198.53 226.346C199.828 224.366 202.33 223.225 204.544 223.877C206.759 224.527 208.362 227.115 207.765 229.433C208.459 227.812 209.196 226.133 210.505 224.995C211.813 223.858 213.868 223.448 215.2 224.554C216.71 225.81 216.591 228.204 216.288 230.192L216.226 230.567C234.107 231.196 251.284 238.757 264.392 252.878C262.541 237.394 264.128 221.687 268.537 206.84C268.255 206.708 267.967 206.59 267.692 206.442C265.535 205.283 263.583 203.536 262.601 201.222C261.618 198.908 261.767 195.983 263.355 194.071C264.702 192.446 267.132 191.869 268.948 192.751C267.677 191.563 267.362 189.274 268.33 187.721C269.502 185.844 271.999 185.182 274.057 185.822C274.892 186.082 275.634 186.554 276.318 187.115C280.369 178.948 285.304 171.259 291.003 164.259C290.749 163.785 290.514 163.303 290.335 162.793C289.517 160.46 289.79 157.519 291.619 155.929C293.474 154.315 296.292 154.651 298.35 156.035C308.147 146.088 319.649 138.032 332.401 132.723C343.152 128.246 354.55 125.835 366.051 125.29C364.523 123.886 363.587 121.754 363.838 119.654C364.129 117.218 366.178 115.051 368.529 115.001C370.88 114.95 373.098 117.299 372.768 119.73C373.433 118.666 374.117 117.581 375.094 116.827C376.071 116.072 377.417 115.707 378.52 116.237C380.437 117.157 380.525 119.972 379.996 122.102C379.709 123.255 379.297 124.367 378.826 125.453C390.091 126.264 401.265 128.811 411.849 132.971C412.567 131.756 413.257 130.523 414.049 129.36C415.358 127.442 417.046 125.678 419.196 124.958C421.346 124.239 424.01 124.833 425.241 126.81C426.379 128.636 426.015 131.146 424.897 132.991C423.898 134.633 422.402 135.856 420.876 136.992C436.616 144.821 450.606 156.34 460.979 171.032C460.906 239.762 461.052 310.269 460.979 379H4.76876C-8.55651 342.743 7.01379 297.492 39.3969 278.366Z" fill="#7CB32A"/>
<path d="M418.912 154C419.912 152.517 420.716 150.889 420.957 149.097C421.18 147.317 420.542 145.347 418.994 143.987C418.232 143.3 417.192 142.788 416.038 142.643C414.893 142.492 413.708 142.712 412.725 143.165C410.763 144.105 409.462 145.569 408.302 146.982L409.768 147.416C409.784 146.575 409.673 145.732 409.354 144.915C409.044 144.106 408.51 143.294 407.65 142.73C406.814 142.153 405.676 141.9 404.636 142.036C403.596 142.174 402.698 142.629 401.985 143.2C401.266 143.77 400.722 144.488 400.388 145.274C400.076 146.072 399.964 146.877 400.01 147.676C400.124 149.27 400.655 150.751 401.272 152.185C400.987 150.675 400.626 149.159 400.767 147.685C400.845 146.207 401.487 144.831 402.767 143.998C403.994 143.142 405.664 142.934 406.716 143.76C407.773 144.541 408.214 146.009 408.152 147.369L408.05 149.658L409.618 147.802C410.754 146.457 411.934 145.103 413.461 144.373C414.951 143.606 416.789 143.766 418.1 144.813C419.445 145.827 420.181 147.416 420.129 149.061C420.169 150.719 419.568 152.38 418.912 154Z" fill="#95D325"/>
<path d="M396.967 160.569C398.141 159.367 399.263 157.809 398.945 155.939C398.808 155.045 398.258 154.114 397.276 153.535C396.29 152.938 394.988 152.89 393.94 153.15C392.881 153.435 391.973 153.973 391.283 154.68C390.599 155.411 390.205 156.3 390.082 157.146C389.8 158.875 390.284 160.487 390.902 162C390.959 160.388 390.888 158.783 391.358 157.376C391.61 156.67 391.935 156.038 392.478 155.568C393.007 155.078 393.691 154.694 394.411 154.524C395.849 154.101 397.243 154.799 397.675 156.17C398.157 157.492 397.58 159.06 396.967 160.569Z" fill="#95D325"/>
<path d="M159.967 371.569C161.141 370.367 162.263 368.809 161.945 366.939C161.808 366.045 161.258 365.114 160.276 364.535C159.29 363.938 157.988 363.89 156.94 364.15C155.881 364.435 154.973 364.973 154.283 365.68C153.599 366.411 153.205 367.3 153.082 368.146C152.8 369.875 153.284 371.487 153.902 373C153.959 371.388 153.888 369.783 154.358 368.376C154.61 367.67 154.935 367.038 155.478 366.568C156.007 366.078 156.691 365.694 157.411 365.524C158.849 365.101 160.243 365.799 160.675 367.17C161.157 368.492 160.58 370.06 159.967 371.569Z" fill="#95D325"/>
<path d="M375 167.399C374.56 165.636 374.038 163.857 372.965 162.238C371.931 160.608 370.01 159.327 367.787 159.042C366.682 158.913 365.447 159.07 364.454 159.647C363.431 160.182 362.712 161.095 362.325 162.04C361.577 163.963 361.762 165.956 362.353 167.793L363.622 167.041C362.511 166.233 361.338 165.432 359.988 164.815C358.651 164.204 357.088 163.786 355.474 163.895C353.901 164.003 352.288 164.542 351.176 165.679C350.031 166.826 349.82 168.467 350.127 169.774C350.422 171.12 351.019 172.289 351.638 173.451C352.275 174.606 353.019 175.711 353.856 176.753C355.554 178.819 357.648 180.619 360.026 182C357.893 180.337 356.047 178.427 354.593 176.316C353.157 174.234 351.959 171.877 351.512 169.574C351.303 168.433 351.538 167.333 352.331 166.582C353.122 165.828 354.345 165.382 355.584 165.319C358.085 165.199 360.485 166.605 362.613 168.138L364.602 169.57L363.883 167.387C363.352 165.775 363.133 163.997 363.686 162.464C364.206 160.945 365.807 159.865 367.67 160.025C369.531 160.151 371.247 161.165 372.397 162.572C373.583 163.985 374.269 165.714 375 167.399Z" fill="#95D325"/>
<path d="M380.613 243C380.395 240.528 380.858 238.109 380.993 235.61C381.056 233.148 380.74 230.423 378.779 228.28C377.799 227.241 376.452 226.466 374.91 226.142C373.38 225.795 371.582 226.088 370.292 226.985C368.981 227.888 368.283 229.22 367.929 230.509C367.58 231.814 367.551 233.147 367.761 234.449L369.334 234.093C368.401 231.991 367.311 229.572 364.793 228.15C363.58 227.479 362.097 227.076 360.586 227.267C359.06 227.434 357.744 228.355 357.038 229.455C355.642 231.699 355.853 234.253 356.515 236.473C357.214 238.716 358.374 240.843 359.998 242.634C358.673 240.669 357.702 238.538 357.275 236.324C356.784 234.156 356.816 231.781 358.086 230.022C358.712 229.171 359.698 228.61 360.775 228.504C361.854 228.391 363.011 228.715 363.96 229.28C365.884 230.42 366.933 232.501 367.805 234.601L370.369 240.768L369.379 234.245C369.04 232.017 369.422 229.41 371.27 228.07C372.182 227.421 373.391 227.166 374.596 227.396C375.797 227.616 376.937 228.221 377.806 229.029C379.552 230.706 380.094 233.216 380.165 235.613C380.309 238.039 380.01 240.568 380.613 243Z" fill="#95D325"/>
<path d="M284.613 360C284.395 357.528 284.858 355.109 284.993 352.61C285.056 350.148 284.74 347.423 282.779 345.28C281.799 344.241 280.452 343.466 278.91 343.142C277.38 342.795 275.582 343.088 274.292 343.985C272.981 344.888 272.283 346.22 271.929 347.509C271.58 348.814 271.551 350.147 271.761 351.449L273.334 351.093C272.401 348.991 271.311 346.572 268.793 345.15C267.58 344.479 266.097 344.076 264.586 344.267C263.06 344.434 261.744 345.355 261.038 346.455C259.642 348.699 259.853 351.253 260.515 353.473C261.214 355.716 262.374 357.843 263.998 359.634C262.673 357.669 261.702 355.538 261.275 353.324C260.784 351.156 260.816 348.781 262.086 347.022C262.712 346.171 263.698 345.61 264.775 345.504C265.854 345.391 267.011 345.715 267.96 346.28C269.884 347.42 270.933 349.501 271.805 351.601L274.369 357.768L273.379 351.245C273.04 349.017 273.422 346.41 275.27 345.07C276.182 344.421 277.391 344.166 278.596 344.396C279.797 344.616 280.937 345.221 281.806 346.029C283.552 347.706 284.094 350.216 284.165 352.613C284.309 355.039 284.01 357.568 284.613 360Z" fill="#95D325"/>
<path d="M307 242.074C306.665 239.835 306.278 237.462 304.683 235.498C303.889 234.544 302.825 233.738 301.532 233.296C300.243 232.857 298.696 232.897 297.433 233.478C294.897 234.636 293.433 237.121 293.264 239.577C293.046 242.039 293.791 244.355 294.46 246.541L295.77 245.927C294.57 244.57 292.694 243.937 290.922 243.939C289.142 243.942 287.322 244.627 286.192 245.93C285.066 247.233 284.764 248.97 285.176 250.477C285.561 251.984 286.608 253.382 288.114 254C286.759 253.163 285.961 251.779 285.783 250.377C285.612 248.98 285.972 247.517 286.969 246.536C288.951 244.561 292.929 244.772 294.595 246.784L296.939 249.615L295.906 246.171C295.25 243.984 294.65 241.806 294.794 239.683C294.915 237.618 296.107 235.554 298.036 234.583C298.994 234.125 300.107 233.982 301.182 234.27C302.251 234.56 303.245 235.189 304.019 235.999C305.609 237.624 306.301 239.898 307 242.074Z" fill="#95D325"/>
<path d="M68 302.074C67.6649 299.835 67.2775 297.462 65.6831 295.498C64.8887 294.544 63.8251 293.738 62.5315 293.296C61.2428 292.857 59.6959 292.897 58.4328 293.478C55.8969 294.636 54.4331 297.121 54.2641 299.577C54.0457 302.039 54.7913 304.355 55.46 306.541L56.7695 305.927C55.5698 304.57 53.6943 303.937 51.9216 303.939C50.1423 303.942 48.3215 304.627 47.1915 305.93C46.0664 307.233 45.7637 308.97 46.1756 310.477C46.5611 311.984 47.6083 313.382 49.1141 314C47.7589 313.163 46.9614 311.779 46.7826 310.377C46.6125 308.98 46.9724 307.517 47.9695 306.536C49.9514 304.561 53.9286 304.772 55.5955 306.784L57.9386 309.615L56.9062 306.171C56.2497 303.984 55.6504 301.806 55.7945 299.683C55.9152 297.618 57.1069 295.554 59.0364 294.583C59.9938 294.125 61.1074 293.982 62.1824 294.27C63.2515 294.56 64.2449 295.189 65.0193 295.999C66.6093 297.624 67.3007 299.898 68 302.074Z" fill="#95D325"/>
<path d="M248.677 256.655C249.347 254.271 248.968 251.613 247.607 249.347C246.937 248.213 246.042 247.156 244.854 246.304C243.681 245.471 242.076 244.861 240.385 245.028C238.699 245.209 237.289 246.129 236.399 247.225C235.517 248.336 234.997 249.655 235 250.986C234.977 253.64 236.387 255.911 237.783 258C236.947 255.678 236.036 253.314 236.281 251.043C236.504 248.889 238.282 246.667 240.58 246.441C241.708 246.304 242.892 246.706 243.901 247.366C244.934 248.01 245.766 248.93 246.499 249.893C247.901 251.859 248.708 254.206 248.677 256.655Z" fill="#95D325"/>
<path d="M245.031 294C247.135 292.836 248.931 291.172 250.344 289.252C251.026 288.276 251.606 287.232 252.069 286.139C252.521 285.056 252.908 283.9 252.984 282.662C253.061 281.454 252.888 280.102 251.954 278.984C251.029 277.852 249.285 277.435 247.912 277.805C246.521 278.124 245.344 279.026 244.579 280.046C243.796 281.068 243.291 282.18 242.832 283.237L244.357 283.416C244.003 281.282 243.549 278.993 242.14 277.034C240.747 275.105 238.266 273.659 235.627 274.07C234.33 274.277 233.199 275.021 232.452 275.945C231.698 276.876 231.236 277.968 231.068 279.088C230.784 281.35 231.436 283.488 232.143 285.523C231.768 283.412 231.308 281.239 231.819 279.218C232.263 277.246 233.795 275.377 235.808 275.191C237.788 275.004 239.82 276.188 240.892 277.81C242.019 279.48 242.473 281.538 242.779 283.632L243.191 286.437L244.304 283.811C245.185 281.737 246.247 279.681 248.295 279.201C249.259 278.931 250.244 279.157 250.866 279.837C251.484 280.519 251.726 281.577 251.733 282.623C251.742 283.677 251.467 284.75 251.101 285.812C250.735 286.865 250.251 287.887 249.661 288.857C248.53 290.831 246.915 292.553 245.031 294Z" fill="#95D325"/>
<path d="M362.295 292.086C363.04 290.357 363.756 288.581 363.947 286.662C364.185 284.765 363.631 282.664 362.153 281.187C361.429 280.448 360.455 279.861 359.343 279.675C358.235 279.472 357.056 279.709 356.092 280.233C354.165 281.315 353.001 283.274 352.8 285.352L354.209 285.526C354.635 283.585 353.729 281.611 352.218 280.387C350.688 279.098 348.467 278.745 346.572 279.173C344.65 279.567 342.932 280.749 341.877 282.277C340.806 283.801 340.278 285.603 340.282 287.392L341.693 287.132C340.691 284.975 338.312 283.761 336.018 283.676C333.647 283.554 331.433 284.762 330.061 286.396C328.641 288.03 327.943 290.148 328.004 292.193C328.036 294.245 328.653 296.229 329.627 298C328.884 296.136 328.439 294.157 328.579 292.208C328.714 290.269 329.464 288.398 330.803 286.99C332.117 285.584 334.038 284.693 335.938 284.887C337.822 285.034 339.68 286.081 340.34 287.668L341.644 290.808L341.751 287.409C341.799 285.874 342.256 284.336 343.155 283.09C344.038 281.835 345.396 280.951 346.924 280.616C348.44 280.273 350.083 280.536 351.224 281.48C352.376 282.404 353.086 283.895 352.813 285.264L354.221 285.438C354.324 283.801 355.273 282.129 356.724 281.219C358.175 280.275 360.209 280.539 361.488 281.799C362.802 283.023 363.459 284.814 363.408 286.636C363.383 288.468 362.82 290.285 362.295 292.086Z" fill="#95D325"/>
<path d="M127.295 334.086C128.04 332.357 128.756 330.581 128.947 328.662C129.185 326.765 128.631 324.664 127.153 323.187C126.429 322.448 125.455 321.861 124.343 321.675C123.235 321.472 122.056 321.709 121.092 322.233C119.165 323.315 118.001 325.274 117.8 327.352L119.209 327.526C119.635 325.585 118.729 323.611 117.218 322.387C115.688 321.098 113.467 320.745 111.572 321.173C109.65 321.567 107.932 322.749 106.877 324.277C105.806 325.801 105.278 327.603 105.282 329.392L106.693 329.132C105.691 326.975 103.312 325.761 101.018 325.676C98.6469 325.554 96.4333 326.762 95.0614 328.396C93.6415 330.03 92.9428 332.148 93.0037 334.193C93.0358 336.245 93.6527 338.229 94.6271 340C93.8845 338.136 93.4394 336.157 93.5793 334.208C93.7142 332.269 94.4642 330.398 95.8029 328.99C97.1174 327.584 99.0381 326.693 100.938 326.887C102.822 327.034 104.68 328.081 105.34 329.668L106.644 332.808L106.751 329.409C106.799 327.874 107.256 326.336 108.155 325.09C109.038 323.835 110.396 322.951 111.924 322.616C113.44 322.273 115.083 322.536 116.224 323.48C117.376 324.404 118.086 325.895 117.813 327.264L119.221 327.438C119.324 325.801 120.273 324.129 121.724 323.219C123.175 322.275 125.209 322.539 126.488 323.799C127.802 325.023 128.459 326.814 128.408 328.636C128.383 330.468 127.82 332.285 127.295 334.086Z" fill="#95D325"/>
<path d="M373.61 226.208C374.397 224.674 373.934 222.704 372.754 221.308C371.605 219.886 369.627 218.869 367.506 219.014C365.386 219.176 363.613 220.467 362.728 222.038C361.808 223.587 361.7 225.601 362.749 227C362.341 225.381 362.854 223.822 363.779 222.61C364.715 221.408 366.128 220.522 367.632 220.432C369.132 220.303 370.684 220.971 371.821 222.023C372.949 223.085 373.729 224.55 373.61 226.208Z" fill="#95D325"/>
<path d="M412.492 267C413.647 264.773 414.749 262.448 414.955 259.864C415.224 257.304 414.294 254.498 412.057 252.623C410.942 251.696 409.434 251.076 407.886 251.005C406.343 250.95 404.856 251.328 403.591 251.976C400.993 253.275 399.415 255.448 398 257.531C399.92 255.78 401.828 253.948 404.168 253.009C406.491 252.035 409.201 252.148 410.947 253.717C412.756 255.206 413.673 257.507 413.675 259.828C413.706 262.178 413.052 264.585 412.492 267Z" fill="#95D325"/>
<path d="M202.929 321C203.228 319.389 202.56 317.635 201.346 316.343C200.143 315.03 198.336 314.121 196.373 314.008C194.409 313.916 192.502 314.634 191.147 315.816C189.781 316.976 188.903 318.651 189.008 320.283C189.594 318.76 190.668 317.567 191.959 316.727C193.255 315.902 194.79 315.422 196.281 315.514C197.775 315.575 199.242 316.209 200.432 317.161C201.613 318.13 202.535 319.427 202.929 321Z" fill="#95D325"/>
<path d="M56.9292 363C57.2278 361.389 56.5599 359.635 55.3456 358.343C54.1427 357.03 52.336 356.121 50.3733 356.008C48.409 355.916 46.5022 356.634 45.1467 357.816C43.7814 358.976 42.9035 360.651 43.0085 362.283C43.5943 360.76 44.6675 359.567 45.959 358.727C47.2554 357.902 48.7898 357.422 50.2814 357.514C51.7748 357.575 53.2418 358.209 54.4315 359.161C55.6131 360.13 56.5353 361.427 56.9292 363Z" fill="#95D325"/>
<path d="M358.428 364C343.76 338.279 338.065 307.313 342.434 278.517C342.537 277.835 343.608 277.826 343.752 278.501C349.469 305.208 362.757 330.545 382 351.343C374.557 355.698 365.871 359.646 358.428 364Z" fill="#7BCC3F"/>
<path d="M334.822 370C325.831 344.158 322.842 316.432 326.563 289.531C326.658 288.846 327.732 288.815 327.894 289.489C333.762 313.838 345.869 336.928 363 356.373C354.252 361.912 344.822 366.653 334.822 370Z" fill="#6DB837"/>
<path d="M389.73 324C409.67 245.261 402.996 160.383 370.938 85L367 86.3731C398.759 161.054 405.37 245.141 385.616 323.145L389.73 324Z" fill="#99D536"/>
<path d="M376.599 104C380.206 69.0094 358.235 35.0595 360.885 -5.2206e-06C349.65 11.3069 342.435 26.5097 341.201 41.5601C339.968 56.6076 344.433 71.9834 353.706 84.6197C356.571 88.5245 359.911 92.1992 364.012 95.1043C368.454 98.2513 372.906 100.163 376.599 104Z" fill="#99D536"/>
<path d="M389.107 152C395.628 146.837 400.147 139.989 403.064 132.771C405.98 125.554 407.37 117.942 408.332 110.343C410.446 93.6313 410.551 76.7309 408.644 60C390.683 87.4915 382.905 120.883 389.107 152Z" fill="#99D536"/>
<path d="M399 234C415.312 221.188 425.21 202.628 430.347 183.542C435.485 164.454 436.255 144.644 437 125C424.633 144.851 412.75 165.09 407.36 187.395C403.654 202.734 402.249 218.574 399 234Z" fill="#99D536"/>
<path d="M394 295C403.434 285.286 412.868 275.571 422.302 265.855C430.177 257.745 438.111 249.561 444.045 240.144C449.979 230.724 453.843 219.86 452.842 209C434.519 223.404 416.042 240.076 406.112 260.333C400.645 271.483 396.427 282.965 394 295Z" fill="#99D536"/>
<path d="M333.11 79C342.209 90.5454 354.021 100.007 364.221 110.74C375.109 122.196 384.163 135.133 391 149C373.258 147.888 356.436 140.118 345.682 127.052C334.928 113.985 329.507 95.0656 333.11 79Z" fill="#99D536"/>
<path d="M399 234C396.777 218.341 389.545 203.552 380.104 190.363C370.662 177.175 359.031 165.446 347.207 154C345.983 170.58 350.203 188.098 359.563 202.309C368.923 216.519 382.461 227.327 399 234Z" fill="#99D536"/>
<path d="M396 293C395.248 280.858 388.348 269.805 381.201 259.519C372.229 246.607 362.583 234.083 352.304 222C347.761 236.441 350.119 252.784 357.768 266.1C365.416 279.418 380.36 288.121 396 293Z" fill="#99D536"/>
<path d="M452 214L438.701 232.133C434.25 238.162 429.841 244.215 425.288 250.179C420.842 256.207 416.259 262.154 411.707 268.119L398 286C400.55 283.198 403 280.326 405.48 277.474L412.711 268.773C417.477 262.935 422.056 256.974 426.613 250.999C431.063 244.958 435.499 238.908 439.733 232.741C443.969 226.574 448.102 220.348 452 214Z" fill="#658F2B"/>
<path d="M390 288C385.825 283.658 381.824 279.204 378.111 274.565C374.404 269.928 370.886 265.167 367.764 260.195C364.526 255.284 361.678 250.173 359.052 244.968L357.133 241.042L355.342 237.063L353.619 233.052C353.097 231.7 352.556 230.35 352 229C352.385 230.394 352.785 231.787 353.205 233.174L354.583 237.31L356.165 241.386L357.889 245.419C360.295 250.762 363.184 255.923 366.341 260.941C369.613 265.897 373.148 270.721 377.105 275.25C381.057 279.781 385.333 284.08 390 288Z" fill="#658F2B"/>
<path d="M395 228C390.319 223.104 385.814 218.092 381.599 212.887C377.387 207.683 373.37 202.349 369.746 196.795C366.01 191.302 362.664 185.599 359.54 179.795L357.249 175.416L355.084 170.98L352.991 166.514C352.344 165.006 351.679 163.502 351 162C351.514 163.552 352.041 165.103 352.589 166.649L354.35 171.251L356.312 175.787L358.414 180.273C361.324 186.216 364.71 191.962 368.367 197.556C372.133 203.088 376.164 208.48 380.616 213.572C385.062 218.664 389.834 223.522 395 228Z" fill="#658F2B"/>
<path d="M402 230C404.894 222.257 407.623 214.467 410.326 206.669C413.034 198.871 415.605 191.034 418.252 183.22C420.776 175.369 423.365 167.537 425.829 159.669L429.494 147.858C430.661 143.905 431.879 139.967 433 136C431.537 139.868 430.173 143.762 428.757 147.642L424.671 159.331C421.968 167.129 419.391 174.964 416.748 182.78C414.228 190.633 411.634 198.463 409.174 206.332C406.711 214.2 404.273 222.076 402 230Z" fill="#658F2B"/>
<path d="M386 142C380.358 138.839 375.517 134.723 371.169 130.248C366.824 125.76 362.826 120.977 358.835 116.174C354.752 111.44 350.726 106.667 346.591 101.968L340.363 94.9372C338.241 92.6272 336.162 90.285 334 88C335.872 90.4859 337.826 92.9147 339.737 95.3742L345.61 102.656C349.543 107.497 353.583 112.267 357.567 117.073C361.659 121.794 365.664 126.622 370.263 131.009C372.571 133.19 374.997 135.275 377.602 137.16C380.236 139.008 383.014 140.699 386 142Z" fill="#658F2B"/>
<path d="M375 98L367.978 76.3363C365.707 69.1082 363.492 61.8685 361.769 54.5411C359.912 47.2386 358.537 39.8513 357.664 32.4188L357.117 26.8338L356.831 21.2313L356.758 15.62L356.953 10L356.309 15.6039L356 21.2342L356.048 26.8761L356.364 32.5137C356.974 40.0266 358.374 47.4737 360.112 54.842C361.985 62.1883 364.186 69.4646 366.73 76.6459C369.273 83.8287 372.042 90.9414 375 98Z" fill="#658F2B"/>
<path d="M392 143C393.586 136.803 394.994 130.579 396.374 124.35C397.758 118.12 398.996 111.869 400.314 105.63C401.5 99.3697 402.757 93.1214 403.877 86.851L405.524 77.4388C406.014 74.2925 406.56 71.1551 407 68C406.19 71.0961 405.485 74.2085 404.725 77.312L402.622 86.652C401.243 92.8811 399.999 99.1323 398.684 105.372C397.502 111.632 396.24 117.88 395.124 124.151C394.006 130.422 392.913 136.697 392 143Z" fill="#658F2B"/>
<path d="M366.919 372.954C396.58 383.664 427.343 377.932 445.137 372.644C453.602 370.132 457.484 361.106 453.315 353.838C450.408 348.77 446.75 342.787 442.534 336.804C442.262 336.391 441.958 335.977 441.671 335.563C437.119 329.196 431.992 322.932 426.561 317.895C426.177 317.526 425.794 317.171 425.394 316.831C418.351 310.567 410.86 306.49 403.528 307.052C388.945 308.145 375.848 325.163 366.791 340.823C366.535 341.281 366.28 341.724 366.024 342.167C365.066 343.866 364.155 345.535 363.292 347.16C363.053 347.633 362.814 348.091 362.574 348.534C361.344 350.927 360.226 353.188 359.235 355.271C355.977 362.125 359.379 370.236 366.919 372.954Z" fill="#8EAC6E"/>
<path d="M364 341.428C368.426 342.481 373.013 343 377.6 343C385.777 343 393.953 341.339 401.308 338.033C411.303 333.54 419.656 326.053 425 317.068C424.613 316.697 424.227 316.341 423.824 316C418.626 324.867 410.434 332.28 400.6 336.699C389.591 341.651 376.651 342.807 364.773 340.079C364.516 340.539 364.258 340.984 364 341.428Z" fill="#C2E79C"/>
<path d="M364 351.127C372.709 353.033 381.691 354 390.672 354C396.744 354 402.818 353.558 408.826 352.674C422.569 350.644 434.619 346.32 444 340.16C443.728 339.773 443.424 339.387 443.137 339C433.931 345.064 422.09 349.318 408.555 351.307C394.011 353.448 379.006 352.936 364.719 349.843C364.479 350.285 364.24 350.713 364 351.127Z" fill="#C2E79C"/>
<path d="M345.528 374.634C367.238 382.369 389.757 378.228 402.781 374.411C408.977 372.595 411.818 366.077 408.766 360.828C406.639 357.169 403.962 352.846 400.875 348.527C400.676 348.227 400.454 347.929 400.244 347.63C396.912 343.031 393.159 338.508 389.183 334.869C388.903 334.603 388.623 334.347 388.331 334.101C383.174 329.578 377.691 326.632 372.324 327.037C361.65 327.827 352.064 340.118 345.434 351.428C345.248 351.759 345.06 352.079 344.873 352.4C344.171 353.627 343.505 354.832 342.874 356.005C342.698 356.347 342.524 356.677 342.348 356.997C341.447 358.726 340.629 360.358 339.904 361.863C337.519 366.813 340.009 372.67 345.528 374.634Z" fill="#98B97A"/>
<path d="M345 352.895C348.192 353.634 351.501 354 354.81 354C360.707 354 366.605 352.832 371.911 350.505C379.121 347.343 385.146 342.075 389 335.751C388.722 335.491 388.444 335.24 388.153 335C384.403 341.24 378.494 346.456 371.401 349.565C363.459 353.05 354.125 353.864 345.557 351.945C345.372 352.268 345.185 352.58 345 352.895Z" fill="#C2E79C"/>
<path d="M342 357.702C348.423 359.226 355.047 360 361.67 360C366.149 360 370.627 359.647 375.059 358.939C385.195 357.315 394.081 353.856 401 348.929C400.799 348.619 400.576 348.31 400.364 348C393.575 352.851 384.841 356.254 374.859 357.844C364.133 359.558 353.067 359.15 342.53 356.674C342.353 357.028 342.177 357.37 342 357.702Z" fill="#C2E79C"/>
</svg>
