<svg width="437" height="261" viewBox="0 0 437 261" fill="none" xmlns="http://www.w3.org/2000/svg">
<path d="M65.067 7.87148C65.2119 6.98875 65.4691 6.12672 65.9663 5.3302C66.924 3.79233 69.0232 2.56134 71.1396 2.87857C72.8842 3.13892 74.1944 4.37851 74.7499 5.72156C75.3077 7.06633 75.2494 8.51628 75.1823 9.93175C75.3769 8.03526 78.0121 6.64566 80.3534 7.00081C86.7741 7.97147 85.0316 13.854 81.1122 16.6556C95.6527 27.3018 104.289 42.634 108.17 58.3938C117.215 57.5059 126.357 57.4386 135.422 58.1059C134.382 56.6904 134.138 54.6422 134.449 52.8543C134.869 50.4699 137.569 48.1665 140.537 48.5941C143.317 48.9941 144.869 51.4992 144.932 53.7508C144.99 55.9128 144.402 57.7265 142.764 58.8075C145.71 59.1575 148.642 59.5885 151.551 60.0954C151.744 57.8455 153.378 55.0766 155.374 53.7508C157.933 52.0509 161.576 52.6508 161.511 55.8404C161.481 57.2576 159.952 59.5885 158.104 61.3695C178.548 65.8038 197.692 74.0811 213.179 85.6186C214.096 86.3013 214.952 87.0117 215.836 87.7099C216.452 86.7875 217.312 86.0186 218.547 85.7341C220.808 85.2117 223.177 86.7048 223.934 88.4823C224.691 90.2615 224.276 92.2046 223.852 94.0528C225.015 92.3942 227.142 91.1856 229.488 90.8512C230.755 90.6719 232.227 90.7943 233.057 91.5787C234.047 92.5149 233.699 93.9286 233.178 95.082C232.482 96.6199 231.263 98.7647 229.708 100.715C245.959 118.995 253.316 140.842 251.716 164.254C257.806 161.621 264.177 159.445 270.727 157.707C270.476 157.219 270.217 156.735 269.99 156.249C269.108 154.378 268.805 151.987 270.654 150.637C272.214 149.494 274.835 149.654 276.486 150.711C278.138 151.77 278.914 153.511 279.005 155.199C279.016 155.388 278.994 155.578 278.99 155.768C314.217 148.549 353.498 153.599 383.355 170.319C419.163 190.373 439.783 226.298 436.071 261H0V2.60959C21.4822 -2.23849 45.2149 -0.245453 65.067 7.87148Z" fill="#7CB32A"/>
<path d="M265.832 184.5C267.511 183.47 268.93 182.031 270.055 180.391C271.176 178.73 271.92 176.872 272.217 174.815C272.335 173.794 272.162 172.53 271.308 171.61C270.479 170.699 269.286 170.293 268.151 170.228C265.751 170.123 263.84 171.419 262.248 172.491L263.419 173.774C265.535 171.465 265.897 167.877 264.156 165.244C262.448 162.649 258.98 161.379 255.993 162.297C253.029 163.246 251.117 165.54 249.497 167.686C247.9 169.872 246.451 172.154 244.125 173.653C246.687 172.535 248.507 170.273 250.274 168.28C251.993 166.267 254.005 164.346 256.414 163.761C258.753 163.116 261.393 164.251 262.651 166.18C263.893 168.1 263.646 170.911 262.097 172.622L257.032 178.225L263.267 173.904C264.844 172.811 266.428 171.742 268.079 171.786C268.899 171.808 269.716 172.072 270.252 172.574C270.792 173.066 271.015 173.865 270.982 174.737C270.885 176.512 270.239 178.352 269.4 180.019C268.529 181.7 267.298 183.208 265.832 184.5Z" fill="#95D325"/>
<path d="M356.957 194.625C358.636 193.595 360.055 192.156 361.18 190.516C362.301 188.855 363.045 186.997 363.342 184.94C363.46 183.919 363.287 182.655 362.433 181.735C361.604 180.824 360.411 180.418 359.276 180.353C356.876 180.248 354.965 181.544 353.373 182.616L354.544 183.899C356.66 181.59 357.022 178.002 355.281 175.369C353.573 172.774 350.105 171.504 347.118 172.422C344.154 173.371 342.242 175.665 340.622 177.811C339.025 179.997 337.576 182.279 335.25 183.778C337.812 182.66 339.632 180.398 341.399 178.405C343.118 176.392 345.13 174.471 347.539 173.886C349.878 173.241 352.518 174.376 353.776 176.305C355.018 178.225 354.771 181.036 353.222 182.747L348.157 188.35L354.392 184.029C355.969 182.936 357.553 181.867 359.204 181.911C360.024 181.933 360.841 182.197 361.377 182.699C361.917 183.191 362.14 183.99 362.107 184.862C362.01 186.637 361.364 188.477 360.525 190.144C359.654 191.825 358.423 193.333 356.957 194.625Z" fill="#95D325"/>
<path d="M242.152 227.25C243.998 224.973 245.871 222.501 246.292 219.42C246.809 216.342 244.892 212.894 241.406 211.739C239.631 211.178 237.515 211.638 236.182 212.762C234.85 213.897 234.104 215.349 233.691 216.795C232.839 219.713 233.246 222.562 231.75 225.145C233.886 222.912 234.086 219.682 235.065 217.192C235.582 215.936 236.291 214.737 237.319 213.978C238.329 213.215 239.637 212.96 240.829 213.344C242.054 213.684 243.119 214.605 243.845 215.667C244.62 216.749 244.899 217.975 244.862 219.317C244.75 221.99 243.407 224.64 242.152 227.25Z" fill="#95D325"/>
<path d="M299.527 240.75C301.373 238.473 303.246 236.001 303.667 232.92C304.184 229.842 302.267 226.394 298.781 225.239C297.006 224.678 294.89 225.138 293.557 226.262C292.225 227.397 291.479 228.849 291.066 230.295C290.214 233.213 290.621 236.062 289.125 238.645C291.261 236.412 291.461 233.182 292.44 230.692C292.957 229.436 293.666 228.237 294.694 227.478C295.704 226.715 297.012 226.46 298.204 226.844C299.429 227.184 300.494 228.105 301.22 229.167C301.995 230.249 302.274 231.475 302.237 232.817C302.125 235.49 300.782 238.14 299.527 240.75Z" fill="#95D325"/>
<path d="M193.756 218.25C195.454 216.212 196.764 213.896 197.745 211.461C198.235 210.241 198.58 208.974 198.862 207.695C199.124 206.423 199.338 204.998 198.744 203.573C198.168 202.12 196.534 201.139 194.969 200.98C193.388 200.782 191.785 201.094 190.417 201.875C187.724 203.481 186.524 206.151 185.411 208.454L187.189 208.865C187.327 207.449 187.37 206.001 187.196 204.533C187.003 203.081 186.621 201.537 185.566 200.229C184.546 198.925 182.82 198.039 181.063 198.004C179.322 197.944 177.645 198.497 176.346 199.469C173.666 201.492 172.979 204.761 173.338 207.568C173.774 210.442 175.133 212.994 176.55 215.443C175.526 212.832 174.377 210.202 174.28 207.493C174.096 204.849 175.019 202.006 177.241 200.561C178.334 199.851 179.689 199.455 180.967 199.542C182.247 199.604 183.382 200.253 184.117 201.208C185.611 203.182 185.547 206.063 185.337 208.721L184.926 213.974L187.116 209.131C188.167 206.804 189.334 204.502 191.359 203.217C193.258 202.008 196.504 202.101 197.466 204.079C197.962 205.048 197.917 206.298 197.734 207.523C197.548 208.766 197.264 209.999 196.906 211.217C196.229 213.668 195.113 216.012 193.756 218.25Z" fill="#95D325"/>
<path d="M128.971 204.792C129.792 201.881 129.356 198.62 127.711 195.85C126.935 194.442 125.801 193.193 124.508 192.093C123.096 190.997 121.376 190.18 119.289 190.125C118.257 190.122 117.094 190.466 116.318 191.179C115.506 191.875 115.154 192.796 114.997 193.595C114.752 195.2 114.699 196.666 114.795 198.207C114.95 201.247 115.742 204.249 117.101 207C116.467 204.056 116.216 201.109 116.314 198.195C116.539 195.445 116.413 191.644 119.303 191.828C122.152 191.848 124.698 194.153 126.39 196.496C128.092 198.915 129.035 201.797 128.971 204.792Z" fill="#95D325"/>
<path d="M91.3833 175.5C95.3608 174.358 98.7752 171.628 100.917 168.241C103.043 164.847 104.043 160.719 103.203 156.736L103.115 156.318L102.664 156.183C97.8833 154.746 92.2973 157.02 90.2088 161.323L91.9058 161.943C93.1633 158.651 92.8365 154.872 90.8755 151.841C89.9097 150.328 88.425 149.061 86.6929 148.295C84.9608 147.554 83.0348 147.228 81.1476 147.437C79.2751 147.637 77.4175 148.367 76.0639 149.623C74.7049 150.862 73.9053 152.481 73.4178 154.071C72.4409 157.275 72.4538 160.565 70.9175 163.504L70.875 163.584L70.9599 163.608L72.3523 163.976L71.0116 163.469L71.056 163.574C72.9118 160.739 73.2423 157.323 74.3687 154.35C74.9135 152.861 75.7204 151.464 76.9281 150.47C78.1136 149.476 79.6943 148.935 81.2953 148.839C82.8981 148.731 84.5342 149.029 85.9598 149.688C87.378 150.355 88.5321 151.415 89.352 152.693C91.0029 155.252 91.2189 158.556 90.183 161.383L91.88 162.003C93.4865 158.55 98.2341 156.486 102.18 157.592L101.643 157.041C102.531 160.594 101.887 164.476 100.027 167.788C99.0872 169.436 97.9146 170.993 96.4521 172.313C94.9952 173.633 93.2779 174.725 91.3833 175.5Z" fill="#95D325"/>
<path d="M180.523 156.375C181.901 153.954 183.268 151.347 183.366 148.287C183.516 145.24 181.786 141.958 178.666 140.856C177.09 140.33 175.274 140.736 174.025 141.724C172.772 142.715 171.941 144.032 171.375 145.394C170.238 148.148 170.15 150.95 168.75 153.426C170.722 151.347 171.392 148.319 172.601 146.002C173.237 144.852 173.999 143.764 174.985 143.102C175.946 142.422 177.098 142.196 178.15 142.563C179.217 142.889 180.187 143.725 180.857 144.761C181.559 145.807 181.939 146.985 182.011 148.307C182.163 150.937 181.303 153.67 180.523 156.375Z" fill="#95D325"/>
<path d="M177.494 112.5C179.115 110.936 180.691 109.244 181.597 107.087C182.06 106.009 182.299 104.857 182.242 103.611C182.12 102.374 181.633 101.202 180.863 100.21C180.086 99.2321 179 98.3914 177.647 98.0304C176.293 97.6728 174.751 97.9452 173.687 98.7156C172.585 99.4677 171.941 100.551 171.549 101.615C171.192 102.702 170.996 103.796 171 104.894C171.722 102.862 172.734 100.746 174.457 99.8053C176.198 98.8376 178.262 99.6315 179.416 101.194C180.034 101.938 180.411 102.854 180.556 103.766C180.684 104.68 180.535 105.706 180.271 106.679C179.696 108.646 178.564 110.556 177.494 112.5Z" fill="#95D325"/>
<path d="M154.309 114.051C155.63 112.002 155.525 109.255 154.213 107.083C152.893 104.861 150.073 103.486 147.274 103.501C144.491 103.458 141.538 104.834 140.16 107.188C138.758 109.459 138.567 112.369 139.977 114.733L142.416 118.826L141.693 114.225C141.504 113.03 140.708 111.984 139.706 111.34C138.702 110.688 137.519 110.357 136.32 110.32C135.122 110.275 133.872 110.632 132.922 111.234C131.954 111.844 131.197 112.658 130.645 113.547C129.537 115.326 129.202 117.408 129.455 119.331C129.707 121.265 130.318 123.09 131.019 124.875C130.681 123.004 130.253 121.141 130.279 119.29C130.271 117.454 130.688 115.638 131.776 114.182C132.825 112.745 134.522 111.723 136.248 111.857C137.979 111.953 139.708 113.047 139.876 114.452L141.592 113.943C140.562 112.146 140.646 109.806 141.739 107.993C142.797 106.155 144.964 104.996 147.31 104.907C149.639 104.75 152.064 105.689 153.387 107.553C154.774 109.354 155.21 111.84 154.309 114.051Z" fill="#95D325"/>
<path d="M410.809 237.801C412.13 235.752 412.025 233.005 410.713 230.833C409.393 228.611 406.573 227.236 403.774 227.251C400.991 227.208 398.038 228.584 396.66 230.938C395.258 233.209 395.067 236.119 396.477 238.483L398.916 242.576L398.193 237.975C398.004 236.78 397.208 235.734 396.206 235.09C395.202 234.438 394.019 234.107 392.82 234.07C391.622 234.025 390.372 234.382 389.422 234.984C388.454 235.594 387.697 236.408 387.145 237.297C386.037 239.076 385.702 241.158 385.955 243.081C386.207 245.015 386.818 246.84 387.519 248.625C387.181 246.754 386.753 244.891 386.779 243.04C386.771 241.204 387.188 239.388 388.276 237.932C389.325 236.495 391.022 235.473 392.748 235.607C394.479 235.703 396.208 236.797 396.376 238.202L398.092 237.693C397.062 235.896 397.146 233.556 398.239 231.743C399.297 229.905 401.464 228.746 403.81 228.657C406.139 228.5 408.564 229.439 409.887 231.303C411.274 233.104 411.71 235.59 410.809 237.801Z" fill="#95D325"/>
<path d="M126.493 73.125C127.478 71.5715 127.24 69.4715 126.276 67.8503C125.329 66.1886 123.742 64.8568 121.847 64.0496C119.974 63.2881 117.947 62.9869 115.991 63.0004C114.031 63.0055 112.124 63.2695 110.25 63.7061C114.07 64.2002 117.87 64.2324 121.069 65.5862C122.622 66.2157 124 67.2631 125.031 68.5306C126.042 69.8099 126.697 71.3719 126.493 73.125Z" fill="#95D325"/>
<path d="M88.5856 92.25C91.1294 90.3882 93.8137 88.3212 95.0496 85.1333C95.65 83.5774 95.8236 81.8251 95.3636 80.1224C94.9166 78.4233 93.605 76.8691 91.9202 76.1053C88.508 74.613 84.5528 75.5377 81.9646 77.7019C79.3247 79.8396 77.832 82.7233 76.5 85.5329C78.4471 83.0557 80.3555 80.5008 82.8476 78.791C85.2492 77.099 88.5819 76.5455 91.1109 77.6948C93.7028 78.7822 94.5158 81.9772 93.6826 84.716C92.8771 87.5008 90.6713 89.8949 88.5856 92.25Z" fill="#95D325"/>
<path d="M72.3713 40.5C73.4063 39.1888 73.306 37.211 72.4915 35.7147C71.697 34.1756 70.2993 32.9364 68.5937 32.2388C66.919 31.5927 65.1222 31.411 63.4202 31.5379C61.7145 31.6544 60.0836 32.0212 58.5 32.5628C61.8439 32.8576 65.1276 32.6964 67.8902 33.8191C69.215 34.3281 70.3959 35.2554 71.2651 36.3832C72.1161 37.5212 72.661 38.9215 72.3713 40.5Z" fill="#95D325"/>
<path d="M60.75 18C60.1364 16.4933 58.5858 15.4648 56.9176 14.9523C55.2395 14.4689 53.2889 14.4621 51.75 15.3333C53.4653 15.8202 54.863 16.1311 56.2882 16.5684C57.7271 16.9733 59.0523 17.4738 60.75 18Z" fill="#95D325"/>
<path d="M66.7332 137.25C68.6491 135.027 70.1131 132.408 70.9781 129.606C71.4338 128.21 71.7147 126.767 71.8895 125.31C72.0532 123.855 72.0718 122.326 71.6886 120.79C71.2905 119.279 70.314 117.724 68.7962 116.861C67.3043 116.002 65.5446 115.71 63.8928 115.962C60.4832 116.469 58.1302 119.161 57.375 121.89C58.8129 119.396 61.3464 117.491 64.0603 117.318C65.407 117.26 66.7854 117.542 67.8308 118.247C68.9003 118.91 69.5737 119.984 69.8843 121.217C70.2266 122.446 70.2377 123.804 70.1391 125.172C70.0721 126.55 69.8452 127.914 69.5736 129.279C68.984 131.994 68.039 134.666 66.7332 137.25Z" fill="#95D325"/>
<path d="M122.631 227.605C122.926 230.514 127.604 229.351 129.427 228.797C134.119 227.343 138.782 225.764 143.416 224.102C153.313 220.571 163.124 216.583 171.905 210.975C175.287 208.814 178.509 206.403 181.465 203.746C186.187 199.494 190.217 194.619 193.085 189.107C194.614 186.158 195.822 182.972 195.747 179.69C195.673 176.407 194.128 173.029 191.187 171.284C188.335 169.608 184.702 169.691 181.377 170.19C174.068 171.298 167.286 174.081 161.139 177.931C153.857 182.516 147.475 188.636 142.237 195.255C136.871 202.07 132.442 209.478 128.265 216.97C127.221 218.868 126.178 220.778 125.148 222.675C124.501 223.867 122.499 226.262 122.631 227.605Z" fill="#7BCC3F"/>
<path d="M177.783 203.625C179.073 203.625 180.376 203.519 181.668 203.328C182.558 202.524 183.426 201.697 184.264 200.847C184.663 200.443 185.057 200.032 185.444 199.616C188.478 196.354 191.096 192.774 193.123 188.869C194.59 186.037 195.755 182.982 195.75 179.834C195.75 179.746 195.748 179.657 195.746 179.568C195.674 176.326 194.151 172.989 191.251 171.266C189.491 170.23 187.43 169.875 185.33 169.875C184.074 169.875 182.806 170.001 181.581 170.185C174.375 171.279 167.69 174.029 161.63 177.831C161.121 180.102 160.875 182.413 160.875 184.753C160.904 190.963 163.007 197.678 168.458 201.167C171.208 202.921 174.453 203.625 177.783 203.625Z" fill="#9BD754"/>
<path d="M97.9542 259.481L96.8895 261H95.625C96.0042 260.275 96.374 259.549 96.755 258.826C98.3576 256.057 100.057 253.336 101.828 250.647C105.405 245.291 109.529 240.256 113.973 235.491C118.465 230.763 123.284 226.295 128.518 222.291C133.727 218.264 139.239 214.581 145.125 211.5C139.906 215.476 134.803 219.515 129.962 223.801C125.143 228.108 120.471 232.539 116.106 237.228C111.69 241.876 107.587 246.77 103.636 251.784C101.673 254.298 99.7865 256.869 97.9542 259.481Z" fill="#99D536"/>
<path d="M102.445 199.919C102.487 202.041 102.561 204.181 102.619 206.303C102.665 207.627 102.135 210.634 102.944 211.737C104.698 214.15 108.205 211.021 109.516 209.71C112.905 206.331 116.175 202.829 119.388 199.312C126.285 191.74 132.84 183.823 137.689 174.985C138.691 173.149 139.604 171.288 140.428 169.37C143.627 162.048 145.468 154.201 145.072 146.326C144.91 143.058 144.333 139.734 142.58 136.907C140.843 134.08 137.762 131.818 134.272 131.638C130.912 131.459 127.774 133.169 125.104 135.099C119.522 139.169 115.131 144.34 111.771 150.147C107.454 157.648 104.845 166.172 103.594 174.653C102.355 183.024 102.267 191.478 102.445 199.919Z" fill="#7BCC3F"/>
<path d="M132.785 171C135.458 171 138.008 170.314 140.373 169.179C143.319 162.548 145.127 155.485 145.125 148.361C145.125 147.659 145.106 146.954 145.071 146.251C144.908 142.999 144.324 139.692 142.55 136.879C140.792 134.067 137.675 131.817 134.143 131.637C133.978 131.628 133.812 131.625 133.649 131.625C130.435 131.625 127.436 133.253 124.867 135.081C119.219 139.13 114.775 144.275 111.375 150.052C112.315 153.853 113.909 157.502 116.176 160.825C119.784 166.106 125.493 170.771 132.263 170.991C132.438 170.997 132.612 171 132.785 171Z" fill="#9BD754"/>
<path d="M107.598 199.658C104.77 207.04 102.134 214.474 99.894 222.009C97.589 229.529 95.6898 237.143 93.9783 244.799C92.8028 250.168 91.813 255.571 90.9074 261H90C90.3006 255.473 90.9151 249.952 91.7824 244.464C92.9809 236.658 94.8283 228.938 97.0893 221.323C99.4154 213.723 102.157 206.221 105.505 198.942C107.202 195.311 108.967 191.71 110.83 188.153C112.813 184.644 114.783 181.138 117 177.75C116.196 179.579 115.375 181.395 114.519 183.196L112.135 188.667C110.546 192.309 109.026 195.968 107.598 199.658Z" fill="#99D536"/>
<path d="M63.1048 156.947C63.4723 163.127 64.7862 169.304 66.7175 175.194C69.371 183.238 73.1031 190.913 77.0704 198.45C78.0737 200.358 79.09 202.253 80.108 204.147C80.7419 205.329 81.6129 208.239 82.8496 208.939C85.5178 210.422 87.2892 206.207 87.8919 204.519C89.441 200.139 90.8431 195.691 92.1717 191.243C95.0144 181.714 97.4051 171.995 97.8186 162.111C97.9803 158.073 97.8038 153.996 97.168 149.988C96.2989 144.18 94.5293 138.511 91.6094 133.336C89.9868 130.453 87.9673 127.678 85.1061 125.812C82.245 123.943 78.4266 123.107 75.1814 124.315C72.0557 125.468 69.9774 128.255 68.4283 131.041C64.0181 138.991 62.5737 147.956 63.1048 156.947Z" fill="#7BCC3F"/>
<path d="M76.9654 164.25C83.1603 164.25 88.7436 160.337 92.6878 155.771C94.2161 154.006 95.572 152.101 96.75 150.116C95.8915 144.279 94.1435 138.582 91.2593 133.382C89.6566 130.485 87.6618 127.697 84.8356 125.821C82.9171 124.548 80.5611 123.75 78.2432 123.75C77.1487 123.75 76.0615 123.927 75.0323 124.317C71.9448 125.476 69.892 128.276 68.3618 131.077C64.5755 138.02 63.0036 145.734 63 153.566C63 154.745 63.0345 155.926 63.1034 157.109C66.5558 161.028 71.1734 164.049 76.4608 164.241C76.6296 164.248 76.7984 164.25 76.9654 164.25Z" fill="#9BD754"/>
<path d="M87.8133 261C86.9624 256.623 86.2683 252.228 85.6666 247.825C84.7405 241.32 84.1839 234.787 83.7476 228.25C83.3888 221.71 83.1546 215.167 83.2878 208.62L83.5887 198.803C83.8422 195.533 84.0077 192.265 84.4095 189C84.749 192.268 84.8994 195.533 85.1895 198.796L85.7977 208.579L87.0075 228.123L88.1594 247.67C88.4087 252.108 88.6601 256.552 88.875 261H87.8133Z" fill="#99D536"/>
</svg>
