<svg width="24" height="24" viewBox="0 0 24 24" fill="none" xmlns="http://www.w3.org/2000/svg">
    <path d="M3.34252 7.7779C3.56867 7.23194 3.90014 6.73586 4.31801 6.31799C4.73587 5.90012 5.23195 5.56865 5.77792 5.3425C6.32389 5.11635 6.90906 4.99995 7.50001 4.99995C8.09096 4.99995 8.67613 5.11635 9.2221 5.3425C9.76807 5.56865 10.2641 5.90012 10.682 6.31799L12 7.63599L13.318 6.31799C14.1619 5.47407 15.3065 4.99997 16.5 4.99997C17.6935 4.99997 18.8381 5.47407 19.682 6.31799C20.5259 7.16191 21 8.30651 21 9.49999C21 10.6935 20.5259 11.8381 19.682 12.682L12 20.364L4.31801 12.682C3.90014 12.2641 3.56867 11.7681 3.34252 11.2221C3.11637 10.6761 2.99997 10.0909 2.99997 9.49999C2.99997 8.90904 3.11637 8.32387 3.34252 7.7779Z" stroke="#FAFAFA" stroke-width="1.2" stroke-linecap="round" stroke-linejoin="round"/>
</svg>
