<svg width="312" height="26" viewBox="0 0 312 26" fill="none" xmlns="http://www.w3.org/2000/svg">
<line x1="7.5" x2="7.5" y2="4" stroke="#E5E5E5"/>
<path d="M7.00946 21V12.068L5.11246 13.209V12.054L7.00946 10.92H8.05246V21H7.00946Z" fill="#E5E5E5"/>
<line x1="40.6094" x2="40.6094" y2="4" stroke="#E5E5E5"/>
<path d="M36.8172 20.993L36.8242 20.055L41.3812 15.939C41.7732 15.5843 42.0322 15.2483 42.1582 14.931C42.2889 14.609 42.3542 14.273 42.3542 13.923C42.3542 13.5077 42.2562 13.132 42.0602 12.796C41.8642 12.46 41.6005 12.194 41.2692 11.998C40.9379 11.7973 40.5669 11.697 40.1562 11.697C39.7269 11.697 39.3442 11.7997 39.0082 12.005C38.6722 12.2103 38.4062 12.481 38.2102 12.817C38.0189 13.153 37.9255 13.5193 37.9302 13.916H36.8802C36.8802 13.3047 37.0249 12.7563 37.3142 12.271C37.6035 11.7857 37.9955 11.4053 38.4902 11.13C38.9849 10.85 39.5449 10.71 40.1702 10.71C40.7815 10.71 41.3299 10.8547 41.8152 11.144C42.3052 11.4287 42.6902 11.816 42.9702 12.306C43.2549 12.7913 43.3972 13.3327 43.3972 13.93C43.3972 14.35 43.3459 14.721 43.2432 15.043C43.1452 15.3603 42.9889 15.6567 42.7742 15.932C42.5642 16.2027 42.2959 16.4827 41.9692 16.772L37.9232 20.426L37.7622 20.006H43.3972V20.993H36.8172Z" fill="#E5E5E5"/>
<line x1="73.7227" x2="73.7227" y2="4" stroke="#E5E5E5"/>
<path d="M73.0425 21.203C72.5432 21.203 72.0835 21.1143 71.6635 20.937C71.2435 20.7597 70.8818 20.5077 70.5785 20.181C70.2752 19.8497 70.0535 19.4553 69.9135 18.998L70.8935 18.704C71.0615 19.2033 71.3368 19.5813 71.7195 19.838C72.1068 20.0947 72.5432 20.2183 73.0285 20.209C73.4765 20.1997 73.8615 20.0993 74.1835 19.908C74.5102 19.7167 74.7598 19.4507 74.9325 19.11C75.1052 18.7693 75.1915 18.375 75.1915 17.927C75.1915 17.241 74.9908 16.6903 74.5895 16.275C74.1928 15.855 73.6678 15.645 73.0145 15.645C72.8325 15.645 72.6412 15.6707 72.4405 15.722C72.2398 15.7687 72.0532 15.8363 71.8805 15.925L71.3625 15.106L75.2825 11.487L75.4505 11.907H70.3125V10.92H76.1365V11.921L72.7205 15.183L72.7065 14.777C73.4065 14.6883 74.0225 14.7677 74.5545 15.015C75.0865 15.2623 75.5018 15.6403 75.8005 16.149C76.1038 16.653 76.2555 17.2457 76.2555 17.927C76.2555 18.571 76.1155 19.1403 75.8355 19.635C75.5602 20.125 75.1798 20.51 74.6945 20.79C74.2092 21.0653 73.6585 21.203 73.0425 21.203Z" fill="#E5E5E5"/>
<line x1="106.832" x2="106.832" y2="4" stroke="#E5E5E5"/>
<path d="M107.621 21V19.047H102.903V18.067L106.277 10.92H107.432L104.058 18.067H107.621V15.127H108.657V18.067H109.756V19.047H108.657V21H107.621Z" fill="#E5E5E5"/>
<line x1="139.945" x2="139.945" y2="4" stroke="#E5E5E5"/>
<path d="M139.36 21.21C138.838 21.21 138.355 21.1027 137.911 20.888C137.468 20.6733 137.09 20.377 136.777 19.999C136.465 19.621 136.241 19.187 136.105 18.697L137.092 18.431C137.181 18.795 137.342 19.11 137.575 19.376C137.809 19.6373 138.082 19.8403 138.394 19.985C138.712 20.1297 139.043 20.202 139.388 20.202C139.836 20.202 140.238 20.0947 140.592 19.88C140.952 19.6607 141.236 19.3713 141.446 19.012C141.656 18.6527 141.761 18.2583 141.761 17.829C141.761 17.3857 141.652 16.9867 141.432 16.632C141.213 16.2727 140.924 15.988 140.564 15.778C140.205 15.568 139.813 15.463 139.388 15.463C138.912 15.463 138.502 15.568 138.156 15.778C137.811 15.9833 137.536 16.2423 137.33 16.555L136.392 16.163L136.7 10.92H142.083V11.907H137.155L137.666 11.424L137.393 15.897L137.134 15.554C137.424 15.2227 137.774 14.9637 138.184 14.777C138.595 14.5903 139.027 14.497 139.479 14.497C140.1 14.497 140.66 14.6463 141.159 14.945C141.659 15.239 142.055 15.638 142.349 16.142C142.643 16.646 142.79 17.2083 142.79 17.829C142.79 18.445 142.634 19.0097 142.321 19.523C142.009 20.0317 141.593 20.44 141.075 20.748C140.557 21.056 139.986 21.21 139.36 21.21Z" fill="#E5E5E5"/>
<line x1="173.055" x2="173.055" y2="4" stroke="#E5E5E5"/>
<path d="M172.603 21.21C171.973 21.21 171.399 21.0583 170.881 20.755C170.368 20.447 169.957 20.0317 169.649 19.509C169.346 18.9817 169.194 18.389 169.194 17.731V14.238C169.194 13.5613 169.346 12.9593 169.649 12.432C169.952 11.9 170.365 11.4823 170.888 11.179C171.415 10.871 172.013 10.717 172.68 10.717C173.254 10.717 173.786 10.843 174.276 11.095C174.771 11.347 175.174 11.6993 175.487 12.152L174.696 12.803C174.481 12.467 174.197 12.1987 173.842 11.998C173.487 11.7973 173.1 11.697 172.68 11.697C172.209 11.697 171.789 11.8113 171.42 12.04C171.051 12.2687 170.762 12.5697 170.552 12.943C170.342 13.3117 170.237 13.713 170.237 14.147V16.345L169.978 16.051C170.272 15.589 170.657 15.2157 171.133 14.931C171.614 14.6463 172.136 14.504 172.701 14.504C173.326 14.504 173.889 14.6533 174.388 14.952C174.887 15.246 175.284 15.645 175.578 16.149C175.872 16.653 176.019 17.2177 176.019 17.843C176.019 18.4637 175.863 19.0283 175.55 19.537C175.242 20.0457 174.829 20.4517 174.311 20.755C173.798 21.0583 173.228 21.21 172.603 21.21ZM172.603 20.209C173.042 20.209 173.441 20.104 173.8 19.894C174.164 19.684 174.451 19.3993 174.661 19.04C174.876 18.6807 174.983 18.2817 174.983 17.843C174.983 17.4043 174.876 17.0053 174.661 16.646C174.451 16.282 174.166 15.995 173.807 15.785C173.448 15.5703 173.049 15.463 172.61 15.463C172.171 15.463 171.772 15.5703 171.413 15.785C171.054 15.995 170.767 16.282 170.552 16.646C170.342 17.0053 170.237 17.4043 170.237 17.843C170.237 18.277 170.342 18.6737 170.552 19.033C170.762 19.3923 171.047 19.6793 171.406 19.894C171.765 20.104 172.164 20.209 172.603 20.209Z" fill="#E5E5E5"/>
<line x1="206.168" x2="206.168" y2="4" stroke="#E5E5E5"/>
<path d="M203.673 21L207.383 11.921H202.714V10.92H208.482V11.921L204.779 21H203.673Z" fill="#E5E5E5"/>
<line x1="239.277" x2="239.277" y2="4" stroke="#E5E5E5"/>
<path d="M238.77 21.21C238.14 21.21 237.582 21.084 237.097 20.832C236.616 20.58 236.238 20.2277 235.963 19.775C235.692 19.3177 235.557 18.7833 235.557 18.172C235.557 17.5467 235.708 16.9913 236.012 16.506C236.315 16.016 236.777 15.645 237.398 15.393L237.384 15.799C236.866 15.6077 236.471 15.295 236.201 14.861C235.93 14.427 235.795 13.9463 235.795 13.419C235.795 12.859 235.923 12.3783 236.18 11.977C236.436 11.571 236.786 11.2583 237.23 11.039C237.678 10.8197 238.191 10.71 238.77 10.71C239.348 10.71 239.862 10.8197 240.31 11.039C240.758 11.2583 241.11 11.571 241.367 11.977C241.623 12.3783 241.752 12.859 241.752 13.419C241.752 13.9463 241.621 14.4247 241.36 14.854C241.103 15.2833 240.709 15.5983 240.177 15.799L240.142 15.393C240.762 15.6403 241.227 16.009 241.535 16.499C241.847 16.989 242.004 17.5467 242.004 18.172C242.004 18.7833 241.866 19.3177 241.591 19.775C241.315 20.2277 240.935 20.58 240.45 20.832C239.964 21.084 239.404 21.21 238.77 21.21ZM238.77 20.223C239.404 20.223 239.92 20.048 240.317 19.698C240.713 19.3433 240.912 18.8347 240.912 18.172C240.912 17.5 240.716 16.9913 240.324 16.646C239.932 16.296 239.414 16.121 238.77 16.121C238.126 16.121 237.61 16.296 237.223 16.646C236.835 16.9913 236.642 17.5 236.642 18.172C236.642 18.8347 236.838 19.3433 237.23 19.698C237.622 20.048 238.135 20.223 238.77 20.223ZM238.77 15.127C239.33 15.127 239.785 14.9847 240.135 14.7C240.485 14.4107 240.66 13.9837 240.66 13.419C240.66 12.8543 240.485 12.432 240.135 12.152C239.785 11.8673 239.33 11.725 238.77 11.725C238.21 11.725 237.755 11.8673 237.405 12.152C237.059 12.432 236.887 12.8543 236.887 13.419C236.887 13.9837 237.059 14.4107 237.405 14.7C237.755 14.9847 238.21 15.127 238.77 15.127Z" fill="#E5E5E5"/>
<line x1="272.391" x2="272.391" y2="4" stroke="#E5E5E5"/>
<path d="M271.848 10.717C272.482 10.717 273.056 10.871 273.57 11.179C274.088 11.4823 274.498 11.8977 274.802 12.425C275.105 12.9477 275.257 13.5357 275.257 14.189V17.689C275.257 18.361 275.105 18.963 274.802 19.495C274.498 20.027 274.083 20.447 273.556 20.755C273.033 21.0583 272.438 21.21 271.771 21.21C271.197 21.21 270.665 21.084 270.175 20.832C269.689 20.5753 269.288 20.223 268.971 19.775L269.755 19.124C269.969 19.4553 270.254 19.7213 270.609 19.922C270.968 20.1227 271.355 20.223 271.771 20.223C272.247 20.223 272.667 20.111 273.031 19.887C273.399 19.6583 273.689 19.3597 273.899 18.991C274.113 18.6177 274.221 18.214 274.221 17.78V15.582L274.473 15.876C274.183 16.338 273.798 16.7113 273.318 16.996C272.842 17.2807 272.319 17.423 271.75 17.423C271.129 17.423 270.567 17.2737 270.063 16.975C269.563 16.6763 269.167 16.275 268.873 15.771C268.583 15.267 268.439 14.7047 268.439 14.084C268.439 13.4633 268.593 12.8987 268.901 12.39C269.209 11.8767 269.622 11.4707 270.14 11.172C270.658 10.8687 271.227 10.717 271.848 10.717ZM271.848 11.711C271.409 11.711 271.01 11.8183 270.651 12.033C270.291 12.243 270.004 12.5277 269.79 12.887C269.58 13.2463 269.475 13.6453 269.475 14.084C269.475 14.5227 269.58 14.9217 269.79 15.281C270 15.6403 270.284 15.9273 270.644 16.142C271.003 16.352 271.402 16.457 271.841 16.457C272.279 16.457 272.678 16.352 273.038 16.142C273.402 15.9273 273.689 15.6403 273.899 15.281C274.113 14.9217 274.221 14.5227 274.221 14.084C274.221 13.65 274.113 13.2533 273.899 12.894C273.689 12.5347 273.404 12.2477 273.045 12.033C272.685 11.8183 272.286 11.711 271.848 11.711Z" fill="#E5E5E5"/>
<line x1="305.5" x2="305.5" y2="4" stroke="#E5E5E5"/>
<path d="M300.737 21V12.068L298.84 13.209V12.054L300.737 10.92H301.78V21H300.737ZM307.725 21.21C307.104 21.21 306.544 21.0653 306.045 20.776C305.55 20.4867 305.158 20.0947 304.869 19.6C304.58 19.1007 304.435 18.5407 304.435 17.92V14C304.435 13.3793 304.58 12.8217 304.869 12.327C305.158 11.8277 305.55 11.4333 306.045 11.144C306.544 10.8547 307.104 10.71 307.725 10.71C308.346 10.71 308.903 10.8547 309.398 11.144C309.897 11.4333 310.292 11.8277 310.581 12.327C310.87 12.8217 311.015 13.3793 311.015 14V17.92C311.015 18.5407 310.87 19.1007 310.581 19.6C310.292 20.0947 309.897 20.4867 309.398 20.776C308.903 21.0653 308.346 21.21 307.725 21.21ZM307.725 20.216C308.14 20.216 308.518 20.1157 308.859 19.915C309.2 19.7097 309.47 19.4367 309.671 19.096C309.872 18.7553 309.972 18.3797 309.972 17.969V13.951C309.972 13.5357 309.872 13.1577 309.671 12.817C309.47 12.4763 309.2 12.2057 308.859 12.005C308.518 11.7997 308.14 11.697 307.725 11.697C307.31 11.697 306.932 11.7997 306.591 12.005C306.25 12.2057 305.98 12.4763 305.779 12.817C305.578 13.1577 305.478 13.5357 305.478 13.951V17.969C305.478 18.3797 305.578 18.7553 305.779 19.096C305.98 19.4367 306.25 19.7097 306.591 19.915C306.932 20.1157 307.31 20.216 307.725 20.216Z" fill="#E5E5E5"/>
</svg>
