<svg width="308" height="28" viewBox="0 0 308 28" fill="none" xmlns="http://www.w3.org/2000/svg">
<line x1="7.5" x2="7.5" y2="4" stroke="#E5E5E5"/>
<path d="M7.01081 24V13.792L4.84281 15.096V13.776L7.01081 12.48H8.20281V24H7.01081Z" fill="#E5E5E5"/>
<line x1="40.168" x2="40.168" y2="4" stroke="#E5E5E5"/>
<path d="M35.9055 23.992L35.9135 22.92L41.1215 18.216C41.5695 17.8107 41.8655 17.4267 42.0095 17.064C42.1588 16.696 42.2335 16.312 42.2335 15.912C42.2335 15.4373 42.1215 15.008 41.8975 14.624C41.6735 14.24 41.3721 13.936 40.9935 13.712C40.6148 13.4827 40.1908 13.368 39.7215 13.368C39.2308 13.368 38.7935 13.4853 38.4095 13.72C38.0255 13.9547 37.7215 14.264 37.4975 14.648C37.2788 15.032 37.1721 15.4507 37.1775 15.904H35.9775C35.9775 15.2053 36.1428 14.5787 36.4735 14.024C36.8041 13.4693 37.2521 13.0347 37.8175 12.72C38.3828 12.4 39.0228 12.24 39.7375 12.24C40.4361 12.24 41.0628 12.4053 41.6175 12.736C42.1775 13.0613 42.6175 13.504 42.9375 14.064C43.2628 14.6187 43.4255 15.2373 43.4255 15.92C43.4255 16.4 43.3668 16.824 43.2495 17.192C43.1375 17.5547 42.9588 17.8933 42.7135 18.208C42.4735 18.5173 42.1668 18.8373 41.7935 19.168L37.1695 23.344L36.9855 22.864H43.4255V23.992H35.9055Z" fill="#E5E5E5"/>
<line x1="72.832" x2="72.832" y2="4" stroke="#E5E5E5"/>
<path d="M72.1262 24.232C71.5555 24.232 71.0302 24.1307 70.5502 23.928C70.0702 23.7253 69.6568 23.4373 69.3102 23.064C68.9635 22.6853 68.7102 22.2347 68.5502 21.712L69.6702 21.376C69.8622 21.9467 70.1768 22.3787 70.6142 22.672C71.0568 22.9653 71.5555 23.1067 72.1102 23.096C72.6222 23.0853 73.0622 22.9707 73.4302 22.752C73.8035 22.5333 74.0888 22.2293 74.2862 21.84C74.4835 21.4507 74.5822 21 74.5822 20.488C74.5822 19.704 74.3528 19.0747 73.8942 18.6C73.4408 18.12 72.8408 17.88 72.0942 17.88C71.8862 17.88 71.6675 17.9093 71.4382 17.968C71.2088 18.0213 70.9955 18.0987 70.7982 18.2L70.2062 17.264L74.6862 13.128L74.8782 13.608H69.0062V12.48H75.6622V13.624L71.7582 17.352L71.7422 16.888C72.5422 16.7867 73.2462 16.8773 73.8542 17.16C74.4622 17.4427 74.9368 17.8747 75.2782 18.456C75.6248 19.032 75.7982 19.7093 75.7982 20.488C75.7982 21.224 75.6382 21.8747 75.3182 22.44C75.0035 23 74.5688 23.44 74.0142 23.76C73.4595 24.0747 72.8302 24.232 72.1262 24.232Z" fill="#E5E5E5"/>
<line x1="105.5" x2="105.5" y2="4" stroke="#E5E5E5"/>
<path d="M106.473 24V21.768H101.081V20.648L104.937 12.48H106.257L102.401 20.648H106.473V17.288H107.657V20.648H108.913V21.768H107.657V24H106.473Z" fill="#E5E5E5"/>
<line x1="138.168" x2="138.168" y2="4" stroke="#E5E5E5"/>
<path d="M137.571 24.24C136.973 24.24 136.421 24.1173 135.915 23.872C135.408 23.6267 134.976 23.288 134.619 22.856C134.261 22.424 134.005 21.928 133.851 21.368L134.979 21.064C135.08 21.48 135.264 21.84 135.531 22.144C135.797 22.4427 136.109 22.6747 136.467 22.84C136.829 23.0053 137.208 23.088 137.603 23.088C138.115 23.088 138.573 22.9653 138.979 22.72C139.389 22.4693 139.715 22.1387 139.955 21.728C140.195 21.3173 140.315 20.8667 140.315 20.376C140.315 19.8693 140.189 19.4133 139.939 19.008C139.688 18.5973 139.357 18.272 138.947 18.032C138.536 17.792 138.088 17.672 137.603 17.672C137.059 17.672 136.589 17.792 136.195 18.032C135.8 18.2667 135.485 18.5627 135.251 18.92L134.179 18.472L134.531 12.48H140.683V13.608H135.051L135.635 13.056L135.323 18.168L135.027 17.776C135.357 17.3973 135.757 17.1013 136.227 16.888C136.696 16.6747 137.189 16.568 137.707 16.568C138.416 16.568 139.056 16.7387 139.627 17.08C140.197 17.416 140.651 17.872 140.987 18.448C141.323 19.024 141.491 19.6667 141.491 20.376C141.491 21.08 141.312 21.7253 140.955 22.312C140.597 22.8933 140.123 23.36 139.531 23.712C138.939 24.064 138.285 24.24 137.571 24.24Z" fill="#E5E5E5"/>
<line x1="170.832" x2="170.832" y2="4" stroke="#E5E5E5"/>
<path d="M170.387 24.24C169.667 24.24 169.011 24.0667 168.419 23.72C167.832 23.368 167.363 22.8933 167.011 22.296C166.664 21.6933 166.491 21.016 166.491 20.264V16.272C166.491 15.4987 166.664 14.8107 167.011 14.208C167.358 13.6 167.83 13.1227 168.427 12.776C169.03 12.424 169.712 12.248 170.475 12.248C171.131 12.248 171.739 12.392 172.299 12.68C172.864 12.968 173.326 13.3707 173.683 13.888L172.779 14.632C172.534 14.248 172.208 13.9413 171.803 13.712C171.398 13.4827 170.955 13.368 170.475 13.368C169.936 13.368 169.456 13.4987 169.035 13.76C168.614 14.0213 168.283 14.3653 168.043 14.792C167.803 15.2133 167.683 15.672 167.683 16.168V18.68L167.387 18.344C167.723 17.816 168.163 17.3893 168.707 17.064C169.256 16.7387 169.854 16.576 170.499 16.576C171.214 16.576 171.856 16.7467 172.427 17.088C172.998 17.424 173.451 17.88 173.787 18.456C174.123 19.032 174.291 19.6773 174.291 20.392C174.291 21.1013 174.112 21.7467 173.755 22.328C173.403 22.9093 172.931 23.3733 172.339 23.72C171.752 24.0667 171.102 24.24 170.387 24.24ZM170.387 23.096C170.888 23.096 171.344 22.976 171.755 22.736C172.171 22.496 172.499 22.1707 172.739 21.76C172.984 21.3493 173.107 20.8933 173.107 20.392C173.107 19.8907 172.984 19.4347 172.739 19.024C172.499 18.608 172.174 18.28 171.763 18.04C171.352 17.7947 170.896 17.672 170.395 17.672C169.894 17.672 169.438 17.7947 169.027 18.04C168.616 18.28 168.288 18.608 168.043 19.024C167.803 19.4347 167.683 19.8907 167.683 20.392C167.683 20.888 167.803 21.3413 168.043 21.752C168.283 22.1627 168.608 22.4907 169.019 22.736C169.43 22.976 169.886 23.096 170.387 23.096Z" fill="#E5E5E5"/>
<line x1="203.5" x2="203.5" y2="4" stroke="#E5E5E5"/>
<path d="M200.72 24L204.96 13.624H199.624V12.48H206.216V13.624L201.984 24H200.72Z" fill="#E5E5E5"/>
<line x1="236.168" x2="236.168" y2="4" stroke="#E5E5E5"/>
<path d="M235.659 24.24C234.939 24.24 234.302 24.096 233.747 23.808C233.198 23.52 232.766 23.1173 232.451 22.6C232.142 22.0773 231.987 21.4667 231.987 20.768C231.987 20.0533 232.161 19.4187 232.507 18.864C232.854 18.304 233.382 17.88 234.091 17.592L234.075 18.056C233.483 17.8373 233.033 17.48 232.723 16.984C232.414 16.488 232.259 15.9387 232.259 15.336C232.259 14.696 232.406 14.1467 232.699 13.688C232.993 13.224 233.393 12.8667 233.899 12.616C234.411 12.3653 234.998 12.24 235.659 12.24C236.321 12.24 236.907 12.3653 237.419 12.616C237.931 12.8667 238.334 13.224 238.627 13.688C238.921 14.1467 239.067 14.696 239.067 15.336C239.067 15.9387 238.918 16.4853 238.619 16.976C238.326 17.4667 237.875 17.8267 237.267 18.056L237.227 17.592C237.937 17.8747 238.467 18.296 238.819 18.856C239.177 19.416 239.355 20.0533 239.355 20.768C239.355 21.4667 239.198 22.0773 238.883 22.6C238.569 23.1173 238.134 23.52 237.579 23.808C237.025 24.096 236.385 24.24 235.659 24.24ZM235.659 23.112C236.385 23.112 236.974 22.912 237.427 22.512C237.881 22.1067 238.107 21.5253 238.107 20.768C238.107 20 237.883 19.4187 237.435 19.024C236.987 18.624 236.395 18.424 235.659 18.424C234.923 18.424 234.334 18.624 233.891 19.024C233.449 19.4187 233.227 20 233.227 20.768C233.227 21.5253 233.451 22.1067 233.899 22.512C234.347 22.912 234.934 23.112 235.659 23.112ZM235.659 17.288C236.299 17.288 236.819 17.1253 237.219 16.8C237.619 16.4693 237.819 15.9813 237.819 15.336C237.819 14.6907 237.619 14.208 237.219 13.888C236.819 13.5627 236.299 13.4 235.659 13.4C235.019 13.4 234.499 13.5627 234.099 13.888C233.705 14.208 233.507 14.6907 233.507 15.336C233.507 15.9813 233.705 16.4693 234.099 16.8C234.499 17.1253 235.019 17.288 235.659 17.288Z" fill="#E5E5E5"/>
<line x1="268.832" x2="268.832" y2="4" stroke="#E5E5E5"/>
<path d="M268.283 12.248C269.008 12.248 269.664 12.424 270.251 12.776C270.843 13.1227 271.312 13.5973 271.659 14.2C272.006 14.7973 272.179 15.4693 272.179 16.216V20.216C272.179 20.984 272.006 21.672 271.659 22.28C271.312 22.888 270.838 23.368 270.235 23.72C269.638 24.0667 268.958 24.24 268.195 24.24C267.539 24.24 266.931 24.096 266.371 23.808C265.816 23.5147 265.358 23.112 264.995 22.6L265.891 21.856C266.136 22.2347 266.462 22.5387 266.867 22.768C267.278 22.9973 267.72 23.112 268.195 23.112C268.739 23.112 269.219 22.984 269.635 22.728C270.056 22.4667 270.387 22.1253 270.627 21.704C270.872 21.2773 270.995 20.816 270.995 20.32V17.808L271.283 18.144C270.952 18.672 270.512 19.0987 269.963 19.424C269.419 19.7493 268.822 19.912 268.171 19.912C267.462 19.912 266.819 19.7413 266.243 19.4C265.672 19.0587 265.219 18.6 264.883 18.024C264.552 17.448 264.387 16.8053 264.387 16.096C264.387 15.3867 264.563 14.7413 264.915 14.16C265.267 13.5733 265.739 13.1093 266.331 12.768C266.923 12.4213 267.574 12.248 268.283 12.248ZM268.283 13.384C267.782 13.384 267.326 13.5067 266.915 13.752C266.504 13.992 266.176 14.3173 265.931 14.728C265.691 15.1387 265.571 15.5947 265.571 16.096C265.571 16.5973 265.691 17.0533 265.931 17.464C266.171 17.8747 266.496 18.2027 266.907 18.448C267.318 18.688 267.774 18.808 268.275 18.808C268.776 18.808 269.232 18.688 269.643 18.448C270.059 18.2027 270.387 17.8747 270.627 17.464C270.872 17.0533 270.995 16.5973 270.995 16.096C270.995 15.6 270.872 15.1467 270.627 14.736C270.387 14.3253 270.062 13.9973 269.651 13.752C269.24 13.5067 268.784 13.384 268.283 13.384Z" fill="#E5E5E5"/>
<line x1="301.5" x2="301.5" y2="4" stroke="#E5E5E5"/>
<path d="M296.128 24V13.792L293.96 15.096V13.776L296.128 12.48H297.32V24H296.128ZM304.114 24.24C303.405 24.24 302.765 24.0747 302.194 23.744C301.629 23.4133 301.181 22.9653 300.85 22.4C300.52 21.8293 300.354 21.1893 300.354 20.48V16C300.354 15.2907 300.52 14.6533 300.85 14.088C301.181 13.5173 301.629 13.0667 302.194 12.736C302.765 12.4053 303.405 12.24 304.114 12.24C304.824 12.24 305.461 12.4053 306.026 12.736C306.597 13.0667 307.048 13.5173 307.378 14.088C307.709 14.6533 307.874 15.2907 307.874 16V20.48C307.874 21.1893 307.709 21.8293 307.378 22.4C307.048 22.9653 306.597 23.4133 306.026 23.744C305.461 24.0747 304.824 24.24 304.114 24.24ZM304.114 23.104C304.589 23.104 305.021 22.9893 305.41 22.76C305.8 22.5253 306.109 22.2133 306.338 21.824C306.568 21.4347 306.682 21.0053 306.682 20.536V15.944C306.682 15.4693 306.568 15.0373 306.338 14.648C306.109 14.2587 305.8 13.9493 305.41 13.72C305.021 13.4853 304.589 13.368 304.114 13.368C303.64 13.368 303.208 13.4853 302.818 13.72C302.429 13.9493 302.12 14.2587 301.89 14.648C301.661 15.0373 301.546 15.4693 301.546 15.944V20.536C301.546 21.0053 301.661 21.4347 301.89 21.824C302.12 22.2133 302.429 22.5253 302.818 22.76C303.208 22.9893 303.64 23.104 304.114 23.104Z" fill="#E5E5E5"/>
</svg>
