<svg width="120" height="24" viewBox="0 0 120 24" fill="none" xmlns="http://www.w3.org/2000/svg">
    <path d="M21.3859 9.33831L15.6901 8.51709L13.1439 3.39615C13.0743 3.25594 12.9599 3.14244 12.8186 3.07345C12.4642 2.89986 12.0334 3.04452 11.8562 3.39615L9.31002 8.51709L3.61419 9.33831C3.45716 9.36057 3.31358 9.43401 3.20366 9.54529C3.07077 9.68079 2.99754 9.86309 3.00006 10.0521C3.00259 10.2412 3.08066 10.4215 3.21712 10.5535L7.33813 14.5394L6.36452 20.1677C6.34169 20.2987 6.35629 20.4333 6.40668 20.5564C6.45706 20.6795 6.54121 20.7862 6.64958 20.8643C6.75795 20.9424 6.8862 20.9887 7.0198 20.9982C7.1534 21.0076 7.28699 20.9798 7.40543 20.9177L12.5 18.2605L17.5947 20.9177C17.7337 20.9912 17.8953 21.0157 18.0501 20.989C18.4404 20.9222 18.7029 20.555 18.6356 20.1677L17.662 14.5394L21.783 10.5535C21.8951 10.4444 21.9692 10.302 21.9916 10.1462C22.0522 9.75671 21.7785 9.39618 21.3859 9.33831V9.33831Z" fill="#525252"/>
    <path d="M45.3859 9.33831L39.6901 8.51709L37.1439 3.39615C37.0743 3.25594 36.9599 3.14244 36.8186 3.07345C36.4642 2.89986 36.0334 3.04452 35.8562 3.39615L33.31 8.51709L27.6142 9.33831C27.4572 9.36057 27.3136 9.43401 27.2037 9.54529C27.0708 9.68079 26.9975 9.86309 27.0001 10.0521C27.0026 10.2412 27.0807 10.4215 27.2171 10.5535L31.3381 14.5394L30.3645 20.1677C30.3417 20.2987 30.3563 20.4333 30.4067 20.5564C30.4571 20.6795 30.5412 20.7862 30.6496 20.8643C30.7579 20.9424 30.8862 20.9887 31.0198 20.9982C31.1534 21.0076 31.287 20.9798 31.4054 20.9177L36.5 18.2605L41.5947 20.9177C41.7337 20.9912 41.8953 21.0157 42.0501 20.989C42.4404 20.9222 42.7029 20.555 42.6356 20.1677L41.662 14.5394L45.783 10.5535C45.8951 10.4444 45.9692 10.302 45.9916 10.1462C46.0522 9.75671 45.7785 9.39618 45.3859 9.33831V9.33831Z" fill="#525252"/>
    <path d="M69.3859 9.33831L63.6901 8.51709L61.1439 3.39615C61.0743 3.25594 60.9599 3.14244 60.8186 3.07345C60.4642 2.89986 60.0334 3.04452 59.8562 3.39615L57.31 8.51709L51.6142 9.33831C51.4572 9.36057 51.3136 9.43401 51.2037 9.54529C51.0708 9.68079 50.9975 9.86309 51.0001 10.0521C51.0026 10.2412 51.0807 10.4215 51.2171 10.5535L55.3381 14.5394L54.3645 20.1677C54.3417 20.2987 54.3563 20.4333 54.4067 20.5564C54.4571 20.6795 54.5412 20.7862 54.6496 20.8643C54.7579 20.9424 54.8862 20.9887 55.0198 20.9982C55.1534 21.0076 55.287 20.9798 55.4054 20.9177L60.5 18.2605L65.5947 20.9177C65.7337 20.9912 65.8953 21.0157 66.0501 20.989C66.4404 20.9222 66.7029 20.555 66.6356 20.1677L65.662 14.5394L69.783 10.5535C69.8951 10.4444 69.9692 10.302 69.9916 10.1462C70.0522 9.75671 69.7785 9.39618 69.3859 9.33831V9.33831Z" fill="#525252"/>
    <path d="M93.3859 9.33831L87.6901 8.51709L85.1439 3.39615C85.0743 3.25594 84.9599 3.14244 84.8186 3.07345C84.4642 2.89986 84.0334 3.04452 83.8562 3.39615L81.31 8.51709L75.6142 9.33831C75.4572 9.36057 75.3136 9.43401 75.2037 9.54529C75.0708 9.68079 74.9975 9.86309 75.0001 10.0521C75.0026 10.2412 75.0807 10.4215 75.2171 10.5535L79.3381 14.5394L78.3645 20.1677C78.3417 20.2987 78.3563 20.4333 78.4067 20.5564C78.4571 20.6795 78.5412 20.7862 78.6496 20.8643C78.7579 20.9424 78.8862 20.9887 79.0198 20.9982C79.1534 21.0076 79.287 20.9798 79.4054 20.9177L84.5 18.2605L89.5947 20.9177C89.7337 20.9912 89.8953 21.0157 90.0501 20.989C90.4404 20.9222 90.7029 20.555 90.6356 20.1677L89.662 14.5394L93.783 10.5535C93.8951 10.4444 93.9692 10.302 93.9916 10.1462C94.0522 9.75671 93.7785 9.39618 93.3859 9.33831V9.33831Z" fill="#525252"/>
    <path d="M117.386 9.33831L111.69 8.51709L109.144 3.39615C109.074 3.25594 108.96 3.14244 108.819 3.07345C108.464 2.89986 108.033 3.04452 107.856 3.39615L105.31 8.51709L99.6142 9.33831C99.4572 9.36057 99.3136 9.43401 99.2037 9.54529C99.0708 9.68079 98.9975 9.86309 99.0001 10.0521C99.0026 10.2412 99.0807 10.4215 99.2171 10.5535L103.338 14.5394L102.365 20.1677C102.342 20.2987 102.356 20.4333 102.407 20.5564C102.457 20.6795 102.541 20.7862 102.65 20.8643C102.758 20.9424 102.886 20.9887 103.02 20.9982C103.153 21.0076 103.287 20.9798 103.405 20.9177L108.5 18.2605L113.595 20.9177C113.734 20.9912 113.895 21.0157 114.05 20.989C114.44 20.9222 114.703 20.555 114.636 20.1677L113.662 14.5394L117.783 10.5535C117.895 10.4444 117.969 10.302 117.992 10.1462C118.052 9.75671 117.778 9.39618 117.386 9.33831V9.33831Z" fill="#525252"/>
</svg>
