<svg width="197" height="28" viewBox="0 0 197 28" fill="none" xmlns="http://www.w3.org/2000/svg">
    <g clip-path="url(#clip0_9722_54529)">
        <path d="M77.2742 4C77.1059 4 76.9547 4.10305 76.8933 4.25972L69.7505 22.4615C69.6452 22.7299 69.8431 23.0202 70.1314 23.0202H74.4577C74.6319 23.0202 74.787 22.9099 74.8442 22.7454L79.3814 9.70052C79.4027 9.63946 79.489 9.63946 79.5103 9.70052L84.0474 22.7454C84.1047 22.9099 84.2598 23.0202 84.4339 23.0202H88.7603C89.0486 23.0202 89.2465 22.7299 89.1412 22.4615L81.9984 4.25972C81.9369 4.10305 81.7858 4 81.6175 4H77.2742Z" fill="#FD4444"/>
        <rect y="4.40918" width="13.4357" height="3.95569" rx="0.409209" fill="white"/>
        <path d="M123.118 23.3612C123.287 23.3612 123.438 23.2582 123.499 23.1015L130.642 4.8997C130.747 4.63127 130.55 4.341 130.261 4.341H125.932C125.759 4.341 125.605 4.44972 125.547 4.61259L121.02 17.2903C120.998 17.3506 120.913 17.3506 120.891 17.2904L116.347 4.61214C116.288 4.4495 116.134 4.341 115.962 4.341H111.632C111.344 4.341 111.146 4.63127 111.251 4.8997L118.394 23.1015C118.456 23.2582 118.607 23.3612 118.775 23.3612H123.118Z" fill="white"/>
        <rect x="16.2319" y="23.301" width="18.8918" height="4.4331" rx="0.409209" transform="rotate(-90 16.2319 23.301)" fill="white"/>
        <rect x="133.539" y="23.301" width="18.8918" height="4.4331" rx="0.409209" transform="rotate(-90 133.539 23.301)" fill="white"/>
        <path d="M156.285 7.23638L154.24 9.94381C154.093 10.1384 153.81 10.1613 153.625 10.0021C151.859 8.47962 150.073 8.058 148.406 8.058C145.981 8.058 145.743 9.74284 147.076 10.3087C148.202 10.7861 149.941 11.0248 152.669 11.9796C155.226 12.8747 156.863 14.8441 156.556 17.9813C156.249 21.1186 154.442 23.2669 149.293 23.5738C145.334 23.8098 142.262 21.6882 141.014 20.367C140.885 20.2306 140.879 20.0231 140.988 19.871L142.901 17.2213C143.05 17.0137 143.352 16.9939 143.537 17.1705C145.528 19.0669 147.715 19.5841 149.293 19.5841C150.964 19.5841 152.021 18.7997 152.021 17.9813C152.021 17.1629 150.759 16.6855 149.668 16.4127C148.577 16.1399 146.803 16.0035 143.973 14.503C141.143 13.0026 141.347 9.42204 142.063 7.717C142.78 6.01196 144.723 4.00002 149.361 4.10232C152.771 4.17754 155.233 5.75655 156.253 6.72637C156.395 6.86149 156.403 7.07987 156.285 7.23638Z" fill="white"/>
        <path d="M44.9449 4.40918C44.7189 4.40918 44.5356 4.59239 44.5356 4.81839V7.95566C44.5356 8.18166 44.7189 8.36487 44.9449 8.36487H49.4462C49.6722 8.36487 49.8554 8.54808 49.8554 8.77408V22.8918C49.8554 23.1178 50.0386 23.301 50.2646 23.301H53.8792C54.1052 23.301 54.2885 23.1178 54.2885 22.8918V8.77408C54.2885 8.54808 54.4717 8.36487 54.6977 8.36487H59.199C59.4249 8.36487 59.6082 8.18166 59.6082 7.95566V4.81839C59.6082 4.59239 59.4249 4.40918 59.199 4.40918H44.9449Z" fill="white"/>
        <path d="M0.409209 11.9796C0.183225 11.9796 0 12.1628 0 12.3888V22.96C0 23.186 0.183225 23.3692 0.409209 23.3692H4.09209C4.31807 23.3692 4.5013 23.186 4.5013 22.96V16.208C4.5013 16.0574 4.62344 15.9352 4.77411 15.9352H13.0265C13.2525 15.9352 13.4357 15.752 13.4357 15.526V12.3888C13.4357 12.1628 13.2525 11.9796 13.0265 11.9796H0.409209Z" fill="white"/>
        <path d="M37.3758 16.9569C37.5002 16.7888 37.726 16.7244 37.9133 16.8172L41.2824 18.4859C41.4939 18.5907 41.5738 18.8527 41.4471 19.0518C39.7162 21.7704 36.6758 23.5738 33.2142 23.5738C27.8279 23.5738 23.4614 19.2073 23.4614 13.821C23.4614 8.43466 27.8279 4.06818 33.2142 4.06818C36.7067 4.06818 39.7704 5.90389 41.493 8.66307C41.6173 8.8621 41.5369 9.12191 41.3267 9.22609L37.9267 10.911C37.7388 11.0041 37.5122 10.9389 37.388 10.7699C36.4385 9.47693 34.9073 8.63768 33.1801 8.63768C30.2986 8.63768 27.9627 10.9736 27.9627 13.8551C27.9627 16.7366 30.2986 19.0725 33.1801 19.0725C34.8999 19.0725 36.4253 18.2404 37.3758 16.9569Z" fill="white"/>
        <path fill-rule="evenodd" clip-rule="evenodd" d="M92.0718 22.8918C92.0718 23.1178 92.255 23.301 92.481 23.301H100.017C100.029 23.301 100.04 23.3011 100.051 23.301C101.28 23.2966 102.497 23.0523 103.632 22.582C104.778 22.1073 105.819 21.4115 106.697 20.5344C107.574 19.6572 108.269 18.6159 108.744 17.4699C109.219 16.3239 109.463 15.0956 109.463 13.8551C109.463 12.6146 109.219 11.3863 108.744 10.2403C108.269 9.09428 107.574 8.05297 106.697 7.17584C105.819 6.2987 104.778 5.60292 103.632 5.12822C102.497 4.65787 101.28 4.41364 100.051 4.4092C100.04 4.40916 100.029 4.4092 100.017 4.4092H92.481C92.255 4.4092 92.0718 4.59241 92.0718 4.81841V22.8918ZM100.017 8.8423H96.7777C96.627 8.8423 96.5049 8.96443 96.5049 9.1151V18.5951C96.5049 18.7458 96.627 18.8679 96.7777 18.8679H100.017V18.8656C100.675 18.8656 101.327 18.736 101.935 18.4842C102.543 18.2324 103.095 17.8633 103.56 17.3981C104.025 16.9328 104.395 16.3804 104.646 15.7725C104.898 15.1646 105.028 14.5131 105.028 13.8551C105.028 13.1971 104.898 12.5456 104.646 11.9377C104.395 11.3298 104.025 10.7774 103.56 10.3121C103.095 9.84687 102.543 9.4778 101.935 9.226C101.327 8.9742 100.675 8.8446 100.017 8.8446V8.8423Z" fill="white"/>
        <path fill-rule="evenodd" clip-rule="evenodd" d="M169.038 23.8466C174.443 23.8466 178.825 19.4038 178.825 13.9233C178.825 8.44282 174.443 4 169.038 4C163.633 4 159.251 8.44282 159.251 13.9233C159.251 19.4038 163.633 23.8466 169.038 23.8466ZM169.14 19.0725C172.041 19.0725 174.392 16.7213 174.392 13.821C174.392 10.9207 172.041 8.5695 169.14 8.5695C166.24 8.5695 163.889 10.9207 163.889 13.821C163.889 16.7213 166.24 19.0725 169.14 19.0725Z" fill="white"/>
        <path d="M181.484 4.81839C181.484 4.59239 181.668 4.40918 181.894 4.40918H191.169V4.41355C192.646 4.46784 194.041 5.02786 195.091 6.11422C196.197 7.25895 196.83 8.89432 196.83 10.5132C196.83 12.1321 196.208 13.6847 195.102 14.8294C194.501 15.4506 193.686 15.8263 192.894 16.1174C192.813 16.1471 192.779 16.2428 192.823 16.3167L196.63 22.6817C196.793 22.9545 196.596 23.301 196.279 23.301H191.924C191.774 23.301 191.636 23.2191 191.564 23.0876L188.456 17.3822C188.336 17.1629 188.107 17.0265 187.857 17.0265H186.872C186.496 17.0265 186.19 17.3318 186.19 17.7085V22.8236C186.19 23.0496 186.007 23.2328 185.781 23.2328H181.894C181.668 23.2328 181.484 23.0496 181.484 22.8236V12.8662C181.484 12.6402 181.666 12.457 181.892 12.457C183.654 12.457 190.534 12.457 190.623 12.457C190.726 12.457 190.93 12.3888 190.93 12.3888C191.408 12.1841 191.651 11.9936 191.919 11.5703C192.151 11.2059 192.255 10.9448 192.26 10.5132C192.266 10.0395 192.148 9.74794 191.885 9.35379C191.617 8.95232 191.203 8.70587 190.93 8.56947C190.657 8.43307 190.351 8.36487 189.703 8.36487C189.145 8.36487 183.468 8.36487 181.89 8.36487C181.664 8.36487 181.484 8.18166 181.484 7.95566V4.81839Z" fill="white"/>
        <g clip-path="url(#clip1_9722_54529)">
            <path d="M52.718 13.0964C52.9874 12.3796 53.7938 11.6595 54.3445 11.1898C55.0349 10.6048 55.7797 10.0887 56.5683 9.64907C58.3211 8.66219 60.2094 8.06659 62.0583 7.7015C63.9575 7.32709 66.0787 6.84226 67.9179 7.11306C68.2224 7.15888 68.4975 7.2353 68.6738 7.35101C68.6998 7.38421 68.7221 7.42019 68.7404 7.45831C68.8203 7.61748 68.7746 7.8375 68.6786 8.04967C68.6778 8.05214 68.6778 8.05214 68.6736 8.0529C68.4981 8.30895 68.2233 8.56979 68.0844 8.71017C67.998 8.79934 67.911 8.89049 67.8245 8.98015C67.7388 9.08898 67.6616 9.18637 67.5991 9.2546C67.2317 9.66114 66.867 10.0725 66.5123 10.4924C65.8025 11.3338 65.1042 12.1953 64.3495 12.9902C63.1557 14.2445 61.8411 15.0035 60.3045 15.416C58.4129 15.925 56.4094 15.9975 54.6363 15.5849C53.5471 15.3309 52.1465 14.6166 52.718 13.0964ZM54.1048 15.0904C55.4338 15.6362 57.0932 15.6914 58.6 15.5128C60.1432 15.3289 61.9837 14.9054 63.3371 13.7465C64.2478 12.9669 65.0361 12.0198 65.8253 11.0796C66.2318 10.5766 66.6537 10.0796 67.0847 9.60629C67.4323 9.22487 68.6658 8.14605 68.5191 7.60225C68.2897 7.34295 67.5396 7.34165 67.1956 7.33453C66.3109 7.31768 65.4188 7.40521 64.5179 7.53289C62.9358 7.75852 61.3173 8.00671 59.7447 8.5207C58.1721 9.03468 56.5253 9.71808 55.1097 10.7978C54.3585 11.3728 52.8411 12.5079 52.8116 13.5754C52.7891 14.3897 53.5089 14.8455 54.1056 15.0896L54.1048 15.0904Z" fill="#D33D3D"/>
            <path opacity="0.6" d="M52.812 13.5732C52.8426 12.5062 54.3589 11.3706 55.1101 10.7957C56.5268 9.7158 58.166 9.03856 59.7463 8.51842C61.3265 7.99827 62.9374 7.75624 64.5195 7.53061C65.4194 7.40259 66.3125 7.3154 67.1972 7.33225C67.5412 7.33937 68.2893 7.33998 68.5207 7.59997C68.6674 8.14377 67.4339 9.22259 67.0863 9.60401C66.6553 10.0773 66.2334 10.5743 65.8269 11.0773C65.0377 12.0175 64.2488 12.9661 63.3387 13.7442C61.9853 14.9031 60.1459 15.3298 58.6016 15.5106C57.0948 15.6891 55.4373 15.6346 54.1064 15.0882C53.5092 14.8455 52.7893 14.3897 52.812 13.5732Z" fill="white"/>
            <g style="mix-blend-mode:multiply" opacity="0.6">
                <path d="M54.106 15.0897C53.5093 14.8455 52.7895 14.3897 52.8122 13.5733C52.8225 13.1888 53.0297 12.7942 53.322 12.4204C53.3238 12.4293 53.3226 12.4389 53.3253 12.4482C53.4062 12.8378 53.8492 12.9488 54.189 12.9877C55.359 13.1201 56.6218 12.8672 57.7597 12.5895C60.1293 12.0125 62.4134 10.8591 64.4903 9.58786C65.55 8.93926 66.6107 8.27715 67.6471 7.5909C67.7512 7.52131 67.8546 7.45038 67.9578 7.37995C68.1953 7.41585 68.4154 7.4789 68.5211 7.5995C68.6678 8.1433 67.4342 9.22212 67.0867 9.60354C66.6557 10.0768 66.2337 10.5738 65.8272 11.0768C65.0381 12.017 64.2492 12.9656 63.339 13.7437C61.9857 14.9027 60.1462 15.3293 58.6019 15.5101C57.0944 15.6906 55.435 15.6354 54.106 15.0897Z" fill="#AFB1B4"/>
            </g>
            <path d="M54.6754 12.7552C54.6428 12.7775 54.6063 12.7446 54.6425 12.7181C56.5516 11.3225 58.734 10.0332 61.0332 9.32701C60.8777 9.33343 60.7216 9.33358 60.57 9.33808C60.2696 9.34531 59.952 9.40297 59.6551 9.3571C59.6072 9.35011 59.6574 9.29803 59.6873 9.29865C59.97 9.31178 60.2539 9.2183 60.5373 9.20339C60.8542 9.18815 61.1367 9.16018 61.4492 9.20826C61.8553 9.09713 62.2636 9.00171 62.6756 8.92978C62.774 8.91309 62.7075 9.02204 62.6486 9.03668C61.5618 9.31663 60.4968 9.67899 59.4628 10.1207C58.6033 11.1125 57.5341 11.9379 56.5073 12.7451C56.4703 12.7741 56.4133 12.7478 56.46 12.7089C57.0092 12.2481 57.5281 11.76 58.0882 11.3119C58.4873 10.992 58.7958 10.594 59.165 10.2519C57.5985 10.9498 56.0959 11.7876 54.6754 12.7552Z" fill="#ADAFB2"/>
            <path d="M56.2877 14.4943C56.2332 14.5227 56.2019 14.4689 56.257 14.4386C57.5269 13.7391 58.7109 12.7802 59.897 11.948C61.0979 11.1032 62.0985 10.1071 63.1414 9.08272C63.1681 9.05671 63.2435 9.05404 63.2041 9.10496C62.5087 9.98407 61.7081 10.7731 60.821 11.4537C60.7006 11.5879 60.6285 11.762 60.5355 11.9148C60.4244 12.0972 60.2728 12.2653 60.1379 12.4282C59.8412 12.7748 59.5096 13.0893 59.1485 13.3667C59.1207 13.3879 59.0786 13.3691 59.1133 13.3392C59.4845 13.0094 59.8278 12.6488 60.1396 12.2613C60.2728 12.1 60.3756 11.8903 60.4932 11.7007C60.4257 11.7505 60.3592 11.8007 60.2901 11.8505C59.0057 12.7561 57.6862 13.7762 56.2877 14.4943Z" fill="#ADAFB2"/>
            <path d="M76.882 9.43509C76.8675 9.32989 76.8124 9.2351 76.7286 9.17143C76.6448 9.10776 76.5391 9.08039 76.4348 9.09529C76.3141 9.11296 75.7309 9.21073 75.2864 9.52449C74.9792 8.98539 74.4486 7.64184 74.1542 6.89378C73.7997 5.99576 73.5933 5.47517 73.4588 5.27061C73.4119 5.19403 73.3448 5.13222 73.2649 5.09199C73.1851 5.05176 73.0956 5.03469 73.0064 5.04265C72.6921 5.06932 72.0978 5.50746 70.5761 8.97986C70.5347 9.07738 70.5326 9.18709 70.5703 9.28551C70.6079 9.38392 70.6823 9.46324 70.7776 9.50649C70.8739 9.54886 70.9832 9.55079 71.0816 9.51184C71.18 9.4729 71.2593 9.39626 71.3023 9.29874C71.9061 7.91915 72.5807 6.60566 72.957 6.05811C73.0821 6.35084 73.2465 6.77061 73.4076 7.17481L73.4155 7.19589C74.4765 9.88348 74.7568 10.4042 75.1806 10.4657C75.2612 10.4774 75.3437 10.4675 75.4197 10.4369C75.4957 10.4063 75.5625 10.3561 75.6135 10.2914C75.7899 10.0716 76.2765 9.92804 76.5418 9.88842C76.614 9.87822 76.6821 9.84811 76.7386 9.80141C76.7951 9.75472 76.8379 9.69325 76.8623 9.62381C76.8836 9.56327 76.8904 9.49857 76.882 9.43509Z" fill="#D33D3D"/>
            <path d="M70.8073 9.08216C72.2834 5.71225 72.8501 5.3148 73.024 5.29825C73.0679 5.29401 73.112 5.30236 73.1512 5.32233C73.1904 5.34231 73.2232 5.3731 73.2457 5.41117C73.3649 5.59371 73.5811 6.12832 73.919 6.98994C74.2658 7.86523 74.8421 9.32865 75.1473 9.78337L75.2254 9.89976L75.3327 9.80859C75.7403 9.46175 76.396 9.35863 76.4693 9.34801C76.4881 9.34519 76.5072 9.34617 76.5255 9.3509C76.5439 9.35562 76.5611 9.36399 76.5762 9.37552C76.5912 9.38705 76.6039 9.40151 76.6133 9.41806C76.6228 9.43461 76.6288 9.45292 76.6312 9.47192C76.6356 9.51001 76.6252 9.54847 76.6022 9.57919C76.5791 9.60992 76.5452 9.63051 76.5077 9.63664C76.5 9.63834 75.7191 9.75642 75.4176 10.1331C75.3942 10.1628 75.3636 10.1859 75.3288 10.2001C75.294 10.2144 75.2562 10.2192 75.2191 10.2141C74.933 10.1721 74.6105 9.53103 73.6508 7.0995L73.6426 7.07941C73.4408 6.56763 73.2317 6.03775 73.1008 5.75517L73.018 5.5778L72.8906 5.72727C72.4919 6.1959 71.6562 7.86371 71.0716 9.19687C71.0638 9.21442 71.0527 9.23028 71.039 9.24354C71.0252 9.2568 71.009 9.26721 70.9912 9.27417C70.9735 9.28113 70.9546 9.2845 70.9357 9.28408C70.9167 9.28367 70.8981 9.27949 70.8808 9.27177C70.8464 9.25552 70.8197 9.2265 70.8061 9.19072C70.7925 9.15493 70.793 9.11512 70.8077 9.07952L70.8073 9.08216Z" fill="#525252"/>
            <path d="M71.6242 15.93C71.6425 15.8251 71.6189 15.7174 71.5586 15.6307C71.4983 15.544 71.4063 15.4852 71.3026 15.4673C71.0836 15.4301 70.3742 15.3174 69.8639 15.3361C69.8329 14.9925 69.8275 14.3712 69.8242 13.8599C69.8036 11.3924 69.728 10.2911 69.0878 10.0909C68.2141 9.81896 66.7774 10.6755 66.498 10.8493C66.4105 10.9077 66.3482 10.9975 66.3237 11.1003C66.2993 11.203 66.3147 11.3111 66.3667 11.4022C66.4222 11.4921 66.511 11.5559 66.6135 11.5795C66.716 11.6032 66.824 11.5848 66.9137 11.5284C67.4544 11.1904 68.3803 10.7667 68.8028 10.8443C69.0059 11.1608 69.0237 13.1915 69.03 13.8735C69.0437 15.5218 69.0718 15.8938 69.3326 16.0877C69.3873 16.1288 69.4508 16.1562 69.5181 16.1678C69.5854 16.1794 69.6545 16.1749 69.72 16.1546C69.9033 16.1009 70.6139 16.1641 71.1644 16.2589C71.2568 16.2748 71.352 16.2571 71.4333 16.209C71.5145 16.1608 71.5764 16.0853 71.608 15.9958C71.6151 15.9743 71.6205 15.9523 71.6242 15.93Z" fill="#D33D3D"/>
            <path d="M66.6309 11.0661C67.2148 10.7019 68.3743 10.1363 69.0119 10.3345C69.5072 10.4895 69.5546 11.8326 69.5714 13.8646C69.5768 14.4764 69.5825 15.1727 69.6269 15.4922L69.644 15.6092L69.7622 15.5984C70.2561 15.555 71.0974 15.6928 71.2587 15.7195C71.2778 15.7223 71.2962 15.7289 71.3127 15.7389C71.3292 15.749 71.3435 15.7623 71.3547 15.7781C71.366 15.7939 71.374 15.8118 71.3783 15.8308C71.3825 15.8499 71.383 15.8696 71.3795 15.8888C71.3761 15.9081 71.3689 15.9265 71.3584 15.9429C71.3478 15.9594 71.3341 15.9736 71.3181 15.9846C71.302 15.9957 71.284 16.0034 71.265 16.0073C71.246 16.0112 71.2265 16.0113 71.2076 16.0075C70.874 15.9508 69.944 15.8225 69.6481 15.9112C69.6202 15.92 69.5907 15.922 69.562 15.917C69.5333 15.9119 69.5063 15.9 69.4832 15.8822C69.3208 15.7614 69.2942 15.345 69.282 13.8702C69.2676 12.0569 69.2075 10.884 68.9605 10.6418L68.9372 10.6197L68.907 10.609C68.3407 10.4521 67.1805 11.0645 66.7815 11.3146C66.7653 11.3246 66.7473 11.3312 66.7286 11.3341C66.7099 11.337 66.6909 11.3361 66.6726 11.3315C66.6355 11.3228 66.6033 11.2997 66.5832 11.2671C66.5722 11.2484 66.5656 11.2275 66.5638 11.2058C66.562 11.1842 66.565 11.1623 66.5728 11.142C66.5834 11.1109 66.6038 11.0843 66.6309 11.0661Z" fill="#525252"/>
            <path d="M59.9319 21.4225C58.2915 19.9496 58.1468 17.1742 59.0396 15.2433C59.5299 14.1685 60.2251 13.2005 61.0851 12.3951C61.377 12.1243 62.5812 10.8781 63.1341 10.9554C63.1384 10.9569 63.1434 10.9553 63.1478 10.9552C63.3135 9.79411 64.0003 8.6297 64.643 7.76292C65.3918 6.75295 66.9308 5.44082 68.3195 5.62797C68.3717 5.54555 68.4242 5.4638 68.4801 5.3849C68.2299 4.9802 68.2202 4.48383 68.4324 3.99624C69.0136 2.66517 70.4511 1.38916 71.9506 1.34719C73.0791 1.31568 73.6196 1.91142 73.5709 2.68374C74.2076 2.77018 74.8081 3.01735 75.2809 3.46599C75.9143 4.06527 76.176 4.89769 76.1968 5.76283C76.3366 5.60777 76.4411 5.4951 76.6322 5.40864C76.9287 5.27474 77.2427 5.65382 77.0908 5.93103C77.0589 5.98942 77.0183 6.04255 76.9704 6.08853C76.6112 6.42866 76.8706 6.50005 76.9194 6.81508C76.9543 7.04093 76.9079 7.18253 76.7592 7.35661C76.7181 7.40013 76.6682 7.43427 76.6131 7.45672C76.5579 7.47916 76.4986 7.48939 76.4394 7.4867C76.3315 7.48228 76.2238 7.42306 76.1253 7.37982C76.0827 7.36229 76.0372 7.35294 75.9911 7.35223C75.9061 7.66541 75.7967 7.9715 75.664 8.26764C74.9783 9.78401 73.6073 11.393 72.0536 12.11C71.8391 12.2657 71.5983 12.3367 71.32 12.4377L71.3007 12.4442C70.7396 13.9088 69.5001 14.7449 68.137 14.9827C68.9201 16.8033 66.7538 19.3946 65.5185 20.5044C64.0769 21.7984 61.5563 22.8819 59.9319 21.4225Z" fill="#D33D3D"/>
            <path d="M72.1224 1.53889C70.8319 1.4143 69.5935 2.48083 68.9167 3.47916C68.5941 3.95702 68.4552 4.52825 68.6125 5.07469C68.6197 5.25192 68.6697 5.40602 68.8638 5.51028C68.9386 5.57412 69.0233 5.62528 69.1144 5.66176C69.1256 5.65805 69.1374 5.65693 69.149 5.65848C70.2995 5.94475 71.4824 5.19895 72.3241 4.44871C72.7514 4.06783 73.1166 3.51467 73.2516 2.99142C73.308 2.88851 73.3278 2.76945 73.3076 2.65419C73.3355 2.09516 73.0228 1.62729 72.1224 1.53889Z" fill="#FD4444"/>
            <g style="mix-blend-mode:multiply" opacity="0.5">
                <path d="M68.8649 5.51063C68.6708 5.40637 68.6209 5.25227 68.6136 5.07504C68.6059 5.04901 68.6022 5.02221 68.5963 4.99571C68.7157 5.12229 68.8848 5.20438 69.121 5.21435C69.5711 5.23247 70.0722 4.93704 70.4608 4.74096C71.0098 4.46309 71.5586 4.14246 72.0117 3.71805C72.435 3.32077 73.2928 2.37384 72.8436 1.74892C73.1932 1.95488 73.3243 2.28468 73.3068 2.65385C73.327 2.76911 73.3072 2.88818 73.2508 2.99109C73.1158 3.51434 72.7506 4.0675 72.3233 4.44838C71.4816 5.19861 70.2987 5.94441 69.1482 5.65815C69.1366 5.65659 69.1248 5.65771 69.1137 5.66143C69.0232 5.62496 68.9392 5.57405 68.8649 5.51063Z" fill="#FD4444"/>
            </g>
            <g style="mix-blend-mode:screen">
                <path d="M72.1513 1.67667C71.3214 1.70142 70.5759 2.12145 69.9428 2.64733C69.4764 3.03654 68.8458 3.65309 68.579 4.29933C68.6334 4.00449 68.7491 3.7242 68.9185 3.47705C69.5943 2.47837 70.8331 1.41085 72.1242 1.53678C72.5042 1.57382 72.7788 1.67945 72.9685 1.82986C72.7099 1.72238 72.4317 1.67023 72.1513 1.67667Z" fill="#FD4444"/>
            </g>
            <path d="M72.2322 11.8683C72.2389 11.8646 72.2464 11.8624 72.254 11.862C72.2616 11.8615 72.2693 11.8628 72.2763 11.8657C73.7915 10.9282 75.2553 9.22736 75.7731 7.41251C75.6635 7.47955 75.5626 7.56024 75.4728 7.65266C75.6138 7.4093 75.7916 7.16847 76.0386 7.16507L76.0366 7.17098C76.0622 7.16955 76.0911 7.17146 76.1156 7.17183C76.1677 7.1814 76.218 7.19919 76.2645 7.22457C76.2828 7.23362 76.3035 7.2367 76.3237 7.23338C76.3388 7.23872 76.3544 7.24423 76.3677 7.25285C76.6959 7.39906 76.6471 6.86167 76.5974 6.65112C76.5453 6.42749 76.5902 6.28818 76.7264 6.11408C76.7382 6.09879 76.7468 6.08129 76.7517 6.06262C76.892 5.8351 76.9436 5.6216 76.6582 5.60199C76.3557 5.58129 76.156 5.99347 75.9548 6.14893C75.6364 6.39542 75.0526 6.60938 74.7246 6.32848C74.8024 6.3453 74.8812 6.35767 74.9605 6.36551C75.3437 6.41812 75.6873 6.2349 75.9672 5.98867C75.9596 5.3602 75.8012 4.74419 75.5058 4.19335C75.0716 3.38575 74.3466 2.9969 73.5442 2.88834C73.4818 3.21888 73.3215 3.57239 73.0555 3.92002C72.3757 4.80804 71.2835 5.67636 70.1415 5.8389C69.6916 5.93452 69.0912 5.99125 68.774 5.72305C68.6888 5.65034 68.6127 5.56752 68.5472 5.47634C68.5107 5.52994 68.478 5.58657 68.4435 5.64086C68.4339 5.65409 68.4283 5.66984 68.4274 5.68618C68.4234 5.68599 68.4193 5.68604 68.4153 5.68633C68.3048 5.86395 68.1992 6.04445 68.102 6.22903C68.1211 6.2247 68.1385 6.21869 68.1615 6.21573C69.196 6.02451 70.0033 6.5795 70.7343 7.25881C71.5322 7.99954 71.9663 9.03444 72.0677 10.1155C72.1318 10.8075 71.9259 11.7515 71.3764 12.2626C71.6714 12.1542 71.9575 12.0223 72.2322 11.8683Z" fill="#628382"/>
            <path d="M72.2322 11.8683C72.2389 11.8646 72.2464 11.8624 72.254 11.862C72.2616 11.8615 72.2693 11.8628 72.2763 11.8657C73.7915 10.9282 75.2553 9.22736 75.7731 7.41251C75.6635 7.47955 75.5626 7.56024 75.4728 7.65266C75.6138 7.4093 75.7916 7.16847 76.0386 7.16507L76.0366 7.17098C76.0622 7.16955 76.0911 7.17146 76.1156 7.17183C76.1677 7.1814 76.218 7.19919 76.2645 7.22457C76.2828 7.23362 76.3035 7.2367 76.3237 7.23338C76.3388 7.23872 76.3544 7.24423 76.3677 7.25285C76.6959 7.39906 76.6471 6.86167 76.5974 6.65112C76.5453 6.42749 76.5902 6.28818 76.7264 6.11408C76.7382 6.09879 76.7468 6.08129 76.7517 6.06262C76.892 5.8351 76.9436 5.6216 76.6582 5.60199C76.3557 5.58129 76.156 5.99347 75.9548 6.14893C75.6364 6.39542 75.0526 6.60938 74.7246 6.32848C74.8024 6.3453 74.8812 6.35767 74.9605 6.36551C75.3437 6.41812 75.6873 6.2349 75.9672 5.98867C75.9596 5.3602 75.8012 4.74419 75.5058 4.19335C75.0716 3.38575 74.3466 2.9969 73.5442 2.88834C73.4818 3.21888 73.3215 3.57239 73.0555 3.92002C72.3757 4.80804 71.2835 5.67636 70.1415 5.8389C69.6916 5.93452 69.0912 5.99125 68.774 5.72305C68.6888 5.65034 68.6127 5.56752 68.5472 5.47634C68.5107 5.52994 68.478 5.58657 68.4435 5.64086C68.4339 5.65409 68.4283 5.66984 68.4274 5.68618C68.4234 5.68599 68.4193 5.68604 68.4153 5.68633C68.3048 5.86395 68.1992 6.04445 68.102 6.22903C68.1211 6.2247 68.1385 6.21869 68.1615 6.21573C69.196 6.02451 70.0033 6.5795 70.7343 7.25881C71.5322 7.99954 71.9663 9.03444 72.0677 10.1155C72.1318 10.8075 71.9259 11.7515 71.3764 12.2626C71.6714 12.1542 71.9575 12.0223 72.2322 11.8683Z" fill="#628382"/>
            <g style="mix-blend-mode:color-dodge" opacity="0.6">
                <path d="M76.3421 5.90629C76.0558 6.17967 75.3008 6.85643 74.9431 6.44021C75.2717 6.52452 75.7 6.34802 75.9564 6.14947C76.1577 5.994 76.3574 5.58182 76.6599 5.60252C76.6969 5.60431 76.7332 5.6125 76.7674 5.62674C76.6135 5.67314 76.469 5.78438 76.3421 5.90629Z" fill="#628382"/>
            </g>
            <g style="mix-blend-mode:multiply" opacity="0.4">
                <path d="M72.0657 10.1132C71.9648 9.03395 71.5297 7.9987 70.7323 7.25649C70.0028 6.5777 69.194 6.02219 68.1595 6.21341C68.139 6.21723 68.1216 6.22324 68.1001 6.22672C68.1981 6.03966 68.3028 5.86163 68.4134 5.68401C68.4174 5.68372 68.4214 5.68367 68.4255 5.68386C68.4263 5.66752 68.4319 5.65177 68.4415 5.63854C68.4761 5.58425 68.5087 5.52762 68.5453 5.47402C68.6107 5.5652 68.6869 5.64802 68.7721 5.72073C69.0892 5.98893 69.6887 5.93466 70.1395 5.83658C71.2821 5.67256 72.3737 4.80572 73.0535 3.9177C73.3201 3.56859 73.4799 3.21656 73.5423 2.88602C74.3447 2.99458 75.0696 3.38344 75.5038 4.19103C75.7997 4.74188 75.9583 5.35802 75.9662 5.98669C75.6863 6.23293 75.3427 6.41614 74.9595 6.36354C74.8802 6.35569 74.8015 6.34333 74.7236 6.3265C74.7306 6.3328 74.7381 6.33859 74.7459 6.34384C74.5618 6.32128 74.3871 6.34145 74.3041 6.53714C74.1629 6.8708 74.6252 7.09841 74.864 7.14143C75.0967 7.1847 75.3366 7.17355 75.5653 7.10882C75.7364 7.06466 75.9014 6.9978 76.0766 6.95733C76.1648 6.93867 76.2515 6.92726 76.324 6.86479C76.4687 6.74083 76.3829 6.60287 76.4045 6.44307C76.444 6.15379 76.6719 5.98337 76.8635 5.78897C76.8469 5.88583 76.8096 5.97802 76.7541 6.05904C76.7491 6.07771 76.7405 6.09522 76.7287 6.1105C76.5927 6.28411 76.5476 6.42391 76.5997 6.64754C76.6494 6.85809 76.6982 7.39548 76.3701 7.24928C76.3555 7.2441 76.341 7.23563 76.3261 7.2298C76.3058 7.23312 76.2851 7.23004 76.2668 7.22099C76.2203 7.19562 76.1701 7.17782 76.118 7.16825C76.0915 7.1672 76.0641 7.1658 76.0389 7.1674L76.041 7.16149C75.794 7.1649 75.6156 7.40555 75.4751 7.64909C75.5649 7.55666 75.6658 7.47597 75.7754 7.40893C75.2583 9.22182 73.7938 10.9246 72.2787 11.8621C72.2716 11.8592 72.264 11.8579 72.2563 11.8584C72.2487 11.8588 72.2412 11.861 72.2345 11.8647C71.9592 12.0181 71.6724 12.1491 71.3768 12.2567C71.9243 11.7515 72.1298 10.8052 72.0657 10.1132ZM72.7703 10.6617C73.5015 10.5277 74.114 9.74782 74.3259 9.06163C74.4352 8.70753 74.432 8.32861 74.3167 7.97827C74.1883 7.55293 73.8229 6.83848 74.1276 6.41417C74.4994 5.89941 75.5527 5.87453 75.5053 5.06595C75.4917 4.86428 75.4372 4.66793 75.3451 4.4891C75.1754 3.8667 74.7089 3.2412 74.0775 3.2387C73.7146 3.23707 73.5488 3.49492 73.4733 3.83467C73.3041 4.6009 72.9077 5.11248 72.2971 5.59974C71.9929 5.84017 71.703 5.95865 71.3677 6.11987C71.2592 6.17289 71.1283 6.2363 71.0729 6.35251C70.9462 6.62035 71.153 6.84332 71.3415 7.01435C71.8208 7.44394 72.2047 7.97118 72.4682 8.56192C72.781 9.26272 72.8523 9.79532 72.6684 10.543C72.6635 10.5581 72.6626 10.5742 72.6657 10.5897C72.6688 10.6052 72.6758 10.6196 72.6861 10.6315C72.6963 10.6435 72.7094 10.6525 72.7242 10.6578C72.7389 10.6631 72.7548 10.6644 72.7703 10.6617Z" fill="#628382"/>
            </g>
            <path d="M71.7312 9.81325C71.6716 9.1722 71.392 8.57854 71.0644 8.03996C70.714 7.46554 70.1522 6.99923 69.5982 6.63324C69.3097 6.43788 68.9764 6.31979 68.6294 6.28993C68.4935 6.2982 68.3588 6.3203 68.2272 6.3559C67.9508 6.39881 67.6858 6.52114 67.5385 6.74509C67.4949 6.78721 67.4536 6.83185 67.4151 6.87877C67.2911 7.09787 67.1809 7.3246 67.0853 7.55758C67.0825 7.56546 67.0695 7.57138 67.0585 7.57303C66.7853 8.44599 66.9155 9.57391 67.1683 10.3388C67.6015 11.6468 68.9252 12.6032 70.3016 12.4328C71.6283 12.2697 71.8238 10.8081 71.7312 9.81325Z" fill="#FD4444"/>
            <g style="mix-blend-mode:multiply" opacity="0.5">
                <path d="M67.168 10.3393C66.9807 9.75571 66.893 9.14343 66.9086 8.52854C67.1386 9.3902 67.5929 10.1844 68.3793 10.641C69.1942 11.1144 70.3714 11.1074 70.8887 10.21C71.3765 9.36487 71.1028 8.21549 70.5446 7.4904C70.3952 7.29815 70.2287 7.12018 70.0471 6.95869C70.4417 7.26485 70.8087 7.62393 71.0642 8.03994C71.3918 8.57852 71.6714 9.17218 71.7311 9.81323C71.8236 10.808 71.6265 12.2713 70.3012 12.4332C68.9248 12.6037 67.6012 11.6472 67.168 10.3393Z" fill="#FD4444"/>
            </g>
            <g style="mix-blend-mode:screen">
                <path d="M69.6512 6.92107C68.7627 6.53192 67.7782 6.71481 67.2129 7.5702C67.1076 7.72978 67.0185 7.89956 66.9468 8.07697C66.9697 7.90639 67.0069 7.73797 67.0579 7.5735C67.0689 7.57184 67.0814 7.56576 67.0847 7.55805C67.1802 7.32593 67.29 7.10002 67.4136 6.8817C67.4522 6.83478 67.4934 6.79014 67.5371 6.74802C67.6847 6.52308 67.9494 6.40174 68.2257 6.35882C68.3573 6.32323 68.4921 6.30113 68.6279 6.29286C68.975 6.32271 69.3083 6.44081 69.5967 6.63617C70.1518 6.99921 70.7134 7.46601 71.0629 8.04289C71.3905 8.58147 71.6701 9.17513 71.7298 9.81618C71.7401 9.93073 71.7466 10.0467 71.7483 10.1687C71.634 8.7997 70.965 7.49585 69.6512 6.92107Z" fill="#FD4444"/>
            </g>
            <path d="M71.1443 12.5003C70.9438 12.5754 70.7389 12.6376 70.5309 12.6866C68.9395 13.113 67.2729 11.8809 66.864 10.2694C66.5838 9.16154 66.6064 6.79916 67.9011 6.29373C67.92 6.28543 67.9401 6.27814 67.959 6.27099C68.0573 6.06746 68.1664 5.86938 68.2859 5.67765C66.9233 5.63451 65.6197 6.83989 64.8397 7.82545C63.8384 9.09081 63.0689 10.8281 63.6116 12.436C64.0112 13.6161 65.2427 14.3491 66.35 14.711C68.1596 15.3001 70.4081 14.3093 71.1443 12.5003Z" fill="#628382"/>
            <path d="M71.1443 12.5003C70.9438 12.5754 70.7389 12.6376 70.5309 12.6866C68.9395 13.113 67.2729 11.8809 66.864 10.2694C66.5838 9.16154 66.6064 6.79916 67.9011 6.29373C67.92 6.28543 67.9401 6.27814 67.959 6.27099C68.0573 6.06746 68.1664 5.86938 68.2859 5.67765C66.9233 5.63451 65.6197 6.83989 64.8397 7.82545C63.8384 9.09081 63.0689 10.8281 63.6116 12.436C64.0112 13.6161 65.2427 14.3491 66.35 14.711C68.1596 15.3001 70.4081 14.3093 71.1443 12.5003Z" fill="#476261"/>
            <g style="mix-blend-mode:color-dodge" opacity="0.6">
                <path d="M67.2994 6.0284C66.9883 6.19955 66.6873 6.38914 66.3981 6.59616C65.8244 7.01746 65.3141 7.5207 64.8834 8.08991C64.3221 8.81956 63.8646 9.62447 63.5243 10.481C63.7248 9.51354 64.2404 8.5851 64.841 7.82648C65.5846 6.88675 66.8037 5.74961 68.0962 5.68308C67.8407 5.81875 67.5549 5.88381 67.2994 6.0284Z" fill="#628382"/>
            </g>
            <g style="mix-blend-mode:multiply" opacity="0.4">
                <path d="M63.6143 12.4342C63.5301 12.1823 63.4757 11.9211 63.4522 11.6559C63.5102 11.7388 63.5847 11.8086 63.6709 11.8609C63.7571 11.9132 63.8532 11.9469 63.9532 11.9599C64.722 12.0659 65.1984 11.4136 65.4455 10.7609C65.8082 9.80544 66.0168 8.81976 66.525 7.91862C66.6987 7.60892 66.8972 7.31392 67.1183 7.03658C66.6172 7.97183 66.6595 9.45616 66.8647 10.2674C67.2736 11.8789 68.9405 13.11 70.5315 12.6846C70.7396 12.6356 70.9445 12.5734 71.145 12.4983C70.4068 14.3066 68.1602 15.2981 66.3534 14.7072C65.2454 14.3473 64.014 13.6143 63.6143 12.4342Z" fill="#628382"/>
            </g>
            <path d="M65.3532 20.3754C66.6991 19.2715 68.3866 16.8481 67.9985 15.0128C67.9989 15.0093 68.0001 15.0059 68.002 15.003C66.2536 15.25 64.341 14.5113 63.4385 12.8159C63.1443 12.2681 63.0704 11.6735 63.1348 11.0792C63.1286 11.0794 63.1224 11.0785 63.1165 11.0766C62.8404 10.9893 62.0888 11.7199 61.9041 11.8718C61.5172 12.1937 61.1529 12.5425 60.8139 12.9155C60.1128 13.6785 59.5587 14.5664 59.1802 15.5331C58.5347 17.1585 58.6843 19.1555 59.6289 20.6114C61.0499 22.7994 63.7144 21.7203 65.3532 20.3754Z" fill="#2A2630"/>
            <g style="mix-blend-mode:multiply" opacity="0.3">
                <path d="M67.7567 17.0485C66.7765 16.9532 65.8268 16.6599 64.9639 16.1859C63.2753 15.2476 61.803 13.4578 62.2815 11.5392C62.5733 11.2933 62.9389 11.0203 63.1141 11.0758C63.12 11.0776 63.1262 11.0785 63.1323 11.0783C63.0679 11.6726 63.1426 12.2652 63.4361 12.815C64.3385 14.5104 66.2511 15.2492 67.9996 15.0021C67.9977 15.0051 67.9965 15.0084 67.9961 15.0119C68.1324 15.6485 68.0177 16.3553 67.7567 17.0485Z" fill="#525252"/>
            </g>
            <g style="mix-blend-mode:multiply" opacity="0.3">
                <path d="M65.5265 20.2267C65.4573 20.2105 65.3929 20.1944 65.3402 20.1824C64.4565 19.9729 63.5992 19.6763 62.8086 19.2209C61.7456 18.6119 60.8091 17.8021 60.26 16.6805C59.9332 16.0102 59.6806 15.2476 59.6739 14.4894C59.9893 13.9204 60.372 13.3919 60.8135 12.9155C60.9321 12.7878 61.0524 12.663 61.1744 12.5382C60.3637 14.7317 62.6837 17.2482 64.4996 18.1179C65.2333 18.4662 66.0234 18.6797 66.8331 18.7485C66.4542 19.2893 66.0158 19.7853 65.5265 20.2267Z" fill="#525252"/>
            </g>
            <g style="mix-blend-mode:multiply" opacity="0.3">
                <path d="M60.3059 20.2265C60.7941 20.7028 61.4222 21.0512 62.006 21.3873C62.2261 21.5141 62.45 21.6422 62.6779 21.7651C61.5369 22.0223 60.3993 21.7983 59.6285 20.6119C59.0899 19.7823 58.8107 18.7779 58.7896 17.764C59.1455 18.6736 59.6007 19.5364 60.3059 20.2265Z" fill="#525252"/>
            </g>
            <path d="M75.3083 13.3653C75.3399 13.276 75.3394 13.1786 75.3068 13.0903C75.2742 13.0019 75.2116 12.9283 75.1302 12.8824C74.6425 12.6087 74.0495 12.2106 73.9427 12.053C73.9045 11.9962 73.8536 11.9494 73.794 11.9164C73.7344 11.8833 73.6678 11.8649 73.5996 11.8627C73.276 11.8489 73.0186 12.1197 71.9694 13.392C71.5364 13.9172 70.2425 15.4848 69.8871 15.5995C69.5101 15.3949 69.0575 14.4815 68.8499 13.8779C68.8329 13.8283 68.8063 13.7826 68.7717 13.7435C68.7371 13.7044 68.6951 13.6726 68.6482 13.65C68.6013 13.6274 68.5504 13.6144 68.4983 13.6118C68.4462 13.6091 68.3941 13.6169 68.3449 13.6346C68.247 13.6725 68.1669 13.7467 68.1211 13.842C68.0753 13.9373 68.0673 14.0464 68.0988 14.1468C68.2074 14.4581 68.7828 16.0277 69.6329 16.3661C70.2565 16.6147 71.0085 15.8055 72.5784 13.9027C72.9038 13.508 73.2989 13.028 73.5391 12.7811C73.9242 13.1171 74.5457 13.4765 74.7397 13.5857C74.8315 13.6371 74.94 13.6493 75.0413 13.6199C75.1427 13.5904 75.2287 13.5216 75.2804 13.4286C75.2914 13.4083 75.3007 13.3871 75.3083 13.3653Z" fill="#D33D3D"/>
            <path d="M68.3406 13.9647C68.348 13.944 68.3598 13.9252 68.3753 13.9097C68.3907 13.8942 68.4094 13.8823 68.4299 13.8749C68.4477 13.8683 68.4667 13.8655 68.4856 13.8667C68.5045 13.8679 68.5229 13.873 68.5397 13.8817C68.5569 13.8896 68.5723 13.9008 68.585 13.9149C68.5977 13.9289 68.6075 13.9454 68.6137 13.9633C68.7664 14.4084 69.2818 15.614 69.8204 15.8492L69.8501 15.8625L69.8819 15.8594C70.2271 15.8275 71.0109 14.9536 72.1654 13.554C73.1043 12.4152 73.389 12.1091 73.5885 12.1177C73.6177 12.119 73.6461 12.127 73.6715 12.1413C73.6969 12.1555 73.7188 12.1754 73.7352 12.1996C73.9084 12.4556 74.7124 12.9412 75.0072 13.1072C75.0237 13.1165 75.0382 13.1289 75.05 13.1439C75.0617 13.1588 75.0703 13.176 75.0755 13.1944C75.0806 13.2128 75.0821 13.232 75.0798 13.2511C75.0776 13.2701 75.0716 13.2885 75.0623 13.3053C75.0531 13.3221 75.0406 13.3369 75.0257 13.3488C75.0108 13.3608 74.9937 13.3697 74.9755 13.375C74.9572 13.3803 74.9381 13.382 74.9193 13.3798C74.9005 13.3777 74.8823 13.3719 74.8658 13.3626C74.721 13.2814 73.9829 12.8601 73.627 12.5144L73.5423 12.429L73.4553 12.5091C73.2206 12.7264 72.7782 13.2628 72.3874 13.7386C71.0954 15.3052 70.2135 16.3201 69.7296 16.127C69.1093 15.88 68.5649 14.7112 68.3409 14.0596C68.3302 14.029 68.3301 13.9956 68.3406 13.9647Z" fill="#525252"/>
            <path d="M72.314 19.1176C72.3386 19.0483 72.3439 18.9737 72.3294 18.9019C72.3149 18.8301 72.2811 18.7638 72.2317 18.7103C72.0504 18.513 71.7631 18.094 71.7642 17.8128C71.7655 17.7303 71.7452 17.6491 71.7055 17.5774C71.6657 17.5057 71.6079 17.446 71.5378 17.4043C71.1698 17.1868 70.6243 17.4132 68.1076 18.8336L68.088 18.8439C67.707 19.0587 67.3155 19.2798 67.0348 19.4277C67.0869 18.7647 67.3909 17.3215 67.7899 15.8694C67.804 15.8185 67.808 15.7654 67.8017 15.7131C67.7954 15.6609 67.779 15.6105 67.7533 15.5648C67.7276 15.5191 67.6932 15.4791 67.6521 15.447C67.611 15.4149 67.5639 15.3914 67.5136 15.3778C67.4123 15.3514 67.3045 15.3661 67.2132 15.4188C67.1219 15.4715 67.0544 15.558 67.025 15.6599C66.0198 19.3153 66.2065 20.0274 66.4329 20.249C66.4973 20.3112 66.5776 20.3542 66.665 20.3733C66.7523 20.3924 66.8433 20.3869 66.9282 20.3574C67.1622 20.2795 67.6492 20.008 68.4906 19.5338C69.1897 19.1383 70.4484 18.4288 71.0269 18.2035C71.1744 18.7265 71.5655 19.1707 71.6486 19.2605C71.6951 19.3106 71.7536 19.3476 71.8186 19.368C71.8835 19.3885 71.9527 19.3917 72.0195 19.3773C72.0863 19.363 72.1485 19.3315 72.2001 19.2861C72.2517 19.2406 72.2909 19.1826 72.314 19.1176Z" fill="#D33D3D"/>
            <path d="M67.2683 15.7261C67.2796 15.6893 67.3044 15.6581 67.3375 15.6389C67.3707 15.6198 67.4097 15.614 67.4467 15.6229C67.483 15.6333 67.5136 15.6578 67.5321 15.6909C67.5415 15.7074 67.5474 15.7256 67.5497 15.7445C67.5519 15.7634 67.5504 15.7825 67.5451 15.8009C67.1575 17.2038 66.7575 19.0277 66.7732 19.6415L66.7782 19.8374L66.9536 19.752C67.2332 19.6149 67.7294 19.3361 68.2084 19.0656L68.2278 19.0541C70.5047 17.77 71.1586 17.4756 71.4073 17.6236C71.4393 17.6429 71.4657 17.6704 71.4838 17.7034C71.5019 17.7364 71.5111 17.7736 71.5104 17.8115C71.508 18.2925 72.0391 18.8777 72.0447 18.8835C72.071 18.9118 72.085 18.9496 72.0836 18.9885C72.0822 19.0274 72.0656 19.0643 72.0374 19.0911C72.0092 19.1178 71.9717 19.1323 71.9332 19.1312C71.8946 19.1301 71.8582 19.1137 71.832 19.0854C71.7819 19.0305 71.3376 18.537 71.2398 18.0111L71.2137 17.8732L71.0798 17.9145C70.5569 18.0752 69.185 18.851 68.3665 19.3101C67.5605 19.7647 67.0569 20.0459 66.8499 20.114C66.8086 20.1292 66.7639 20.1325 66.7209 20.1234C66.678 20.1144 66.6385 20.0934 66.6069 20.0628C66.4804 19.9409 66.2914 19.274 67.2675 15.7269L67.2683 15.7261Z" fill="#525252"/>
            <path d="M68.2645 22.719C68.2891 22.6494 68.2941 22.5743 68.2789 22.5023C68.2387 22.2602 68.2495 22.0118 68.3106 21.7733C68.3332 21.6973 68.3361 21.6168 68.3191 21.5396C68.302 21.4624 68.2656 21.3911 68.2134 21.3325C68.0861 21.1848 67.822 20.8827 64.5891 21.3457C65.1091 20.4004 65.9111 18.9048 66.0076 18.7238C66.045 18.6539 66.0611 18.5744 66.0539 18.4956C66.0468 18.4167 66.0166 18.3419 65.9673 18.2807C65.918 18.2195 65.8517 18.1745 65.7768 18.1514C65.7019 18.1284 65.6218 18.1283 65.5464 18.1512C65.4459 18.1822 65.3611 18.2517 65.3103 18.3448C64.7592 19.3732 63.6742 21.3863 63.509 21.6471C63.4677 21.7123 63.4458 21.7879 63.4459 21.865C63.4459 21.9421 63.468 22.0173 63.5093 22.0817C63.5507 22.1461 63.6097 22.197 63.6792 22.2283C63.7487 22.2595 63.8258 22.2698 63.9013 22.258C65.2166 22.0498 66.8401 21.8694 67.478 21.8969C67.447 22.1547 67.4543 22.4153 67.4995 22.6703C67.5175 22.7553 67.5623 22.832 67.6274 22.8886C67.6925 22.9453 67.7742 22.9788 67.8602 22.9843C67.9462 22.9897 68.0319 22.9667 68.1043 22.9188C68.1767 22.8708 68.2318 22.8005 68.2614 22.7185L68.2645 22.719Z" fill="#D33D3D"/>
            <path d="M64.1222 21.6724L64.3745 21.6354C66.5258 21.3159 67.8221 21.2696 68.0241 21.5014C68.0481 21.5283 68.0649 21.561 68.0728 21.5964C68.0807 21.6318 68.0794 21.6687 68.069 21.7037C67.9961 21.9815 67.9829 22.2714 68.0305 22.5539C68.0346 22.5726 68.0351 22.592 68.0318 22.611C68.0285 22.6299 68.0216 22.6481 68.0114 22.6644C68.0012 22.6807 67.9879 22.6948 67.9724 22.706C67.9568 22.7172 67.9392 22.7252 67.9206 22.7295C67.9021 22.7339 67.8828 22.7345 67.8641 22.7313C67.8453 22.7282 67.8274 22.7213 67.8114 22.7111C67.7953 22.701 67.7814 22.6877 67.7705 22.672C67.7595 22.6564 67.7517 22.6387 67.7476 22.62C67.7017 22.3508 67.7031 22.0753 67.752 21.8059L67.776 21.673L67.641 21.6557C67.0806 21.5841 65.2767 21.7838 63.8628 22.0074C63.8357 22.0111 63.8082 22.0069 63.7834 21.9953C63.7587 21.9838 63.7378 21.9654 63.7231 21.9422C63.7083 21.9191 63.7005 21.8922 63.7003 21.8646C63.7001 21.837 63.7077 21.8098 63.7222 21.7863C63.891 21.5184 64.9808 19.4982 65.5331 18.4679C65.542 18.4509 65.5542 18.4359 65.569 18.4237C65.5837 18.4115 65.6007 18.4024 65.619 18.3969C65.6371 18.391 65.6561 18.3889 65.675 18.3908C65.6938 18.3926 65.7121 18.3983 65.7286 18.4075C65.7455 18.4162 65.7604 18.4283 65.7725 18.443C65.7846 18.4577 65.7937 18.4748 65.7991 18.4932C65.8045 18.5115 65.8063 18.5309 65.8042 18.55C65.8021 18.5691 65.7962 18.5876 65.7869 18.6044C65.6824 18.8003 64.7499 20.5391 64.2467 21.4476L64.1222 21.6724Z" fill="#525252"/>
            <g style="mix-blend-mode:color-dodge" opacity="0.8">
                <path d="M59.7429 14.7605C59.4529 15.2255 59.1927 15.7085 58.9638 16.2067C59.0213 15.9779 59.0935 15.7531 59.1799 15.5336C59.5584 14.5666 60.1126 13.6786 60.8138 12.9155C61.1512 12.5419 61.514 12.1924 61.8993 11.8696C62.0864 11.7185 62.838 10.9879 63.1118 11.0744C63.1176 11.0763 63.1238 11.0771 63.13 11.077C63.1168 11.1996 63.1097 11.3227 63.1087 11.4459C61.6629 12.0054 60.494 13.5168 59.7429 14.7605Z" fill="white"/>
            </g>
            <path d="M54.7387 22.9434C54.969 20.8876 55.7056 18.8137 56.7921 17.0573C57.6731 15.634 58.7868 14.597 60.3024 13.9209C61.2606 13.4924 62.2587 13.1536 63.2429 12.7938C63.7351 12.6144 64.2213 12.4196 64.7054 12.2197C64.7874 12.1861 64.8995 12.1493 65.0243 12.1109C65.1326 12.06 65.2423 12.0101 65.3516 11.9596C65.523 11.8745 65.8465 11.7047 66.1318 11.6395L66.1358 11.6359C66.3563 11.6314 66.5661 11.6852 66.6812 11.8425C66.7089 11.88 66.7332 11.9199 66.7538 11.9619C66.7978 12.1993 66.7738 12.5235 66.7103 12.8664C66.333 14.9261 65.1923 16.9339 64.2222 18.7603C63.2776 20.5376 62.1157 22.2501 60.6532 23.6398C60.0084 24.2592 59.299 24.806 58.5377 25.2705C57.9364 25.6341 57.0277 26.1515 56.3022 26.1057C54.7616 26.0072 54.5976 24.2053 54.7387 22.9434ZM59.144 24.6453C60.5763 23.653 61.7289 22.24 62.7186 20.8158C63.7083 19.3917 64.4659 17.8098 65.197 16.2486C65.6121 15.3616 65.99 14.4619 66.2719 13.5244C66.3808 13.1599 66.631 12.3703 66.4798 12.0106C66.0468 11.606 64.6765 12.4079 64.222 12.5968C63.6583 12.8328 63.0765 13.0486 62.4928 13.2438C61.3937 13.6405 60.2875 14.0354 59.2899 14.6339C57.8075 15.5253 56.8151 17.2645 56.1342 18.8059C55.4698 20.3087 54.9612 22.0791 54.9993 23.7266C55.0164 24.4663 55.178 25.4345 55.9097 25.7842C56.8669 26.2454 58.3818 25.1726 59.144 24.6453Z" fill="#D33D3D"/>
            <path opacity="0.6" d="M55 23.7285C54.9625 22.0795 55.471 20.3091 56.135 18.8077C56.8158 17.2664 57.8082 15.5271 59.2906 14.6357C60.2873 14.0369 61.3944 13.6424 62.4908 13.2441C63.074 13.0488 63.6563 12.8332 64.22 12.5971C64.6748 12.4073 66.0451 11.6054 66.4778 12.011C66.6305 12.3711 66.3802 13.1608 66.2699 13.5247C65.988 14.4639 65.6101 15.3636 65.1951 16.2489C64.4639 17.8102 63.7022 19.3989 62.7166 20.8162C61.731 22.2335 60.5743 23.6533 59.142 24.6456C58.3798 25.1729 56.8649 26.2457 55.9082 25.7864C55.1787 25.4364 55.0171 24.4681 55 23.7285Z" fill="white"/>
            <g style="mix-blend-mode:multiply" opacity="0.6">
                <path d="M55.9103 25.786C55.1786 25.4364 55.017 24.4681 54.9999 23.7285C54.9911 23.1575 55.0376 22.5866 55.1386 22.0238C55.1635 22.1673 55.1974 22.309 55.2401 22.4479C55.783 24.1895 57.7194 23.3115 58.6915 22.4899C60.4908 20.9721 62.1251 19.2647 63.5661 17.3972C64.6959 15.919 65.863 14.2522 66.5192 12.462C66.4852 12.8331 66.3464 13.2758 66.2723 13.5234C65.9904 14.4626 65.6125 15.3622 65.1975 16.2476C64.4664 17.8089 63.7047 19.3975 62.7191 20.8148C61.7335 22.2321 60.5768 23.652 59.1445 24.6443C58.382 25.1726 56.867 26.2454 55.9103 25.786Z" fill="#AFB1B4"/>
            </g>
            <path d="M56.4369 25.039C58.3049 23.7505 59.9978 22.2194 61.4714 20.4854C59.8715 20.7163 58.4165 21.3496 57.0105 22.1583C56.9646 22.1842 56.9419 22.1401 56.9846 22.1125C57.5853 21.7099 58.214 21.3519 58.8657 21.0414C58.6384 21.0279 58.4197 20.9654 58.1896 20.9642C57.8406 20.9624 57.4919 20.9896 57.1469 21.0456C57.109 21.0521 57.1334 21.0097 57.1568 21.0053C57.4705 20.9369 57.7885 20.8918 58.1084 20.8706C58.4208 20.8493 58.6997 20.9443 59.0078 20.9431C59.0317 20.9422 59.0406 20.9509 59.042 20.9624C59.8557 20.602 60.7111 20.3507 61.5821 20.3167C61.5883 20.3149 61.5947 20.3139 61.6011 20.314C61.6055 20.3155 61.6111 20.3136 61.6155 20.3135C62.7809 18.9244 63.8008 17.4174 64.6584 15.8171C64.4408 15.9801 64.1684 16.0954 63.9512 16.2108C63.3574 16.5271 62.7284 16.7634 62.0943 16.9817C61.5498 17.7785 60.6837 18.27 59.9678 18.8813C59.9381 18.9063 59.8935 18.8855 59.9294 18.8522C60.2401 18.5625 60.595 18.3301 60.9095 18.0451C61.2555 17.7313 61.5667 17.3908 61.8857 17.053L61.8201 17.0758C60.5806 17.4949 59.1891 17.9273 57.8746 17.7548C57.826 17.7481 57.8772 17.6964 57.9065 17.6957C59.1313 17.7149 60.3461 17.3564 61.506 16.9906C62.0347 16.8242 62.6548 16.6436 63.2457 16.4066C62.585 15.954 61.7692 15.8801 60.9965 15.7588C60.9517 15.7523 60.997 15.7035 61.026 15.7049C61.5782 15.747 62.1119 15.772 62.643 15.9385C62.8603 16.0067 63.28 16.1044 63.4018 16.3416C63.959 16.1055 64.4811 15.8153 64.8646 15.4283L64.8656 15.4254C65.1649 14.8433 65.4403 14.25 65.6906 13.6489C65.7012 13.6189 65.7894 13.5986 65.7747 13.6433C65.0026 15.9873 63.429 18.1494 61.9894 20.125C60.5586 22.0881 58.5026 23.7854 56.4773 25.0843C56.4357 25.1151 56.3888 25.073 56.4369 25.039Z" fill="#ADAFB2"/>
            <path d="M67.1567 6.48285C66.9177 6.13476 66.6614 5.76727 66.4944 5.37652C66.4775 5.33616 66.5644 5.28711 66.584 5.32619C66.7754 5.71285 67.1117 6.01666 67.2801 6.41288C67.304 6.46903 67.1914 6.53338 67.1567 6.48285Z" fill="#D33D3D"/>
            <path d="M66.1198 7.08404C65.8421 6.86201 65.5757 6.62586 65.3217 6.37649C65.2711 6.32473 65.3947 6.23991 65.4383 6.28084C65.6966 6.52654 66.0047 6.71833 66.2445 6.98241C66.2973 7.04047 66.1704 7.12524 66.1198 7.08404Z" fill="#D33D3D"/>
            <path d="M63.5322 8.5476C63.4647 8.51424 63.5671 8.42745 63.6175 8.44917C64.1204 8.66286 64.6901 8.64628 65.1891 8.87411C65.2577 8.90452 65.1622 8.98712 65.1154 8.97998C64.5953 8.89826 64.0042 8.78526 63.5322 8.5476Z" fill="#D33D3D"/>
            <path d="M64.0055 9.55912C64.2309 9.55639 64.452 9.52106 64.6767 9.50972C64.7505 9.50538 64.6815 9.59795 64.6379 9.60687C64.4098 9.63967 64.18 9.65806 63.9499 9.66196C63.8704 9.66094 63.953 9.56049 64.0055 9.55912Z" fill="#D33D3D"/>
            <path d="M62.5986 12.1557C62.9929 11.9883 63.3814 11.811 63.7717 11.635C63.8244 11.6115 63.8339 11.6742 63.7898 11.6968C63.4054 11.8933 63.0022 12.0548 62.6047 12.2233C62.5423 12.2528 62.5509 12.176 62.5986 12.1557Z" fill="#D33D3D"/>
        </g>
    </g>
    <defs>
        <clipPath id="clip0_9722_54529">
            <rect width="197" height="28" fill="white"/>
        </clipPath>
        <clipPath id="clip1_9722_54529">
            <rect width="28.7969" height="21.5977" fill="white" transform="matrix(-0.334003 0.942572 0.942572 0.334003 58.6182 -3.55402)"/>
        </clipPath>
    </defs>
</svg>
