<svg width="197" height="28" viewBox="0 0 197 28" fill="none" xmlns="http://www.w3.org/2000/svg">
    <path d="M77.2742 4.341C77.1059 4.341 76.9547 4.44405 76.8933 4.60073L69.7505 22.8025C69.6452 23.0709 69.8431 23.3612 70.1314 23.3612H74.4577C74.6319 23.3612 74.787 23.2509 74.8442 23.0864L79.3814 10.0415C79.4027 9.98046 79.489 9.98046 79.5103 10.0415L84.0474 23.0864C84.1047 23.2509 84.2598 23.3612 84.4339 23.3612H88.7603C89.0486 23.3612 89.2465 23.0709 89.1412 22.8025L81.9984 4.60073C81.9369 4.44405 81.7858 4.341 81.6175 4.341H77.2742Z" fill="#FD4444"/>
    <path d="M123.118 23.3611C123.287 23.3611 123.438 23.2581 123.499 23.1014L130.642 4.89964C130.747 4.63121 130.55 4.34094 130.261 4.34094H125.932C125.759 4.34094 125.605 4.44966 125.547 4.61253L121.02 17.2902C120.998 17.3505 120.913 17.3506 120.891 17.2903L116.347 4.61208C116.288 4.44944 116.134 4.34094 115.962 4.34094H111.632C111.344 4.34094 111.146 4.63121 111.251 4.89964L118.394 23.1014C118.456 23.2581 118.607 23.3611 118.775 23.3611H123.118Z" fill="white"/>
    <rect x="16.2319" y="23.301" width="18.8918" height="4.4331" rx="0.409209" transform="rotate(-90 16.2319 23.301)" fill="white"/>
    <rect x="133.539" y="23.301" width="18.8918" height="4.4331" rx="0.409209" transform="rotate(-90 133.539 23.301)" fill="white"/>
    <path d="M156.285 7.23632L154.24 9.94375C154.093 10.1384 153.81 10.1613 153.625 10.002C151.859 8.47956 150.073 8.05794 148.406 8.05794C145.981 8.05794 145.743 9.74277 147.076 10.3086C148.202 10.786 149.941 11.0247 152.669 11.9795C155.226 12.8747 156.863 14.844 156.556 17.9813C156.249 21.1185 154.442 23.2669 149.293 23.5738C145.334 23.8098 142.262 21.6881 141.014 20.3669C140.885 20.2306 140.879 20.023 140.988 19.871L142.901 17.2212C143.05 17.0136 143.352 16.9938 143.537 17.1704C145.528 19.0668 147.715 19.584 149.293 19.584C150.964 19.584 152.021 18.7997 152.021 17.9813C152.021 17.1628 150.759 16.6854 149.668 16.4126C148.577 16.1398 146.803 16.0034 143.973 14.503C141.143 13.0026 141.347 9.42197 142.063 7.71694C142.78 6.0119 144.723 3.99996 149.361 4.10226C152.771 4.17748 155.233 5.75648 156.253 6.72631C156.395 6.86143 156.403 7.07981 156.285 7.23632Z" fill="white"/>
    <rect y="4.40918" width="13.4357" height="3.95569" rx="0.409209" fill="white"/>
    <path d="M0.409209 11.9796C0.183225 11.9796 0 12.1628 0 12.3888V22.96C0 23.186 0.183225 23.3692 0.409209 23.3692H4.09209C4.31807 23.3692 4.5013 23.186 4.5013 22.96V16.208C4.5013 16.0574 4.62344 15.9352 4.77411 15.9352H13.0265C13.2525 15.9352 13.4357 15.752 13.4357 15.526V12.3888C13.4357 12.1628 13.2525 11.9796 13.0265 11.9796H0.409209Z" fill="white"/>
    <path fill-rule="evenodd" clip-rule="evenodd" d="M45.4092 4.40918C45.1832 4.40918 45 4.59239 45 4.81839V5.40921V7.95566V12.3888V15.9804V20.4092V22.96V23.5465C45 23.7725 45.1832 23.9557 45.4092 23.9557H58.0265C58.2525 23.9557 58.4357 23.7725 58.4357 23.5465V20.4092C58.4357 20.1832 58.2525 20 58.0265 20H49.5013V16.208C49.5013 16.0574 49.6234 15.9352 49.7741 15.9352H55.0908C55.3168 15.9352 55.5 15.752 55.5 15.526V12.3888C55.5 12.1628 55.3168 11.9796 55.0908 11.9796H49.5013V8.36487H58.0265C58.2525 8.36487 58.4357 8.18166 58.4357 7.95566V4.81839C58.4357 4.59239 58.2525 4.40918 58.0265 4.40918H45.4092Z" fill="white"/>
    <path d="M37.3758 16.9569C37.5002 16.7888 37.726 16.7244 37.9133 16.8172L41.2824 18.4859C41.4939 18.5907 41.5738 18.8527 41.4471 19.0518C39.7162 21.7704 36.6758 23.5738 33.2142 23.5738C27.8279 23.5738 23.4614 19.2073 23.4614 13.821C23.4614 8.43466 27.8279 4.06818 33.2142 4.06818C36.7067 4.06818 39.7704 5.90389 41.493 8.66307C41.6173 8.8621 41.5369 9.12191 41.3267 9.22609L37.9267 10.911C37.7388 11.0041 37.5122 10.9389 37.388 10.7699C36.4385 9.47693 34.9073 8.63768 33.1801 8.63768C30.2986 8.63768 27.9627 10.9736 27.9627 13.8551C27.9627 16.7366 30.2986 19.0725 33.1801 19.0725C34.8999 19.0725 36.4253 18.2404 37.3758 16.9569Z" fill="white"/>
    <path fill-rule="evenodd" clip-rule="evenodd" d="M92.0723 22.8918C92.0723 23.1178 92.2555 23.301 92.4815 23.301H100.018C100.029 23.301 100.04 23.3011 100.052 23.301C101.281 23.2966 102.497 23.0523 103.633 22.582C104.779 22.1073 105.82 21.4115 106.697 20.5344C107.574 19.6572 108.27 18.6159 108.745 17.4699C109.219 16.3239 109.464 15.0956 109.464 13.8551C109.464 12.6146 109.219 11.3863 108.745 10.2403C108.27 9.09428 107.574 8.05297 106.697 7.17584C105.82 6.2987 104.779 5.60292 103.633 5.12822C102.497 4.65787 101.281 4.41364 100.052 4.4092C100.04 4.40916 100.029 4.4092 100.018 4.4092H92.4815C92.2555 4.4092 92.0723 4.59241 92.0723 4.81841V22.8918ZM100.018 8.8423H96.7782C96.6275 8.8423 96.5054 8.96443 96.5054 9.1151V18.5951C96.5054 18.7458 96.6275 18.8679 96.7782 18.8679H100.018V18.8656C100.676 18.8656 101.327 18.736 101.935 18.4842C102.543 18.2324 103.095 17.8633 103.561 17.3981C104.026 16.9328 104.395 16.3804 104.647 15.7725C104.899 15.1646 105.028 14.5131 105.028 13.8551C105.028 13.1971 104.899 12.5456 104.647 11.9377C104.395 11.3298 104.026 10.7774 103.561 10.3121C103.095 9.84687 102.543 9.4778 101.935 9.226C101.327 8.9742 100.676 8.8446 100.018 8.8446V8.8423Z" fill="white"/>
    <path fill-rule="evenodd" clip-rule="evenodd" d="M169.038 23.8466C174.443 23.8466 178.825 19.4038 178.825 13.9233C178.825 8.44282 174.443 4 169.038 4C163.633 4 159.251 8.44282 159.251 13.9233C159.251 19.4038 163.633 23.8466 169.038 23.8466ZM169.14 19.0725C172.041 19.0725 174.392 16.7213 174.392 13.821C174.392 10.9207 172.041 8.5695 169.14 8.5695C166.24 8.5695 163.889 10.9207 163.889 13.821C163.889 16.7213 166.24 19.0725 169.14 19.0725Z" fill="white"/>
    <path d="M181.484 4.81839C181.484 4.59239 181.668 4.40918 181.894 4.40918H191.169V4.41355C192.646 4.46784 194.041 5.02786 195.091 6.11422C196.197 7.25895 196.83 8.89432 196.83 10.5132C196.83 12.1321 196.208 13.6847 195.102 14.8294C194.501 15.4506 193.686 15.8263 192.894 16.1174C192.813 16.1471 192.779 16.2428 192.823 16.3167L196.63 22.6817C196.793 22.9545 196.596 23.301 196.279 23.301H191.924C191.774 23.301 191.636 23.2191 191.564 23.0876L188.456 17.3822C188.336 17.1629 188.107 17.0265 187.857 17.0265H186.872C186.496 17.0265 186.19 17.3318 186.19 17.7085V22.8236C186.19 23.0496 186.007 23.2328 185.781 23.2328H181.894C181.668 23.2328 181.484 23.0496 181.484 22.8236V12.8662C181.484 12.6402 181.666 12.457 181.892 12.457C183.654 12.457 190.534 12.457 190.623 12.457C190.726 12.457 190.93 12.3888 190.93 12.3888C191.408 12.1841 191.651 11.9936 191.919 11.5703C192.151 11.2059 192.255 10.9448 192.26 10.5132C192.266 10.0395 192.148 9.74794 191.885 9.35379C191.617 8.95232 191.203 8.70587 190.93 8.56947C190.657 8.43307 190.351 8.36487 189.703 8.36487C189.145 8.36487 183.468 8.36487 181.89 8.36487C181.664 8.36487 181.484 8.18166 181.484 7.95566V4.81839Z" fill="white"/>
</svg>

