<svg width="18" height="15" viewBox="0 0 18 15" fill="none" xmlns="http://www.w3.org/2000/svg">
<path d="M1.5 14.2467H16.5M8.33709 1.7846L5.91292 4.20878C5.54679 4.57489 4.95321 4.57489 4.58708 4.20878L3.10042 2.7221C2.50982 2.1315 1.5 2.54979 1.5 3.38502V10.4967C1.5 11.0145 1.91974 11.4342 2.4375 11.4342H15.5625C16.0803 11.4342 16.5 11.0145 16.5 10.4967V3.38501C16.5 2.54979 15.4902 2.1315 14.8996 2.7221L13.4129 4.20878C13.0468 4.57489 12.4532 4.57489 12.0871 4.20878L9.66291 1.7846C9.29681 1.41848 8.70319 1.41848 8.33709 1.7846Z" stroke="#FAFAFA" stroke-width="1.5" stroke-linecap="round" stroke-linejoin="round"/>
</svg>
