<svg width="26" height="20" viewBox="0 0 26 20" fill="none" xmlns="http://www.w3.org/2000/svg">
<g filter="url(#filter0_d_4594_8004)">
<path d="M12.3371 1.45111L9.91292 3.87528C9.54679 4.2414 8.95321 4.2414 8.58708 3.87528L7.10042 2.38861C6.50982 1.79801 5.5 2.21629 5.5 3.05152V10.1632C5.5 10.681 5.91974 11.1007 6.4375 11.1007H19.5625C20.0803 11.1007 20.5 10.681 20.5 10.1632V3.05151C20.5 2.21629 19.4902 1.79801 18.8996 2.38861L17.4129 3.87528C17.0468 4.2414 16.4532 4.2414 16.0871 3.87528L13.6629 1.45111C13.2968 1.08498 12.7032 1.08498 12.3371 1.45111Z" stroke="#FAFAFA" stroke-width="1.5" stroke-linecap="round" stroke-linejoin="round" shape-rendering="crispEdges"/>
</g>
<defs>
<filter id="filter0_d_4594_8004" x="0.75" y="0.426514" width="24.5" height="19.4241" filterUnits="userSpaceOnUse" color-interpolation-filters="sRGB">
<feFlood flood-opacity="0" result="BackgroundImageFix"/>
<feColorMatrix in="SourceAlpha" type="matrix" values="0 0 0 0 0 0 0 0 0 0 0 0 0 0 0 0 0 0 127 0" result="hardAlpha"/>
<feOffset dy="4"/>
<feGaussianBlur stdDeviation="2"/>
<feComposite in2="hardAlpha" operator="out"/>
<feColorMatrix type="matrix" values="0 0 0 0 0 0 0 0 0 0 0 0 0 0 0 0 0 0 0.25 0"/>
<feBlend mode="normal" in2="BackgroundImageFix" result="effect1_dropShadow_4594_8004"/>
<feBlend mode="normal" in="SourceGraphic" in2="effect1_dropShadow_4594_8004" result="shape"/>
</filter>
</defs>
</svg>
